<?xml version="1.0" encoding="utf-8"?>
<!DOCTYPE svg PUBLIC "-//W3C//DTD SVG 1.1//EN" "http://www.w3.org/Graphics/SVG/1.1/DTD/svg11.dtd">
<!--
	Recreated form UNPAR's main logo
	this might not be official,
	
	but hey, Made in Abyss is a real deal.
	Watch it here:
	https://animefrost.us/anime/made-in-abyss/

	Or Google it whenever the link expires.
-->
<svg version="1.1" xmlns="http://www.w3.org/2000/svg" xmlns:xlink="http://www.w3.org/1999/xlink" x="0px" y="0px" width="200px"
	 height="200px" viewBox="0 0 200 200" enable-background="new 0 0 200 200" xml:space="preserve">
<g id="Background">
	<g>
		<g>
			<path fill-rule="evenodd" clip-rule="evenodd" fill="#FFFFFF" stroke="#000000" stroke-width="2" d="M99.834,3.939
				c5.096,7.449,7.383,9.603,25.32,14.331c19.575,5.157,26.131,14.092,23.017,21.459c6.05-5.422,16.742-2.006,27.848,15.189
				c10.059,15.576,12.828,17.095,21.528,19.691l0.416-0.228l-0.225,0.286l0.352,0.103l-0.474,0.053
				c-5.552,7.057-6.908,9.868-5.891,28.275c1.139,20.563-5.727,29.388-13.994,28.158c7.91,3.617,8.416,15.057-5.26,31.582
				c-11.935,14.418-12.54,17.513-12.338,26.56l0.35,0.326l-0.344-0.125l0.008,0.365l-0.199-0.432
				c-8.538-3.058-11.668-3.466-29.033,3.206c-19.567,7.518-30.09,3.561-31.205-4.82c-1.118,8.382-11.639,12.338-31.206,4.82
				c-17.365-6.672-20.495-6.264-29.033-3.206l-0.196,0.432l0.008-0.365l-0.347,0.125l0.352-0.326
				c0.202-9.044-0.405-12.142-12.341-26.56c-13.652-16.496-13.17-27.925-5.303-31.563c-8.204,1.113-14.991-7.725-13.859-28.177
				c1.018-18.404-0.339-21.218-5.888-28.275l-0.477-0.053l0.353-0.103l-0.225-0.286l0.419,0.228
				c8.7-2.597,11.466-4.115,21.528-19.691c11.037-17.092,21.671-20.569,27.74-15.288c-3.016-7.346,3.567-16.228,23.052-21.361
				c17.94-4.728,20.227-6.882,25.323-14.331l-0.093-0.466l0.204,0.302l0.207-0.302L99.834,3.939z"/>
		</g>
		<g>
			<g>
				<polygon fill-rule="evenodd" clip-rule="evenodd" fill="none" points="91.874,48.678 96.024,45.36 100.171,47.848 
					104.321,45.36 108.054,48.262 112.62,46.189 115.938,49.92 120.917,48.678 123.821,53.238 128.801,51.995 130.876,56.556 
					136.268,56.972 137.514,61.948 142.493,61.948 143.322,67.338 148.302,68.584 148.302,73.56 152.865,75.632 152.451,80.609 
					156.601,83.097 155.356,88.074 159.505,91.392 157.431,96.368 161.164,100.102 158.26,104.249 161.164,108.396 158.26,112.127 
					160.335,116.69 156.601,120.422 158.26,124.985 154.11,128.303 154.94,132.863 150.792,134.938 150.792,140.328 
					145.813,142.403 145.813,147.379 140.418,148.209 139.173,153.185 134.196,153.599 132.121,158.162 127.142,157.746 
					124.651,161.893 119.672,161.064 116.768,164.797 112.204,163.139 108.471,166.87 103.905,164.381 99.758,167.286 
					95.608,164.381 91.458,166.87 87.724,163.139 83.161,164.797 79.841,161.064 74.861,161.893 72.786,157.746 67.394,158.162 
					65.732,153.185 60.756,153.185 59.51,148.209 54.531,146.963 54.115,141.573 49.552,140.328 49.552,135.351 44.989,132.863 
					45.818,127.886 41.668,124.985 43.327,120.422 39.593,116.69 42.084,112.127 38.764,108.396 41.668,104.249 38.764,99.686 
					42.914,95.955 40.423,90.978 44.573,88.074 42.914,83.097 47.893,80.609 47.064,75.632 52.04,73.56 51.627,68.168 
					57.019,67.338 57.435,61.948 62.828,61.532 63.66,56.556 69.469,56.556 71.128,51.995 76.52,52.825 79.011,48.262 83.99,49.92 
					87.308,46.189 				"/>
				<path d="M99.758,167.584c-0.06,0-0.12-0.018-0.171-0.054l-3.991-2.793l-3.984,2.389c-0.117,0.07-0.267,0.052-0.364-0.045
					l-3.599-3.596l-4.385,1.594c-0.115,0.042-0.243,0.009-0.325-0.082l-3.211-3.611l-4.817,0.803
					c-0.128,0.021-0.257-0.044-0.316-0.161l-1.985-3.968l-5.193,0.401c-0.134,0.007-0.262-0.073-0.306-0.203l-1.593-4.773h-4.762
					c-0.137,0-0.256-0.093-0.289-0.226l-1.202-4.803l-4.806-1.202c-0.124-0.031-0.215-0.138-0.225-0.266l-0.4-5.181l-4.36-1.19
					c-0.13-0.035-0.22-0.153-0.22-0.288v-4.8l-4.408-2.403c-0.112-0.061-0.172-0.186-0.151-0.311l0.798-4.791l-3.996-2.794
					c-0.111-0.077-0.155-0.219-0.109-0.346l1.594-4.385l-3.6-3.597c-0.094-0.094-0.114-0.238-0.051-0.354l2.39-4.379l-3.181-3.574
					c-0.092-0.103-0.101-0.256-0.022-0.37l2.79-3.984l-2.797-4.395c-0.078-0.123-0.056-0.284,0.052-0.382l3.981-3.579l-2.389-4.773
					c-0.066-0.132-0.025-0.293,0.096-0.378l3.968-2.777l-1.588-4.765c-0.047-0.141,0.017-0.295,0.149-0.361l4.782-2.39l-0.793-4.759
					c-0.023-0.137,0.052-0.271,0.18-0.324l4.777-1.989l-0.397-5.177c-0.012-0.155,0.098-0.294,0.252-0.317l5.159-0.794l0.398-5.154
					c0.011-0.147,0.128-0.263,0.274-0.274l5.16-0.398l0.794-4.746c0.024-0.144,0.148-0.249,0.294-0.249h5.6l1.588-4.364
					c0.049-0.134,0.186-0.214,0.325-0.193l5.186,0.798l2.391-4.379c0.069-0.127,0.219-0.186,0.356-0.14l4.793,1.597l3.187-3.584
					c0.092-0.103,0.243-0.13,0.366-0.064l4.392,2.394l3.995-3.194c0.098-0.078,0.233-0.086,0.339-0.023l3.994,2.396l3.997-2.396
					c0.106-0.063,0.239-0.055,0.336,0.02l3.592,2.791l4.402-1.998c0.118-0.054,0.259-0.024,0.346,0.073l3.198,3.596l4.804-1.199
					c0.125-0.031,0.255,0.021,0.324,0.129l2.789,4.379l4.771-1.191c0.141-0.035,0.284,0.035,0.344,0.166l2.002,4.4l5.217,0.403
					c0.128,0.01,0.235,0.1,0.266,0.225l1.189,4.751h4.747c0.147,0,0.272,0.107,0.295,0.253l0.799,5.194l4.787,1.197
					c0.133,0.033,0.226,0.152,0.226,0.289v4.785l4.388,1.993c0.115,0.052,0.184,0.171,0.174,0.296l-0.398,4.792l3.99,2.393
					c0.113,0.068,0.168,0.201,0.136,0.328l-1.199,4.791l4.001,3.198c0.104,0.083,0.14,0.225,0.089,0.348l-1.998,4.792l3.593,3.593
					c0.102,0.102,0.116,0.263,0.033,0.382l-2.784,3.976l2.784,3.976c0.075,0.108,0.071,0.251-0.009,0.354l-2.794,3.588l2,4.399
					c0.052,0.113,0.027,0.247-0.061,0.334l-3.6,3.597l1.594,4.385c0.043,0.12,0.006,0.255-0.094,0.335l-4.011,3.207l0.797,4.386
					c0.024,0.13-0.042,0.26-0.16,0.32l-3.982,1.992v5.206c0,0.12-0.072,0.229-0.184,0.275l-4.796,1.998v4.778
					c0,0.147-0.108,0.272-0.253,0.295l-5.2,0.799l-1.197,4.784c-0.031,0.124-0.137,0.214-0.264,0.225l-4.802,0.399l-2.003,4.404
					c-0.052,0.115-0.166,0.187-0.296,0.174l-4.794-0.401l-2.396,3.988c-0.063,0.105-0.183,0.161-0.304,0.141l-4.804-0.8
					l-2.795,3.593c-0.079,0.102-0.215,0.141-0.337,0.097l-4.385-1.594l-3.599,3.596c-0.094,0.094-0.238,0.114-0.353,0.051
					l-4.404-2.4l-3.996,2.798C99.877,167.566,99.817,167.584,99.758,167.584z M95.608,164.083c0.06,0,0.12,0.018,0.171,0.054
					l3.979,2.784l3.976-2.784c0.093-0.065,0.215-0.072,0.314-0.017l4.371,2.381l3.576-3.573c0.082-0.082,0.205-0.109,0.313-0.069
					l4.36,1.584l2.771-3.562c0.068-0.087,0.177-0.129,0.284-0.111l4.779,0.797l2.387-3.973c0.058-0.097,0.165-0.155,0.28-0.144
					l4.77,0.399l1.988-4.372c0.045-0.098,0.139-0.165,0.247-0.174l4.763-0.396l1.194-4.769c0.029-0.116,0.125-0.204,0.244-0.222
					l5.143-0.79v-4.721c0-0.12,0.072-0.229,0.184-0.275l4.796-1.998v-5.191c0-0.113,0.064-0.216,0.165-0.267l3.947-1.974
					l-0.789-4.341c-0.019-0.108,0.022-0.218,0.107-0.286l3.983-3.184l-1.586-4.362c-0.04-0.109-0.012-0.231,0.07-0.313l3.587-3.585
					l-1.989-4.375c-0.046-0.101-0.032-0.219,0.036-0.307l2.769-3.557l-2.778-3.967c-0.072-0.103-0.072-0.24,0-0.342l2.761-3.942
					l-3.557-3.557c-0.085-0.085-0.111-0.214-0.064-0.326l1.988-4.769l-3.975-3.177c-0.091-0.073-0.131-0.192-0.103-0.305
					l1.192-4.762l-3.96-2.375c-0.097-0.058-0.153-0.167-0.144-0.28l0.396-4.767l-4.372-1.985c-0.106-0.049-0.175-0.155-0.175-0.272
					v-4.744l-4.753-1.189c-0.116-0.029-0.204-0.125-0.222-0.244l-0.79-5.137h-4.723c-0.137,0-0.256-0.093-0.289-0.226l-1.194-4.768
					l-5.178-0.399c-0.108-0.008-0.203-0.075-0.248-0.174l-1.972-4.335l-4.739,1.183c-0.123,0.032-0.255-0.021-0.324-0.129
					l-2.789-4.379l-4.77,1.191c-0.109,0.027-0.221-0.008-0.295-0.091l-3.172-3.567l-4.365,1.982
					c-0.101,0.045-0.219,0.032-0.306-0.036l-3.573-2.777l-3.975,2.383c-0.095,0.057-0.212,0.057-0.307,0l-3.969-2.382L92.06,48.91
					c-0.094,0.075-0.224,0.086-0.329,0.029l-4.358-2.375l-3.16,3.554c-0.079,0.089-0.204,0.122-0.317,0.085l-4.743-1.58
					l-2.372,4.344c-0.06,0.11-0.184,0.171-0.307,0.152l-5.151-0.792l-1.575,4.331c-0.043,0.118-0.155,0.196-0.28,0.196h-5.556
					l-0.791,4.727c-0.023,0.135-0.135,0.238-0.271,0.248l-5.138,0.397l-0.396,5.135c-0.01,0.138-0.115,0.251-0.252,0.272
					l-5.12,0.787l0.392,5.117c0.01,0.128-0.064,0.248-0.183,0.298l-4.758,1.981l0.791,4.743c0.022,0.129-0.044,0.257-0.161,0.316
					l-4.748,2.373l1.577,4.731c0.042,0.125-0.004,0.263-0.112,0.339l-3.939,2.757l2.376,4.747c0.06,0.12,0.032,0.265-0.067,0.355
					l-3.962,3.562l2.769,4.35c0.065,0.102,0.062,0.232-0.007,0.331l-2.769,3.954l3.164,3.555c0.084,0.094,0.099,0.231,0.039,0.341
					l-2.384,4.367l3.576,3.574c0.082,0.082,0.109,0.204,0.069,0.313l-1.581,4.348l3.962,2.771c0.094,0.066,0.142,0.18,0.123,0.293
					l-0.794,4.768l4.377,2.387c0.096,0.052,0.155,0.153,0.155,0.262v4.749l4.343,1.185c0.122,0.033,0.209,0.139,0.219,0.265
					l0.399,5.176l4.771,1.193c0.107,0.027,0.19,0.11,0.217,0.217l1.189,4.751h4.744c0.128,0,0.242,0.082,0.283,0.204l1.588,4.756
					l5.161-0.398c0.123-0.008,0.235,0.056,0.29,0.164l1.976,3.95l4.762-0.794c0.101-0.016,0.204,0.019,0.272,0.096l3.186,3.582
					l4.373-1.589c0.108-0.04,0.231-0.013,0.313,0.069l3.569,3.566l3.95-2.368C95.502,164.097,95.555,164.083,95.608,164.083z"/>
			</g>
			<g>
				<g>
					<path d="M100.171,75.517c-0.165,0-0.298-0.134-0.298-0.298V47.848c0-0.165,0.134-0.298,0.298-0.298
						c0.165,0,0.298,0.134,0.298,0.298v27.371C100.469,75.384,100.335,75.517,100.171,75.517z"/>
				</g>
				<g>
					<path d="M104.321,75.517c-0.014,0-0.028-0.001-0.041-0.003c-0.163-0.023-0.277-0.173-0.255-0.336l3.734-26.958
						c0.023-0.163,0.175-0.278,0.336-0.254c0.163,0.023,0.277,0.173,0.255,0.336l-3.734,26.958
						C104.595,75.409,104.467,75.517,104.321,75.517z"/>
				</g>
				<g>
					<path d="M108.884,76.347c-0.026,0-0.052-0.003-0.078-0.01c-0.159-0.043-0.253-0.207-0.21-0.366l7.054-26.128
						c0.043-0.159,0.206-0.252,0.365-0.21c0.159,0.043,0.253,0.207,0.21,0.366l-7.054,26.128
						C109.136,76.259,109.015,76.347,108.884,76.347z"/>
				</g>
				<g>
					<path d="M112.62,77.59c-0.042,0-0.085-0.009-0.126-0.028c-0.149-0.069-0.214-0.247-0.144-0.396l11.201-24.053
						c0.07-0.15,0.247-0.214,0.396-0.144c0.149,0.069,0.214,0.247,0.144,0.396L112.89,77.417
						C112.84,77.526,112.732,77.59,112.62,77.59z"/>
				</g>
				<g>
					<path d="M116.767,80.078c-0.053,0-0.106-0.014-0.155-0.043c-0.141-0.086-0.186-0.269-0.1-0.41l14.108-23.224
						c0.085-0.141,0.268-0.186,0.41-0.1c0.141,0.086,0.186,0.269,0.1,0.41l-14.108,23.224
						C116.966,80.027,116.868,80.078,116.767,80.078z"/>
				</g>
				<g>
					<path d="M120.088,82.153c-0.07,0-0.14-0.024-0.196-0.074c-0.124-0.109-0.136-0.297-0.028-0.421l17.426-19.906
						c0.109-0.124,0.297-0.136,0.421-0.028c0.124,0.109,0.136,0.297,0.028,0.421l-17.426,19.906
						C120.253,82.118,120.17,82.153,120.088,82.153z"/>
				</g>
				<g>
					<path d="M95.607,74.688c-0.146,0-0.273-0.107-0.295-0.255L91.579,48.72c-0.024-0.163,0.089-0.314,0.252-0.338
						c0.161-0.026,0.314,0.089,0.338,0.252l3.734,25.712c0.024,0.163-0.089,0.314-0.252,0.338
						C95.636,74.687,95.622,74.688,95.607,74.688z"/>
				</g>
				<g>
					<path d="M91.044,75.931c-0.13,0-0.25-0.086-0.287-0.218l-7.054-25.296c-0.044-0.159,0.049-0.323,0.207-0.367
						c0.157-0.045,0.323,0.049,0.367,0.207l7.054,25.296c0.044,0.159-0.049,0.323-0.207,0.367
						C91.098,75.927,91.071,75.931,91.044,75.931z"/>
				</g>
				<g>
					<path d="M87.308,77.59c-0.114,0-0.223-0.065-0.272-0.176L76.248,53.36c-0.068-0.15,0-0.327,0.15-0.394
						c0.151-0.068,0.326,0,0.394,0.15L87.58,77.169c0.068,0.15,0,0.327-0.15,0.394C87.391,77.581,87.349,77.59,87.308,77.59z"/>
				</g>
				<g>
					<path d="M83.991,80.078c-0.098,0-0.194-0.048-0.251-0.137L68.802,56.717c-0.089-0.139-0.049-0.323,0.089-0.412
						c0.138-0.089,0.323-0.049,0.412,0.089l14.938,23.224c0.089,0.139,0.049,0.323-0.089,0.412
						C84.102,80.062,84.046,80.078,83.991,80.078z"/>
				</g>
				<g>
					<path d="M79.841,82.153c-0.085,0-0.17-0.036-0.229-0.107L62.599,61.723c-0.106-0.126-0.089-0.314,0.037-0.42
						c0.126-0.106,0.314-0.089,0.42,0.037l17.013,20.322c0.106,0.126,0.089,0.314-0.037,0.42
						C79.976,82.13,79.908,82.153,79.841,82.153z"/>
				</g>
				<g>
					<path d="M77.352,85.47c-0.07,0-0.14-0.024-0.196-0.074L56.823,67.562c-0.124-0.109-0.136-0.297-0.028-0.421
						c0.109-0.124,0.297-0.136,0.421-0.028l20.333,17.834c0.124,0.109,0.136,0.297,0.028,0.421
						C77.517,85.436,77.435,85.47,77.352,85.47z"/>
				</g>
				<g>
					<path d="M74.448,89.201c-0.058,0-0.117-0.017-0.168-0.052L51.872,73.806c-0.136-0.093-0.171-0.279-0.077-0.414
						c0.093-0.136,0.278-0.171,0.414-0.077l22.408,15.343c0.136,0.093,0.171,0.279,0.077,0.414
						C74.636,89.156,74.543,89.201,74.448,89.201z"/>
				</g>
				<g>
					<path d="M72.786,93.349c-0.045,0-0.09-0.01-0.133-0.031L47.76,80.876c-0.147-0.074-0.207-0.253-0.133-0.4
						c0.074-0.147,0.253-0.206,0.4-0.133L72.92,92.784c0.147,0.074,0.207,0.253,0.133,0.4
						C73.001,93.288,72.896,93.349,72.786,93.349z"/>
				</g>
				<g>
					<path d="M70.712,97.082c-0.031,0-0.063-0.005-0.094-0.015l-26.139-8.71c-0.156-0.052-0.241-0.221-0.188-0.377
						c0.052-0.156,0.22-0.241,0.377-0.188l26.139,8.71c0.156,0.052,0.241,0.221,0.188,0.377
						C70.953,97.003,70.836,97.082,70.712,97.082z"/>
				</g>
				<g>
					<path d="M69.883,101.23c-0.018,0-0.036-0.002-0.055-0.005L42.86,96.248c-0.162-0.03-0.269-0.185-0.239-0.347
						c0.03-0.162,0.183-0.27,0.347-0.239l26.968,4.977c0.162,0.03,0.269,0.185,0.239,0.347
						C70.149,101.129,70.024,101.23,69.883,101.23z"/>
				</g>
				<g>
					<path d="M69.053,105.377c-0.004,0-0.009,0-0.014,0l-27.385-1.245c-0.164-0.007-0.292-0.147-0.284-0.311
						c0.007-0.164,0.142-0.293,0.311-0.284l27.385,1.245c0.164,0.007,0.292,0.147,0.284,0.311
						C69.343,105.252,69.211,105.377,69.053,105.377z"/>
				</g>
				<g>
					<path d="M41.668,112.425c-0.153,0-0.283-0.117-0.297-0.272c-0.015-0.164,0.107-0.309,0.271-0.323l28.214-2.488
						c0.166-0.013,0.309,0.107,0.323,0.271c0.015,0.164-0.107,0.309-0.271,0.323l-28.214,2.488
						C41.686,112.425,41.677,112.425,41.668,112.425z"/>
				</g>
				<g>
					<path d="M43.327,120.72c-0.134,0-0.255-0.09-0.289-0.226c-0.04-0.16,0.057-0.321,0.217-0.361l26.555-6.635
						c0.16-0.042,0.322,0.057,0.361,0.217c0.04,0.16-0.057,0.321-0.217,0.361L43.4,120.711
						C43.375,120.717,43.351,120.72,43.327,120.72z"/>
				</g>
				<g>
					<path d="M45.818,128.185c-0.118,0-0.23-0.071-0.277-0.187c-0.062-0.153,0.012-0.326,0.165-0.388l25.726-10.366
						c0.153-0.061,0.326,0.012,0.388,0.165c0.062,0.153-0.012,0.326-0.165,0.388L45.93,128.163
						C45.893,128.178,45.855,128.185,45.818,128.185z"/>
				</g>
				<g>
					<path d="M49.136,135.65c-0.103,0-0.203-0.053-0.258-0.149c-0.082-0.143-0.034-0.325,0.109-0.408l23.651-13.684
						c0.142-0.082,0.325-0.034,0.407,0.109c0.082,0.143,0.034,0.325-0.109,0.408L49.285,135.61
						C49.238,135.637,49.187,135.65,49.136,135.65z"/>
				</g>
				<g>
					<path d="M54.115,142.285c-0.089,0-0.178-0.04-0.237-0.116c-0.1-0.13-0.076-0.318,0.055-0.418l21.576-16.588
						c0.131-0.1,0.318-0.076,0.418,0.055s0.076,0.318-0.055,0.418l-21.576,16.588C54.243,142.265,54.179,142.285,54.115,142.285z"/>
				</g>
				<g>
					<path d="M59.51,148.507c-0.074,0-0.148-0.028-0.206-0.083c-0.119-0.114-0.123-0.302-0.009-0.422l19.085-19.906
						c0.114-0.12,0.302-0.123,0.422-0.009c0.119,0.114,0.123,0.302,0.009,0.422l-19.085,19.906
						C59.667,148.476,59.589,148.507,59.51,148.507z"/>
				</g>
				<g>
					<path d="M65.732,153.483c-0.061,0-0.122-0.018-0.175-0.057c-0.133-0.096-0.163-0.283-0.067-0.416l16.183-22.394
						c0.096-0.134,0.283-0.164,0.416-0.067c0.133,0.096,0.163,0.283,0.067,0.416L65.974,153.36
						C65.916,153.441,65.825,153.483,65.732,153.483z"/>
				</g>
				<g>
					<path d="M72.786,158.044c-0.047,0-0.094-0.011-0.138-0.034c-0.146-0.076-0.202-0.257-0.125-0.403l13.279-25.296
						c0.076-0.146,0.257-0.202,0.403-0.125c0.146,0.076,0.202,0.257,0.125,0.403L73.05,157.884
						C72.997,157.986,72.893,158.044,72.786,158.044z"/>
				</g>
				<g>
					<path d="M80.257,160.948c-0.034,0-0.069-0.006-0.102-0.018c-0.155-0.056-0.234-0.227-0.178-0.382l9.542-26.128
						c0.056-0.155,0.228-0.235,0.382-0.178c0.155,0.056,0.234,0.227,0.178,0.382l-9.542,26.128
						C80.493,160.873,80.378,160.948,80.257,160.948z"/>
				</g>
				<g>
					<path d="M87.724,163.437c-0.022,0-0.044-0.002-0.066-0.007c-0.161-0.036-0.261-0.196-0.225-0.357l6.224-27.372
						c0.036-0.161,0.194-0.261,0.357-0.225c0.161,0.036,0.261,0.196,0.225,0.357l-6.224,27.372
						C87.984,163.343,87.861,163.437,87.724,163.437z"/>
				</g>
				<g>
					<path d="M95.608,164.68c-0.009,0-0.018,0-0.027-0.001c-0.164-0.015-0.285-0.16-0.27-0.324l2.488-27.785
						c0.015-0.164,0.157-0.286,0.324-0.27c0.164,0.015,0.285,0.16,0.27,0.324l-2.488,27.785
						C95.891,164.563,95.761,164.68,95.608,164.68z"/>
				</g>
				<g>
					<path d="M103.904,164.68c-0.157,0-0.289-0.123-0.297-0.283c-0.557-10.653-1.445-26.706-1.633-27.677
						c-0.017-0.037-0.026-0.079-0.026-0.123c0-0.165,0.134-0.298,0.298-0.298c0.351,0,0.351,0,0.644,4.621
						c0.146,2.305,0.335,5.52,0.561,9.553c0.389,6.947,0.752,13.893,0.752,13.893c0.009,0.164-0.118,0.305-0.282,0.313
						C103.915,164.68,103.91,164.68,103.904,164.68z"/>
				</g>
				<g>
					<path d="M112.204,163.437c-0.135,0-0.258-0.093-0.29-0.231l-6.225-26.958c-0.037-0.16,0.063-0.321,0.223-0.358
						c0.158-0.038,0.32,0.063,0.358,0.223l6.225,26.958c0.037,0.16-0.063,0.321-0.223,0.358
						C112.249,163.435,112.226,163.437,112.204,163.437z"/>
				</g>
				<g>
					<path d="M120.088,161.361c-0.119,0-0.232-0.072-0.278-0.189l-10.372-26.542c-0.06-0.154,0.016-0.326,0.169-0.386
						c0.154-0.06,0.327,0.016,0.386,0.169l10.372,26.542c0.06,0.154-0.016,0.326-0.169,0.386
						C120.161,161.355,120.124,161.361,120.088,161.361z"/>
				</g>
				<g>
					<path d="M127.142,157.631c-0.106,0-0.208-0.056-0.262-0.156l-13.279-24.469c-0.078-0.144-0.025-0.326,0.12-0.404
						c0.145-0.078,0.326-0.025,0.404,0.12l13.279,24.469c0.078,0.144,0.025,0.326-0.12,0.404
						C127.239,157.619,127.19,157.631,127.142,157.631z"/>
				</g>
				<g>
					<path d="M134.197,153.897c-0.092,0-0.183-0.043-0.241-0.123l-16.599-22.808c-0.097-0.133-0.068-0.32,0.066-0.417
						c0.133-0.097,0.32-0.067,0.417,0.066l16.599,22.808c0.097,0.133,0.068,0.32-0.066,0.417
						C134.319,153.878,134.257,153.897,134.197,153.897z"/>
				</g>
				<g>
					<path d="M140.418,148.091c-0.076,0-0.153-0.029-0.211-0.087l-19.501-19.49c-0.116-0.116-0.116-0.305,0-0.422
						c0.116-0.116,0.305-0.117,0.422,0l19.501,19.49c0.116,0.116,0.116,0.305,0,0.422
						C140.57,148.062,140.494,148.091,140.418,148.091z"/>
				</g>
				<g>
					<path d="M146.226,142.701c-0.063,0-0.127-0.02-0.182-0.062l-23.651-18.247c-0.13-0.101-0.155-0.288-0.054-0.418
						c0.1-0.13,0.287-0.155,0.418-0.054l23.651,18.247c0.13,0.101,0.155,0.288,0.054,0.418
						C146.404,142.661,146.316,142.701,146.226,142.701z"/>
				</g>
				<g>
					<path d="M150.792,135.236c-0.049,0-0.098-0.012-0.143-0.037l-24.896-13.687c-0.144-0.079-0.197-0.26-0.118-0.405
						c0.079-0.144,0.261-0.198,0.405-0.118l24.896,13.687c0.144,0.079,0.197,0.26,0.118,0.405
						C150.999,135.18,150.897,135.236,150.792,135.236z"/>
				</g>
				<g>
					<path d="M154.11,128.601c-0.038,0-0.076-0.007-0.114-0.023l-26.139-10.782c-0.152-0.063-0.225-0.237-0.162-0.389
						c0.063-0.152,0.238-0.224,0.389-0.162l26.139,10.782c0.152,0.063,0.225,0.237,0.162,0.389
						C154.338,128.531,154.227,128.601,154.11,128.601z"/>
				</g>
				<g>
					<path d="M156.601,120.72c-0.024,0-0.049-0.003-0.074-0.009l-27.801-7.049c-0.16-0.04-0.256-0.203-0.215-0.362
						c0.04-0.16,0.202-0.258,0.362-0.215l27.801,7.049c0.16,0.04,0.256,0.203,0.215,0.362
						C156.856,120.63,156.735,120.72,156.601,120.72z"/>
				</g>
				<g>
					<path d="M158.261,112.425c-0.01,0-0.019,0-0.029-0.002l-29.876-2.902c-0.164-0.016-0.284-0.161-0.268-0.325
						c0.016-0.164,0.163-0.288,0.325-0.268l29.876,2.902c0.164,0.016,0.284,0.161,0.268,0.325
						C158.542,112.31,158.412,112.425,158.261,112.425z"/>
				</g>
				<g>
					<path d="M130.46,105.377c-0.161,0-0.293-0.128-0.298-0.289c-0.005-0.165,0.125-0.302,0.289-0.307l27.801-0.83
						c0.003,0,0.006,0,0.009,0c0.161,0,0.293,0.128,0.298,0.289c0.005,0.165-0.125,0.302-0.289,0.307l-27.801,0.83
						C130.465,105.377,130.462,105.377,130.46,105.377z"/>
				</g>
				<g>
					<path d="M130.046,100.814c-0.145,0-0.272-0.106-0.294-0.254c-0.025-0.163,0.087-0.315,0.25-0.339l27.384-4.148
						c0.163-0.023,0.315,0.088,0.339,0.25c0.025,0.163-0.087,0.315-0.25,0.339l-27.384,4.147
						C130.076,100.813,130.061,100.814,130.046,100.814z"/>
				</g>
				<g>
					<path d="M129.217,97.082c-0.125,0-0.241-0.079-0.283-0.204c-0.052-0.156,0.033-0.325,0.189-0.377l26.139-8.71
						c0.158-0.054,0.325,0.033,0.377,0.188c0.052,0.156-0.033,0.325-0.189,0.377l-26.139,8.71
						C129.28,97.078,129.248,97.082,129.217,97.082z"/>
				</g>
				<g>
					<path d="M127.142,93.349c-0.11,0-0.216-0.061-0.268-0.167c-0.073-0.148-0.012-0.326,0.136-0.399l25.309-12.441
						c0.149-0.074,0.327-0.012,0.399,0.136c0.073,0.148,0.012,0.326-0.136,0.399l-25.309,12.441
						C127.231,93.339,127.186,93.349,127.142,93.349z"/>
				</g>
				<g>
					<path d="M124.238,90.031c-0.096,0-0.19-0.046-0.248-0.132c-0.092-0.137-0.056-0.322,0.081-0.414l24.064-16.173
						c0.137-0.092,0.322-0.055,0.413,0.081c0.092,0.137,0.056,0.322-0.081,0.414L124.404,89.98
						C124.353,90.015,124.295,90.031,124.238,90.031z"/>
				</g>
				<g>
					<path d="M122.992,85.47c-0.082,0-0.163-0.034-0.222-0.099c-0.11-0.123-0.099-0.311,0.023-0.421l19.917-17.834
						c0.122-0.11,0.311-0.099,0.421,0.023c0.11,0.123,0.099,0.311-0.023,0.421l-19.917,17.834
						C123.134,85.445,123.063,85.47,122.992,85.47z"/>
				</g>
			</g>
		</g>
		<g>
			<path fill-rule="evenodd" clip-rule="evenodd" fill="#FFFFFF" d="M140.315,130.012c-30.694,13.984-54.464,12.012-80.889-0.045
				l-0.358-0.188c2.766-28.892,13.027-50.966,40.69-70.735h0.053c27.66,19.768,38.024,41.895,40.79,70.788L140.315,130.012z
				 M49.555,135.346c31.992,18.928,67.629,18.216,100.377,0.058l-0.064-0.04l0.093-0.013l-0.01-0.04l0.063,0.04
				c0.416-37.046-17.98-67.597-50.203-87.09h-0.053C67.532,67.754,49.141,98.297,49.555,135.346z"/>
			<path d="M99.015,149.681c-0.002,0-0.003,0-0.005,0c-17.259-0.001-33.966-4.709-49.658-13.993
				c-0.12-0.071-0.194-0.199-0.195-0.338c-0.407-36.476,17.49-67.526,50.395-87.429c0.062-0.038,0.133-0.057,0.206-0.057h0.053
				c0.073,0,0.144,0.02,0.206,0.057c32.907,19.907,50.804,50.958,50.395,87.434c-0.002,0.144-0.081,0.276-0.208,0.345
				c-0.006,0.003-0.012,0.006-0.018,0.009c-0.019,0.016-0.04,0.03-0.061,0.042C133.455,144.994,116.259,149.681,99.015,149.681z
				 M49.95,135.118c15.511,9.135,32.017,13.767,49.06,13.768c0.001,0,0.004,0,0.005,0c17.031,0,34.02-4.611,50.501-13.706
				c0.026-0.049,0.061-0.091,0.104-0.125c0.307-35.991-17.38-66.638-49.835-86.344C67.312,68.425,49.623,99.098,49.95,135.118z
				 M99.785,140.166c-12.937,0-25.813-3.126-40.524-9.838l-0.378-0.198c-0.143-0.075-0.226-0.229-0.211-0.39
				c1.488-15.538,5.001-27.912,11.056-38.942c6.555-11.941,16.302-22.433,29.798-32.078c0.068-0.048,0.148-0.074,0.231-0.074h0.053
				c0.083,0,0.164,0.026,0.231,0.074c25.695,18.364,37.943,39.619,40.955,71.073c0.014,0.15-0.057,0.295-0.184,0.375l-0.286,0.18
				c-0.015,0.009-0.031,0.018-0.047,0.025C126.015,136.963,112.703,140.166,99.785,140.166z M59.489,129.551l0.121,0.064
				c14.584,6.654,27.356,9.757,40.174,9.757c12.796,0,25.991-3.176,40.341-9.71l0.056-0.035
				c-3.02-30.983-15.116-51.977-40.397-70.112C74.58,77.592,62.514,98.565,59.489,129.551z"/>
		</g>
		<g>
			<ellipse fill-rule="evenodd" clip-rule="evenodd" fill="#FFFFFF" cx="99.757" cy="106.321" rx="33.193" ry="33.177"/>
			<path d="M99.758,139.896c-18.522,0-33.591-15.062-33.591-33.575c0-18.513,15.069-33.575,33.591-33.575
				c18.522,0,33.59,15.062,33.59,33.575C133.348,124.835,118.279,139.896,99.758,139.896z M99.758,73.542
				c-18.083,0-32.796,14.705-32.796,32.78c0,18.075,14.712,32.78,32.796,32.78s32.795-14.705,32.795-32.78
				C132.553,88.247,117.841,73.542,99.758,73.542z"/>
		</g>
		<g>
			<g>
				<g>
					<polygon fill-rule="evenodd" clip-rule="evenodd" points="99.758,73.56 95.608,78.121 103.905,134.522 100.171,139.085 
						95.608,134.938 103.905,78.121 					"/>
				</g>
				<g>
					<polygon fill-rule="evenodd" clip-rule="evenodd" fill="#FFFFFF" points="99.758,75.839 98.202,77.395 99.808,80.609 
						101.313,77.448 					"/>
				</g>
				<g>
					<polygon fill-rule="evenodd" clip-rule="evenodd" fill="#FFFFFF" points="99.758,137.01 98.202,135.455 99.808,132.243 
						101.313,135.404 					"/>
				</g>
			</g>
			<g>
				<g>
					<polygon fill-rule="evenodd" clip-rule="evenodd" points="76.52,83.097 76.852,89.235 122.661,123.411 123.284,129.257 
						117.146,129.508 82.66,83.429 					"/>
				</g>
				<g>
					<polygon fill-rule="evenodd" clip-rule="evenodd" fill="#FFFFFF" points="78.139,84.714 78.153,86.905 81.558,88.058 
						80.368,84.764 					"/>
				</g>
				<g>
					<polygon fill-rule="evenodd" clip-rule="evenodd" fill="#FFFFFF" points="121.521,128.077 119.33,128.061 118.175,124.659 
						121.471,125.849 					"/>
				</g>
			</g>
			<g>
				<g>
					<polygon fill-rule="evenodd" clip-rule="evenodd" points="66.978,106.321 71.52,110.397 128.12,102.021 132.768,105.728 
						128.57,110.286 71.491,102.222 					"/>
				</g>
				<g>
					<polygon fill-rule="evenodd" clip-rule="evenodd" fill="#FFFFFF" points="69.241,106.316 70.791,107.845 73.979,106.252 
						70.831,104.779 					"/>
				</g>
				<g>
					<polygon fill-rule="evenodd" clip-rule="evenodd" fill="#FFFFFF" points="130.661,106.146 129.087,107.702 125.82,106.109 
						129.023,104.602 					"/>
				</g>
			</g>
			<g>
				<g>
					<polygon fill-rule="evenodd" clip-rule="evenodd" points="76.605,129.63 82.53,129.347 116.696,83.201 122.664,82.538 
						122.756,88.98 76.841,123.673 					"/>
				</g>
				<g>
					<polygon fill-rule="evenodd" clip-rule="evenodd" fill="#FFFFFF" points="78.147,128.075 80.265,128.075 81.348,124.77 
						78.169,125.912 					"/>
				</g>
				<g>
					<polygon fill-rule="evenodd" clip-rule="evenodd" fill="#FFFFFF" points="121.415,84.396 121.346,86.696 117.864,87.907 
						119.15,84.451 					"/>
				</g>
			</g>
		</g>
		<g>
			<g>
				<polygon fill-rule="evenodd" clip-rule="evenodd" fill="#FFFFFF" points="99.964,81.025 104.074,84.139 109.027,82.726 
					111.74,87.125 116.865,87.605 117.814,92.69 122.42,95.001 121.479,100.089 124.942,103.915 122.237,108.317 124.092,113.142 
					119.987,116.264 119.982,121.439 115.034,122.86 113.169,127.683 108.044,127.208 104.572,131.029 99.964,128.726 
					95.356,131.029 91.885,127.208 86.76,127.683 84.894,122.86 79.947,121.439 79.941,116.264 75.837,113.142 77.692,108.317 
					74.986,103.915 78.449,100.089 77.509,95.001 82.114,92.69 83.063,87.605 88.188,87.125 90.901,82.726 95.854,84.139 				"/>
				<path d="M104.572,131.626c-0.09,0-0.181-0.021-0.266-0.063l-4.341-2.17l-4.342,2.17c-0.239,0.119-0.528,0.065-0.708-0.132
					l-3.271-3.601l-4.829,0.447c-0.265,0.029-0.515-0.13-0.611-0.379l-1.759-4.547l-4.663-1.339
					c-0.255-0.073-0.432-0.307-0.432-0.572l-0.005-4.881l-3.87-2.942c-0.211-0.161-0.291-0.441-0.196-0.689l1.749-4.55l-2.551-4.151
					c-0.139-0.226-0.112-0.516,0.066-0.712l3.266-3.608l-0.887-4.798c-0.048-0.261,0.082-0.523,0.319-0.642l4.341-2.178l0.894-4.794
					c0.049-0.262,0.266-0.46,0.531-0.484l4.829-0.452l2.557-4.146c0.14-0.227,0.414-0.334,0.671-0.26l4.667,1.331l3.873-2.934
					c0.213-0.161,0.507-0.161,0.72,0l3.872,2.934l4.667-1.331c0.256-0.074,0.531,0.033,0.671,0.26l2.558,4.146l4.829,0.452
					c0.265,0.025,0.482,0.223,0.531,0.484l0.894,4.794l4.341,2.178c0.237,0.119,0.367,0.38,0.319,0.642l-0.887,4.798l3.266,3.608
					c0.178,0.196,0.205,0.487,0.066,0.712l-2.551,4.151l1.749,4.55c0.095,0.247,0.015,0.528-0.196,0.689l-3.87,2.942l-0.005,4.881
					c0,0.266-0.176,0.499-0.432,0.572l-4.663,1.339l-1.759,4.547c-0.096,0.248-0.344,0.406-0.611,0.379l-4.828-0.447l-3.271,3.601
					C104.898,131.558,104.736,131.626,104.572,131.626z M99.964,128.13c0.091,0,0.183,0.021,0.267,0.063l4.204,2.101l3.167-3.487
					c0.126-0.139,0.308-0.212,0.497-0.193l4.676,0.433l1.703-4.403c0.068-0.174,0.212-0.307,0.392-0.358l4.516-1.296l0.005-4.727
					c0-0.186,0.087-0.361,0.235-0.474l3.749-2.85l-1.695-4.408c-0.066-0.174-0.049-0.368,0.049-0.526l2.471-4.021l-3.164-3.495
					c-0.125-0.138-0.178-0.326-0.144-0.509l0.86-4.647l-4.205-2.11c-0.167-0.084-0.285-0.24-0.319-0.424l-0.866-4.643l-4.677-0.438
					c-0.186-0.017-0.354-0.122-0.452-0.281l-2.477-4.015l-4.519,1.288c-0.18,0.051-0.374,0.015-0.524-0.098l-3.75-2.841l-3.75,2.841
					c-0.149,0.113-0.344,0.149-0.524,0.098l-4.519-1.288l-2.476,4.015c-0.098,0.159-0.266,0.263-0.452,0.281l-4.677,0.438
					l-0.866,4.643c-0.034,0.183-0.152,0.34-0.319,0.424l-4.206,2.11l0.86,4.647c0.034,0.183-0.02,0.371-0.144,0.509l-3.164,3.495
					l2.472,4.021c0.097,0.158,0.115,0.352,0.049,0.526l-1.694,4.408l3.748,2.85c0.148,0.113,0.235,0.288,0.235,0.474l0.005,4.727
					l4.516,1.296c0.179,0.051,0.324,0.184,0.392,0.358l1.703,4.403l4.676-0.433c0.189-0.02,0.37,0.054,0.496,0.193l3.168,3.487
					l4.204-2.101C99.781,128.151,99.873,128.13,99.964,128.13z"/>
			</g>
		</g>
		<g>
			<g>
				<path d="M97.266,93.349c-0.147,0-0.275-0.108-0.295-0.258l-1.243-9.124c-0.022-0.163,0.092-0.313,0.255-0.336
					c0.162-0.023,0.313,0.092,0.336,0.255l1.243,9.124c0.022,0.163-0.092,0.313-0.255,0.336
					C97.293,93.348,97.279,93.349,97.266,93.349z"/>
			</g>
			<g>
				<path d="M102.662,92.935c-0.015,0-0.03-0.001-0.045-0.003c-0.163-0.024-0.275-0.176-0.251-0.339l1.243-8.294
					c0.025-0.163,0.174-0.276,0.339-0.251c0.163,0.024,0.275,0.176,0.251,0.339l-1.243,8.294
					C102.934,92.829,102.807,92.935,102.662,92.935z"/>
			</g>
			<g>
				<path d="M108.054,94.594c-0.047,0-0.095-0.011-0.139-0.035c-0.146-0.077-0.201-0.257-0.124-0.403l3.734-7.052
					c0.077-0.145,0.258-0.201,0.403-0.124c0.146,0.077,0.201,0.257,0.124,0.403l-3.734,7.052
					C108.265,94.536,108.161,94.594,108.054,94.594z"/>
			</g>
			<g>
				<path d="M91.874,93.765c-0.101,0-0.2-0.052-0.256-0.145l-3.734-6.222c-0.085-0.141-0.039-0.324,0.102-0.409
					c0.141-0.085,0.324-0.039,0.409,0.102l3.734,6.222c0.085,0.141,0.039,0.324-0.102,0.409
					C91.979,93.751,91.927,93.765,91.874,93.765z"/>
			</g>
			<g>
				<path d="M88.553,97.912c-0.062,0-0.125-0.019-0.179-0.06l-6.638-4.977c-0.132-0.099-0.159-0.286-0.06-0.417
					c0.099-0.132,0.286-0.158,0.417-0.06l6.638,4.977c0.132,0.099,0.159,0.286,0.06,0.417
					C88.733,97.871,88.644,97.912,88.553,97.912z"/>
			</g>
			<g>
				<path d="M86.479,102.888c-0.034,0-0.069-0.006-0.103-0.018l-7.884-2.905c-0.155-0.057-0.234-0.228-0.177-0.383
					c0.057-0.155,0.229-0.234,0.383-0.177l7.883,2.904c0.155,0.057,0.234,0.228,0.177,0.383
					C86.714,102.814,86.6,102.888,86.479,102.888z"/>
			</g>
			<g>
				<path d="M77.352,108.695c-0.158,0-0.29-0.124-0.298-0.284c-0.008-0.165,0.119-0.304,0.284-0.312l8.713-0.416
					c0.167-0.016,0.304,0.119,0.312,0.283c0.008,0.165-0.119,0.304-0.284,0.312l-8.713,0.416
					C77.362,108.695,77.357,108.695,77.352,108.695z"/>
			</g>
			<g>
				<path d="M79.841,116.573c-0.111,0-0.218-0.063-0.269-0.17c-0.071-0.149-0.008-0.326,0.141-0.397l8.713-4.147
					c0.149-0.071,0.327-0.008,0.397,0.141c0.071,0.149,0.008,0.326-0.141,0.397l-8.713,4.147
					C79.927,116.563,79.884,116.573,79.841,116.573z"/>
			</g>
			<g>
				<path d="M84.82,123.208c-0.069,0-0.139-0.024-0.195-0.073c-0.124-0.108-0.138-0.296-0.03-0.42l5.393-6.219
					c0.108-0.124,0.296-0.138,0.42-0.03c0.124,0.108,0.138,0.296,0.03,0.42l-5.393,6.219
					C84.986,123.173,84.903,123.208,84.82,123.208z"/>
			</g>
			<g>
				<path d="M91.874,127.355c-0.037,0-0.074-0.007-0.111-0.021c-0.153-0.061-0.227-0.234-0.166-0.387l3.318-8.295
					c0.061-0.153,0.235-0.226,0.387-0.166c0.153,0.061,0.227,0.234,0.166,0.387l-3.318,8.295
					C92.104,127.285,91.992,127.355,91.874,127.355z"/>
			</g>
			<g>
				<path d="M99.758,129.014c-0.165,0-0.298-0.134-0.298-0.298v-9.537c0-0.165,0.134-0.298,0.298-0.298s0.298,0.134,0.298,0.298
					v9.537C100.056,128.881,99.922,129.014,99.758,129.014z"/>
			</g>
			<g>
				<path d="M107.641,127.355c-0.123,0-0.238-0.077-0.281-0.2l-2.905-8.295c-0.054-0.155,0.028-0.326,0.183-0.38
					c0.156-0.054,0.325,0.028,0.38,0.183l2.905,8.295c0.054,0.155-0.028,0.326-0.183,0.38
					C107.707,127.35,107.674,127.355,107.641,127.355z"/>
			</g>
			<g>
				<path d="M115.108,123.208c-0.074,0-0.148-0.027-0.205-0.082l-7.884-7.465c-0.12-0.113-0.125-0.302-0.012-0.422
					c0.114-0.121,0.302-0.124,0.422-0.012l7.884,7.465c0.12,0.113,0.125,0.302,0.012,0.422
					C115.266,123.177,115.187,123.208,115.108,123.208z"/>
			</g>
			<g>
				<path d="M120.087,116.573c-0.043,0-0.087-0.009-0.128-0.029l-8.713-4.147c-0.149-0.071-0.212-0.248-0.141-0.397
					c0.071-0.148,0.249-0.212,0.397-0.141l8.713,4.147c0.149,0.071,0.212,0.248,0.141,0.397
					C120.306,116.51,120.199,116.573,120.087,116.573z"/>
			</g>
			<g>
				<path d="M122.163,108.695c-0.005,0-0.009,0-0.014,0l-9.129-0.416c-0.165-0.007-0.292-0.147-0.284-0.311
					c0.008-0.165,0.148-0.294,0.311-0.284l9.129,0.416c0.165,0.007,0.292,0.147,0.284,0.311
					C122.453,108.57,122.321,108.695,122.163,108.695z"/>
			</g>
			<g>
				<path d="M113.863,102.888c-0.125,0-0.241-0.079-0.283-0.204c-0.052-0.156,0.033-0.325,0.189-0.377l7.47-2.488
					c0.158-0.053,0.325,0.032,0.377,0.189c0.052,0.156-0.033,0.325-0.189,0.377l-7.47,2.488
					C113.926,102.883,113.894,102.888,113.863,102.888z"/>
			</g>
			<g>
				<path d="M110.959,98.741c-0.086,0-0.171-0.037-0.23-0.109c-0.105-0.127-0.087-0.315,0.041-0.42l7.054-5.806
					c0.127-0.104,0.315-0.087,0.42,0.041c0.105,0.127,0.087,0.315-0.041,0.42l-7.054,5.806
					C111.093,98.719,111.026,98.741,110.959,98.741z"/>
			</g>
		</g>
		<g>
			<ellipse fill-rule="evenodd" clip-rule="evenodd" cx="99.757" cy="106.321" rx="16.597" ry="16.589"/>
			<path d="M99.758,123.208c-9.316,0-16.895-7.575-16.895-16.887s7.579-16.887,16.895-16.887c9.316,0,16.894,7.575,16.894,16.887
				S109.073,123.208,99.758,123.208z M99.758,90.031c-8.987,0-16.298,7.308-16.298,16.291s7.311,16.29,16.298,16.29
				c8.987,0,16.298-7.308,16.298-16.29S108.744,90.031,99.758,90.031z"/>
		</g>
		<g>
			<path fill-rule="evenodd" clip-rule="evenodd" fill="#FFFFFF" d="M113.381,99.14c-0.506-0.315-0.654-0.371-1.108-0.697
				c-4.632,9.412-20.192,9.622-24.965,0.278c-0.44,0.405-0.83,0.837-0.83,0.837c0.97,4.881,1.039,8.575,0,13.806
				c0.416,0.276,0.7,0.498,1.246,0.837c3.389-9.834,20.399-9.693,24.896,0c0.337-0.289,0.647-0.641,0.83-0.837
				C111.997,108.134,111.997,104.718,113.381,99.14z"/>
			<path d="M112.62,114.5c-0.021,0-0.042-0.002-0.063-0.007c-0.091-0.02-0.168-0.082-0.207-0.166
				c-2.015-4.343-6.98-7.15-12.649-7.15c-5.613,0-10.203,2.796-11.694,7.122c-0.03,0.086-0.096,0.153-0.182,0.184
				c-0.086,0.03-0.18,0.02-0.257-0.028c-0.348-0.216-0.591-0.385-0.828-0.551c-0.137-0.095-0.272-0.189-0.425-0.291
				c-0.101-0.067-0.151-0.188-0.128-0.307c0.991-4.992,0.991-8.702,0-13.69c-0.018-0.092,0.008-0.188,0.071-0.258
				c0.016-0.018,0.404-0.447,0.849-0.857c0.069-0.063,0.163-0.091,0.255-0.074c0.092,0.017,0.17,0.075,0.213,0.158
				c2.121,4.153,6.747,6.733,12.071,6.733c0,0,0,0,0.001,0c5.497,0,10.233-2.686,12.36-7.007c0.039-0.079,0.11-0.136,0.195-0.158
				c0.085-0.021,0.175-0.004,0.246,0.047c0.283,0.204,0.44,0.296,0.656,0.423c0.12,0.07,0.255,0.15,0.435,0.262
				c0.11,0.068,0.163,0.2,0.132,0.325c-1.372,5.531-1.355,8.951,0.068,14.073c0.028,0.1,0.002,0.207-0.069,0.283l-0.097,0.104
				c-0.195,0.212-0.462,0.502-0.757,0.756C112.76,114.475,112.691,114.5,112.62,114.5z M86.809,113.228
				c0.093,0.063,0.181,0.125,0.27,0.187c0.152,0.106,0.307,0.214,0.492,0.336c1.697-4.368,6.41-7.17,12.128-7.17
				c5.741,0,10.797,2.785,13.012,7.129c0.152-0.151,0.292-0.301,0.406-0.426c-1.392-5.083-1.413-8.539-0.08-14.004
				c-0.09-0.054-0.167-0.1-0.239-0.142c-0.142-0.084-0.265-0.156-0.417-0.256c-2.297,4.347-7.143,7.033-12.738,7.033h-0.001
				c-5.399,0-10.115-2.56-12.415-6.707c-0.18,0.178-0.334,0.339-0.429,0.441C87.766,104.583,87.769,108.299,86.809,113.228z"/>
		</g>
		<g>
			<path fill-rule="evenodd" clip-rule="evenodd" fill="#FFFFFF" d="M92.703,92.706c-0.313,0.506-0.368,0.652-0.691,1.105
				c9.336,4.632,9.542,20.185,0.275,24.952c0.403,0.443,0.829,0.829,0.829,0.829c4.841-0.967,8.506-1.036,13.695,0
				c0.27-0.413,0.49-0.7,0.83-1.243c-9.752-3.387-9.614-20.391,0-24.883c-0.286-0.337-0.636-0.649-0.83-0.829
				C101.623,94.087,98.236,94.087,92.703,92.706z"/>
			<path d="M106.811,119.89c-0.019,0-0.039-0.002-0.058-0.006c-2.547-0.509-4.711-0.746-6.807-0.746
				c-2.101,0-4.189,0.23-6.771,0.746c-0.093,0.019-0.189-0.008-0.259-0.071c-0.018-0.016-0.442-0.402-0.85-0.85
				c-0.063-0.069-0.089-0.162-0.073-0.254c0.016-0.092,0.075-0.17,0.157-0.212c4.158-2.139,6.716-6.807,6.677-12.182
				c-0.04-5.441-2.702-10.13-6.949-12.237c-0.078-0.039-0.135-0.11-0.157-0.195s-0.004-0.175,0.047-0.246
				c0.204-0.286,0.297-0.444,0.424-0.661c0.069-0.117,0.147-0.251,0.256-0.427c0.068-0.111,0.199-0.164,0.326-0.133
				c2.822,0.704,4.99,1.018,7.031,1.018c2.103,0,4.239-0.334,6.924-1.085c0.101-0.028,0.208-0.002,0.284,0.069l0.08,0.074
				c0.204,0.188,0.512,0.473,0.774,0.78c0.06,0.071,0.084,0.166,0.064,0.257c-0.02,0.091-0.081,0.167-0.165,0.207
				c-5.237,2.446-7.323,8.539-7.068,13.493c0.271,5.271,2.969,9.424,7.04,10.838c0.086,0.03,0.153,0.097,0.183,0.183
				c0.03,0.085,0.02,0.18-0.028,0.257c-0.208,0.334-0.373,0.572-0.531,0.801c-0.1,0.145-0.197,0.286-0.302,0.447
				C107.005,119.841,106.911,119.89,106.811,119.89z M92.771,118.841c0.176,0.18,0.336,0.334,0.437,0.429
				c2.553-0.503,4.637-0.728,6.738-0.728c2.082,0,4.225,0.229,6.727,0.719c0.067-0.1,0.132-0.194,0.199-0.291
				c0.1-0.145,0.202-0.294,0.318-0.469c-4.107-1.606-6.81-5.874-7.087-11.24c-0.259-5.038,1.827-11.217,7.048-13.886
				c-0.15-0.154-0.3-0.294-0.42-0.405c-2.665,0.734-4.807,1.062-6.924,1.062c-2.039,0-4.194-0.304-6.963-0.983
				c-0.052,0.086-0.096,0.161-0.136,0.23c-0.085,0.144-0.158,0.269-0.259,0.422c4.272,2.276,6.935,7.073,6.975,12.61
				C99.464,111.762,96.925,116.523,92.771,118.841z"/>
		</g>
		<g>
			<g>
				<g>
					<path fill-rule="evenodd" clip-rule="evenodd" d="M28.504,103.348l-6.286-0.883l0.337-2.382l6.376,0.896
						c1.012,0.143,1.672,0.207,1.982,0.191c0.496-0.035,0.917-0.22,1.261-0.557c0.345-0.339,0.562-0.835,0.655-1.492
						c0.095-0.668,0.027-1.19-0.201-1.566c-0.228-0.379-0.538-0.631-0.93-0.755c-0.392-0.125-1.052-0.254-1.985-0.384l-6.514-0.914
						l0.334-2.382l6.188,0.869c1.415,0.199,2.406,0.403,2.97,0.612c0.567,0.209,1.026,0.514,1.381,0.914
						c0.353,0.4,0.607,0.906,0.766,1.516c0.156,0.61,0.17,1.378,0.04,2.306c-0.156,1.118-0.405,1.95-0.747,2.491
						c-0.342,0.543-0.742,0.951-1.206,1.23c-0.461,0.278-0.927,0.437-1.399,0.48C30.828,103.597,29.82,103.534,28.504,103.348z"/>
				</g>
				<g>
					<polygon fill-rule="evenodd" clip-rule="evenodd" points="36.496,89.468 35.847,91.593 24.481,88.122 25.162,85.893 
						34.209,83.548 26.593,81.219 27.242,79.093 38.608,82.567 37.905,84.865 29.026,87.184 					"/>
				</g>
				<g>
					
						<rect x="33.586" y="70.303" transform="matrix(0.3912 -0.9203 0.9203 0.3912 -48.9896 78.4297)" fill-rule="evenodd" clip-rule="evenodd" width="2.404" height="11.882"/>
				</g>
				<g>
					<polygon fill-rule="evenodd" clip-rule="evenodd" points="44.745,69.885 43.409,72.103 31.034,69.628 32.375,67.402 
						41.47,69.344 35.42,62.335 36.737,60.144 					"/>
				</g>
				<g>
					<polygon fill-rule="evenodd" clip-rule="evenodd" points="54.11,58.04 48.068,64.744 39.236,56.797 45.121,50.265 
						46.616,51.608 42.339,56.354 44.3,58.119 48.275,53.704 49.769,55.048 45.792,59.46 48.185,61.614 52.615,56.696 					"/>
				</g>
				<g>
					<path fill-rule="evenodd" clip-rule="evenodd" d="M52.369,46.645l1.733,2.472l1.455-1.018c0.943-0.657,1.502-1.11,1.683-1.354
						c0.177-0.244,0.265-0.509,0.262-0.798c-0.005-0.289-0.109-0.578-0.315-0.872c-0.228-0.326-0.501-0.53-0.819-0.609
						c-0.315-0.079-0.652-0.034-1.007,0.135c-0.175,0.09-0.66,0.413-1.458,0.97L52.369,46.645z M58.034,54.73l-1.971,1.381
						l-6.816-9.73l4.139-2.897c1.042-0.729,1.858-1.171,2.454-1.325c0.594-0.156,1.187-0.109,1.786,0.138
						c0.596,0.249,1.094,0.66,1.497,1.235c0.511,0.731,0.721,1.484,0.625,2.258c-0.095,0.776-0.525,1.524-1.288,2.242
						c0.596-0.048,1.137-0.019,1.619,0.085c0.482,0.103,1.222,0.371,2.221,0.8l2.517,1.068l-2.35,1.643l-2.897-1.137
						c-1.036-0.4-1.714-0.633-2.038-0.7c-0.326-0.066-0.617-0.061-0.877,0.013c-0.26,0.071-0.615,0.267-1.068,0.583l-0.4,0.281
						L58.034,54.73z"/>
				</g>
				<g>
					<path fill-rule="evenodd" clip-rule="evenodd" d="M64.46,45.691l2.064-1.129c0.435,0.665,0.919,1.084,1.457,1.253
						c0.538,0.17,1.139,0.114,1.81-0.169c0.71-0.302,1.179-0.678,1.412-1.131c0.23-0.453,0.262-0.882,0.09-1.283
						c-0.109-0.26-0.278-0.448-0.506-0.564c-0.228-0.117-0.559-0.164-0.991-0.138c-0.297,0.021-0.951,0.109-1.966,0.27
						c-1.304,0.204-2.284,0.193-2.941-0.032c-0.925-0.321-1.571-0.914-1.94-1.783c-0.238-0.556-0.302-1.147-0.193-1.768
						c0.109-0.62,0.406-1.182,0.888-1.688c0.485-0.506,1.148-0.935,1.985-1.29c1.367-0.58,2.528-0.715,3.476-0.4
						c0.949,0.313,1.656,0.97,2.123,1.972l-2.184,1.015c-0.334-0.525-0.707-0.845-1.121-0.962c-0.413-0.116-0.927-0.042-1.545,0.22
						c-0.636,0.27-1.078,0.612-1.325,1.031c-0.162,0.268-0.18,0.543-0.061,0.829c0.111,0.26,0.315,0.435,0.612,0.527
						c0.376,0.116,1.156,0.074,2.335-0.127c1.179-0.201,2.083-0.273,2.714-0.22c0.628,0.053,1.187,0.252,1.677,0.599
						c0.49,0.347,0.882,0.867,1.174,1.558c0.268,0.625,0.342,1.288,0.225,1.982c-0.114,0.694-0.435,1.309-0.957,1.844
						c-0.525,0.538-1.261,1.007-2.21,1.41c-1.383,0.586-2.581,0.718-3.593,0.395C65.96,47.591,65.123,46.849,64.46,45.691z"/>
				</g>
				<g>
					
						<rect x="75.579" y="32.724" transform="matrix(0.9565 -0.2916 0.2916 0.9565 -7.9375 24.0734)" fill-rule="evenodd" clip-rule="evenodd" width="2.407" height="11.877"/>
				</g>
				<g>
					<polygon fill-rule="evenodd" clip-rule="evenodd" points="87.512,42.272 85.141,42.691 83.426,32.969 79.962,33.581 
						79.613,31.604 88.898,29.969 89.245,31.943 85.798,32.553 					"/>
				</g>
				<g>
					<path fill-rule="evenodd" clip-rule="evenodd" d="M95.981,36.591l3.252-0.17l-1.881-4.304L95.981,36.591z M98.496,29.283
						l5.374,11.612l-2.586,0.135l-1.166-2.645l-4.762,0.249l-0.845,2.751l-2.541,0.132l3.988-12.102L98.496,29.283z"/>
				</g>
				<g>
					<path fill-rule="evenodd" clip-rule="evenodd" d="M105.465,37.24l2.35-0.069c0.085,0.79,0.329,1.381,0.729,1.778
						c0.403,0.395,0.965,0.617,1.69,0.668c0.769,0.056,1.36-0.069,1.773-0.366c0.411-0.299,0.633-0.665,0.662-1.102
						c0.021-0.281-0.045-0.525-0.196-0.731c-0.148-0.209-0.424-0.4-0.821-0.572c-0.27-0.116-0.896-0.334-1.871-0.652
						c-1.256-0.408-2.125-0.864-2.607-1.365c-0.678-0.705-0.986-1.526-0.919-2.467c0.042-0.604,0.252-1.161,0.631-1.661
						c0.379-0.504,0.898-0.872,1.558-1.103c0.662-0.23,1.447-0.315,2.356-0.252c1.481,0.106,2.576,0.512,3.278,1.222
						c0.705,0.713,1.036,1.619,0.996,2.722l-2.406-0.088c-0.058-0.617-0.247-1.073-0.562-1.365
						c-0.315-0.292-0.808-0.458-1.476-0.506c-0.689-0.048-1.24,0.058-1.651,0.318c-0.265,0.164-0.406,0.403-0.429,0.71
						c-0.018,0.281,0.082,0.53,0.305,0.747c0.284,0.275,0.996,0.591,2.138,0.949c1.142,0.355,1.982,0.7,2.518,1.033
						c0.535,0.331,0.943,0.763,1.222,1.296c0.281,0.53,0.392,1.171,0.339,1.921c-0.045,0.678-0.278,1.301-0.697,1.868
						c-0.419,0.567-0.983,0.97-1.693,1.208c-0.71,0.241-1.579,0.326-2.61,0.254c-1.497-0.106-2.624-0.533-3.379-1.277
						C105.937,39.612,105.529,38.573,105.465,37.24z"/>
				</g>
			</g>
			<g>
				<g>
					<polygon fill-rule="evenodd" clip-rule="evenodd" points="127.754,46.457 125.65,45.291 131.411,34.9 133.515,36.066 
						130.963,40.669 137.755,38.417 140.577,39.98 134.411,41.854 135.02,50.482 132.304,48.977 132.148,42.516 129.495,43.314 
											"/>
				</g>
				<g>
					<path fill-rule="evenodd" clip-rule="evenodd" d="M141.96,49.663l2.565,2.001l1.407-4.478L141.96,49.663z M148.654,45.794
						l-3.564,12.29l-2.043-1.595l0.856-2.764l-3.755-2.933l-2.443,1.524l-2.006-1.566l10.952-6.519L148.654,45.794z"/>
				</g>
				<g>
					<polygon fill-rule="evenodd" clip-rule="evenodd" points="150.019,63.101 148.347,61.371 155.451,54.513 153.005,51.985 
						154.449,50.591 161,57.367 159.553,58.763 157.12,56.243 					"/>
				</g>
				<g>
					<path fill-rule="evenodd" clip-rule="evenodd" d="M159.993,65.87c-1.142,0.715-1.844,1.518-2.104,2.417
						c-0.26,0.896-0.135,1.749,0.374,2.562c0.509,0.814,1.216,1.296,2.128,1.452c0.912,0.156,1.953-0.133,3.122-0.864
						c1.158-0.721,1.86-1.513,2.115-2.377c0.252-0.864,0.114-1.715-0.411-2.555c-0.525-0.84-1.238-1.338-2.133-1.492
						C162.184,64.86,161.154,65.147,159.993,65.87z M158.615,63.816c1.028-0.641,1.987-1.028,2.878-1.155
						c0.657-0.093,1.314-0.069,1.972,0.074c0.657,0.141,1.23,0.384,1.722,0.734c0.66,0.461,1.246,1.102,1.76,1.924
						c0.927,1.484,1.208,2.96,0.843,4.428c-0.366,1.468-1.37,2.716-3.013,3.744c-1.632,1.018-3.183,1.373-4.659,1.063
						c-1.473-0.31-2.674-1.206-3.599-2.685c-0.935-1.5-1.224-2.978-0.861-4.436C156.021,66.053,157.006,64.821,158.615,63.816z"/>
				</g>
				<g>
					<polygon fill-rule="evenodd" clip-rule="evenodd" points="163.735,86.948 160.738,79.141 171.738,74.92 172.599,77.167 
						163.475,80.667 165.608,86.227 					"/>
				</g>
				<g>
					
						<rect x="168.959" y="83.235" transform="matrix(0.2082 0.9781 -0.9781 0.2082 221.9488 -95.8257)" fill-rule="evenodd" clip-rule="evenodd" width="2.406" height="11.882"/>
				</g>
				<g>
					<polygon fill-rule="evenodd" clip-rule="evenodd" points="165.502,96.909 165.417,94.505 177.294,94.092 177.377,96.495 
						172.119,96.678 177.546,101.339 177.66,104.562 172.877,100.242 165.791,105.208 165.683,102.108 171.144,98.647 
						169.093,96.784 					"/>
				</g>
			</g>
			<g>
				<g>
					<path fill-rule="evenodd" clip-rule="evenodd" d="M40.155,140.5l-0.602-0.98l-2.833,1.797l0.684,1.113
						c0.493,0.8,0.874,1.304,1.145,1.508c0.27,0.201,0.564,0.31,0.88,0.323c0.318,0.01,0.623-0.077,0.917-0.265
						c0.363-0.231,0.596-0.527,0.702-0.893c0.103-0.363,0.082-0.729-0.061-1.097C40.884,141.735,40.606,141.232,40.155,140.5z
						 M31.297,144.764l-1.259-2.046l9.937-6.312l2.011,3.27c0.761,1.24,1.208,2.078,1.338,2.518c0.207,0.673,0.18,1.365-0.08,2.072
						c-0.26,0.708-0.784,1.312-1.574,1.813c-0.612,0.39-1.192,0.602-1.746,0.641c-0.554,0.04-1.057-0.037-1.508-0.233
						c-0.448-0.196-0.821-0.448-1.118-0.755c-0.395-0.427-0.874-1.1-1.442-2.022l-0.814-1.325L31.297,144.764z"/>
				</g>
				<g>
					<path fill-rule="evenodd" clip-rule="evenodd" d="M44.024,154.691l2.189,2.388l2.062-4.219L44.024,154.691z M51.142,151.911
						l-5.369,11.612l-1.744-1.897l1.262-2.602l-3.206-3.495l-2.615,1.126l-1.709-1.866l11.673-4.741L51.142,151.911z"/>
				</g>
				<g>
					<path fill-rule="evenodd" clip-rule="evenodd" d="M57.6,160.621l-1.709,2.48l1.434,1.02c0.93,0.662,1.537,1.036,1.823,1.121
						c0.286,0.082,0.564,0.074,0.829-0.029c0.265-0.101,0.498-0.299,0.702-0.594c0.225-0.329,0.323-0.654,0.289-0.98
						c-0.032-0.323-0.188-0.625-0.466-0.901c-0.141-0.135-0.604-0.482-1.391-1.041L57.6,160.621z M52.014,168.73l-1.942-1.383
						l6.72-9.757l4.081,2.904c1.028,0.731,1.712,1.349,2.057,1.855c0.344,0.506,0.503,1.084,0.474,1.73
						c-0.029,0.647-0.244,1.259-0.641,1.836c-0.504,0.731-1.131,1.187-1.881,1.362c-0.75,0.178-1.587,0.029-2.512-0.445
						c0.247,0.546,0.403,1.065,0.469,1.556c0.066,0.49,0.069,1.28,0.005,2.366l-0.138,2.737l-2.319-1.651l0.077-3.119
						c0.024-1.11,0.01-1.831-0.04-2.16c-0.048-0.326-0.148-0.602-0.305-0.821c-0.156-0.217-0.456-0.488-0.904-0.806l-0.395-0.281
						L52.014,168.73z"/>
				</g>
				<g>
					<path fill-rule="evenodd" clip-rule="evenodd" d="M68.343,173.243l2.931,1.325l0.276-4.698L68.343,173.243z M73.823,167.855
						l-0.477,12.823l-2.334-1.057l0.159-2.896l-4.293-1.942l-1.974,2.075l-2.292-1.039l8.922-8.999L73.823,167.855z"/>
				</g>
				<g>
					<polygon fill-rule="evenodd" clip-rule="evenodd" points="81.139,182.841 78.818,182.34 81.253,170.688 83.574,171.189 
						82.615,175.779 87.128,176.754 88.09,172.164 90.409,172.668 87.973,184.317 85.652,183.816 86.717,178.723 82.204,177.747 
											"/>
				</g>
				<g>
					<polygon fill-rule="evenodd" clip-rule="evenodd" points="100.28,185.117 97.905,185.074 97.993,180.061 93.816,173.089 
						96.588,173.137 99.278,177.901 102.055,173.235 104.779,173.282 100.364,180.119 					"/>
				</g>
				<g>
					<path fill-rule="evenodd" clip-rule="evenodd" d="M112.231,179.39l3.151-0.623l-2.427-4.009L112.231,179.39z M113.68,171.783
						l6.845,10.783l-2.509,0.496l-1.503-2.464l-4.614,0.912l-0.445,2.851l-2.464,0.485l2.231-12.574L113.68,171.783z"/>
				</g>
				<g>
					<polygon fill-rule="evenodd" clip-rule="evenodd" points="127.985,179.95 125.949,180.784 121.561,169.742 123.692,168.865 
						131.104,174.433 128.162,167.031 130.195,166.194 134.585,177.239 132.386,178.142 125.099,172.689 					"/>
				</g>
				<g>
					<path fill-rule="evenodd" clip-rule="evenodd" d="M144.923,165.563l-2.213,1.574l-1.137-1.651l4.171-2.965l2.682,3.893
						c-0.13,0.689-0.474,1.46-1.033,2.313c-0.559,0.853-1.235,1.561-2.025,2.123c-1.002,0.713-2.024,1.121-3.066,1.224
						c-1.042,0.101-2.025-0.114-2.95-0.647c-0.925-0.53-1.709-1.264-2.356-2.202c-0.702-1.02-1.116-2.072-1.243-3.161
						c-0.125-1.092,0.069-2.133,0.586-3.132c0.392-0.761,1.047-1.468,1.961-2.12c1.192-0.848,2.297-1.256,3.318-1.224
						c1.02,0.035,1.937,0.429,2.748,1.193l-1.677,1.741c-0.466-0.384-0.981-0.58-1.545-0.594c-0.564-0.013-1.124,0.178-1.683,0.575
						c-0.845,0.602-1.328,1.354-1.449,2.255c-0.122,0.901,0.186,1.889,0.927,2.965c0.798,1.161,1.651,1.85,2.554,2.07
						c0.906,0.22,1.768,0.04,2.586-0.546c0.405-0.286,0.755-0.657,1.052-1.11c0.297-0.451,0.511-0.896,0.644-1.336L144.923,165.563z
						"/>
				</g>
				<g>
					<path fill-rule="evenodd" clip-rule="evenodd" d="M153.032,157.9l2.189-2.388l-4.282-1.794L153.032,157.9z M149.807,150.877
						l11.771,4.635l-1.744,1.897l-2.639-1.097l-3.206,3.496l1.288,2.573l-1.712,1.866l-5.467-11.506L149.807,150.877z"/>
				</g>
				<g>
					<polygon fill-rule="evenodd" clip-rule="evenodd" points="166.125,148.956 164.964,150.845 155.027,144.533 156.243,142.554 
						165.457,142.628 158.798,138.399 159.961,136.507 169.899,142.819 168.642,144.862 159.593,144.806 					"/>
				</g>
			</g>
		</g>
		<g>
			<g>
				<g>
					<path fill-rule="evenodd" clip-rule="evenodd" d="M55.313,126.016l2.033,0.249l0.18-1.468c0.032-0.252,0.045-0.429,0.037-0.535
						c-0.008-0.183-0.045-0.339-0.106-0.469c-0.058-0.13-0.156-0.244-0.291-0.339c-0.135-0.096-0.297-0.154-0.485-0.178
						c-0.22-0.027-0.419,0.005-0.596,0.101c-0.175,0.093-0.31,0.236-0.4,0.427c-0.09,0.191-0.159,0.474-0.204,0.851L55.313,126.016z
						 M52.833,125.711l1.789,0.22l0.156-1.275c0.043-0.345,0.05-0.596,0.021-0.753c-0.035-0.204-0.114-0.366-0.239-0.485
						c-0.125-0.116-0.292-0.188-0.498-0.215c-0.196-0.024-0.376,0.003-0.535,0.08c-0.162,0.074-0.281,0.196-0.358,0.363
						c-0.074,0.167-0.141,0.464-0.191,0.888L52.833,125.711z M58.217,124.884l-0.275,2.25l-5.896-0.726l0.27-2.21
						c0.055-0.451,0.159-0.806,0.313-1.063c0.154-0.257,0.363-0.448,0.631-0.57c0.265-0.125,0.535-0.17,0.806-0.138
						c0.252,0.032,0.482,0.13,0.686,0.291c0.207,0.164,0.36,0.392,0.464,0.684c0.148-0.342,0.36-0.593,0.636-0.755
						c0.276-0.162,0.586-0.22,0.927-0.178c0.278,0.032,0.527,0.122,0.75,0.268c0.223,0.146,0.39,0.313,0.496,0.501
						c0.109,0.188,0.18,0.416,0.212,0.681C58.27,124.187,58.265,124.508,58.217,124.884z"/>
				</g>
				<g>
					<path fill-rule="evenodd" clip-rule="evenodd" d="M54.849,118.705l1.603,0.943l0.353-1.995l-1.73,0.326
						c-0.525,0.095-0.957,0.164-1.296,0.204C54.144,118.331,54.502,118.503,54.849,118.705z M58.702,120.933l-0.143,0.821
						l-5.456-3.275l0.151-0.851l6.27-1.351l-0.154,0.882l-1.895,0.363l-0.435,2.462L58.702,120.933z"/>
				</g>
				<g>
					<polygon fill-rule="evenodd" clip-rule="evenodd" points="59.881,114.435 59.717,115.207 53.906,113.972 54.07,113.201 
						56.951,113.815 54.682,110.317 54.905,109.276 56.744,112.212 60.737,110.405 60.523,111.417 57.149,112.864 57.868,114.009 
											"/>
				</g>
				<g>
					<path fill-rule="evenodd" clip-rule="evenodd" d="M59.643,104.888l-3.312-0.885l0.204-0.763l3.315,0.888
						c0.575,0.156,1.018,0.345,1.32,0.564c0.305,0.22,0.519,0.53,0.638,0.927c0.122,0.395,0.109,0.869-0.04,1.423
						c-0.143,0.535-0.352,0.949-0.631,1.24c-0.276,0.292-0.61,0.464-0.999,0.514c-0.39,0.053-0.888-0.003-1.497-0.164l-3.315-0.89
						l0.204-0.761l3.315,0.888c0.498,0.135,0.877,0.185,1.139,0.156c0.26-0.029,0.485-0.138,0.673-0.329
						c0.188-0.191,0.326-0.448,0.413-0.771c0.148-0.557,0.127-0.986-0.061-1.291C60.819,105.33,60.364,105.081,59.643,104.888z"/>
				</g>
				<g>
					<polygon fill-rule="evenodd" clip-rule="evenodd" points="63.101,102.357 62.841,103.065 57.258,101.035 57.536,100.274 
						62.984,98.941 58.601,97.349 58.858,96.638 64.442,98.668 64.166,99.429 58.718,100.762 					"/>
				</g>
				<g>
					
						<rect x="62.241" y="92.329" transform="matrix(0.4065 -0.9137 0.9137 0.4065 -49.8952 113.7892)" fill-rule="evenodd" clip-rule="evenodd" width="0.789" height="5.94"/>
				</g>
				<g>
					<polygon fill-rule="evenodd" clip-rule="evenodd" points="66.578,93.745 66.246,94.423 60.904,91.821 61.259,91.095 
						66.819,90.337 62.627,88.294 62.958,87.616 68.298,90.218 67.943,90.944 62.383,91.702 					"/>
				</g>
				<g>
					<path fill-rule="evenodd" clip-rule="evenodd" d="M69.522,83.559l-0.898,1.492l-0.596-0.358l1.296-2.154l1.887,1.132
						c0.063,0.49,0.058,0.951-0.021,1.383c-0.08,0.429-0.228,0.832-0.451,1.2c-0.302,0.501-0.681,0.89-1.142,1.171
						c-0.458,0.278-0.954,0.403-1.484,0.366c-0.53-0.035-1.047-0.201-1.545-0.501c-0.496-0.299-0.896-0.681-1.201-1.145
						c-0.305-0.466-0.445-0.954-0.419-1.468c0.024-0.514,0.188-1.025,0.493-1.532c0.222-0.368,0.482-0.665,0.779-0.89
						c0.3-0.225,0.604-0.358,0.919-0.4c0.315-0.04,0.67-0.003,1.065,0.117l-0.199,0.707c-0.305-0.08-0.567-0.106-0.782-0.082
						c-0.217,0.024-0.435,0.114-0.649,0.27c-0.215,0.159-0.4,0.365-0.554,0.62c-0.186,0.307-0.299,0.602-0.339,0.882
						c-0.04,0.281-0.026,0.535,0.045,0.766c0.069,0.228,0.175,0.437,0.313,0.622c0.236,0.321,0.541,0.591,0.909,0.811
						c0.456,0.273,0.882,0.424,1.283,0.453c0.4,0.027,0.763-0.063,1.092-0.273c0.329-0.209,0.591-0.48,0.792-0.816
						c0.175-0.292,0.292-0.609,0.345-0.954s0.058-0.628,0.016-0.848L69.522,83.559z"/>
				</g>
				<g>
					<polygon fill-rule="evenodd" clip-rule="evenodd" points="76.714,77.585 76.205,78.19 71.655,74.371 72.161,73.77 
						74.029,75.336 76.004,72.985 74.135,71.416 74.641,70.815 79.194,74.631 78.685,75.235 76.539,73.433 74.565,75.784 					"/>
				</g>
				<g>
					<path fill-rule="evenodd" clip-rule="evenodd" d="M82.101,71.499l-0.538,0.578l-1.842-1.714l-4.068-0.662l0.647-0.692
						l2.115,0.368c0.395,0.066,0.776,0.146,1.147,0.236c-0.103-0.342-0.209-0.742-0.318-1.192l-0.496-2.035l0.625-0.67l0.885,4.07
						L82.101,71.499z"/>
				</g>
				<g>
					<path fill-rule="evenodd" clip-rule="evenodd" d="M83.066,64.694l0.684,1.731l1.505-1.354l-1.564-0.808
						c-0.474-0.247-0.856-0.458-1.147-0.636C82.742,63.967,82.917,64.323,83.066,64.694z M84.73,68.822l-0.62,0.559l-2.282-5.939
						l0.644-0.577l5.774,2.796l-0.665,0.599l-1.717-0.88l-1.86,1.675L84.73,68.822z"/>
				</g>
				<g>
					<polygon fill-rule="evenodd" clip-rule="evenodd" points="89.648,64.429 89.07,64.913 85.252,60.364 85.869,59.844 
						91.257,61.413 88.257,57.841 88.837,57.356 92.656,61.906 92.036,62.425 86.651,60.857 					"/>
				</g>
				<g>
					<path fill-rule="evenodd" clip-rule="evenodd" d="M96.291,56.195L94.9,57.245l-0.421-0.557l2.009-1.513l1.325,1.759
						c-0.122,0.477-0.302,0.901-0.535,1.272c-0.236,0.371-0.525,0.686-0.869,0.946c-0.466,0.35-0.965,0.57-1.497,0.657
						c-0.53,0.087-1.036,0.016-1.513-0.215c-0.48-0.23-0.893-0.58-1.245-1.047c-0.347-0.461-0.575-0.965-0.684-1.508
						c-0.109-0.546-0.055-1.052,0.162-1.518c0.215-0.469,0.559-0.88,1.034-1.235c0.342-0.26,0.694-0.437,1.055-0.535
						c0.36-0.095,0.694-0.106,1.002-0.027c0.307,0.082,0.623,0.249,0.946,0.506l-0.451,0.583c-0.254-0.188-0.485-0.31-0.694-0.368
						c-0.212-0.061-0.445-0.056-0.705,0.008c-0.257,0.064-0.506,0.186-0.745,0.366c-0.289,0.217-0.504,0.448-0.647,0.692
						c-0.141,0.246-0.223,0.488-0.244,0.726c-0.021,0.239-0.003,0.472,0.055,0.697c0.101,0.384,0.281,0.747,0.541,1.092
						c0.318,0.424,0.657,0.723,1.018,0.898c0.36,0.175,0.734,0.228,1.116,0.156c0.382-0.069,0.729-0.222,1.041-0.458
						c0.27-0.204,0.496-0.456,0.676-0.758c0.177-0.299,0.291-0.559,0.334-0.779L96.291,56.195z"/>
				</g>
			</g>
			<g>
				<g>
					<path fill-rule="evenodd" clip-rule="evenodd" d="M107.35,62.953l-0.578-0.485l3.819-4.55l0.904,0.758l-1.627,4.123
						c-0.154,0.382-0.268,0.668-0.347,0.853c0.191-0.122,0.474-0.297,0.856-0.525l3.752-2.244l0.806,0.676l-3.819,4.55l-0.58-0.485
						l3.196-3.805l-4.523,2.69l-0.543-0.453l1.94-4.979L107.35,62.953z"/>
				</g>
				<g>
					<path fill-rule="evenodd" clip-rule="evenodd" d="M118.394,65.481l-1.367,1.412l1.214,1.174
						c0.26,0.249,0.485,0.416,0.684,0.504c0.196,0.085,0.39,0.106,0.578,0.061c0.188-0.045,0.35-0.135,0.482-0.273
						c0.196-0.204,0.284-0.44,0.262-0.71c-0.018-0.273-0.188-0.559-0.503-0.864L118.394,65.481z M114.722,69.281l-0.567-0.549
						l4.126-4.272l1.895,1.828c0.382,0.368,0.633,0.686,0.758,0.954c0.125,0.268,0.151,0.557,0.082,0.864
						c-0.069,0.307-0.217,0.58-0.445,0.816c-0.292,0.302-0.636,0.464-1.034,0.482c-0.397,0.019-0.827-0.143-1.29-0.482
						c0.079,0.217,0.124,0.397,0.135,0.543c0.019,0.31-0.008,0.649-0.082,1.02l-0.384,1.876l-0.708-0.681l0.294-1.436
						c0.085-0.416,0.138-0.742,0.162-0.983c0.027-0.239,0.021-0.424-0.011-0.562c-0.032-0.135-0.082-0.254-0.148-0.36
						c-0.05-0.077-0.148-0.183-0.294-0.323l-0.655-0.633L114.722,69.281z"/>
				</g>
				<g>
					
						<rect x="122.502" y="70.376" transform="matrix(0.6566 0.7542 -0.7542 0.6566 97.5241 -67.5053)" fill-rule="evenodd" clip-rule="evenodd" width="0.787" height="5.941"/>
				</g>
				<g>
					<polygon fill-rule="evenodd" clip-rule="evenodd" points="124.11,79.361 123.626,78.741 128.308,75.084 128.793,75.704 
						126.872,77.207 128.761,79.623 130.685,78.123 131.17,78.743 126.487,82.4 126.002,81.78 128.212,80.053 126.32,77.636 					
						"/>
				</g>
				<g>
					<path fill-rule="evenodd" clip-rule="evenodd" d="M137.673,97.722l-0.71-1.59l0.639-0.284l1.023,2.295l-2.011,0.896
						c-0.44-0.228-0.814-0.498-1.121-0.811c-0.31-0.31-0.551-0.662-0.726-1.057c-0.239-0.533-0.339-1.068-0.305-1.606
						c0.034-0.535,0.217-1.012,0.551-1.426c0.331-0.413,0.766-0.739,1.299-0.978c0.527-0.233,1.068-0.342,1.624-0.326
						c0.557,0.016,1.039,0.183,1.444,0.498c0.405,0.315,0.731,0.745,0.97,1.285c0.175,0.392,0.27,0.774,0.283,1.147
						c0.013,0.374-0.053,0.7-0.199,0.981c-0.148,0.281-0.382,0.551-0.708,0.808l-0.466-0.57c0.241-0.207,0.413-0.403,0.517-0.593
						c0.106-0.191,0.156-0.421,0.151-0.687c-0.005-0.268-0.069-0.538-0.191-0.811c-0.146-0.326-0.321-0.588-0.527-0.782
						c-0.207-0.196-0.424-0.329-0.655-0.403c-0.228-0.074-0.458-0.109-0.689-0.103c-0.398,0.013-0.792,0.106-1.187,0.281
						c-0.485,0.215-0.853,0.48-1.105,0.79c-0.252,0.313-0.387,0.662-0.403,1.052c-0.018,0.387,0.053,0.76,0.212,1.116
						c0.138,0.313,0.334,0.588,0.586,0.829c0.252,0.241,0.482,0.408,0.686,0.501L137.673,97.722z"/>
				</g>
				<g>
					<path fill-rule="evenodd" clip-rule="evenodd" d="M140.816,105.905l3.244-1.116l0.257,0.745l-3.244,1.116
						c-0.564,0.196-1.036,0.286-1.413,0.273c-0.376-0.013-0.723-0.151-1.047-0.411c-0.323-0.262-0.578-0.662-0.763-1.203
						c-0.18-0.525-0.238-0.986-0.172-1.381c0.066-0.397,0.247-0.726,0.541-0.986c0.294-0.262,0.739-0.496,1.335-0.7l3.244-1.116
						l0.257,0.745l-3.243,1.116c-0.488,0.167-0.832,0.336-1.034,0.506c-0.199,0.17-0.323,0.387-0.373,0.649
						c-0.05,0.265-0.019,0.554,0.09,0.872c0.188,0.543,0.445,0.89,0.774,1.036C139.594,106.197,140.111,106.149,140.816,105.905z"/>
				</g>
				<g>
					<polygon fill-rule="evenodd" clip-rule="evenodd" points="139.912,112.111 139.753,111.375 145.564,110.14 145.734,110.93 
						141.82,114.947 146.38,113.977 146.539,114.716 140.728,115.951 140.559,115.162 144.472,111.144 					"/>
				</g>
				<g>
					<path fill-rule="evenodd" clip-rule="evenodd" d="M145.925,121.037l-1.818-0.403l0.281,2.006l1.545-0.845
						c0.469-0.254,0.861-0.451,1.169-0.594C146.709,121.174,146.314,121.119,145.925,121.037z M141.568,120.106l-0.117-0.824
						l6.201,1.428l0.122,0.856l-5.549,3.222l-0.125-0.888l1.688-0.93l-0.347-2.478L141.568,120.106z"/>
				</g>
			</g>
			<g>
				<g>
					<path fill-rule="evenodd" clip-rule="evenodd" d="M59.338,136.674l0.71,0.215c-0.08,0.289-0.095,0.546-0.05,0.774
						c0.048,0.225,0.175,0.443,0.381,0.652c0.207,0.212,0.464,0.382,0.779,0.506c0.276,0.114,0.538,0.17,0.784,0.172
						c0.247,0.003,0.451-0.045,0.615-0.148c0.162-0.103,0.278-0.238,0.345-0.408c0.072-0.172,0.082-0.344,0.034-0.511
						c-0.05-0.17-0.172-0.345-0.366-0.525c-0.125-0.119-0.416-0.339-0.872-0.665c-0.459-0.326-0.766-0.586-0.925-0.774
						c-0.207-0.244-0.334-0.493-0.379-0.75c-0.048-0.257-0.019-0.511,0.085-0.766c0.111-0.278,0.297-0.506,0.551-0.683
						c0.257-0.178,0.559-0.27,0.914-0.273c0.352-0.003,0.716,0.072,1.087,0.22c0.408,0.167,0.742,0.376,1.002,0.633
						c0.257,0.26,0.419,0.549,0.482,0.872c0.066,0.323,0.04,0.649-0.08,0.978l-0.721-0.23c0.103-0.36,0.082-0.676-0.063-0.941
						c-0.146-0.265-0.429-0.482-0.853-0.655c-0.44-0.178-0.795-0.225-1.063-0.146c-0.265,0.08-0.445,0.233-0.538,0.461
						c-0.08,0.199-0.074,0.39,0.016,0.575c0.09,0.186,0.403,0.464,0.941,0.837c0.541,0.374,0.898,0.654,1.078,0.843
						c0.26,0.275,0.421,0.559,0.482,0.845c0.061,0.289,0.032,0.58-0.088,0.874c-0.119,0.292-0.313,0.535-0.586,0.726
						c-0.273,0.191-0.593,0.294-0.965,0.31c-0.374,0.019-0.755-0.053-1.147-0.212c-0.498-0.201-0.885-0.443-1.163-0.723
						c-0.278-0.281-0.453-0.604-0.527-0.972C59.166,137.416,59.2,137.045,59.338,136.674z"/>
				</g>
				<g>
					<path fill-rule="evenodd" clip-rule="evenodd" d="M67.5,137.455l-1.182,1.436l1.913,0.66l-0.05-1.757
						c-0.013-0.535-0.01-0.972,0.003-1.312C67.979,136.822,67.752,137.145,67.5,137.455z M64.696,140.914l-0.79-0.273l4.089-4.873
						l0.819,0.283l0.352,6.402l-0.845-0.291l-0.064-1.927l-2.366-0.814L64.696,140.914z"/>
				</g>
				<g>
					<polygon fill-rule="evenodd" clip-rule="evenodd" points="71.016,143.073 70.29,142.866 71.928,137.156 72.704,137.378 
						74.416,142.721 75.701,138.237 76.428,138.446 74.79,144.154 74.013,143.932 72.302,138.592 					"/>
				</g>
				<g>
					<polygon fill-rule="evenodd" clip-rule="evenodd" points="78.865,145.167 78.097,144.989 79.276,139.883 77.368,139.443 
						77.524,138.762 82.109,139.822 81.952,140.5 80.045,140.06 					"/>
				</g>
				<g>
					<path fill-rule="evenodd" clip-rule="evenodd" d="M84.568,146.293l-0.776-0.135l0.437-2.478l-1.662-3.768l0.933,0.164
						l0.845,1.972c0.156,0.366,0.297,0.731,0.424,1.092c0.233-0.276,0.509-0.58,0.829-0.917l1.436-1.524l0.901,0.159l-2.931,2.96
						L84.568,146.293z"/>
				</g>
				<g>
					<path fill-rule="evenodd" clip-rule="evenodd" d="M90.244,142.864l-0.8,1.68l2.017,0.175l-0.474-1.693
						c-0.143-0.514-0.247-0.938-0.315-1.272C90.554,142.13,90.414,142.501,90.244,142.864z M88.358,146.897l-0.83-0.074l2.788-5.716
						l0.861,0.074l1.892,6.126l-0.89-0.077l-0.527-1.855l-2.494-0.217L88.358,146.897z"/>
				</g>
				<g>
					<path fill-rule="evenodd" clip-rule="evenodd" d="M96.731,147.493l-0.787-0.026l0.087-2.515l-2.17-3.501l0.946,0.032
						l1.11,1.836c0.207,0.342,0.398,0.681,0.572,1.02c0.194-0.302,0.424-0.644,0.694-1.023l1.211-1.709l0.914,0.034l-2.491,3.336
						L96.731,147.493z"/>
				</g>
				<g>
					<path fill-rule="evenodd" clip-rule="evenodd" d="M101.946,143.33l-0.588,1.765l2.022-0.072l-0.678-1.624
						c-0.202-0.493-0.358-0.901-0.466-1.224C102.166,142.564,102.071,142.949,101.946,143.33z M100.566,147.562l-0.832,0.029
						l2.07-6.015l0.864-0.029l2.626,5.851l-0.896,0.029l-0.75-1.773l-2.499,0.088L100.566,147.562z"/>
				</g>
				<g>
					<path fill-rule="evenodd" clip-rule="evenodd" d="M112.509,143.905l0.355,2.016l1.46-0.257
						c0.249-0.042,0.424-0.085,0.522-0.119c0.172-0.063,0.313-0.143,0.419-0.238c0.106-0.098,0.186-0.223,0.239-0.379
						c0.05-0.156,0.061-0.328,0.026-0.517c-0.037-0.217-0.127-0.397-0.268-0.541c-0.14-0.141-0.315-0.225-0.527-0.257
						c-0.209-0.029-0.501-0.013-0.872,0.053L112.509,143.905z M112.074,141.446l0.313,1.773l1.267-0.223
						c0.342-0.061,0.586-0.127,0.726-0.199c0.186-0.093,0.318-0.217,0.395-0.371c0.074-0.154,0.095-0.331,0.058-0.538
						c-0.034-0.194-0.111-0.358-0.23-0.49c-0.119-0.13-0.27-0.209-0.453-0.233c-0.183-0.024-0.485,0-0.904,0.074L112.074,141.446z
						 M114.443,146.351l-2.234,0.395l-1.031-5.848l2.194-0.387c0.448-0.08,0.816-0.082,1.108-0.013
						c0.291,0.071,0.535,0.217,0.731,0.435c0.196,0.22,0.318,0.464,0.366,0.731c0.042,0.252,0.019,0.498-0.08,0.742
						c-0.095,0.247-0.268,0.458-0.519,0.644c0.373,0.04,0.676,0.17,0.911,0.387c0.233,0.215,0.382,0.493,0.443,0.835
						c0.048,0.273,0.034,0.538-0.04,0.795c-0.074,0.254-0.186,0.461-0.334,0.62c-0.148,0.156-0.344,0.291-0.591,0.403
						C115.124,146.197,114.814,146.288,114.443,146.351z"/>
				</g>
				<g>
					<polygon fill-rule="evenodd" clip-rule="evenodd" points="119.07,145.508 118.302,145.686 116.964,139.899 117.732,139.721 
						118.281,142.098 121.272,141.406 120.724,139.032 121.492,138.854 122.83,144.639 122.062,144.817 121.431,142.085 
						118.44,142.776 					"/>
				</g>
				<g>
					<path fill-rule="evenodd" clip-rule="evenodd" d="M125.152,139.676l-0.143,1.855l1.945-0.557l-1.049-1.413
						c-0.318-0.429-0.567-0.787-0.753-1.073C125.181,138.881,125.181,139.279,125.152,139.676z M124.839,144.117l-0.803,0.23
						l0.554-6.339l0.829-0.236l3.964,5.04l-0.861,0.247l-1.155-1.54l-2.406,0.689L124.839,144.117z"/>
				</g>
				<g>
					<polygon fill-rule="evenodd" clip-rule="evenodd" points="131.239,142.175 130.492,142.432 128.557,136.817 129.304,136.56 
						130.263,139.345 132.095,135.6 133.101,135.253 131.53,138.343 135.137,140.834 134.156,141.171 131.18,139.027 
						130.568,140.23 					"/>
				</g>
				<g>
					<polygon fill-rule="evenodd" clip-rule="evenodd" points="138.42,139.522 137.686,139.803 135.804,134.909 133.976,135.611 
						133.727,134.962 138.121,133.276 138.37,133.926 136.541,134.628 					"/>
				</g>
				<g>
					
						<rect x="140.389" y="132.324" transform="matrix(0.9131 -0.4077 0.4077 0.9131 -42.9296 69.157)" fill-rule="evenodd" clip-rule="evenodd" width="0.787" height="5.941"/>
				</g>
			</g>
		</g>
	</g>
</g>
</svg>
