<svg xmlns="http://www.w3.org/2000/svg" viewBox="0 0 817.47 133.47"><defs><style>.cls-1{fill:#00abc2;}.cls-2{fill:#fff;}</style></defs><title>k-admin</title><g id="Layer_2" data-name="Layer 2"><g id="Layer_1-2" data-name="Layer 1"><rect class="cls-1" width="817.47" height="133.47" rx="66.74"/><path class="cls-2" d="M98.25,91.33a3.91,3.91,0,0,1-4,4A4,4,0,0,1,91,93.69L67.64,63.89,57.32,74.31V91.24a4.14,4.14,0,0,1-4.17,4.08,4.06,4.06,0,0,1-4.07-4.08V35.37a4.13,4.13,0,0,1,4.07-4.17,4.21,4.21,0,0,1,4.17,4.17V64.16l31-31.51a4.16,4.16,0,0,1,3.08-1.45,3.68,3.68,0,0,1,3.8,3.89,4,4,0,0,1-1,2.54L73.26,58.46l24,30.25A4.13,4.13,0,0,1,98.25,91.33Z"/><path class="cls-2" d="M151.69,71.77c0,14.31-9.24,24-23.19,24s-23.18-9.69-23.18-24,9.15-24,23.18-24S151.69,57.46,151.69,71.77Zm-8.24-.09c0-12-8.06-16.39-14.95-16.39s-14.94,4.44-14.94,16.39,8,16.57,14.94,16.57S143.45,83.72,143.45,71.68Z"/><path class="cls-2" d="M232.47,65.16V91.24a4.14,4.14,0,0,1-4.17,4.08,4.06,4.06,0,0,1-4.07-4.08V66.79c0-7.61-2.36-11.41-9.24-11.41s-10.6,4.62-13,8.69V91.24a4.14,4.14,0,0,1-4.17,4.08,4.06,4.06,0,0,1-4.07-4.08V66.79c0-7.61-2.36-11.41-9.24-11.41s-10.6,4.62-13,8.69V91.24a4.14,4.14,0,0,1-4.17,4.08,4.06,4.06,0,0,1-4.07-4.08V52.39a4.13,4.13,0,0,1,4.07-4.16,4.21,4.21,0,0,1,4.17,4.16V56.1c2.54-3.53,6.79-8.33,15.39-8.33a14.72,14.72,0,0,1,13.86,9.33,18.39,18.39,0,0,1,16.66-9.33C228,47.77,232.47,57.1,232.47,65.16Z"/><path class="cls-2" d="M254.66,88.89V112a4.12,4.12,0,1,1-8.24,0V52.3a4.12,4.12,0,0,1,8.24,0v2.35a20.63,20.63,0,0,1,15.48-6.88c11,0,21.92,8.61,21.92,24s-11,24-21.92,24A20.63,20.63,0,0,1,254.66,88.89Zm0-26.63v19A19.32,19.32,0,0,0,269,88.07c8.6,0,14.85-5.61,14.85-16.3s-6.25-16.3-14.85-16.3A19.32,19.32,0,0,0,254.66,62.26Z"/><path class="cls-2" d="M303.2,78V52.3a4.13,4.13,0,0,1,4.17-4.07,4.05,4.05,0,0,1,4.07,4.07V77.11c0,6.89,2.9,11,10,11,6.52,0,11.23-4.16,14.85-8.69V52.3a4.14,4.14,0,0,1,4.17-4.07,4.06,4.06,0,0,1,4.08,4.07V91.15a4.09,4.09,0,0,1-4.08,4.17,4.16,4.16,0,0,1-4.17-4.17V87.44c-3.8,4.16-8.78,8.33-16.84,8.33C309.09,95.77,303.2,87.71,303.2,78Z"/><path class="cls-2" d="M384.62,91a3.37,3.37,0,0,1-2.09,3.17A17.59,17.59,0,0,1,375,95.77c-4.26,0-13.23-.73-13.23-12V55.74h-6.43A1.67,1.67,0,0,1,353.64,54a2,2,0,0,1,.82-1.54l12.31-12a2.34,2.34,0,0,1,1.54-.82A1.74,1.74,0,0,1,370,41.43v7.25h10.24a3.53,3.53,0,1,1,0,7.06H370V83.09c0,5.34,3.63,5.43,5.89,5.43,2.9,0,3.9-.81,5.43-.81A3.31,3.31,0,0,1,384.62,91Z"/><path class="cls-2" d="M432.52,88.43a4.1,4.1,0,0,1-2.35,3.35c-4,2.27-8,4-15.85,4-14.76,0-23.46-8.79-23.46-24,0-12.23,6.61-24,21.65-24,13.94,0,21.55,10.78,21.55,22.82a4,4,0,0,1-4.16,4.08H399.2c.9,8.15,6.06,13.4,15.84,13.4a24.65,24.65,0,0,0,12.23-2.81,3.33,3.33,0,0,1,1.63-.36A3.55,3.55,0,0,1,432.52,88.43ZM399.2,68h26.71c-.54-9.42-7.61-13.22-13.4-13.22S399.74,58.55,399.2,68Z"/><path class="cls-2" d="M472.1,51.85a3.88,3.88,0,0,1-4.17,3.89h-.45c-6,0-10.87,3.26-14,8V91.24a4.13,4.13,0,0,1-4.16,4.08,4.06,4.06,0,0,1-4.08-4.08V52.39a4.13,4.13,0,0,1,4.08-4.16,4.21,4.21,0,0,1,4.16,4.16v3.89c3.26-4.34,8-8.51,14.22-8.51h.45A4,4,0,0,1,472.1,51.85Z"/><path class="cls-2" d="M557.5,91.24a3.9,3.9,0,0,1-4.08,4.08,4.12,4.12,0,0,1-3.89-2.54l-5.89-14.13H512.85L507,92.78a4.15,4.15,0,0,1-3.9,2.54A3.9,3.9,0,0,1,499,91.24a4.85,4.85,0,0,1,.45-1.81l23.09-54.52a5.7,5.7,0,0,1,5.25-3.71h.91A5.68,5.68,0,0,1,534,34.91l23.1,54.52A4.85,4.85,0,0,1,557.5,91.24Zm-17-20.1L528.25,41.7,516,71.14Z"/><path class="cls-2" d="M600.43,54.65V32.47a4.12,4.12,0,1,1,8.24,0V91.24a4.12,4.12,0,0,1-8.24,0V88.89a20.66,20.66,0,0,1-15.49,6.88c-11,0-21.91-8.6-21.91-24s11-24,21.91-24A20.66,20.66,0,0,1,600.43,54.65Zm0,26.63v-19a19.33,19.33,0,0,0-14.31-6.79c-8.61,0-14.85,5.61-14.85,16.3s6.24,16.3,14.85,16.3A19.33,19.33,0,0,0,600.43,81.28Z"/><path class="cls-2" d="M692.26,65.16V91.24a4.14,4.14,0,0,1-4.17,4.08A4.06,4.06,0,0,1,684,91.24V66.79c0-7.61-2.36-11.41-9.24-11.41s-10.6,4.62-13,8.69V91.24a4.14,4.14,0,0,1-4.17,4.08,4.06,4.06,0,0,1-4.07-4.08V66.79c0-7.61-2.36-11.41-9.24-11.41s-10.6,4.62-13,8.69V91.24a4.14,4.14,0,0,1-4.17,4.08A4.06,4.06,0,0,1,623,91.24V52.39a4.13,4.13,0,0,1,4.07-4.16,4.21,4.21,0,0,1,4.17,4.16V56.1c2.53-3.53,6.79-8.33,15.39-8.33a14.72,14.72,0,0,1,13.86,9.33,18.39,18.39,0,0,1,16.66-9.33C687.82,47.77,692.26,57.1,692.26,65.16Z"/><path class="cls-2" d="M715.62,34.64A4.63,4.63,0,0,1,711,39.26h-.55a4.64,4.64,0,0,1-4.62-4.62v-.36a4.64,4.64,0,0,1,4.62-4.62H711a4.63,4.63,0,0,1,4.61,4.62Zm-.81,17.75V91.24a4.12,4.12,0,0,1-8.24,0V52.39a4.12,4.12,0,1,1,8.24,0Z"/><path class="cls-2" d="M770.78,65.52V91.24a4.14,4.14,0,0,1-4.17,4.08,4.06,4.06,0,0,1-4.07-4.08V66.43c0-6.89-2.9-11.05-10-11.05-6.52,0-11.23,4.16-14.85,8.69V91.24a4.13,4.13,0,0,1-4.16,4.08,4.06,4.06,0,0,1-4.08-4.08V52.39a4.08,4.08,0,0,1,4.08-4.16,4.15,4.15,0,0,1,4.16,4.16V56.1c3.8-4.16,8.79-8.33,16.85-8.33C764.89,47.77,770.78,55.83,770.78,65.52Z"/></g></g></svg>