<svg xmlns="http://www.w3.org/2000/svg" viewBox="0 0 895.12 133.47"><defs><style>.cls-1{fill:#627b86;}.cls-2{fill:#fff;}</style></defs><title>k-dosen</title><g id="Layer_2" data-name="Layer 2"><g id="Layer_1-2" data-name="Layer 1"><rect class="cls-1" width="895.12" height="133.47" rx="66.74"/><path class="cls-2" d="M103.32,63.26c0,15.21-10.32,31.6-32,31.6H53.15a4.05,4.05,0,0,1-4.07-4.07v-55a4.13,4.13,0,0,1,4.07-4.17H71.36C93,31.65,103.32,48,103.32,63.26Zm-8.15,0c0-14.13-9.69-23.91-24.81-23.91h-13V87.17h13C85.48,87.17,95.17,77.39,95.17,63.26Z"/><path class="cls-2" d="M158.39,71.77c0,14.31-9.24,24-23.18,24S112,86.08,112,71.77s9.15-24,23.19-24S158.39,57.46,158.39,71.77Zm-8.24-.09c0-12-8.06-16.39-14.94-16.39s-15,4.44-15,16.39,8,16.57,15,16.57S150.15,83.73,150.15,71.68Z"/><path class="cls-2" d="M202.58,82.37c0,7.33-5.88,13.4-17.48,13.4a33.08,33.08,0,0,1-16.48-4.08,3.64,3.64,0,0,1,2-6.61,3.74,3.74,0,0,1,1.63.37,28.63,28.63,0,0,0,12.31,2.71c7,0,10.05-2.35,10.05-6.43,0-7.79-27.16-3.17-27.16-19.65,0-8.15,5.88-14.31,17.65-14.31A38.25,38.25,0,0,1,198.24,50a3.68,3.68,0,0,1,2.62,3.44,3.63,3.63,0,0,1-3.62,3.62,4.64,4.64,0,0,1-1.18-.18,34.09,34.09,0,0,0-10.32-1.63c-6.7,0-10.42,2.72-10.42,6.34C175.32,71.05,202.58,64.62,202.58,82.37Z"/><path class="cls-2" d="M252.3,88.43A4.1,4.1,0,0,1,250,91.78c-4,2.27-8,4-15.85,4-14.76,0-23.46-8.79-23.46-24,0-12.23,6.62-24,21.65-24,13.94,0,21.55,10.78,21.55,22.82a4,4,0,0,1-4.16,4.08H219c.9,8.15,6.06,13.4,15.84,13.4a24.65,24.65,0,0,0,12.23-2.81,3.33,3.33,0,0,1,1.63-.36A3.55,3.55,0,0,1,252.3,88.43ZM219,68h26.71c-.54-9.42-7.61-13.22-13.4-13.22S219.52,58.55,219,68Z"/><path class="cls-2" d="M306.28,65.52V91.24a4.14,4.14,0,0,1-4.17,4.08A4.06,4.06,0,0,1,298,91.24V66.43c0-6.89-2.9-11.05-10-11.05-6.53,0-11.23,4.16-14.86,8.69V91.24a4.13,4.13,0,0,1-4.16,4.08A4.06,4.06,0,0,1,265,91.24V52.39a4.08,4.08,0,0,1,4.08-4.16,4.15,4.15,0,0,1,4.16,4.16V56.1c3.81-4.16,8.79-8.33,16.85-8.33C300.39,47.77,306.28,55.83,306.28,65.52Z"/><path class="cls-2" d="M394.49,91.33a3.91,3.91,0,0,1-4,4,4,4,0,0,1-3.26-1.63l-23.36-29.8L353.55,74.31V91.24a4.13,4.13,0,0,1-4.16,4.08,4.06,4.06,0,0,1-4.08-4.08V35.37a4.14,4.14,0,0,1,4.08-4.17,4.21,4.21,0,0,1,4.16,4.17V64.16l31-31.51a4.17,4.17,0,0,1,3.08-1.45,3.68,3.68,0,0,1,3.81,3.89,4,4,0,0,1-1,2.54L369.49,58.46l24,30.25A4.14,4.14,0,0,1,394.49,91.33Z"/><path class="cls-2" d="M447.92,71.77c0,14.31-9.24,24-23.18,24s-23.19-9.69-23.19-24,9.15-24,23.19-24S447.92,57.46,447.92,71.77Zm-8.24-.09c0-12-8.06-16.39-14.94-16.39s-14.95,4.44-14.95,16.39,8,16.57,14.95,16.57S439.68,83.73,439.68,71.68Z"/><path class="cls-2" d="M503,71.77c0,14.31-9.24,24-23.18,24s-23.19-9.69-23.19-24,9.15-24,23.19-24S503,57.46,503,71.77Zm-8.24-.09c0-12-8.06-16.39-14.94-16.39s-14.95,4.44-14.95,16.39,8,16.57,14.95,16.57S494.74,83.73,494.74,71.68Z"/><path class="cls-2" d="M541.38,51.85a3.88,3.88,0,0,1-4.17,3.89h-.45c-6,0-10.87,3.26-14,8V91.24a4.13,4.13,0,0,1-4.16,4.08,4.06,4.06,0,0,1-4.08-4.08V52.39a4.13,4.13,0,0,1,4.08-4.16,4.21,4.21,0,0,1,4.16,4.16v3.89c3.26-4.34,8-8.51,14.22-8.51h.46A4,4,0,0,1,541.38,51.85Z"/><path class="cls-2" d="M584.13,54.65V32.47a4.12,4.12,0,1,1,8.24,0V91.24a4.12,4.12,0,0,1-8.24,0V88.89a20.66,20.66,0,0,1-15.49,6.88c-11,0-21.92-8.6-21.92-24s11-24,21.92-24A20.66,20.66,0,0,1,584.13,54.65Zm0,26.63v-19c-3.54-3.89-8.43-6.79-14.31-6.79-8.61,0-14.86,5.61-14.86,16.3s6.25,16.3,14.86,16.3C575.7,88.07,580.59,85.17,584.13,81.28Z"/><path class="cls-2" d="M616.1,34.64a4.64,4.64,0,0,1-4.62,4.62h-.55a4.64,4.64,0,0,1-4.62-4.62v-.36a4.64,4.64,0,0,1,4.62-4.62h.55a4.64,4.64,0,0,1,4.62,4.62Zm-.82,17.75V91.24a4.12,4.12,0,0,1-8.24,0V52.39a4.12,4.12,0,1,1,8.24,0Z"/><path class="cls-2" d="M671.25,65.52V91.24a4.14,4.14,0,0,1-4.17,4.08A4.06,4.06,0,0,1,663,91.24V66.43c0-6.89-2.9-11.05-10-11.05-6.52,0-11.23,4.16-14.85,8.69V91.24A4.13,4.13,0,0,1,634,95.32,4.06,4.06,0,0,1,630,91.24V52.39A4.08,4.08,0,0,1,634,48.23a4.15,4.15,0,0,1,4.16,4.16V56.1C642,51.94,647,47.77,655,47.77,665.36,47.77,671.25,55.83,671.25,65.52Z"/><path class="cls-2" d="M721.42,65.61V91.24a4.14,4.14,0,0,1-4.17,4.08,4.06,4.06,0,0,1-4.07-4.08V88.89c-3.26,3.35-8.51,6.88-17,6.88-7.88,0-14.76-5.07-14.76-13.59s6.7-14.67,20.83-14.67h11v-.72c0-8.06-4-11.23-12.14-11.23a36.42,36.42,0,0,0-12,2.17,5.35,5.35,0,0,1-1.18.18,3.36,3.36,0,0,1-3.35-3.44A3.59,3.59,0,0,1,686.83,51a38.64,38.64,0,0,1,15.66-3.26C715.71,47.77,721.42,56.74,721.42,65.61Zm-8.24,16.12v-7.6h-9.87c-8.52,0-13.68,2-13.68,7.15,0,3.89,2.27,7.24,9.6,7.24C704.85,88.52,710.1,85.26,713.18,81.73Z"/><path class="cls-2" d="M760.73,91a3.37,3.37,0,0,1-2.09,3.17,17.59,17.59,0,0,1-7.51,1.63c-4.26,0-13.23-.72-13.23-12V55.74h-6.43A1.67,1.67,0,0,1,729.75,54a2,2,0,0,1,.82-1.54l12.31-12a2.3,2.3,0,0,1,1.54-.82,1.75,1.75,0,0,1,1.73,1.81v7.25h10.23a3.53,3.53,0,0,1,0,7.06H746.15V83.09c0,5.34,3.62,5.43,5.88,5.43,2.9,0,3.9-.81,5.44-.81A3.3,3.3,0,0,1,760.73,91Z"/><path class="cls-2" d="M813.25,71.77c0,14.31-9.24,24-23.18,24s-23.19-9.69-23.19-24,9.15-24,23.19-24S813.25,57.46,813.25,71.77ZM805,71.68c0-12-8.06-16.39-14.94-16.39s-15,4.44-15,16.39,8,16.57,15,16.57S805,83.73,805,71.68Z"/><path class="cls-2" d="M851.65,51.85a3.88,3.88,0,0,1-4.17,3.89H847c-6,0-10.87,3.26-14,8V91.24a4.13,4.13,0,0,1-4.16,4.08,4.06,4.06,0,0,1-4.08-4.08V52.39a4.13,4.13,0,0,1,4.08-4.16A4.21,4.21,0,0,1,833,52.39v3.89c3.26-4.34,8-8.51,14.22-8.51h.46A4,4,0,0,1,851.65,51.85Z"/></g></g></svg>