<svg xmlns="http://www.w3.org/2000/svg" viewBox="0 0 960 133.47"><defs><style>.cls-1{fill:#65bb48;}.cls-2{fill:#fff;}</style></defs><title>k-proyektor</title><g id="Layer_2" data-name="Layer 2"><g id="Layer_1-2" data-name="Layer 1"><rect class="cls-1" width="960" height="133.47" rx="66.74"/><path class="cls-2" d="M98.25,91.33a3.91,3.91,0,0,1-4,4A4,4,0,0,1,91,93.69L67.64,63.89,57.32,74.31V91.24a4.14,4.14,0,0,1-4.17,4.08,4.06,4.06,0,0,1-4.07-4.08V35.37a4.13,4.13,0,0,1,4.07-4.17,4.21,4.21,0,0,1,4.17,4.17V64.16l31-31.51a4.16,4.16,0,0,1,3.08-1.45,3.68,3.68,0,0,1,3.8,3.89,4,4,0,0,1-1,2.54L73.26,58.46l24,30.25A4.13,4.13,0,0,1,98.25,91.33Z"/><path class="cls-2" d="M151.69,71.77c0,14.31-9.24,24-23.19,24s-23.18-9.69-23.18-24,9.15-24,23.18-24S151.69,57.46,151.69,71.77Zm-8.24-.09c0-12-8.06-16.39-14.95-16.39s-14.94,4.44-14.94,16.39,8,16.57,14.94,16.57S143.45,83.72,143.45,71.68Z"/><path class="cls-2" d="M232.47,65.16V91.24a4.14,4.14,0,0,1-4.17,4.08,4.06,4.06,0,0,1-4.07-4.08V66.79c0-7.61-2.36-11.41-9.24-11.41s-10.6,4.62-13,8.69V91.24a4.14,4.14,0,0,1-4.17,4.08,4.06,4.06,0,0,1-4.07-4.08V66.79c0-7.61-2.36-11.41-9.24-11.41s-10.6,4.62-13,8.69V91.24a4.14,4.14,0,0,1-4.17,4.08,4.06,4.06,0,0,1-4.07-4.08V52.39a4.13,4.13,0,0,1,4.07-4.16,4.21,4.21,0,0,1,4.17,4.16V56.1c2.54-3.53,6.79-8.33,15.39-8.33a14.72,14.72,0,0,1,13.86,9.33,18.39,18.39,0,0,1,16.66-9.33C228,47.77,232.47,57.1,232.47,65.16Z"/><path class="cls-2" d="M254.66,88.89V112a4.12,4.12,0,1,1-8.24,0V52.3a4.12,4.12,0,0,1,8.24,0v2.35a20.63,20.63,0,0,1,15.48-6.88c11,0,21.92,8.61,21.92,24s-11,24-21.92,24A20.63,20.63,0,0,1,254.66,88.89Zm0-26.63v19A19.32,19.32,0,0,0,269,88.07c8.6,0,14.85-5.61,14.85-16.3s-6.25-16.3-14.85-16.3A19.32,19.32,0,0,0,254.66,62.26Z"/><path class="cls-2" d="M303.2,78V52.3a4.13,4.13,0,0,1,4.17-4.07,4.05,4.05,0,0,1,4.07,4.07V77.11c0,6.89,2.9,11,10,11,6.52,0,11.23-4.16,14.85-8.69V52.3a4.14,4.14,0,0,1,4.17-4.07,4.06,4.06,0,0,1,4.08,4.07V91.15a4.09,4.09,0,0,1-4.08,4.17,4.16,4.16,0,0,1-4.17-4.17V87.44c-3.8,4.16-8.78,8.33-16.84,8.33C309.09,95.77,303.2,87.71,303.2,78Z"/><path class="cls-2" d="M384.62,91a3.37,3.37,0,0,1-2.09,3.17A17.59,17.59,0,0,1,375,95.77c-4.26,0-13.23-.72-13.23-12V55.74h-6.43A1.67,1.67,0,0,1,353.64,54a2,2,0,0,1,.82-1.54l12.31-12a2.34,2.34,0,0,1,1.54-.82A1.74,1.74,0,0,1,370,41.43v7.25h10.24a3.53,3.53,0,1,1,0,7.06H370V83.09c0,5.34,3.63,5.43,5.89,5.43,2.9,0,3.9-.81,5.43-.81A3.31,3.31,0,0,1,384.62,91Z"/><path class="cls-2" d="M432.52,88.43a4.1,4.1,0,0,1-2.35,3.35c-4,2.27-8,4-15.85,4-14.76,0-23.46-8.78-23.46-24,0-12.22,6.61-24,21.65-24,13.94,0,21.55,10.78,21.55,22.82a4,4,0,0,1-4.16,4.08H399.2c.9,8.15,6.06,13.4,15.84,13.4a24.54,24.54,0,0,0,12.23-2.81,3.33,3.33,0,0,1,1.63-.36A3.55,3.55,0,0,1,432.52,88.43ZM399.2,68h26.71c-.54-9.42-7.61-13.22-13.4-13.22S399.74,58.55,399.2,68Z"/><path class="cls-2" d="M472.1,51.85a3.88,3.88,0,0,1-4.17,3.89h-.45c-6,0-10.87,3.26-14,8V91.24a4.13,4.13,0,0,1-4.16,4.08,4.06,4.06,0,0,1-4.08-4.08V52.39a4.13,4.13,0,0,1,4.08-4.16,4.21,4.21,0,0,1,4.16,4.16v3.89c3.26-4.34,8-8.51,14.22-8.51h.45A4,4,0,0,1,472.1,51.85Z"/><path class="cls-2" d="M554.33,51.76c0,9.6-5.89,20.1-24.18,20.1H513.67V91.24a4.14,4.14,0,0,1-4.17,4.08,4.06,4.06,0,0,1-4.07-4.08V35.82a4.13,4.13,0,0,1,4.07-4.17h20.65C548.44,31.65,554.33,42.16,554.33,51.76Zm-8.24,0c0-5.89-3.26-12.32-16.76-12.32H513.67V64.07h15.66C542.83,64.07,546.09,57.64,546.09,51.76Z"/><path class="cls-2" d="M590.56,51.85a3.89,3.89,0,0,1-4.17,3.89h-.45c-6,0-10.87,3.26-14,8V91.24a4.14,4.14,0,0,1-4.17,4.08,4.06,4.06,0,0,1-4.07-4.08V52.39a4.13,4.13,0,0,1,4.07-4.16,4.21,4.21,0,0,1,4.17,4.16v3.89c3.26-4.34,8-8.51,14.22-8.51h.45A4,4,0,0,1,590.56,51.85Z"/><path class="cls-2" d="M642.27,71.77c0,14.31-9.24,24-23.19,24s-23.18-9.69-23.18-24,9.15-24,23.18-24S642.27,57.46,642.27,71.77ZM634,71.68c0-12-8.06-16.39-14.95-16.39s-14.94,4.44-14.94,16.39,8,16.57,14.94,16.57S634,83.72,634,71.68Z"/><path class="cls-2" d="M692,53.93l-24.73,59.41a4.08,4.08,0,0,1-3.8,2.81,4,4,0,0,1-3.9-4,4.15,4.15,0,0,1,.28-1.45l5.88-15.12-17-41.48a4.85,4.85,0,0,1-.36-1.72,4.13,4.13,0,0,1,4.07-4.16,4.17,4.17,0,0,1,3.8,2.53l13.95,34.6,14.22-34.42a4.07,4.07,0,0,1,3.8-2.71,4.13,4.13,0,0,1,4.08,4.16A4.26,4.26,0,0,1,692,53.93Z"/><path class="cls-2" d="M740.08,88.43a4.11,4.11,0,0,1-2.36,3.35c-4,2.27-8,4-15.85,4-14.76,0-23.45-8.78-23.45-24,0-12.22,6.61-24,21.64-24,14,0,21.56,10.78,21.56,22.82a4,4,0,0,1-4.17,4.08h-30.7c.91,8.15,6.07,13.4,15.85,13.4a24.53,24.53,0,0,0,12.22-2.81,3.36,3.36,0,0,1,1.63-.36A3.56,3.56,0,0,1,740.08,88.43ZM706.75,68h26.71c-.54-9.42-7.6-13.22-13.4-13.22S707.29,58.55,706.75,68Z"/><path class="cls-2" d="M792,91.33a3.85,3.85,0,0,1-4.17,4,4.57,4.57,0,0,1-3.35-1.72L768.88,72.4,761,79.56V91.24a4.14,4.14,0,0,1-4.17,4.08,4.06,4.06,0,0,1-4.07-4.08V32.47a4.13,4.13,0,0,1,4.07-4.17A4.21,4.21,0,0,1,761,32.47v37l21.55-19.93a4.17,4.17,0,0,1,2.72-1.17,3.67,3.67,0,0,1,4,4,4.37,4.37,0,0,1-1.54,3.08l-13,11.68,16.39,21.74A4,4,0,0,1,792,91.33Z"/><path class="cls-2" d="M828,91a3.36,3.36,0,0,1-2.08,3.17,17.61,17.61,0,0,1-7.52,1.63c-4.25,0-13.22-.72-13.22-12V55.74h-6.43A1.67,1.67,0,0,1,797,54a2,2,0,0,1,.82-1.54l12.31-12a2.31,2.31,0,0,1,1.54-.82,1.74,1.74,0,0,1,1.72,1.81v7.25h10.24a3.53,3.53,0,1,1,0,7.06H813.43V83.09c0,5.34,3.63,5.43,5.89,5.43,2.9,0,3.89-.81,5.43-.81A3.3,3.3,0,0,1,828,91Z"/><path class="cls-2" d="M880.54,71.77c0,14.31-9.24,24-23.19,24s-23.18-9.69-23.18-24,9.15-24,23.18-24S880.54,57.46,880.54,71.77Zm-8.24-.09c0-12-8.06-16.39-14.95-16.39s-14.94,4.44-14.94,16.39,8,16.57,14.94,16.57S872.3,83.72,872.3,71.68Z"/><path class="cls-2" d="M918.94,51.85a3.88,3.88,0,0,1-4.17,3.89h-.45c-6,0-10.87,3.26-14,8V91.24a4.13,4.13,0,0,1-4.16,4.08A4.06,4.06,0,0,1,892,91.24V52.39a4.13,4.13,0,0,1,4.08-4.16,4.21,4.21,0,0,1,4.16,4.16v3.89c3.26-4.34,8-8.51,14.22-8.51H915A4,4,0,0,1,918.94,51.85Z"/></g></g></svg>