<?xml version="1.0" encoding="utf-8"?>
<!-- Generator: Adobe Illustrator 23.0.3, SVG Export Plug-In . SVG Version: 6.00 Build 0)  -->
<svg version="1.1" id="Layer_1" xmlns="http://www.w3.org/2000/svg" xmlns:xlink="http://www.w3.org/1999/xlink" x="0px" y="0px"
	 viewBox="0 0 801 711" style="enable-background:new 0 0 801 711;" xml:space="preserve">
<style type="text/css">
	.st0{fill:#FFFFFF;}
	.st1{fill:none;stroke:#B2B2B2;stroke-width:0.9;stroke-miterlimit:10;}
	.st2{fill:none;stroke:#000000;stroke-width:0.9;stroke-miterlimit:10;}
	.st3{fill:none;stroke:#0C7CBA;stroke-width:1.8;stroke-miterlimit:10;}
	.st4{fill:#0C7CBA;}
</style>
<rect x="54" y="18" class="st0" width="18" height="81"/>
<rect x="54" y="18" class="st1" width="18" height="81"/>
<rect x="54" y="99" class="st0" width="18" height="81"/>
<rect x="54" y="99" class="st1" width="18" height="81"/>
<rect x="54" y="180" class="st0" width="18" height="81"/>
<rect x="54" y="180" class="st1" width="18" height="81"/>
<rect x="54" y="261" class="st0" width="18" height="90"/>
<rect x="54" y="261" class="st1" width="18" height="90"/>
<rect x="72" y="18" class="st1" width="711" height="81"/>
<rect x="72" y="99" class="st1" width="711" height="81"/>
<rect x="72" y="180" class="st1" width="711" height="81"/>
<rect x="72" y="261" class="st1" width="711" height="90"/>
<path d="M61.9,71c0-1.3,0.2-2.8-1.1-2.8c-1.3,0-1.1,1.5-1.1,2.8h1.1H61.9z M59,71.8c0-2-0.3-4.3,1.7-4.3c1.8,0,1.8,1.7,1.7,3.6h1.1
	h1.1v0.7h-2.8H59z"/>
<path d="M62.1,63.6c-1.3-0.1-1.7,1.7-0.6,2.2c0.2,0.1,0.4,0.1,0.6,0.1V63.6z M60.3,64.8c0-1.4,0.9-1.9,2.4-1.9v3
	c0.9,0,1.5-0.3,1.5-1.2c0-0.6-0.3-1-0.7-1.1l0.2-0.6c0.6,0.2,1,0.8,1,1.7c0,1.3-0.8,2-2.3,2C61.1,66.7,60.3,66.1,60.3,64.8z"/>
<path d="M61.4,59.5c-0.8,0.1-0.9,1.9,0,2c1.2-0.3,0.3-2.6,2-2.7c1.8-0.1,1.7,3.4,0.2,3.5l-0.1-0.6c0.8-0.1,1-2.2,0-2.2
	c-1.3,0.2-0.3,2.5-2,2.7c-1.3,0.1-1.4-1.8-0.9-2.7c0.2-0.3,0.4-0.5,0.8-0.5L61.4,59.5z"/>
<path d="M62.1,55.1c-1.3-0.1-1.7,1.7-0.6,2.2c0.2,0.1,0.4,0.1,0.6,0.1V55.1z M60.3,56.2c0-1.4,0.9-1.9,2.4-1.9v3
	c0.9,0,1.5-0.3,1.5-1.2c0-0.6-0.3-1-0.7-1.1l0.2-0.6c0.6,0.2,1,0.8,1,1.7c0,1.3-0.8,2-2.3,2C61.1,58.1,60.3,57.6,60.3,56.2z"/>
<path d="M61,51.4c-0.4,1.8,2,1.2,3.7,1.3v0.7l-4.3,0v-0.7c0.3,0,0.7,0,0.9,0c-0.6-0.1-1.1-0.5-0.9-1.3h0.3H61z"/>
<path d="M63.6,50c0.5,0,0.7-0.4,0.5-0.9h0.3h0.3c0.2,0.7,0.1,1.6-0.9,1.6h-1.4h-1.4v0.5h-0.3h-0.3v-0.5l-1-0.2V50h0.5h0.5v-0.8h0.3
	h0.3V50h1.4H63.6z"/>
<path d="M63.4,48c0.5,0,0.7-0.3,0.7-0.7c-0.1-0.9-0.7-1.4-1.7-1.3C62.5,46.9,62.4,48,63.4,48z M63.8,45.9c0.5,0.3,0.9,0.7,0.9,1.5
	c0,0.8-0.5,1.3-1.3,1.3c-1.4,0-1.4-1.4-1.4-2.8c-0.8-0.1-1.2,0.2-1.2,0.9c0,0.5,0.2,0.9,0.7,0.9l-0.1,0.7c-0.8-0.1-1.2-0.7-1.2-1.7
	c0-1,0.5-1.6,1.4-1.6h0.9h0.9c0.5,0,0.7-0.2,0.6-0.6h0.2h0.2C64.8,45.3,64.6,45.9,63.8,45.9z"/>
<path d="M60.4,147.7c-1.1,0.1-1.2,2.8,0,2.8c1.7-0.3,0.3-3.6,2.7-3.7c1.8-0.1,2,2.7,1.2,3.9c-0.2,0.4-0.6,0.6-1,0.7l-0.2-0.7
	c1.3-0.1,1.4-3.2,0-3.2c-1.8,0-0.3,3.5-2.7,3.6c-1.8,0.1-1.9-3.3-0.8-4c0.2-0.1,0.4-0.2,0.6-0.2L60.4,147.7z"/>
<path d="M64.6,145.9h-2.1h-2.1v-0.7h2.1h2.1V145.9z M59.4,145.9h-0.3h-0.3v-0.7h0.3h0.3V145.9z"/>
<path d="M61.4,141.6c-0.8,0.1-0.9,1.9,0,2c1.2-0.3,0.3-2.6,2-2.7c1.8-0.1,1.7,3.4,0.2,3.5l-0.1-0.6c0.8-0.1,1-2.2,0-2.2
	c-1.3,0.2-0.3,2.5-2,2.7c-1.3,0.1-1.4-1.8-0.9-2.7c0.2-0.3,0.4-0.5,0.8-0.5L61.4,141.6z"/>
<path d="M63.6,139.3c0.5,0,0.7-0.4,0.5-0.9h0.3h0.3c0.2,0.7,0.1,1.6-0.9,1.6h-1.4h-1.4v0.5h-0.3h-0.3V140l-1-0.2v-0.5h0.5h0.5v-0.8
	h0.3h0.3v0.8h1.4H63.6z"/>
<path d="M62.1,135c-1.3-0.1-1.7,1.7-0.6,2.2c0.2,0.1,0.4,0.1,0.6,0.1V135z M60.3,136.1c0-1.4,0.9-1.9,2.4-1.9v3
	c0.9,0,1.5-0.3,1.5-1.2c0-0.6-0.3-1-0.7-1.1l0.2-0.6c0.6,0.2,1,0.8,1,1.7c0,1.3-0.8,2-2.3,2C61.1,138,60.3,137.5,60.3,136.1z"/>
<path d="M60.8,129.2c0.1,1.5,2.4,0.9,3.8,1v0.7h-1.4h-1.4c-0.7,0-1.1,0.1-1.1,0.8c0.1,1.5,2.3,0.9,3.8,1v0.7l-4.3,0v-0.7
	c0.2,0,0.5,0,0.7,0c-1-0.2-1.1-2.2,0-2.4c-0.5-0.2-0.8-0.6-0.8-1.3c0-1.9,2.7-1.1,4.4-1.2v0.7h-1.4h-1.4
	C61.2,128.4,60.8,128.5,60.8,129.2z"/>
<path d="M62.4,228.2l-2.8,1.1c1,0.3,1.8,0.7,2.8,1V228.2z M64.6,227.3L63,228v2.5l1.6,0.6v0.8l-5.6-2.3v-0.9l5.6-2.2V227.3z"/>
<path d="M60.8,224.4c0,0.9,0.8,1,1.7,1c0.9,0,1.7-0.1,1.7-1c0-0.9-0.7-1.1-1.7-1.1C61.5,223.3,60.8,223.5,60.8,224.4z M60.3,224.6
	c0-0.7,0.3-1.1,0.7-1.4l-2.3,0v-0.7l5.9,0v0.7c-0.2,0-0.5,0-0.7,0.1c0.5,0.2,0.8,0.6,0.8,1.3c0,1.2-0.9,1.6-2.2,1.6
	C61,226.2,60.3,225.7,60.3,224.6z"/>
<path d="M60.8,217.3c0.1,1.5,2.4,0.9,3.8,1v0.7h-1.4h-1.4c-0.7,0-1.1,0.1-1.1,0.8c0.1,1.5,2.3,0.9,3.8,1v0.7l-4.3,0v-0.7
	c0.2,0,0.5,0,0.7,0c-1-0.2-1.1-2.2,0-2.4c-0.5-0.2-0.8-0.6-0.8-1.3c0-1.9,2.7-1.1,4.4-1.2v0.7h-1.4h-1.4
	C61.2,216.5,60.8,216.7,60.8,217.3z"/>
<path d="M64.6,214.8h-2.1h-2.1v-0.7h2.1h2.1V214.8z M59.4,214.8h-0.3h-0.3v-0.7h0.3h0.3V214.8z"/>
<path d="M60.3,210.9c-0.1-2,2.6-1.2,4.4-1.4v0.7h-1.4h-1.4c-0.7,0-1.1,0.2-1.1,0.9c0,1.6,2.3,1,3.8,1.1v0.7l-4.3,0v-0.7
	c0.2,0,0.5,0,0.7,0C60.6,212,60.3,211.6,60.3,210.9z"/>
<path d="M64,326.2c0.2-2-0.4-3.3-2.2-3.3s-2.3,1.4-2.1,3.3h2.2H64z M59,326.9c-0.2-2.7,0.2-4.9,2.7-4.8c1.8,0.1,2.8,1,2.8,2.7v2.1
	h-2.8H59z"/>
<path d="M64.2,319.5c0-1-0.7-1.2-1.7-1.2c-1,0-1.7,0.2-1.7,1.1s0.7,1.2,1.7,1.2C63.5,320.7,64.1,320.5,64.2,319.5z M60.3,319.5
	c0-1.4,0.8-1.9,2.2-1.9c1.4,0,2.2,0.6,2.2,1.9c0,1.3-0.9,1.9-2.2,1.9C61,321.4,60.3,320.8,60.3,319.5z"/>
<path d="M61.4,314.2c-0.8,0.1-0.9,1.9,0,2c1.2-0.3,0.3-2.6,2-2.7c1.8-0.1,1.7,3.4,0.2,3.5l-0.1-0.6c0.8-0.1,1-2.2,0-2.2
	c-1.3,0.2-0.3,2.5-2,2.7c-1.3,0.1-1.4-1.8-0.9-2.7c0.2-0.3,0.4-0.5,0.8-0.5L61.4,314.2z"/>
<path d="M62.1,309.8c-1.3-0.1-1.7,1.7-0.6,2.2c0.2,0.1,0.4,0.1,0.6,0.1V309.8z M60.3,311c0-1.4,0.9-1.9,2.4-1.9v3
	c0.9,0,1.5-0.3,1.5-1.2c0-0.6-0.3-1-0.7-1.1l0.2-0.6c0.6,0.2,1,0.8,1,1.7c0,1.3-0.8,2-2.3,2C61.1,312.9,60.3,312.3,60.3,311z"/>
<path d="M60.3,306.1c-0.1-2,2.6-1.2,4.4-1.4v0.7h-1.4h-1.4c-0.7,0-1.1,0.2-1.1,0.9c0,1.6,2.3,1,3.8,1.1v0.7l-4.3,0v-0.7
	c0.2,0,0.5,0,0.7,0C60.6,307.2,60.3,306.8,60.3,306.1z"/>
<path d="M59,298.6c2.3,0.2,5.7-0.8,5.7,1.6c0,1-0.6,1.5-1.5,1.7l-0.1-0.7c0.6-0.1,0.9-0.4,1-1c0-0.6-0.5-0.9-1.1-0.9h-1.7h-1.7v1.1
	h-0.3H59V298.6z"/>
<path d="M63.4,296.9c0.5,0,0.7-0.3,0.7-0.7c-0.1-0.9-0.7-1.4-1.7-1.4C62.5,295.8,62.4,296.9,63.4,296.9z M63.8,294.8
	c0.5,0.3,0.9,0.7,0.9,1.5c0,0.8-0.5,1.3-1.3,1.3c-1.4,0-1.4-1.4-1.4-2.8c-0.8-0.1-1.2,0.2-1.2,0.9c0,0.5,0.2,0.9,0.7,0.9l-0.1,0.7
	c-0.8-0.1-1.2-0.7-1.2-1.7c0-1,0.5-1.6,1.4-1.6h0.9h0.9c0.5,0,0.7-0.2,0.6-0.6h0.2h0.2C64.8,294.1,64.6,294.8,63.8,294.8z"/>
<path d="M64.1,291.3c0-0.8-0.7-1.1-1.6-1.1c-0.9,0-1.7,0.3-1.7,1.1c0,0.9,0.8,1,1.7,1S64.1,292.2,64.1,291.3z M60.3,289.5
	c2.8,0.2,6.6-0.9,5.9,2.5c-0.1,0.5-0.4,0.9-1,1l-0.1-0.7c1.1-0.3,0.7-2.3-0.6-2h-0.3h-0.3c0.5,0.2,0.8,0.7,0.8,1.4
	c0,1.2-0.9,1.5-2.2,1.5c-1.3,0-2.2-0.4-2.2-1.6c0-0.7,0.4-1.1,0.8-1.3c-0.2,0-0.5,0-0.7,0V289.5z"/>
<path d="M63.4,287.9c0.5,0,0.7-0.3,0.7-0.7c-0.1-0.9-0.7-1.4-1.7-1.4C62.5,286.8,62.4,287.9,63.4,287.9z M63.8,285.8
	c0.5,0.3,0.9,0.7,0.9,1.5c0,0.8-0.5,1.3-1.3,1.3c-1.4,0-1.4-1.4-1.4-2.8c-0.8-0.1-1.2,0.2-1.2,0.9c0,0.5,0.2,0.9,0.7,0.9l-0.1,0.7
	c-0.8-0.1-1.2-0.7-1.2-1.7c0-1,0.5-1.6,1.4-1.6h0.9h0.9c0.5,0,0.7-0.2,0.6-0.6h0.2h0.2C64.8,285.1,64.6,285.8,63.8,285.8z"/>
<path class="st0" d="M131.4,225c7,0,12.6,6,12.6,13.5c0,7.5-5.6,13.5-12.6,13.5H93.6c-7,0-12.6-6-12.6-13.5
	c0-7.5,5.6-13.5,12.6-13.5H131.4z"/>
<path class="st2" d="M131.4,225c7,0,12.6,6,12.6,13.5c0,7.5-5.6,13.5-12.6,13.5H93.6c-7,0-12.6-6-12.6-13.5
	c0-7.5,5.6-13.5,12.6-13.5H131.4z"/>
<path d="M108.3,240.8l0-4.9c-0.5,1.7-1.2,3.3-1.8,4.9H106l-1.8-4.9l0,4.9h-0.7V238v-2.8h1l1.7,4.7c0.5-1.7,1.1-3.1,1.7-4.7h1v2.8
	v2.8H108.3z"/>
<path d="M111.5,240.8c-2,0.1-1.2-2.6-1.4-4.4h0.7v1.4v1.4c0,0.7,0.2,1.1,0.9,1.1c1.6,0,1-2.3,1.1-3.8h0.7l0,4.3h-0.7
	c0-0.2,0-0.6,0-0.7C112.6,240.5,112.2,240.8,111.5,240.8z"/>
<polygon points="114.6,240.8 114.6,237.8 114.6,234.9 115.3,234.9 115.3,237.8 115.3,240.8 "/>
<path d="M116.9,239.6c0,0.4,0.3,0.7,0.7,0.7c0.9-0.1,1.4-0.7,1.3-1.7C118,238.7,116.9,238.5,116.9,239.6z M119,239.9
	c-0.3,0.5-0.7,0.9-1.5,0.9c-0.8,0-1.3-0.5-1.3-1.3c0-1.4,1.4-1.4,2.8-1.4c0.1-0.8-0.2-1.2-0.9-1.2c-0.5,0-0.9,0.2-0.9,0.7l-0.7-0.1
	c0.1-0.8,0.7-1.2,1.7-1.2c1,0,1.6,0.5,1.6,1.4v0.9v0.9c0,0.5,0.2,0.7,0.6,0.6v0.2v0.2C119.7,240.9,119,240.7,119,239.9z"/>
<path d="M120.9,240.8v-2.1v-2.1h0.7v2.1v2.1H120.9z M120.9,235.6v-0.3v-0.3h0.7v0.3v0.3H120.9z"/>
<polyline class="st2" points="144.9,238.5 171,238.5 171,45 180.2,45 "/>
<polygon points="144.9,239 144.4,239 144.4,238.5 144.4,238.1 144.9,238.1 "/>
<polygon points="187.1,45 180.7,47.1 180.7,42.9 "/>
<polygon class="st2" points="187.1,45 180.7,47.1 180.7,42.9 "/>
<rect x="189" y="27" class="st0" width="72" height="36"/>
<rect x="189" y="27" class="st2" width="72" height="36"/>
<path d="M210.6,36.7l0-4.9c-0.5,1.7-1.2,3.3-1.8,4.9h-0.5l-1.8-4.9l0,4.9h-0.7v-2.8v-2.8h1l1.7,4.7c0.5-1.7,1.1-3.2,1.7-4.7h1v2.8
	v2.8H210.6z"/>
<path d="M213,35.5c0,0.4,0.3,0.7,0.7,0.7c0.9-0.1,1.4-0.7,1.4-1.7C214.1,34.6,213,34.5,213,35.5z M215.1,35.9
	c-0.3,0.5-0.7,0.9-1.5,0.9c-0.8,0-1.3-0.5-1.3-1.3c0-1.4,1.4-1.4,2.8-1.4c0.1-0.8-0.2-1.2-0.9-1.2c-0.5,0-0.9,0.2-0.9,0.7l-0.7-0.1
	c0.1-0.8,0.7-1.2,1.7-1.2c1,0,1.6,0.5,1.6,1.4v0.9v0.9c0,0.5,0.2,0.7,0.6,0.6v0.2v0.2C215.7,36.9,215.1,36.6,215.1,35.9z"/>
<path d="M219.5,33.5c-0.1-0.8-1.9-0.9-2,0c0.3,1.2,2.6,0.3,2.7,2c0.1,1.8-3.4,1.7-3.5,0.2l0.6-0.1c0.1,0.8,2.2,1,2.2,0
	c-0.2-1.3-2.5-0.3-2.7-2c-0.1-1.3,1.8-1.4,2.7-0.9c0.3,0.2,0.5,0.4,0.5,0.8L219.5,33.5z"/>
<path d="M222.4,36.8c-2,0.1-1.2-2.6-1.4-4.4h0.7v1.3v1.4c0,0.7,0.2,1.1,0.9,1.1c1.6,0,1-2.3,1.1-3.8h0.7l0,4.3h-0.7
	c0-0.2,0-0.6,0-0.7C223.5,36.5,223.1,36.8,222.4,36.8z"/>
<polygon points="228.2,36.7 226.8,34.8 226.2,35.2 226.2,35.9 226.2,36.7 225.5,36.7 225.5,33.8 225.5,30.8 226.2,30.8 226.2,32.7 
	226.2,34.5 228.1,32.4 228.9,32.4 227.2,34.3 229.1,36.7 "/>
<path d="M233.4,32.9c-0.9,0-1,0.8-1,1.7c0,0.9,0.1,1.7,1,1.7c0.9,0,1.1-0.7,1.1-1.7C234.5,33.6,234.3,32.9,233.4,32.9z M233.2,32.3
	c0.7,0,1.1,0.3,1.4,0.7l0-2.3h0.7l0,5.9h-0.7c0-0.2,0-0.5-0.1-0.7c-0.2,0.5-0.6,0.8-1.3,0.8c-1.2,0-1.6-0.9-1.6-2.2
	C231.6,33.1,232.1,32.3,233.2,32.3z"/>
<path d="M236.9,35.5c0,0.4,0.3,0.7,0.7,0.7c0.9-0.1,1.4-0.7,1.4-1.7C238,34.6,236.9,34.5,236.9,35.5z M239,35.9
	c-0.3,0.5-0.7,0.9-1.5,0.9c-0.8,0-1.3-0.5-1.3-1.3c0-1.4,1.4-1.4,2.8-1.4c0.1-0.8-0.2-1.2-0.9-1.2c-0.5,0-0.9,0.2-0.9,0.7l-0.7-0.1
	c0.1-0.8,0.7-1.2,1.7-1.2c1,0,1.6,0.5,1.6,1.4v0.9v0.9c0,0.5,0.2,0.7,0.6,0.6v0.2v0.2C239.6,36.9,238.9,36.6,239,35.9z"/>
<path d="M242.9,32.3c2-0.1,1.2,2.6,1.4,4.4h-0.7v-1.4V34c0-0.7-0.2-1.1-0.9-1.1c-1.6,0-1,2.3-1.1,3.8h-0.7l0-4.3h0.7
	c0,0.2,0,0.5,0,0.7C241.8,32.7,242.2,32.4,242.9,32.3z"/>
<path d="M203.7,42.6c-0.9,0-1,0.8-1,1.7c0,0.9,0.1,1.7,1,1.7c0.9,0,1.1-0.7,1.1-1.7C204.8,43.3,204.6,42.6,203.7,42.6z M203.5,42.1
	c0.7,0,1.1,0.3,1.4,0.7l0-2.3h0.7l0,5.9h-0.7c0-0.2,0-0.5-0.1-0.7c-0.2,0.5-0.6,0.8-1.3,0.8c-1.2,0-1.6-0.9-1.6-2.2
	C201.9,42.8,202.5,42.1,203.5,42.1z"/>
<path d="M206.6,46.4v-2.1v-2.1h0.7v2.1v2.1H206.6z M206.6,41.2v-0.3v-0.3h0.7v0.3v0.3H206.6z"/>
<path d="M209.2,45.4c0,0.5,0.4,0.7,0.9,0.5v0.3v0.3c-0.7,0.2-1.6,0.1-1.6-0.9v-1.4v-1.4H208v-0.3v-0.3h0.5l0.2-1h0.5v0.5v0.5h0.8
	v0.3v0.3h-0.8V44V45.4z"/>
<path d="M211.2,45.2c0,0.4,0.3,0.7,0.7,0.7c0.9-0.1,1.4-0.7,1.4-1.7C212.3,44.4,211.2,44.2,211.2,45.2z M213.3,45.6
	c-0.3,0.5-0.7,0.9-1.5,0.9c-0.8,0-1.3-0.5-1.3-1.3c0-1.4,1.4-1.4,2.8-1.4c0.1-0.8-0.2-1.2-0.9-1.2c-0.5,0-0.9,0.2-0.9,0.7l-0.7-0.1
	c0.1-0.8,0.7-1.2,1.7-1.2c1,0,1.6,0.5,1.6,1.4v0.9v0.9c0,0.5,0.2,0.7,0.6,0.6v0.2v0.2C213.9,46.6,213.3,46.4,213.3,45.6z"/>
<path d="M217,42.6c-1.6,0-1,2.3-1.1,3.8h-0.7v-2.9v-2.9h0.7l0,2.3c0.3-0.5,0.6-0.8,1.4-0.8c2,0,1.2,2.6,1.4,4.4h-0.7v-1.4v-1.4
	C217.9,43,217.7,42.6,217,42.6z"/>
<path d="M220.2,45.2c0,0.4,0.3,0.7,0.7,0.7c0.9-0.1,1.4-0.7,1.4-1.7C221.3,44.4,220.2,44.2,220.2,45.2z M222.3,45.6
	c-0.3,0.5-0.7,0.9-1.5,0.9c-0.8,0-1.3-0.5-1.3-1.3c0-1.4,1.4-1.4,2.8-1.4c0.1-0.8-0.2-1.2-0.9-1.2c-0.5,0-0.9,0.2-0.9,0.7l-0.7-0.1
	c0.1-0.8,0.7-1.2,1.7-1.2c1,0,1.6,0.5,1.6,1.4v0.9v0.9c0,0.5,0.2,0.7,0.6,0.6v0.2v0.2C222.9,46.6,222.3,46.4,222.3,45.6z"/>
<path d="M226.3,42.1c2-0.1,1.2,2.6,1.4,4.4h-0.7v-1.4v-1.4c0-0.7-0.2-1.1-0.9-1.1c-1.6,0-1,2.3-1.1,3.8h-0.7l0-4.3h0.7
	c0,0.2,0,0.5,0,0.7C225.1,42.4,225.5,42.1,226.3,42.1z"/>
<path d="M232.8,46c0.9,0,1-0.8,1-1.7c0-0.9-0.1-1.6-1-1.7c-0.9,0-1.1,0.7-1.1,1.7C231.6,45.3,231.9,46,232.8,46z M233,42.1
	c1.2,0,1.6,0.9,1.6,2.2c0,1.3-0.4,2.2-1.6,2.3c-0.7,0-1.1-0.3-1.4-0.8l0,2.4h-0.7l0-6h0.7l0,0.7C231.9,42.4,232.3,42.1,233,42.1z"/>
<path d="M236,45.2c0,0.4,0.3,0.7,0.7,0.7c0.9-0.1,1.4-0.7,1.4-1.7C237.1,44.4,236,44.2,236,45.2z M238.1,45.6
	c-0.3,0.5-0.7,0.9-1.5,0.9c-0.8,0-1.3-0.5-1.3-1.3c0-1.4,1.4-1.4,2.8-1.4c0.1-0.8-0.2-1.2-0.9-1.2c-0.5,0-0.9,0.2-0.9,0.7l-0.7-0.1
	c0.1-0.8,0.7-1.2,1.7-1.2c1,0,1.6,0.5,1.6,1.4v0.9v0.9c0,0.5,0.2,0.7,0.6,0.6v0.2v0.2C238.7,46.6,238,46.4,238.1,45.6z"/>
<path d="M241.5,42.6c-0.9,0-1,0.8-1,1.7c0,0.9,0.1,1.7,1,1.7c0.9,0,1.1-0.7,1.1-1.7C242.6,43.3,242.4,42.6,241.5,42.6z M241.3,42.1
	c0.7,0,1.1,0.3,1.4,0.7l0-2.3h0.7l0,5.9h-0.7c0-0.2,0-0.5-0.1-0.7c-0.2,0.5-0.6,0.8-1.3,0.8c-1.2,0-1.6-0.9-1.6-2.2
	C239.7,42.8,240.2,42.1,241.3,42.1z"/>
<path d="M245,45.2c0,0.4,0.3,0.7,0.7,0.7c0.9-0.1,1.4-0.7,1.4-1.7C246.1,44.4,245,44.2,245,45.2z M247.1,45.6
	c-0.3,0.5-0.7,0.9-1.5,0.9c-0.8,0-1.3-0.5-1.3-1.3c0-1.4,1.4-1.4,2.8-1.4c0.1-0.8-0.2-1.2-0.9-1.2c-0.5,0-0.9,0.2-0.9,0.7l-0.7-0.1
	c0.1-0.8,0.7-1.2,1.7-1.2c1,0,1.6,0.5,1.6,1.4v0.9v0.9c0,0.5,0.2,0.7,0.6,0.6v0.2v0.2C247.7,46.6,247,46.4,247.1,45.6z"/>
<polygon points="215.9,56.2 215.9,53.2 215.9,50.3 216.6,50.3 216.6,53.2 216.6,56.2 "/>
<path d="M219.3,55.7c1,0,1.2-0.7,1.2-1.7c0-1-0.2-1.7-1.1-1.7s-1.2,0.7-1.2,1.7C218.2,55,218.4,55.7,219.3,55.7z M219.4,51.8
	c1.4,0,1.9,0.8,1.9,2.2c0,1.4-0.6,2.2-1.9,2.2s-1.9-0.9-1.9-2.2C217.4,52.5,218.1,51.8,219.4,51.8z"/>
<path d="M224,55.7c0.9,0,1-0.8,1-1.7c0-0.9-0.1-1.7-1-1.7c-0.9,0-1.1,0.7-1.1,1.7C222.9,55,223.1,55.7,224,55.7z M224.2,51.8
	c1.2,0,1.6,0.9,1.6,2.2c0,1.5-0.5,2.3-1.6,2.3c-0.7,0-1.1-0.2-1.3-0.8l0,0.7h-0.7l0-5.9h0.7v1.1v1.1C223.1,52,223.5,51.8,224.2,51.8
	z"/>
<path d="M228.5,55.7c0.9,0,1-0.8,1-1.7c0-0.9-0.1-1.7-1-1.7c-0.9,0-1.1,0.7-1.1,1.7C227.4,55,227.6,55.7,228.5,55.7z M228.7,51.8
	c1.2,0,1.6,0.9,1.6,2.2c0,1.5-0.5,2.3-1.6,2.3c-0.7,0-1.1-0.2-1.3-0.8l0,0.7h-0.7l0-5.9h0.7v1.1v1.1C227.6,52,228,51.8,228.7,51.8z"
	/>
<path d="M234.6,51.9l-1.9,5c-0.3,0.6-0.8,1.1-1.8,0.9v-0.3v-0.3c0.9,0.1,1.2-0.5,1.4-1.1l-1.7-4.3h0.8l1.3,3.5l1.2-3.5H234.6z"/>
<polyline class="st2" points="144.9,238.5 171,238.5 171,220.5 180.2,220.5 "/>
<polygon points="144.9,239 144.4,239 144.4,238.5 144.4,238.1 144.9,238.1 "/>
<polygon points="187.1,220.5 180.7,222.6 180.7,218.4 "/>
<polygon class="st2" points="187.1,220.5 180.7,222.6 180.7,218.4 "/>
<rect x="189" y="193.5" class="st0" width="72" height="139.5"/>
<rect x="189" y="193.5" class="st2" width="72" height="139.5"/>
<path d="M210.8,259.2l0-4.9c-0.5,1.7-1.2,3.3-1.8,4.9h-0.5l-1.8-4.9l0,4.9h-0.7v-2.8v-2.8h1l1.7,4.7c0.5-1.7,1.1-3.1,1.7-4.7h1v2.8
	v2.8H210.8z"/>
<path d="M215.6,256.6c0.1-1.4-1.7-1.7-2.2-0.6c-0.1,0.2-0.1,0.4-0.1,0.6H215.6z M214.4,254.8c1.4,0,1.9,0.9,1.9,2.4h-3
	c0,0.9,0.3,1.5,1.2,1.5c0.6,0,1-0.3,1.1-0.7l0.6,0.2c-0.2,0.6-0.8,1-1.7,1c-1.3,0-2-0.8-2-2.3C212.5,255.6,213.1,254.8,214.4,254.8z
	"/>
<polygon points="217.2,259.2 217.2,256.2 217.2,253.3 217.9,253.3 217.9,256.2 217.9,259.2 "/>
<path d="M219.5,258c0,0.4,0.3,0.7,0.7,0.7c0.9-0.1,1.4-0.7,1.4-1.7C220.6,257.1,219.5,256.9,219.5,258z M221.6,258.3
	c-0.3,0.5-0.7,0.9-1.5,0.9c-0.8,0-1.3-0.5-1.3-1.3c0-1.4,1.4-1.4,2.8-1.4c0.1-0.8-0.2-1.2-0.9-1.2c-0.5,0-0.9,0.2-0.9,0.7L219,256
	c0.1-0.8,0.7-1.2,1.7-1.2c1,0,1.6,0.5,1.6,1.4v0.9v0.9c0,0.5,0.2,0.7,0.6,0.6v0.2v0.2C222.3,259.3,221.6,259.1,221.6,258.3z"/>
<polygon points="226.2,259.2 224.7,257.2 224.2,257.6 224.2,258.4 224.2,259.2 223.5,259.2 223.5,256.2 223.5,253.3 224.2,253.3 
	224.2,255.1 224.2,257 226.1,254.9 226.9,254.9 225.2,256.7 227,259.2 "/>
<path d="M228.9,259.2c-2,0.1-1.2-2.6-1.4-4.4h0.7v1.4v1.4c0,0.7,0.2,1.1,0.9,1.1c1.6,0,1-2.3,1.1-3.8h0.7l0,4.3h-0.7
	c0-0.2,0-0.6,0-0.7C230,258.9,229.6,259.2,228.9,259.2z"/>
<polygon points="234.7,259.2 233.3,257.2 232.8,257.6 232.8,258.4 232.8,259.2 232,259.2 232,256.2 232,253.3 232.8,253.3 
	232.8,255.1 232.8,257 234.6,254.9 235.5,254.9 233.7,256.7 235.6,259.2 "/>
<path d="M236.6,258c0,0.4,0.3,0.7,0.7,0.7c0.9-0.1,1.4-0.7,1.4-1.7C237.7,257.1,236.6,256.9,236.6,258z M238.7,258.3
	c-0.3,0.5-0.7,0.9-1.5,0.9c-0.8,0-1.3-0.5-1.3-1.3c0-1.4,1.4-1.4,2.8-1.4c0.1-0.8-0.2-1.2-0.9-1.2c-0.5,0-0.9,0.2-0.9,0.7l-0.7-0.1
	c0.1-0.8,0.7-1.2,1.7-1.2c1,0,1.6,0.5,1.6,1.4v0.9v0.9c0,0.5,0.2,0.7,0.6,0.6v0.2v0.2C239.4,259.3,238.7,259.1,238.7,258.3z"/>
<path d="M242.7,254.8c2-0.1,1.2,2.6,1.4,4.4h-0.7v-1.4v-1.4c0-0.7-0.2-1.1-0.9-1.1c-1.6,0-1,2.3-1.1,3.8h-0.7l0-4.3h0.7
	c0,0.2,0,0.5,0,0.7C241.6,255.1,242,254.8,242.7,254.8z"/>
<path d="M200.3,264.8c-0.2-0.6-0.8-1-1.6-1c-1.3,0-2,0.9-2,2.2c0,1.3,0.7,2.3,2,2.3c1,0,1.4-0.5,1.8-1.2l0.6,0.3
	c-0.4,0.9-1.1,1.5-2.4,1.5c-1.8,0-2.6-1.1-2.7-2.9c-0.1-2.3,2.2-3.4,4.2-2.5c0.4,0.2,0.7,0.6,0.9,1L200.3,264.8z"/>
<path d="M203.8,265.1c-1.6,0-1,2.3-1.1,3.8h-0.7v-2.9V263h0.7l0,2.3c0.3-0.5,0.6-0.8,1.4-0.8c2,0,1.2,2.6,1.4,4.4h-0.7v-1.4v-1.4
	C204.7,265.4,204.5,265.1,203.8,265.1z"/>
<path d="M209.3,266.3c0.1-1.4-1.7-1.7-2.2-0.6c-0.1,0.2-0.1,0.4-0.1,0.6H209.3z M208.1,264.5c1.4,0,1.9,0.9,1.9,2.4h-3
	c0,0.9,0.3,1.5,1.2,1.5c0.6,0,1-0.3,1.1-0.7l0.6,0.2c-0.2,0.6-0.8,1-1.7,1c-1.3,0-2-0.8-2-2.3C206.2,265.3,206.8,264.5,208.1,264.5z
	"/>
<path d="M212.5,265.1c-0.9,0-1.1,0.7-1.1,1.6c0,0.9,0.2,1.7,1.1,1.7c0.5,0,0.9-0.3,1-0.9l0.7,0c-0.1,0.8-0.7,1.4-1.7,1.4
	c-1.3,0-1.7-0.9-1.8-2.2c-0.2-2.1,2.3-2.9,3.3-1.4c0.1,0.2,0.1,0.3,0.2,0.5l-0.7,0.1C213.4,265.4,213.1,265.1,212.5,265.1z"/>
<polygon points="217.7,268.9 216.2,266.9 215.7,267.3 215.7,268.1 215.7,268.9 215,268.9 215,265.9 215,263 215.7,263 215.7,264.8 
	215.7,266.7 217.6,264.6 218.4,264.6 216.7,266.4 218.5,268.9 "/>
<path d="M220.4,269c-2,0.1-1.2-2.6-1.4-4.4h0.7v1.4v1.4c0,0.7,0.2,1.1,0.9,1.1c1.6,0,1-2.3,1.1-3.8h0.7l0,4.3h-0.7
	c0-0.2,0-0.6,0-0.7C221.5,268.6,221.1,268.9,220.4,269z"/>
<path d="M225.4,268.4c0.9,0,1-0.8,1-1.7c0-0.9-0.1-1.6-1-1.7c-0.9,0-1.1,0.7-1.1,1.7C224.2,267.8,224.5,268.4,225.4,268.4z
	 M225.6,264.5c1.2,0,1.6,0.9,1.6,2.2s-0.4,2.2-1.6,2.3c-0.7,0-1.1-0.3-1.4-0.8l0,2.4h-0.7l0-6h0.7l0,0.7
	C224.5,264.8,224.9,264.5,225.6,264.5z"/>
<path d="M233.9,264.6c-0.1-1.1-2.8-1.2-2.8,0c0.3,1.7,3.6,0.3,3.7,2.7c0.1,1.8-2.7,2-3.9,1.2c-0.4-0.2-0.6-0.6-0.7-1l0.7-0.2
	c0.1,1.3,3.2,1.4,3.2,0c0-1.8-3.5-0.3-3.6-2.7c-0.1-1.8,3.3-1.9,4-0.8c0.1,0.2,0.2,0.4,0.2,0.6L233.9,264.6z"/>
<path d="M235.7,268.9v-2.1v-2.1h0.7v2.1v2.1H235.7z M235.7,263.7v-0.3V263h0.7v0.3v0.3H235.7z"/>
<path d="M239.9,265.7c-0.1-0.8-1.9-0.9-2,0c0.3,1.2,2.6,0.3,2.7,2c0.1,1.8-3.4,1.7-3.5,0.2l0.6-0.1c0.1,0.8,2.2,1,2.2,0
	c-0.2-1.3-2.5-0.3-2.7-2c-0.1-1.3,1.8-1.4,2.7-0.9c0.3,0.2,0.5,0.4,0.5,0.8L239.9,265.7z"/>
<path d="M242.3,267.8c0,0.5,0.4,0.7,0.9,0.5v0.3v0.3c-0.7,0.2-1.6,0.1-1.6-0.9v-1.4v-1.4h-0.5v-0.3v-0.3h0.5l0.2-1h0.5v0.5v0.5h0.8
	v0.3v0.3h-0.8v1.4V267.8z"/>
<path d="M246.6,266.3c0.1-1.4-1.7-1.7-2.2-0.6c-0.1,0.2-0.1,0.4-0.1,0.6H246.6z M245.5,264.5c1.4,0,1.9,0.9,1.9,2.4h-3
	c0,0.9,0.3,1.5,1.2,1.5c0.6,0,1-0.3,1.1-0.7l0.6,0.2c-0.2,0.6-0.8,1-1.7,1c-1.3,0-2-0.8-2-2.3C243.6,265.3,244.1,264.5,245.5,264.5z
	"/>
<path d="M252.4,265.1c-1.5,0.1-0.9,2.4-1,3.8h-0.7v-1.4v-1.4c0-0.7-0.1-1.1-0.8-1.1c-1.5,0.1-0.9,2.3-1,3.8h-0.7l0-4.3h0.7
	c0,0.2,0,0.5,0,0.7c0.2-1,2.2-1.1,2.4,0c0.2-0.5,0.6-0.8,1.3-0.8c1.9,0,1.1,2.7,1.2,4.4h-0.7v-1.4v-1.4
	C253.2,265.5,253.1,265.1,252.4,265.1z"/>
<polyline class="st2" points="261.9,228.6 283.5,228.6 297.2,228.6 "/>
<rect x="261.4" y="228.2" width="0.5" height="0.9"/>
<polygon points="304.1,228.6 297.7,230.7 297.7,226.5 "/>
<polygon class="st2" points="304.1,228.6 297.7,230.7 297.7,226.5 "/>
<rect x="306" y="211.8" class="st0" width="72" height="33.7"/>
<rect x="306" y="211.8" class="st2" width="72" height="33.7"/>
<path d="M323.3,220.5l0-4.9c-0.5,1.7-1.2,3.3-1.8,4.9h-0.5l-1.8-4.9l0,4.9h-0.7v-2.8v-2.8h1l1.7,4.7c0.5-1.7,1.1-3.1,1.7-4.7h1v2.8
	v2.8H323.3z"/>
<path d="M328.1,218c0.1-1.4-1.7-1.7-2.2-0.6c-0.1,0.2-0.1,0.4-0.1,0.6H328.1z M326.9,216.1c1.4,0,1.9,0.9,1.9,2.4h-3
	c0,0.9,0.3,1.5,1.2,1.5c0.6,0,1-0.3,1.1-0.7l0.6,0.2c-0.2,0.6-0.8,1-1.7,1c-1.3,0-2-0.8-2-2.3C325,217,325.6,216.1,326.9,216.1z"/>
<path d="M333.9,216.7c-1.5,0.1-0.9,2.4-1,3.8h-0.7v-1.4v-1.4c0-0.7-0.1-1.1-0.8-1.1c-1.5,0.1-0.9,2.3-1,3.8h-0.7l0-4.3h0.7
	c0,0.2,0,0.5,0,0.7c0.2-1,2.2-1.1,2.4,0c0.2-0.5,0.6-0.8,1.3-0.8c1.9,0,1.1,2.7,1.2,4.4h-0.7v-1.4v-1.4
	C334.7,217.1,334.6,216.7,333.9,216.7z"/>
<path d="M337,219.3c0,0.4,0.3,0.7,0.7,0.7c0.9-0.1,1.4-0.7,1.4-1.7C338.1,218.4,337,218.3,337,219.3z M339.1,219.7
	c-0.3,0.5-0.7,0.9-1.5,0.9c-0.8,0-1.3-0.5-1.3-1.3c0-1.4,1.4-1.4,2.8-1.4c0.1-0.8-0.2-1.2-0.9-1.2c-0.5,0-0.9,0.2-0.9,0.7l-0.7-0.1
	c0.1-0.8,0.7-1.2,1.7-1.2c1,0,1.6,0.5,1.6,1.4v0.9v0.9c0,0.5,0.2,0.7,0.6,0.6v0.2v0.2C339.7,220.7,339,220.4,339.1,219.7z"/>
<path d="M343.4,217.3c-0.1-0.8-1.9-0.9-2,0c0.3,1.2,2.6,0.3,2.7,2c0.1,1.8-3.4,1.7-3.5,0.2l0.6-0.1c0.1,0.8,2.2,1,2.2,0
	c-0.2-1.3-2.5-0.3-2.7-2c-0.1-1.3,1.8-1.4,2.7-0.9c0.3,0.2,0.5,0.4,0.5,0.8L343.4,217.3z"/>
<path d="M346.3,220.6c-2,0.1-1.2-2.6-1.4-4.4h0.7v1.4v1.4c0,0.7,0.2,1.1,0.9,1.1c1.6,0,1-2.3,1.1-3.8h0.7l0,4.3h-0.7
	c0-0.2,0-0.6,0-0.7C347.4,220.3,347.1,220.6,346.3,220.6z"/>
<polygon points="352.2,220.5 350.7,218.5 350.2,219 350.2,219.7 350.2,220.5 349.5,220.5 349.5,217.6 349.5,214.6 350.2,214.6 
	350.2,216.5 350.2,218.3 352.1,216.2 352.9,216.2 351.2,218.1 353,220.5 "/>
<polygon points="356.2,220.5 354.8,218.5 354.3,219 354.3,219.7 354.3,220.5 353.5,220.5 353.5,217.6 353.5,214.6 354.3,214.6 
	354.3,216.5 354.3,218.3 356.1,216.2 357,216.2 355.2,218.1 357.1,220.5 "/>
<path d="M358.1,219.3c0,0.4,0.3,0.7,0.7,0.7c0.9-0.1,1.4-0.7,1.4-1.7C359.2,218.4,358.1,218.3,358.1,219.3z M360.2,219.7
	c-0.3,0.5-0.7,0.9-1.5,0.9c-0.8,0-1.3-0.5-1.3-1.3c0-1.4,1.4-1.4,2.8-1.4c0.1-0.8-0.2-1.2-0.9-1.2c-0.5,0-0.9,0.2-0.9,0.7l-0.7-0.1
	c0.1-0.8,0.7-1.2,1.7-1.2c1,0,1.6,0.5,1.6,1.4v0.9v0.9c0,0.5,0.2,0.7,0.6,0.6v0.2v0.2C360.9,220.7,360.2,220.4,360.2,219.7z"/>
<path d="M364.2,216.1c2-0.1,1.2,2.6,1.4,4.4h-0.7v-1.4v-1.4c0-0.7-0.2-1.1-0.9-1.1c-1.6,0-1,2.3-1.1,3.8h-0.7l0-4.3h0.7
	c0,0.2,0,0.5,0,0.7C363.1,216.5,363.5,216.2,364.2,216.1z"/>
<path d="M324.1,227.5c1.3,0,2.8,0.2,2.8-1.1c0-1.3-1.5-1.1-2.8-1.1v1.1V227.5z M323.3,224.6c2,0,4.3-0.3,4.3,1.7
	c0,1.8-1.7,1.8-3.6,1.7v1.1v1.1h-0.7v-2.8V224.6z"/>
<path d="M331.5,227.7c0.1-1.4-1.7-1.7-2.2-0.6c-0.1,0.2-0.1,0.4-0.1,0.6H331.5z M330.3,225.9c1.4,0,1.9,0.9,1.9,2.4h-3
	c0,0.9,0.3,1.5,1.2,1.5c0.6,0,1-0.3,1.1-0.7l0.6,0.2c-0.2,0.6-0.8,1-1.7,1c-1.3,0-2-0.8-2-2.3C328.4,226.7,329,225.9,330.3,225.9z"
	/>
<path d="M335.6,227c-0.1-0.8-1.9-0.9-2,0c0.3,1.2,2.6,0.3,2.7,2c0.1,1.8-3.4,1.7-3.5,0.2l0.6-0.1c0.1,0.8,2.2,1,2.2,0
	c-0.2-1.3-2.5-0.3-2.7-2c-0.1-1.3,1.8-1.4,2.7-0.9c0.3,0.2,0.5,0.4,0.5,0.8L335.6,227z"/>
<path d="M340,227.7c0.1-1.4-1.7-1.7-2.2-0.6c-0.1,0.2-0.1,0.4-0.1,0.6H340z M338.9,225.9c1.4,0,1.9,0.9,1.9,2.4h-3
	c0,0.9,0.3,1.5,1.2,1.5c0.6,0,1-0.3,1.1-0.7l0.6,0.2c-0.2,0.6-0.8,1-1.7,1c-1.3,0-2-0.8-2-2.3C337,226.7,337.5,225.9,338.9,225.9z"
	/>
<path d="M343.7,226.6c-1.8-0.4-1.2,2-1.3,3.7h-0.7l0-4.3h0.7c0,0.3,0,0.7,0,0.9c0.1-0.6,0.5-1.1,1.3-0.9v0.3V226.6z"/>
<path d="M345.1,229.2c0,0.5,0.4,0.7,0.9,0.5v0.3v0.3c-0.7,0.2-1.6,0.1-1.6-0.9v-1.4v-1.4h-0.5v-0.3v-0.3h0.5l0.2-1h0.5v0.5v0.5h0.8
	v0.3v0.3h-0.8v1.4V229.2z"/>
<path d="M347.1,229c0,0.4,0.3,0.7,0.7,0.7c0.9-0.1,1.4-0.7,1.4-1.7C348.2,228.2,347.1,228,347.1,229z M349.2,229.4
	c-0.3,0.5-0.7,0.9-1.5,0.9c-0.8,0-1.3-0.5-1.3-1.3c0-1.4,1.4-1.4,2.8-1.4c0.1-0.8-0.2-1.2-0.9-1.2c-0.5,0-0.9,0.2-0.9,0.7l-0.7-0.1
	c0.1-0.8,0.7-1.2,1.7-1.2c1,0,1.6,0.5,1.6,1.4v0.9v0.9c0,0.5,0.2,0.7,0.6,0.6v0.2v0.2C349.8,230.4,349.2,230.2,349.2,229.4z"/>
<polygon points="356,230.2 354.6,228.3 354,228.7 354,229.5 354,230.2 353.3,230.2 353.3,227.3 353.3,224.3 354,224.3 354,226.2 
	354,228 355.9,225.9 356.7,225.9 355,227.8 356.9,230.2 "/>
<path d="M360.3,227.7c0.1-1.4-1.7-1.7-2.2-0.6c-0.1,0.2-0.1,0.4-0.1,0.6H360.3z M359.1,225.9c1.4,0,1.9,0.9,1.9,2.4h-3
	c0,0.9,0.3,1.5,1.2,1.5c0.6,0,1-0.3,1.1-0.7l0.6,0.2c-0.2,0.6-0.8,1-1.7,1c-1.3,0-2-0.8-2-2.3C357.2,226.7,357.8,225.9,359.1,225.9z
	"/>
<path d="M317.3,237c1.4,0,3.1,0.3,3.1-1.1c0-1.4-1.8-0.9-3.1-1v1V237z M321.2,236c0,0.9-0.5,1.4-1.4,1.6l1.6,2.4h-0.9l-1.5-2.3h-1.7
	v1.2v1.2h-0.7v-2.8v-2.8C318.6,234.4,321.2,233.9,321.2,236z"/>
<path d="M323.6,240c-2,0.1-1.2-2.6-1.4-4.4h0.7v1.4v1.4c0,0.7,0.2,1.1,0.9,1.1c1.6,0,1-2.3,1.1-3.8h0.7l0,4.3H325c0-0.2,0-0.6,0-0.7
	C324.8,239.7,324.4,240,323.6,240z"/>
<path d="M327.3,238.7c0,0.4,0.3,0.7,0.7,0.7c0.9-0.1,1.4-0.7,1.4-1.7C328.4,237.9,327.3,237.7,327.3,238.7z M329.4,239.1
	c-0.3,0.5-0.7,0.9-1.5,0.9c-0.8,0-1.3-0.5-1.3-1.3c0-1.4,1.4-1.4,2.8-1.4c0.1-0.8-0.2-1.2-0.9-1.2c-0.5,0-0.9,0.2-0.9,0.7l-0.7-0.1
	c0.1-0.8,0.7-1.2,1.7-1.2c1,0,1.6,0.5,1.6,1.4v0.9v0.9c0,0.5,0.2,0.7,0.6,0.6v0.2v0.2C330.1,240.1,329.4,239.9,329.4,239.1z"/>
<path d="M333.4,235.6c2-0.1,1.2,2.6,1.4,4.4H334v-1.4v-1.4c0-0.7-0.2-1.1-0.9-1.1c-1.6,0-1,2.3-1.1,3.8h-0.7l0-4.3h0.7
	c0,0.2,0,0.5,0,0.7C332.3,235.9,332.7,235.6,333.4,235.6z"/>
<path d="M337.4,239.4c0.8,0,1.1-0.7,1.1-1.6c0-0.9-0.3-1.7-1.1-1.7c-0.9,0-1,0.8-1,1.7C336.3,238.7,336.5,239.4,337.4,239.4z
	 M339.2,235.7c-0.2,2.8,0.9,6.6-2.5,5.9c-0.5-0.1-0.9-0.4-1-1l0.7-0.1c0.3,1.1,2.3,0.7,2-0.6v-0.3v-0.3c-0.2,0.5-0.7,0.8-1.4,0.8
	c-1.2,0-1.5-0.9-1.5-2.2c0-1.3,0.4-2.2,1.6-2.2c0.7,0,1.1,0.4,1.3,0.8c0-0.2,0-0.5,0-0.7H339.2z"/>
<path d="M340.8,238.7c0,0.4,0.3,0.7,0.7,0.7c0.9-0.1,1.4-0.7,1.4-1.7C341.9,237.9,340.8,237.7,340.8,238.7z M342.9,239.1
	c-0.3,0.5-0.7,0.9-1.5,0.9c-0.8,0-1.3-0.5-1.3-1.3c0-1.4,1.4-1.4,2.8-1.4c0.1-0.8-0.2-1.2-0.9-1.2c-0.5,0-0.9,0.2-0.9,0.7l-0.7-0.1
	c0.1-0.8,0.7-1.2,1.7-1.2c1,0,1.6,0.5,1.6,1.4v0.9v0.9c0,0.5,0.2,0.7,0.6,0.6v0.2v0.2C343.6,240.1,342.9,239.9,342.9,239.1z"/>
<path d="M346.9,235.6c2-0.1,1.2,2.6,1.4,4.4h-0.7v-1.4v-1.4c0-0.7-0.2-1.1-0.9-1.1c-1.6,0-1,2.3-1.1,3.8h-0.7l0-4.3h0.7
	c0,0.2,0,0.5,0,0.7C345.8,235.9,346.2,235.6,346.9,235.6z"/>
<path d="M352.9,240c-2,0.1-1.2-2.6-1.4-4.4h0.7v1.4v1.4c0,0.7,0.2,1.1,0.9,1.1c1.6,0,1-2.3,1.1-3.8h0.7l0,4.3h-0.7
	c0-0.2,0-0.6,0-0.7C354,239.7,353.6,240,352.9,240z"/>
<path d="M355.3,241c0.5,0.1,0.7-0.1,0.7-0.7V238v-2.4h0.7v2.4v2.4c0,0.9-0.5,1.3-1.5,1.1v-0.3V241z M356,234.7v-0.3v-0.3h0.7v0.3
	v0.3H356z"/>
<path d="M357.8,239.9v-2.1v-2.1h0.7v2.1v2.1H357.8z M357.8,234.7v-0.3v-0.3h0.7v0.3v0.3H357.8z"/>
<path d="M360.1,238.7c0,0.4,0.3,0.7,0.7,0.7c0.9-0.1,1.4-0.7,1.4-1.7C361.2,237.9,360.1,237.7,360.1,238.7z M362.2,239.1
	c-0.3,0.5-0.7,0.9-1.5,0.9c-0.8,0-1.3-0.5-1.3-1.3c0-1.4,1.4-1.4,2.8-1.4c0.1-0.8-0.2-1.2-0.9-1.2c-0.5,0-0.9,0.2-0.9,0.7l-0.7-0.1
	c0.1-0.8,0.7-1.2,1.7-1.2c1,0,1.6,0.5,1.6,1.4v0.9v0.9c0,0.5,0.2,0.7,0.6,0.6v0.2v0.2C362.9,240.1,362.2,239.9,362.2,239.1z"/>
<path d="M366.2,235.6c2-0.1,1.2,2.6,1.4,4.4h-0.7v-1.4v-1.4c0-0.7-0.2-1.1-0.9-1.1c-1.6,0-1,2.3-1.1,3.8h-0.7l0-4.3h0.7
	c0,0.2,0,0.5,0,0.7C365.1,235.9,365.5,235.6,366.2,235.6z"/>
<polyline class="st2" points="261.9,45 283.5,45 283.5,228.6 297.2,228.6 "/>
<rect x="261.4" y="44.6" width="0.5" height="0.9"/>
<polygon points="304.1,228.6 297.7,230.7 297.7,226.5 "/>
<polygon class="st2" points="304.1,228.6 297.7,230.7 297.7,226.5 "/>
<polyline class="st2" points="378.9,228.6 403.9,228.6 403.9,49.5 421.1,49.5 "/>
<rect x="378.4" y="228.2" width="0.4" height="0.9"/>
<polygon points="427.9,49.5 421.5,51.6 421.5,47.4 "/>
<polygon class="st2" points="427.9,49.5 421.5,51.6 421.5,47.4 "/>
<rect x="429.8" y="36" class="st0" width="72" height="27"/>
<rect x="429.8" y="36" class="st2" width="72" height="27"/>
<polygon points="440.4,46.1 440.4,43.3 440.4,40.6 441.2,40.6 441.2,43 441.2,45.5 444,45.5 444,45.8 444,46.1 "/>
<path d="M446.5,45.7c1,0,1.2-0.7,1.2-1.7c0-1-0.2-1.7-1.1-1.7s-1.2,0.7-1.2,1.7C445.3,45,445.6,45.7,446.5,45.7z M446.5,41.8
	c1.4,0,1.9,0.8,1.9,2.2c0,1.4-0.6,2.2-1.9,2.2c-1.3,0-1.9-0.9-1.9-2.2C444.6,42.5,445.2,41.8,446.5,41.8z"/>
<path d="M450.9,45.6c0.8,0,1.1-0.7,1.1-1.6c0-0.9-0.3-1.7-1.1-1.7c-0.9,0-1,0.8-1,1.7C449.8,44.9,450,45.6,450.9,45.6z M452.7,41.9
	c-0.2,2.8,0.9,6.6-2.5,5.9c-0.5-0.1-0.9-0.5-1-1l0.7-0.1c0.3,1.1,2.3,0.7,2-0.6v-0.3v-0.3c-0.2,0.5-0.7,0.8-1.4,0.8
	c-1.2,0-1.5-0.9-1.5-2.2c0-1.3,0.4-2.2,1.6-2.2c0.7,0,1.1,0.4,1.3,0.8c0-0.2,0-0.5,0-0.7H452.7z"/>
<path d="M453.8,46.1V44v-2.1h0.7V44v2.1H453.8z M453.8,40.9v-0.3v-0.3h0.7v0.3v0.3H453.8z"/>
<path d="M457.7,41.8c2-0.1,1.2,2.6,1.4,4.4h-0.7v-1.4v-1.4c0-0.7-0.2-1.1-0.9-1.1c-1.6,0-1,2.3-1.1,3.8h-0.7l0-4.3h0.7
	c0,0.2,0,0.5,0,0.7C456.5,42.1,457,41.8,457.7,41.8z"/>
<path d="M463.9,42.3c-0.9,0-1,0.8-1,1.7c0,0.9,0.1,1.7,1,1.7c0.9,0,1.1-0.7,1.1-1.7C465,43,464.8,42.3,463.9,42.3z M463.7,41.8
	c0.7,0,1.1,0.3,1.4,0.7l0-2.3h0.7l0,5.9h-0.7c0-0.2,0-0.5-0.1-0.7c-0.2,0.5-0.6,0.8-1.3,0.8c-1.2,0-1.6-0.9-1.6-2.2
	C462.1,42.5,462.6,41.8,463.7,41.8z"/>
<path d="M467.4,44.9c0,0.4,0.3,0.7,0.7,0.7c0.9-0.1,1.4-0.7,1.4-1.7C468.5,44.1,467.4,43.9,467.4,44.9z M469.5,45.3
	c-0.3,0.5-0.7,0.9-1.5,0.9c-0.8,0-1.3-0.5-1.3-1.3c0-1.4,1.4-1.4,2.8-1.4c0.1-0.8-0.2-1.2-0.9-1.2c-0.5,0-0.9,0.2-0.9,0.7l-0.7-0.1
	c0.1-0.8,0.7-1.2,1.7-1.2c1,0,1.6,0.5,1.6,1.4v0.9v0.9c0,0.5,0.2,0.7,0.6,0.6v0.2v0.2C470.1,46.3,469.4,46.1,469.5,45.3z"/>
<path d="M473.4,41.8c2-0.1,1.2,2.6,1.4,4.4h-0.7v-1.4v-1.4c0-0.7-0.2-1.1-0.9-1.1c-1.6,0-1,2.3-1.1,3.8h-0.7l0-4.3h0.7
	c0,0.2,0,0.5,0,0.7C472.3,42.1,472.7,41.8,473.4,41.8z"/>
<path d="M482.3,42.1c-0.2-0.6-0.8-1-1.6-1c-1.3,0-2,0.9-2,2.2c0,1.3,0.7,2.3,2,2.3c1,0,1.4-0.5,1.8-1.2l0.6,0.3
	c-0.4,0.9-1.1,1.5-2.4,1.5c-1.8,0-2.6-1.1-2.7-2.9c-0.1-2.3,2.2-3.4,4.2-2.5c0.4,0.2,0.7,0.6,0.9,1L482.3,42.1z"/>
<path d="M486.8,43.6c0.1-1.3-1.7-1.7-2.2-0.6c-0.1,0.2-0.1,0.4-0.1,0.6H486.8z M485.6,41.8c1.4,0,1.9,0.9,1.9,2.4h-3
	c0,0.9,0.3,1.5,1.2,1.5c0.6,0,1-0.3,1.1-0.7l0.6,0.2c-0.2,0.6-0.8,1-1.7,1c-1.3,0-2-0.8-2-2.3C483.7,42.6,484.3,41.8,485.6,41.8z"/>
<polygon points="491.1,46.1 489.6,44.2 489.1,44.6 489.1,45.4 489.1,46.1 488.4,46.1 488.4,43.2 488.4,40.3 489.1,40.3 489.1,42.1 
	489.1,43.9 491,41.9 491.8,41.9 490.1,43.7 491.9,46.1 "/>
<path d="M454.7,55.2c1.2,0,2.8,0.3,2.8-1c0-1.3-1.6-0.9-2.8-1v1V55.2z M454.7,52.7c1.1,0,2.5,0.2,2.5-0.9c0-1.1-1.4-0.8-2.5-0.8v0.9
	V52.7z M456.8,52.9c0.8,0.1,1.4,0.5,1.4,1.4c0,2-2.4,1.5-4.3,1.6v-2.8v-2.8c1.7,0.1,4-0.4,4,1.3C457.9,52.4,457.5,52.7,456.8,52.9z"
	/>
<path d="M462.1,53.3c0.1-1.3-1.7-1.7-2.2-0.6c-0.1,0.2-0.1,0.4-0.1,0.6H462.1z M460.9,51.5c1.4,0,1.9,0.9,1.9,2.4h-3
	c0,0.9,0.3,1.5,1.2,1.5c0.6,0,1-0.3,1.1-0.7l0.6,0.2c-0.2,0.6-0.8,1-1.7,1c-1.3,0-2-0.8-2-2.3C459,52.3,459.6,51.5,460.9,51.5z"/>
<path d="M465.7,52.2c-1.8-0.4-1.2,2-1.3,3.7h-0.7l0-4.3h0.7c0,0.3,0,0.7,0,0.9c0.1-0.6,0.5-1.1,1.3-0.9v0.3V52.2z"/>
<polygon points="469,55.9 467.6,53.9 467.1,54.3 467.1,55.1 467.1,55.9 466.4,55.9 466.4,52.9 466.4,50 467.1,50 467.1,51.8 
	467.1,53.6 469,51.6 469.8,51.6 468.1,53.4 469.9,55.9 "/>
<path d="M471,54.7c0,0.4,0.3,0.7,0.7,0.7c0.9-0.1,1.4-0.7,1.4-1.7C472.1,53.8,471,53.6,471,54.7z M473,55c-0.3,0.5-0.7,0.9-1.5,0.9
	c-0.8,0-1.3-0.5-1.3-1.3c0-1.4,1.4-1.4,2.8-1.4c0.1-0.8-0.2-1.2-0.9-1.2c-0.5,0-0.9,0.2-0.9,0.7l-0.7-0.1c0.1-0.8,0.7-1.2,1.7-1.2
	c1,0,1.6,0.5,1.6,1.4v0.9v0.9c0,0.5,0.2,0.7,0.6,0.6v0.2v0.2C473.7,56,473,55.8,473,55z"/>
<path d="M477.4,52.6c-0.1-0.8-1.9-0.9-2,0c0.3,1.2,2.6,0.3,2.7,2c0.1,1.8-3.4,1.7-3.5,0.2l0.6-0.1c0.1,0.8,2.2,1,2.2,0
	c-0.2-1.3-2.5-0.3-2.7-2c-0.1-1.3,1.8-1.4,2.7-0.9c0.3,0.2,0.5,0.4,0.5,0.8L477.4,52.6z"/>
<path class="st2" d="M520.6,300.2h1.3 M516.1,300.1L516.1,300.1l2.7,0.1 M516.1,295.6v2.7 M516.1,291.1v2.7 M516.1,286.6v2.7
	 M516.1,282.1v2.7 M516.1,277.6v2.7 M516.1,273.1v2.7 M516.1,268.6v2.7 M516.1,264.1v2.7 M516.1,259.6v2.7 M516.1,255.1v2.7
	 M516.1,250.6v2.7 M516.1,246.1v2.7 M516.1,241.6v2.7 M516.1,237.1v2.7 M516.1,232.6v2.7 M516.1,228.1v2.7 M516.1,223.6v2.7
	 M516.1,219.1v2.7 M516.1,214.6v2.7 M516.1,210.1v2.7 M516.1,205.6v2.7 M516.1,201.1v2.7 M516.1,196.6v2.7 M516.1,192.1v2.7
	 M516.1,187.6v2.7 M516.1,183.1v2.7 M516.1,178.6v2.7 M516.1,174.1v2.7 M516.1,169.6v2.7 M516.1,165.1v2.7 M516.1,160.6v2.7
	 M516.1,156.1v2.7 M516.1,151.6v2.7 M516.1,147.1v2.7 M516.1,142.5v2.7 M516.1,138v2.7 M516.1,133.5v2.7 M516.1,129v2.7
	 M516.1,124.5v2.7 M516.1,120v2.7 M516.1,115.5v2.7 M516.1,111v2.7 M516.1,106.5v2.7 M516.1,102v2.7 M516.1,97.5v2.7 M516.1,93v2.7
	 M516.1,88.5v2.7 M516.1,84v2.7 M516.1,79.5v2.7 M516.1,75v2.7 M516.1,70.5v2.7 M516.1,66v2.7 M516.1,61.5v2.7 M516.1,57v2.7
	 M516.1,52.5v2.7 M514.8,49.5h1.4v1.2 M510.3,49.5h2.7 M505.8,49.5h2.7 M502.6,49.5h1.4"/>
<rect x="502.2" y="49.1" width="0.4" height="0.9"/>
<polygon points="528.7,300.2 522.4,302.3 522.4,298.2 "/>
<polygon class="st2" points="528.7,300.2 522.4,302.3 522.4,298.2 "/>
<path class="st0" d="M531,287.1h40.9c7.2,0,13.1,5.9,13.1,13.1s-5.9,13.1-13.1,13.1H531V287.1z"/>
<path class="st2" d="M531,287.1h40.9c7.2,0,13.1,5.9,13.1,13.1s-5.9,13.1-13.1,13.1H531V287.1z"/>
<path d="M545.6,295l-1.1-2.8c-0.3,1-0.7,1.8-1,2.8H545.6z M546.4,297.2l-0.6-1.6h-2.5l-0.6,1.6h-0.8l2.3-5.6h0.9l2.2,5.6H546.4z"/>
<path d="M549.6,296.8c0.9,0,1-0.8,1-1.7c0-0.9-0.1-1.7-1-1.7c-0.9,0-1.1,0.7-1.1,1.7C548.5,296.1,548.7,296.8,549.6,296.8z
	 M549.8,292.8c1.2,0,1.6,0.9,1.6,2.2c0,1.5-0.5,2.3-1.6,2.3c-0.7,0-1.1-0.2-1.3-0.8l0,0.7h-0.7l0-5.9h0.7v1.1v1.1
	C548.7,293.1,549.1,292.8,549.8,292.8z"/>
<path d="M552.8,296c0,0.4,0.3,0.7,0.7,0.7c0.9-0.1,1.4-0.7,1.3-1.7C553.9,295.1,552.8,295,552.8,296z M554.9,296.4
	c-0.3,0.5-0.7,0.9-1.5,0.9c-0.8,0-1.3-0.5-1.3-1.3c0-1.4,1.4-1.4,2.8-1.4c0.1-0.8-0.2-1.2-0.9-1.2c-0.5,0-0.9,0.2-0.9,0.7l-0.7-0.1
	c0.1-0.8,0.7-1.2,1.7-1.2c1,0,1.6,0.5,1.6,1.4v0.9v0.9c0,0.5,0.2,0.7,0.6,0.6v0.2v0.2C555.5,297.4,554.8,297.1,554.9,296.4z"/>
<polygon points="556.6,295.4 556.6,295 556.6,294.7 558.5,294.7 558.5,295 558.5,295.4 "/>
<path d="M560,296c0,0.4,0.3,0.7,0.7,0.7c0.9-0.1,1.4-0.7,1.3-1.7C561.1,295.1,560,295,560,296z M562.1,296.4
	c-0.3,0.5-0.7,0.9-1.5,0.9c-0.8,0-1.3-0.5-1.3-1.3c0-1.4,1.4-1.4,2.8-1.4c0.1-0.8-0.2-1.2-0.9-1.2c-0.5,0-0.9,0.2-0.9,0.7l-0.7-0.1
	c0.1-0.8,0.7-1.2,1.7-1.2c1,0,1.6,0.5,1.6,1.4v0.9v0.9c0,0.5,0.2,0.7,0.6,0.6v0.2v0.2C562.7,297.4,562,297.1,562.1,296.4z"/>
<path d="M565.8,296.8c0.9,0,1-0.8,1-1.7c0-0.9-0.1-1.7-1-1.7c-0.9,0-1.1,0.7-1.1,1.7C564.6,296.1,564.9,296.8,565.8,296.8z
	 M566,292.8c1.2,0,1.6,0.9,1.6,2.2c0,1.5-0.5,2.3-1.6,2.3c-0.7,0-1.1-0.2-1.3-0.8l0,0.7h-0.7l0-5.9h0.7v1.1v1.1
	C564.9,293.1,565.3,292.8,566,292.8z"/>
<path d="M569,296c0,0.4,0.3,0.7,0.7,0.7c0.9-0.1,1.4-0.7,1.3-1.7C570.1,295.1,569,295,569,296z M571.1,296.4
	c-0.3,0.5-0.7,0.9-1.5,0.9c-0.8,0-1.3-0.5-1.3-1.3c0-1.4,1.4-1.4,2.8-1.4c0.1-0.8-0.2-1.2-0.9-1.2c-0.5,0-0.9,0.2-0.9,0.7l-0.7-0.1
	c0.1-0.8,0.7-1.2,1.7-1.2c1,0,1.6,0.5,1.6,1.4v0.9v0.9c0,0.5,0.2,0.7,0.6,0.6v0.2v0.2C571.7,297.4,571,297.1,571.1,296.4z"/>
<path d="M542.1,303.1c-1.5,0.1-0.9,2.4-1,3.8h-0.7v-1.4v-1.4c0-0.7-0.1-1.1-0.8-1.1c-1.5,0.1-0.9,2.3-1,3.8h-0.7l0-4.3h0.7
	c0,0.2,0,0.5,0,0.7c0.2-1,2.2-1.1,2.4,0c0.2-0.5,0.6-0.8,1.3-0.8c1.9,0,1.1,2.7,1.2,4.4h-0.7v-1.4v-1.4
	C542.9,303.6,542.8,303.1,542.1,303.1z"/>
<path d="M546,307c-2,0.1-1.2-2.6-1.4-4.4h0.7v1.4v1.4c0,0.7,0.2,1.1,0.9,1.1c1.6,0,1-2.3,1.1-3.8h0.7l0,4.3h-0.7c0-0.2,0-0.6,0-0.7
	C547.1,306.7,546.7,307,546,307z"/>
<polygon points="549.1,306.9 549.1,304 549.1,301.1 549.8,301.1 549.8,304 549.8,306.9 "/>
<path d="M551.4,305.7c0,0.4,0.3,0.7,0.7,0.7c0.9-0.1,1.4-0.7,1.3-1.7C552.5,304.9,551.4,304.7,551.4,305.7z M553.5,306.1
	c-0.3,0.5-0.7,0.9-1.5,0.9c-0.8,0-1.3-0.5-1.3-1.3c0-1.4,1.4-1.4,2.8-1.4c0.1-0.8-0.2-1.2-0.9-1.2c-0.5,0-0.9,0.2-0.9,0.7l-0.7-0.1
	c0.1-0.8,0.7-1.2,1.7-1.2c1,0,1.6,0.5,1.6,1.4v0.9v0.9c0,0.5,0.2,0.7,0.6,0.6v0.2v0.2C554.2,307.1,553.5,306.9,553.5,306.1z"/>
<path d="M555.4,306.9v-2.1v-2.1h0.7v2.1v2.1H555.4z M555.4,301.7v-0.3v-0.3h0.7v0.3v0.3H555.4z"/>
<path d="M560.8,307c-2,0.1-1.2-2.6-1.4-4.4h0.7v1.4v1.4c0,0.7,0.2,1.1,0.9,1.1c1.6,0,1-2.3,1.1-3.8h0.7l0,4.3h-0.7
	c0-0.2,0-0.6,0-0.7C561.9,306.7,561.5,307,560.8,307z"/>
<path d="M563.2,308c0.5,0.1,0.7-0.1,0.7-0.7V305v-2.4h0.7v2.4v2.4c0,0.9-0.5,1.3-1.5,1.1v-0.3V308z M563.9,301.7v-0.3v-0.3h0.7v0.3
	v0.3H563.9z"/>
<path d="M565.7,306.9v-2.1v-2.1h0.7v2.1v2.1H565.7z M565.7,301.7v-0.3v-0.3h0.7v0.3v0.3H565.7z"/>
<path d="M568,305.7c0,0.4,0.3,0.7,0.7,0.7c0.9-0.1,1.4-0.7,1.3-1.7C569.1,304.9,568,304.7,568,305.7z M570.1,306.1
	c-0.3,0.5-0.7,0.9-1.5,0.9c-0.8,0-1.3-0.5-1.3-1.3c0-1.4,1.4-1.4,2.8-1.4c0.1-0.8-0.2-1.2-0.9-1.2c-0.5,0-0.9,0.2-0.9,0.7l-0.7-0.1
	c0.1-0.8,0.7-1.2,1.7-1.2c1,0,1.6,0.5,1.6,1.4v0.9v0.9c0,0.5,0.2,0.7,0.6,0.6v0.2v0.2C570.7,307.1,570.1,306.9,570.1,306.1z"/>
<path d="M574.1,302.6c2-0.1,1.2,2.6,1.4,4.4h-0.7v-1.4v-1.4c0-0.7-0.2-1.1-0.9-1.1c-1.6,0-1,2.3-1.1,3.8H572l0-4.3h0.7
	c0,0.2,0,0.5,0,0.7C572.9,302.9,573.4,302.6,574.1,302.6z"/>
<polyline class="st2" points="585.9,300.2 603,300.2 603,242.4 "/>
<polygon points="585.9,300.7 585,300.7 585.4,300.2 585.4,299.8 585.4,299.8 585.9,299.8 "/>
<polygon points="603,235.5 604.8,242 600.7,242 "/>
<polygon class="st2" points="603,235.5 604.8,242 600.7,242 "/>
<rect x="567" y="207.4" class="st0" width="72" height="26.3"/>
<rect x="567" y="207.4" class="st2" width="72" height="26.3"/>
<path d="M587.5,221.6l0-4.9c-0.5,1.7-1.2,3.3-1.8,4.9h-0.5l-1.8-4.9l0,4.9h-0.7v-2.8V216h1l1.7,4.7c0.5-1.7,1.1-3.1,1.7-4.7h1v2.8
	v2.8H587.5z"/>
<path d="M590.7,221.7c-2,0.1-1.2-2.6-1.4-4.4h0.7v1.4v1.4c0,0.7,0.2,1.1,0.9,1.1c1.6,0,1-2.3,1.1-3.8h0.7l0,4.3h-0.7
	c0-0.2,0-0.6,0-0.7C591.8,221.4,591.4,221.7,590.7,221.7z"/>
<polygon points="593.8,221.6 593.8,218.7 593.8,215.7 594.6,215.7 594.6,218.7 594.6,221.6 "/>
<path d="M596.2,220.4c0,0.4,0.3,0.7,0.7,0.7c0.9-0.1,1.4-0.7,1.3-1.7C597.3,219.5,596.2,219.4,596.2,220.4z M598.3,220.8
	c-0.3,0.5-0.7,0.9-1.5,0.9c-0.8,0-1.3-0.5-1.3-1.3c0-1.4,1.4-1.4,2.8-1.4c0.1-0.8-0.2-1.2-0.9-1.2c-0.5,0-0.9,0.2-0.9,0.7l-0.7-0.1
	c0.1-0.8,0.7-1.2,1.7-1.2c1,0,1.6,0.5,1.6,1.4v0.9v0.9c0,0.5,0.2,0.7,0.6,0.6v0.2v0.2C598.9,221.8,598.2,221.5,598.3,220.8z"/>
<path d="M600.1,221.6v-2.1v-2.1h0.7v2.1v2.1H600.1z M600.1,216.4v-0.3v-0.3h0.7v0.3v0.3H600.1z"/>
<polygon points="606.5,216.7 606.5,219.1 606.5,221.6 605.7,221.6 605.7,219.1 605.7,216.7 603.8,216.7 603.8,216.3 603.8,216 
	608.4,216 608.4,216.3 608.4,216.7 "/>
<path d="M608.8,221.6v-2.1v-2.1h0.7v2.1v2.1H608.8z M608.8,216.4v-0.3v-0.3h0.7v0.3v0.3H608.8z"/>
<path d="M614.7,217.8c-1.5,0.1-0.9,2.4-1,3.8h-0.7v-1.4v-1.4c0-0.7-0.1-1.1-0.8-1.1c-1.5,0.1-0.9,2.3-1,3.8h-0.7l0-4.3h0.7
	c0,0.2,0,0.5,0,0.7c0.2-1,2.2-1.1,2.4,0c0.2-0.5,0.6-0.8,1.3-0.8c1.9,0,1.1,2.7,1.2,4.4h-0.7v-1.4v-1.4
	C615.5,218.2,615.4,217.8,614.7,217.8z"/>
<path d="M620.2,219.1c0.1-1.4-1.7-1.7-2.2-0.6c-0.1,0.2-0.1,0.4-0.1,0.6H620.2z M619,217.2c1.4,0,1.9,0.9,1.9,2.4h-3
	c0,0.9,0.3,1.5,1.2,1.5c0.6,0,1-0.3,1.1-0.7l0.6,0.2c-0.2,0.6-0.8,1-1.7,1c-1.3,0-2-0.8-2-2.3C617.1,218.1,617.7,217.2,619,217.2z"
	/>
<path d="M623.8,217.9c-1.8-0.4-1.2,2-1.3,3.7h-0.7l0-4.3h0.7c0,0.3,0,0.7,0,0.9c0.1-0.6,0.5-1.1,1.3-0.9v0.3V217.9z"/>
<path class="st2" d="M547.6,143.6h1.3 M543.1,143.6h2.7 M539.1,143.6h2.7 M534.6,143.6h2.7 M530.1,143.6h2.7 M526,143.6h2.3
	 M521.5,143.6h2.7 M517.9,142.6l0.5,0.3v0.7h1.3 M515.2,141.6l0.5-0.2l0.5-0.1l0.9,0.3 M512.5,143.6h1.4l0.5-1 M508,143.6h2.7
	 M503.5,143.6h2.7 M499,143.6h2.7 M494.8,143.6h2.4 M490.3,143.6h2.7 M485.8,143.6h2.7 M481.3,143.6h2.7 M476.8,143.6h2.7
	 M472.3,143.6h2.7 M467.8,143.6h2.7 M463.3,143.6h2.7 M458.8,143.6h2.7 M454.3,143.6h2.7 M449.8,143.6h2.7 M445.3,143.6h2.7
	 M440.8,143.6h2.7 M436.3,143.6h2.7 M431.8,143.6h2.7 M427.3,143.6h2.7 M422.8,143.6h2.7 M418.3,143.6h2.7 M413.8,143.6h2.7
	 M409.3,143.6h2.7 M405.9,142.6l0.2,0.3l0.1,0.7h1.4 M402.9,141.6l0.3-0.2l0.7-0.1l1,0.3 M400.3,143.6h1.3l0.3-1 M395.9,143.6h2.7
	 M391.4,143.6h2.7 M387,143.6h2.7 M382.5,143.6h2.7 M378,143.6h2.7 M373.5,143.6h2.7 M369.1,143.6h2.7 M364.6,143.6h2.7
	 M360.2,143.6h2.7 M355.7,143.6h2.7 M351.3,143.6h2.7 M346.8,143.6h2.7 M342.4,143.6h2.7 M337.9,143.6h2.7 M333.4,143.6h2.7
	 M329,143.6h2.7 M324.5,143.6h2.7 M320,143.6h2.7 M315.6,143.6h2.7 M311.1,143.6h2.7 M306.7,143.6h2.7 M302.2,143.6h2.7
	 M297.8,143.6h2.7 M293.3,143.6h2.7 M288.9,143.6h2.7 M285.4,142.6l0.2,0.3l0.1,0.7h1.3 M282.5,141.6l0.3-0.2l0.7-0.1l1,0.3
	 M279.9,143.6h1.4l0.3-1 M275.3,143.6h2.7 M270.8,143.6h2.7 M266.3,143.6h2.7 M261.7,143.6h2.7 M257.2,143.6h2.7 M252.7,143.6h2.7
	 M248.1,143.6h2.7 M243.6,143.6h2.7 M239,143.6h2.7 M234.5,143.6h2.7 M230,143.6h2.7 M225.4,143.6h2.7 M220.9,143.6h2.7
	 M216.4,143.6h2.7 M211.9,143.6h2.7 M207.3,143.6h2.7 M202.8,143.6h2.7 M198.2,143.6h2.7 M193.7,143.6h2.7 M189.2,143.6h2.7
	 M184.6,143.6h2.7 M180.1,143.6h2.7 M175.5,143.6h2.7 M171,143.6h2.7 M171,148v-2.7 M171,152.6v-2.7 M171,157.1v-2.7 M171,161.6
	v-2.7 M171,166.1v-2.7 M171,170.7V168 M171,175.2v-2.7 M171,179.8V177 M171,184.3v-2.7 M171,188.8v-2.7 M171,193.4v-2.7 M171,197.9
	v-2.7 M171,202.5v-2.7 M171,207v-2.7 M171,211.5v-2.7 M171,216v-2.7 M171,220.6v-2.7 M171,225.1v-2.7 M171,229.6v-2.7 M171,234.2
	v-2.7 M170.7,238.5h0.3V236 M166.2,238.5h2.7 M161.6,238.5h2.7 M157.1,238.5h2.7 M152.6,238.5h2.7 M148,238.5h2.7 M144.9,238.5h1.3"
	/>
<polygon points="144.9,239 144.4,239 144.4,238.5 144.4,238.1 144.9,238.1 "/>
<polygon points="555.7,143.6 549.4,145.6 549.4,141.5 "/>
<polygon class="st2" points="555.7,143.6 549.4,145.6 549.4,141.5 "/>
<rect x="558" y="117" class="st0" width="90" height="53.1"/>
<rect x="558" y="117" class="st2" width="90" height="53.1"/>
<path d="M570.9,134.9l0-4.9c-0.5,1.7-1.2,3.3-1.8,4.9h-0.5l-1.8-4.9l0,4.9h-0.7v-2.8v-2.8h1l1.7,4.7c0.5-1.7,1.1-3.2,1.7-4.7h1v2.8
	v2.8H570.9z"/>
<path d="M575.6,132.4c0.1-1.3-1.7-1.7-2.2-0.6c-0.1,0.2-0.1,0.4-0.1,0.6H575.6z M574.5,130.6c1.4,0,1.9,0.9,1.9,2.4h-3
	c0,0.9,0.3,1.5,1.2,1.5c0.6,0,1-0.3,1.1-0.7l0.6,0.2c-0.2,0.6-0.8,1-1.7,1c-1.3,0-2-0.8-2-2.3C572.6,131.4,573.1,130.6,574.5,130.6z
	"/>
<path d="M579.3,130.6c2-0.1,1.2,2.6,1.4,4.4H580v-1.4v-1.4c0-0.7-0.2-1.1-0.9-1.1c-1.6,0-1,2.3-1.1,3.8h-0.7l0-4.3h0.7
	c0,0.2,0,0.5,0,0.7C578.2,130.9,578.6,130.6,579.3,130.6z"/>
<path d="M582.3,133.7c0,0.4,0.3,0.7,0.7,0.7c0.9-0.1,1.4-0.7,1.3-1.7C583.4,132.9,582.3,132.7,582.3,133.7z M584.4,134.1
	c-0.3,0.5-0.7,0.9-1.5,0.9c-0.8,0-1.3-0.5-1.3-1.3c0-1.4,1.4-1.4,2.8-1.4c0.1-0.8-0.2-1.2-0.9-1.2c-0.5,0-0.9,0.2-0.9,0.7l-0.7-0.1
	c0.1-0.8,0.7-1.2,1.7-1.2c1,0,1.6,0.5,1.6,1.4v0.9v0.9c0,0.5,0.2,0.7,0.6,0.6v0.2v0.2C585,135.1,584.3,134.9,584.4,134.1z"/>
<path d="M590.4,131.1c-1.5,0.1-0.9,2.4-1,3.8h-0.7v-1.4v-1.4c0-0.7-0.1-1.1-0.8-1.1c-1.5,0.1-0.9,2.3-1,3.8h-0.7l0-4.3h0.7
	c0,0.2,0,0.5,0,0.7c0.2-1,2.2-1.1,2.4,0c0.2-0.5,0.6-0.8,1.3-0.8c1.9,0,1.1,2.7,1.2,4.4h-0.7v-1.4v-1.4
	C591.2,131.5,591.1,131.1,590.4,131.1z"/>
<path d="M594.8,134.5c0.9,0,1-0.8,1-1.7c0-0.9-0.1-1.6-1-1.7c-0.9,0-1.1,0.7-1.1,1.7C593.7,133.8,593.9,134.5,594.8,134.5z
	 M595,130.6c1.2,0,1.6,0.9,1.6,2.2c0,1.3-0.4,2.2-1.6,2.3c-0.7,0-1.1-0.3-1.3-0.8l0,2.4H593l0-6h0.7l0,0.7
	C593.9,130.9,594.3,130.6,595,130.6z"/>
<path d="M597.5,134.9v-2.1v-2.1h0.7v2.1v2.1H597.5z M597.5,129.7v-0.3v-0.3h0.7v0.3v0.3H597.5z"/>
<polygon points="599.3,134.9 599.3,132 599.3,129.1 600,129.1 600,132 600,134.9 "/>
<polygon points="603.7,134.9 602.3,133 601.7,133.4 601.7,134.2 601.7,134.9 601,134.9 601,132 601,129.1 601.7,129.1 601.7,130.9 
	601.7,132.7 603.6,130.6 604.4,130.6 602.7,132.5 604.6,134.9 "/>
<path d="M605.6,133.7c0,0.4,0.3,0.7,0.7,0.7c0.9-0.1,1.4-0.7,1.3-1.7C606.7,132.9,605.6,132.7,605.6,133.7z M607.7,134.1
	c-0.3,0.5-0.7,0.9-1.5,0.9c-0.8,0-1.3-0.5-1.3-1.3c0-1.4,1.4-1.4,2.8-1.4c0.1-0.8-0.2-1.2-0.9-1.2c-0.5,0-0.9,0.2-0.9,0.7l-0.7-0.1
	c0.1-0.8,0.7-1.2,1.7-1.2c1,0,1.6,0.5,1.6,1.4v0.9v0.9c0,0.5,0.2,0.7,0.6,0.6v0.2v0.2C608.3,135.1,607.7,134.9,607.7,134.1z"/>
<path d="M611.7,130.6c2-0.1,1.2,2.6,1.4,4.4h-0.7v-1.4v-1.4c0-0.7-0.2-1.1-0.9-1.1c-1.6,0-1,2.3-1.1,3.8h-0.7l0-4.3h0.7
	c0,0.2,0,0.5,0,0.7C610.5,130.9,611,130.6,611.7,130.6z"/>
<path d="M617.1,133.9c0,0.5,0.4,0.7,0.9,0.5v0.3v0.3c-0.7,0.2-1.6,0.1-1.6-0.9v-1.4v-1.4h-0.5v-0.3v-0.3h0.5l0.2-1h0.5v0.5v0.5h0.8
	v0.3v0.3h-0.8v1.3V133.9z"/>
<path d="M621.5,132.4c0.1-1.3-1.7-1.7-2.2-0.6c-0.1,0.2-0.1,0.4-0.1,0.6H621.5z M620.3,130.6c1.4,0,1.9,0.9,1.9,2.4h-3
	c0,0.9,0.3,1.5,1.2,1.5c0.6,0,1-0.3,1.1-0.7l0.6,0.2c-0.2,0.6-0.8,1-1.7,1c-1.3,0-2-0.8-2-2.3C618.4,131.4,619,130.6,620.3,130.6z"
	/>
<path d="M627.3,131.1c-1.5,0.1-0.9,2.4-1,3.8h-0.7v-1.4v-1.4c0-0.7-0.1-1.1-0.8-1.1c-1.5,0.1-0.9,2.3-1,3.8h-0.7l0-4.3h0.7
	c0,0.2,0,0.5,0,0.7c0.2-1,2.2-1.1,2.4,0c0.2-0.5,0.6-0.8,1.3-0.8c1.9,0,1.1,2.7,1.2,4.4H628v-1.4v-1.4
	C628,131.5,627.9,131.1,627.3,131.1z"/>
<path d="M631.7,134.5c0.9,0,1-0.8,1-1.7c0-0.9-0.1-1.6-1-1.7c-0.9,0-1.1,0.7-1.1,1.7C630.5,133.8,630.7,134.5,631.7,134.5z
	 M631.8,130.6c1.2,0,1.6,0.9,1.6,2.2c0,1.3-0.4,2.2-1.6,2.3c-0.7,0-1.1-0.3-1.3-0.8l0,2.4h-0.7l0-6h0.7l0,0.7
	C630.7,130.9,631.1,130.6,631.8,130.6z"/>
<path d="M634.8,133.7c0,0.4,0.3,0.7,0.7,0.7c0.9-0.1,1.4-0.7,1.3-1.7C635.9,132.9,634.8,132.7,634.8,133.7z M636.9,134.1
	c-0.3,0.5-0.7,0.9-1.5,0.9c-0.8,0-1.3-0.5-1.3-1.3c0-1.4,1.4-1.4,2.8-1.4c0.1-0.8-0.2-1.2-0.9-1.2c-0.5,0-0.9,0.2-0.9,0.7l-0.7-0.1
	c0.1-0.8,0.7-1.2,1.7-1.2c1,0,1.6,0.5,1.6,1.4v0.9v0.9c0,0.5,0.2,0.7,0.6,0.6v0.2v0.2C637.6,135.1,636.9,134.9,636.9,134.1z"/>
<path d="M639.6,133.9c0,0.5,0.4,0.7,0.9,0.5v0.3v0.3c-0.7,0.2-1.6,0.1-1.6-0.9v-1.4v-1.4h-0.5v-0.3v-0.3h0.5l0.2-1h0.5v0.5v0.5h0.8
	v0.3v0.3h-0.8v1.3V133.9z"/>
<path d="M580.9,144.2c0.9,0,1-0.8,1-1.7c0-0.9-0.1-1.6-1-1.7c-0.9,0-1.1,0.7-1.1,1.7C579.8,143.5,580,144.2,580.9,144.2z
	 M581.1,140.3c1.2,0,1.6,0.9,1.6,2.2c0,1.3-0.4,2.2-1.6,2.3c-0.7,0-1.1-0.3-1.3-0.8l0,2.4H579l0-6h0.7l0,0.7
	C580,140.6,580.4,140.3,581.1,140.3z"/>
<path d="M586.4,142.1c0.1-1.3-1.7-1.7-2.2-0.6c-0.1,0.2-0.1,0.4-0.1,0.6H586.4z M585.2,140.3c1.4,0,1.9,0.9,1.9,2.4h-3
	c0,0.9,0.3,1.5,1.2,1.5c0.6,0,1-0.3,1.1-0.7l0.6,0.2c-0.2,0.6-0.8,1-1.7,1c-1.3,0-2-0.8-2-2.3C583.4,141.1,583.9,140.3,585.2,140.3z
	"/>
<path d="M590.1,140.3c2-0.1,1.2,2.6,1.4,4.4h-0.7v-1.4v-1.4c0-0.7-0.2-1.1-0.9-1.1c-1.6,0-1,2.3-1.1,3.8h-0.7l0-4.3h0.7
	c0,0.2,0,0.5,0,0.7C589,140.6,589.4,140.3,590.1,140.3z"/>
<path d="M594.1,144.1c0.8,0,1.1-0.7,1.1-1.6c0-0.9-0.3-1.7-1.1-1.7c-0.9,0-1,0.8-1,1.7C593.1,143.4,593.2,144.1,594.1,144.1z
	 M596,140.4c-0.2,2.8,0.9,6.6-2.5,5.9c-0.5-0.1-0.9-0.5-1-1l0.7-0.1c0.3,1.1,2.3,0.7,2-0.6v-0.3v-0.3c-0.2,0.5-0.7,0.8-1.4,0.8
	c-1.2,0-1.5-0.9-1.5-2.2c0-1.3,0.4-2.2,1.6-2.2c0.7,0,1.1,0.4,1.3,0.8c0-0.2,0-0.5,0-0.7H596z"/>
<path d="M598.4,144.7c-2,0.1-1.2-2.6-1.4-4.4h0.7v1.3v1.4c0,0.7,0.2,1.1,0.9,1.1c1.6,0,1-2.3,1.1-3.8h0.7l0,4.3h-0.7
	c0-0.2,0-0.6,0-0.7C599.5,144.4,599.1,144.7,598.4,144.7z"/>
<path d="M605.7,140.8c-1.5,0.1-0.9,2.4-1,3.8H604v-1.4v-1.4c0-0.7-0.1-1.1-0.8-1.1c-1.5,0.1-0.9,2.3-1,3.8h-0.7l0-4.3h0.7
	c0,0.2,0,0.5,0,0.7c0.2-1,2.2-1.1,2.4,0c0.2-0.5,0.6-0.8,1.3-0.8c1.9,0,1.1,2.7,1.2,4.4h-0.7v-1.4v-1.4
	C606.5,141.3,606.4,140.8,605.7,140.8z"/>
<path d="M610.1,144.2c0.9,0,1-0.8,1-1.7c0-0.9-0.1-1.6-1-1.7c-0.9,0-1.1,0.7-1.1,1.7C609,143.5,609.2,144.2,610.1,144.2z
	 M610.3,140.3c1.2,0,1.6,0.9,1.6,2.2c0,1.3-0.4,2.2-1.6,2.3c-0.7,0-1.1-0.3-1.3-0.8l0,2.4h-0.7l0-6h0.7l0,0.7
	C609.2,140.6,609.6,140.3,610.3,140.3z"/>
<path d="M614.1,144.7c-2,0.1-1.2-2.6-1.4-4.4h0.7v1.3v1.4c0,0.7,0.2,1.1,0.9,1.1c1.6,0,1-2.3,1.1-3.8h0.7l0,4.3h-0.7
	c0-0.2,0-0.6,0-0.7C615.2,144.4,614.8,144.7,614.1,144.7z"/>
<polygon points="617.3,144.6 617.3,141.7 617.3,138.8 618,138.8 618,141.7 618,144.6 "/>
<path d="M619.6,143.5c0,0.4,0.3,0.7,0.7,0.7c0.9-0.1,1.4-0.7,1.3-1.7C620.7,142.6,619.6,142.4,619.6,143.5z M621.7,143.8
	c-0.3,0.5-0.7,0.9-1.5,0.9c-0.8,0-1.3-0.5-1.3-1.3c0-1.4,1.4-1.4,2.8-1.4c0.1-0.8-0.2-1.2-0.9-1.2c-0.5,0-0.9,0.2-0.9,0.7l-0.7-0.1
	c0.1-0.8,0.7-1.2,1.7-1.2c1,0,1.6,0.5,1.6,1.4v0.9v0.9c0,0.5,0.2,0.7,0.6,0.6v0.2v0.2C622.3,144.8,621.6,144.6,621.7,143.8z"/>
<path d="M625.6,140.3c2-0.1,1.2,2.6,1.4,4.4h-0.7v-1.4v-1.4c0-0.7-0.2-1.1-0.9-1.1c-1.6,0-1,2.3-1.1,3.8h-0.7l0-4.3h0.7
	c0,0.2,0,0.5,0,0.7C624.5,140.6,624.9,140.3,625.6,140.3z"/>
<path d="M562.9,156.1c-0.9-0.9-1.5-2.1-1.5-3.8c0-1.7,0.6-2.8,1.5-3.8h0.7c-0.9,0.9-1.4,2.1-1.4,3.8s0.6,2.9,1.4,3.8H562.9z"/>
<path d="M566.7,151.1c-0.1-0.8-1.9-0.9-2,0c0.3,1.2,2.6,0.3,2.7,2c0.1,1.8-3.4,1.7-3.5,0.2l0.6-0.1c0.1,0.8,2.2,1,2.2,0
	c-0.2-1.3-2.5-0.3-2.7-2c-0.1-1.3,1.8-1.4,2.7-0.9c0.3,0.2,0.5,0.4,0.5,0.8L566.7,151.1z"/>
<path d="M571.1,151.8c0.1-1.3-1.7-1.7-2.2-0.6c-0.1,0.2-0.1,0.4-0.1,0.6H571.1z M569.9,150c1.4,0,1.9,0.9,1.9,2.4h-3
	c0,0.9,0.3,1.5,1.2,1.5c0.6,0,1-0.3,1.1-0.7l0.6,0.2c-0.2,0.6-0.8,1-1.7,1c-1.3,0-2-0.8-2-2.3C568.1,150.8,568.6,150,569.9,150z"/>
<path d="M573.5,153.3c0,0.5,0.4,0.7,0.9,0.5v0.3v0.3c-0.7,0.2-1.6,0.1-1.6-0.9V152v-1.4h-0.5v-0.3v-0.3h0.5l0.2-1h0.5v0.5v0.5h0.8
	v0.3v0.3h-0.8v1.3V153.3z"/>
<path d="M579.1,153.9c0.9,0,1-0.8,1-1.7c0-0.9-0.1-1.7-1-1.7c-0.9,0-1.1,0.7-1.1,1.7C578,153.2,578.2,153.9,579.1,153.9z M579.3,150
	c1.2,0,1.6,0.9,1.6,2.2c0,1.5-0.5,2.3-1.6,2.3c-0.7,0-1.1-0.2-1.3-0.8l0,0.7h-0.7l0-5.9h0.7v1.1v1.1
	C578.2,150.2,578.6,150,579.3,150z"/>
<path d="M584.6,151.8c0.1-1.3-1.7-1.7-2.2-0.6c-0.1,0.2-0.1,0.4-0.1,0.6H584.6z M583.4,150c1.4,0,1.9,0.9,1.9,2.4h-3
	c0,0.9,0.3,1.5,1.2,1.5c0.6,0,1-0.3,1.1-0.7l0.6,0.2c-0.2,0.6-0.8,1-1.7,1c-1.3,0-2-0.8-2-2.3C581.6,150.8,582.1,150,583.4,150z"/>
<path d="M587.8,150.5c-0.9,0-1,0.8-1,1.7c0,0.9,0.1,1.7,1,1.7c0.9,0,1.1-0.7,1.1-1.7C588.9,151.2,588.7,150.5,587.8,150.5z
	 M587.6,150c0.7,0,1.1,0.3,1.3,0.7l0-2.3h0.7l0,5.9H589c0-0.2,0-0.5-0.1-0.7c-0.2,0.5-0.6,0.8-1.3,0.8c-1.2,0-1.6-0.9-1.6-2.2
	C586,150.8,586.6,150,587.6,150z"/>
<path d="M591.3,153.2c0,0.4,0.3,0.7,0.7,0.7c0.9-0.1,1.4-0.7,1.3-1.7C592.4,152.3,591.3,152.1,591.3,153.2z M593.4,153.6
	c-0.3,0.5-0.7,0.9-1.5,0.9c-0.8,0-1.3-0.5-1.3-1.3c0-1.4,1.4-1.4,2.8-1.4c0.1-0.8-0.2-1.2-0.9-1.2c-0.5,0-0.9,0.2-0.9,0.7l-0.7-0.1
	c0.1-0.8,0.7-1.2,1.7-1.2c1,0,1.6,0.5,1.6,1.4v0.9v0.9c0,0.5,0.2,0.7,0.6,0.6v0.2v0.2C594,154.5,593.3,154.3,593.4,153.6z"/>
<path d="M597.7,151.1c-0.1-0.8-1.9-0.9-2,0c0.3,1.2,2.6,0.3,2.7,2c0.1,1.8-3.4,1.7-3.5,0.2l0.6-0.1c0.1,0.8,2.2,1,2.2,0
	c-0.2-1.3-2.5-0.3-2.7-2c-0.1-1.3,1.8-1.4,2.7-0.9c0.3,0.2,0.5,0.4,0.5,0.8L597.7,151.1z"/>
<path d="M599.8,153.2c0,0.4,0.3,0.7,0.7,0.7c0.9-0.1,1.4-0.7,1.3-1.7C600.9,152.3,599.8,152.1,599.8,153.2z M601.9,153.6
	c-0.3,0.5-0.7,0.9-1.5,0.9c-0.8,0-1.3-0.5-1.3-1.3c0-1.4,1.4-1.4,2.8-1.4c0.1-0.8-0.2-1.2-0.9-1.2c-0.5,0-0.9,0.2-0.9,0.7l-0.7-0.1
	c0.1-0.8,0.7-1.2,1.7-1.2c1,0,1.6,0.5,1.6,1.4v0.9v0.9c0,0.5,0.2,0.7,0.6,0.6v0.2v0.2C602.5,154.5,601.9,154.3,601.9,153.6z"/>
<path d="M605.8,150.7c-1.8-0.4-1.2,2-1.3,3.7h-0.7l0-4.3h0.7c0,0.3,0,0.7,0,0.9c0.1-0.6,0.5-1.1,1.3-0.9v0.3V150.7z"/>
<polygon points="609.1,154.4 607.7,152.4 607.2,152.8 607.2,153.6 607.2,154.4 606.5,154.4 606.5,151.4 606.5,148.5 607.2,148.5 
	607.2,150.3 607.2,152.2 609.1,150.1 609.9,150.1 608.2,151.9 610,154.4 "/>
<path d="M611.1,153.2c0,0.4,0.3,0.7,0.7,0.7c0.9-0.1,1.4-0.7,1.3-1.7C612.2,152.3,611.1,152.1,611.1,153.2z M613.1,153.6
	c-0.3,0.5-0.7,0.9-1.5,0.9c-0.8,0-1.3-0.5-1.3-1.3c0-1.4,1.4-1.4,2.8-1.4c0.1-0.8-0.2-1.2-0.9-1.2c-0.5,0-0.9,0.2-0.9,0.7l-0.7-0.1
	c0.1-0.8,0.7-1.2,1.7-1.2c1,0,1.6,0.5,1.6,1.4v0.9v0.9c0,0.5,0.2,0.7,0.6,0.6v0.2v0.2C613.8,154.5,613.1,154.3,613.1,153.6z"/>
<path d="M617.1,150c2-0.1,1.2,2.6,1.4,4.4h-0.7V153v-1.4c0-0.7-0.2-1.1-0.9-1.1c-1.6,0-1,2.3-1.1,3.8H615l0-4.3h0.7
	c0,0.2,0,0.5,0,0.7C616,150.3,616.4,150,617.1,150z"/>
<polygon points="625.9,154.4 625,154.4 624.1,150.7 623.2,154.4 622.4,154.4 621.2,150.1 621.9,150.1 622.8,153.8 623.8,150.1 
	624.5,150.1 625.5,153.8 626.4,150.1 627.1,150.1 "/>
<path d="M628.1,153.2c0,0.4,0.3,0.7,0.7,0.7c0.9-0.1,1.4-0.7,1.3-1.7C629.2,152.3,628.1,152.1,628.1,153.2z M630.2,153.6
	c-0.3,0.5-0.7,0.9-1.5,0.9c-0.8,0-1.3-0.5-1.3-1.3c0-1.4,1.4-1.4,2.8-1.4c0.1-0.8-0.2-1.2-0.9-1.2c-0.5,0-0.9,0.2-0.9,0.7l-0.7-0.1
	c0.1-0.8,0.7-1.2,1.7-1.2c1,0,1.6,0.5,1.6,1.4v0.9v0.9c0,0.5,0.2,0.7,0.6,0.6v0.2v0.2C630.9,154.5,630.2,154.3,630.2,153.6z"/>
<polygon points="634.8,154.4 633.3,152.4 632.8,152.8 632.8,153.6 632.8,154.4 632.1,154.4 632.1,151.4 632.1,148.5 632.8,148.5 
	632.8,150.3 632.8,152.2 634.7,150.1 635.5,150.1 633.8,151.9 635.6,154.4 "/>
<path d="M636.9,153.3c0,0.5,0.4,0.7,0.9,0.5v0.3v0.3c-0.7,0.2-1.6,0.1-1.6-0.9V152v-1.4h-0.5v-0.3v-0.3h0.5l0.2-1h0.5v0.5v0.5h0.8
	v0.3v0.3h-0.8v1.3V153.3z"/>
<path d="M639.7,154.5c-2,0.1-1.2-2.6-1.4-4.4h0.7v1.3v1.4c0,0.7,0.2,1.1,0.9,1.1c1.6,0,1-2.3,1.1-3.8h0.7l0,4.3h-0.7
	c0-0.2,0-0.6,0-0.7C640.8,154.1,640.5,154.4,639.7,154.5z"/>
<path d="M643.1,148.5c0.9,0.9,1.5,2.1,1.5,3.8s-0.6,2.9-1.5,3.8h-0.7c0.8-0.9,1.4-2.1,1.4-3.8s-0.6-2.9-1.4-3.8H643.1z"/>
<polyline class="st2" points="639.9,220.5 684,220.5 684,71.8 "/>
<rect x="639.4" y="220.1" width="0.5" height="0.9"/>
<polygon points="684,64.9 685.8,71.3 681.7,71.3 "/>
<polygon class="st2" points="684,64.9 685.8,71.3 681.7,71.3 "/>
<rect x="648" y="45" class="st0" width="72" height="18"/>
<rect x="648" y="45" class="st2" width="72" height="18"/>
<path d="M669.4,55.4l0-4.9c-0.5,1.7-1.2,3.3-1.8,4.9h-0.5l-1.8-4.9l0,4.9h-0.7v-2.8v-2.8h1l1.7,4.7c0.5-1.7,1.1-3.2,1.7-4.7h1v2.8
	v2.8H669.4z"/>
<path d="M672.7,55.5c-2,0.1-1.2-2.6-1.4-4.4h0.7v1.3v1.4c0,0.7,0.2,1.1,0.9,1.1c1.6,0,1-2.3,1.1-3.8h0.7l0,4.3h-0.7
	c0-0.2,0-0.6,0-0.7C673.8,55.2,673.4,55.5,672.7,55.5z"/>
<polygon points="675.8,55.4 675.8,52.5 675.8,49.5 676.5,49.5 676.5,52.5 676.5,55.4 "/>
<path d="M678.1,54.2c0,0.4,0.3,0.7,0.7,0.7c0.9-0.1,1.4-0.7,1.3-1.7C679.2,53.3,678.1,53.2,678.1,54.2z M680.2,54.6
	c-0.3,0.5-0.7,0.9-1.5,0.9c-0.8,0-1.3-0.5-1.3-1.3c0-1.4,1.4-1.4,2.8-1.4c0.1-0.8-0.2-1.2-0.9-1.2c-0.5,0-0.9,0.2-0.9,0.7l-0.7-0.1
	c0.1-0.8,0.7-1.2,1.7-1.2c1,0,1.6,0.5,1.6,1.4v0.9v0.9c0,0.5,0.2,0.7,0.6,0.6v0.2v0.2C680.8,55.6,680.2,55.4,680.2,54.6z"/>
<path d="M682.1,55.4v-2.1v-2.1h0.7v2.1v2.1H682.1z M682.1,50.2v-0.3v-0.3h0.7v0.3v0.3H682.1z"/>
<path d="M690.8,53.3c0,1.5-0.9,2.2-2.3,2.2c-1.4,0-2.3-0.7-2.3-2.1v-1.8v-1.8h0.7c0.2,2-0.7,5,1.5,5c2.3,0,1.4-3,1.6-5h0.7v1.7V53.3
	z"/>
<path d="M691.2,56.5c0.5,0.1,0.7-0.1,0.7-0.7v-2.4v-2.4h0.7v2.4V56c0,0.9-0.5,1.3-1.5,1.1v-0.3V56.5z M691.9,50.2v-0.3v-0.3h0.7v0.3
	v0.3H691.9z"/>
<path d="M693.7,55.4v-2.1v-2.1h0.7v2.1v2.1H693.7z M693.7,50.2v-0.3v-0.3h0.7v0.3v0.3H693.7z"/>
<path d="M696,54.2c0,0.4,0.3,0.7,0.7,0.7c0.9-0.1,1.4-0.7,1.3-1.7C697.1,53.3,696,53.2,696,54.2z M698.1,54.6
	c-0.3,0.5-0.7,0.9-1.5,0.9c-0.8,0-1.3-0.5-1.3-1.3c0-1.4,1.4-1.4,2.8-1.4c0.1-0.8-0.2-1.2-0.9-1.2c-0.5,0-0.9,0.2-0.9,0.7l-0.7-0.1
	c0.1-0.8,0.7-1.2,1.7-1.2c1,0,1.6,0.5,1.6,1.4v0.9v0.9c0,0.5,0.2,0.7,0.6,0.6v0.2v0.2C698.8,55.6,698.1,55.4,698.1,54.6z"/>
<path d="M702.1,51.1c2-0.1,1.2,2.6,1.4,4.4h-0.7v-1.4v-1.4c0-0.7-0.2-1.1-0.9-1.1c-1.6,0-1,2.3-1.1,3.8H700l0-4.3h0.7
	c0,0.2,0,0.5,0,0.7C701,51.4,701.4,51.1,702.1,51.1z"/>
<polyline class="st2" points="648.9,143.6 684,143.6 684,71.8 "/>
<rect x="648.4" y="143.1" width="0.5" height="0.9"/>
<polygon points="684,64.9 685.8,71.3 681.7,71.3 "/>
<polygon class="st2" points="684,64.9 685.8,71.3 681.7,71.3 "/>
<rect x="54" y="360" class="st0" width="18" height="81"/>
<rect x="54" y="360" class="st1" width="18" height="81"/>
<rect x="54" y="441" class="st0" width="18" height="81"/>
<rect x="54" y="441" class="st1" width="18" height="81"/>
<rect x="54" y="522" class="st0" width="18" height="81"/>
<rect x="54" y="522" class="st1" width="18" height="81"/>
<rect x="54" y="603" class="st0" width="18" height="90"/>
<rect x="54" y="603" class="st1" width="18" height="90"/>
<rect x="72" y="360" class="st1" width="711" height="81"/>
<rect x="72" y="441" class="st1" width="711" height="81"/>
<rect x="72" y="522" class="st1" width="711" height="81"/>
<rect x="72" y="603" class="st1" width="711" height="90"/>
<path d="M61.9,413c0-1.3,0.2-2.8-1.1-2.8c-1.3,0-1.1,1.5-1.1,2.8h1.1H61.9z M59,413.8c0-2-0.3-4.3,1.7-4.3c1.8,0,1.8,1.7,1.7,3.6
	h1.1h1.1v0.7h-2.8H59z"/>
<path d="M62.1,405.6c-1.3-0.1-1.7,1.7-0.6,2.2c0.2,0.1,0.4,0.1,0.6,0.1V405.6z M60.3,406.8c0-1.4,0.9-1.9,2.4-1.9v3
	c0.9,0,1.5-0.3,1.5-1.2c0-0.6-0.3-1-0.7-1.1l0.2-0.6c0.6,0.2,1,0.8,1,1.7c0,1.3-0.8,2-2.3,2C61.1,408.7,60.3,408.1,60.3,406.8z"/>
<path d="M61.4,401.5c-0.8,0.1-0.9,1.9,0,2c1.2-0.3,0.3-2.6,2-2.7c1.8-0.1,1.7,3.4,0.2,3.5l-0.1-0.6c0.8-0.1,1-2.2,0-2.2
	c-1.3,0.2-0.3,2.5-2,2.7c-1.3,0.1-1.4-1.8-0.9-2.7c0.2-0.3,0.4-0.5,0.8-0.5L61.4,401.5z"/>
<path d="M62.1,397.1c-1.3-0.1-1.7,1.7-0.6,2.2c0.2,0.1,0.4,0.1,0.6,0.1V397.1z M60.3,398.2c0-1.4,0.9-1.9,2.4-1.9v3
	c0.9,0,1.5-0.3,1.5-1.2c0-0.6-0.3-1-0.7-1.1l0.2-0.6c0.6,0.2,1,0.8,1,1.7c0,1.3-0.8,2-2.3,2C61.1,400.1,60.3,399.6,60.3,398.2z"/>
<path d="M61,393.4c-0.4,1.8,2,1.2,3.7,1.3v0.7l-4.3,0v-0.7c0.3,0,0.7,0,0.9,0c-0.6-0.1-1.1-0.5-0.9-1.3h0.3H61z"/>
<path d="M63.6,392c0.5,0,0.7-0.4,0.5-0.9h0.3h0.3c0.2,0.7,0.1,1.6-0.9,1.6h-1.4h-1.4v0.5h-0.3h-0.3v-0.5l-1-0.2V392h0.5h0.5v-0.8
	h0.3h0.3v0.8h1.4H63.6z"/>
<path d="M63.4,390c0.5,0,0.7-0.3,0.7-0.7c-0.1-0.9-0.7-1.4-1.7-1.4C62.5,388.9,62.4,390,63.4,390z M63.8,387.9
	c0.5,0.3,0.9,0.7,0.9,1.5c0,0.8-0.5,1.3-1.3,1.3c-1.4,0-1.4-1.4-1.4-2.8c-0.8-0.1-1.2,0.2-1.2,0.9c0,0.5,0.2,0.9,0.7,0.9l-0.1,0.7
	c-0.8-0.1-1.2-0.7-1.2-1.7c0-1,0.5-1.6,1.4-1.6h0.9h0.9c0.5,0,0.7-0.2,0.6-0.6h0.2h0.2C64.8,387.3,64.6,387.9,63.8,387.9z"/>
<path d="M60.4,489.7c-1.1,0.1-1.2,2.8,0,2.8c1.7-0.3,0.3-3.6,2.7-3.7c1.8-0.1,2,2.7,1.2,3.9c-0.2,0.4-0.6,0.6-1,0.7l-0.2-0.7
	c1.3-0.1,1.4-3.2,0-3.2c-1.8,0-0.3,3.5-2.7,3.6c-1.8,0.1-1.9-3.3-0.8-4c0.2-0.1,0.4-0.2,0.6-0.2L60.4,489.7z"/>
<path d="M64.6,487.9h-2.1h-2.1v-0.7h2.1h2.1V487.9z M59.4,487.9h-0.3h-0.3v-0.7h0.3h0.3V487.9z"/>
<path d="M61.4,483.6c-0.8,0.1-0.9,1.9,0,2c1.2-0.3,0.3-2.6,2-2.7c1.8-0.1,1.7,3.4,0.2,3.5l-0.1-0.6c0.8-0.1,1-2.2,0-2.2
	c-1.3,0.2-0.3,2.5-2,2.7c-1.3,0.1-1.4-1.8-0.9-2.7c0.2-0.3,0.4-0.5,0.8-0.5L61.4,483.6z"/>
<path d="M63.6,481.3c0.5,0,0.7-0.4,0.5-0.9h0.3h0.3c0.2,0.7,0.1,1.6-0.9,1.6h-1.4h-1.4v0.5h-0.3h-0.3V482l-1-0.2v-0.5h0.5h0.5v-0.8
	h0.3h0.3v0.8h1.4H63.6z"/>
<path d="M62.1,477c-1.3-0.1-1.7,1.7-0.6,2.2c0.2,0.1,0.4,0.1,0.6,0.1V477z M60.3,478.1c0-1.4,0.9-1.9,2.4-1.9v3
	c0.9,0,1.5-0.3,1.5-1.2c0-0.6-0.3-1-0.7-1.1l0.2-0.6c0.6,0.2,1,0.8,1,1.7c0,1.3-0.8,2-2.3,2C61.1,480,60.3,479.5,60.3,478.1z"/>
<path d="M60.8,471.2c0.1,1.5,2.4,0.9,3.8,1v0.7h-1.4h-1.4c-0.7,0-1.1,0.1-1.1,0.8c0.1,1.5,2.3,0.9,3.8,1v0.7l-4.3,0v-0.7
	c0.2,0,0.5,0,0.7,0c-1-0.2-1.1-2.2,0-2.4c-0.5-0.2-0.8-0.6-0.8-1.3c0-1.9,2.7-1.1,4.4-1.2v0.7h-1.4h-1.4
	C61.2,470.4,60.8,470.5,60.8,471.2z"/>
<path d="M62.4,570.2l-2.8,1.1c1,0.3,1.8,0.7,2.8,1V570.2z M64.6,569.3L63,570v2.5l1.6,0.6v0.8l-5.6-2.3v-0.9l5.6-2.2V569.3z"/>
<path d="M60.8,566.4c0,0.9,0.8,1,1.7,1c0.9,0,1.7-0.1,1.7-1c0-0.9-0.7-1.1-1.7-1.1C61.5,565.3,60.8,565.5,60.8,566.4z M60.3,566.6
	c0-0.7,0.3-1.1,0.7-1.3l-2.3,0v-0.7l5.9,0v0.7c-0.2,0-0.5,0-0.7,0.1c0.5,0.2,0.8,0.6,0.8,1.3c0,1.2-0.9,1.6-2.2,1.6
	C61,568.2,60.3,567.7,60.3,566.6z"/>
<path d="M60.8,559.3c0.1,1.5,2.4,0.9,3.8,1v0.7h-1.4h-1.4c-0.7,0-1.1,0.1-1.1,0.8c0.1,1.5,2.3,0.9,3.8,1v0.7l-4.3,0v-0.7
	c0.2,0,0.5,0,0.7,0c-1-0.2-1.1-2.2,0-2.4c-0.5-0.2-0.8-0.6-0.8-1.3c0-1.9,2.7-1.1,4.4-1.2v0.7h-1.4h-1.4
	C61.2,558.5,60.8,558.7,60.8,559.3z"/>
<path d="M64.6,556.8h-2.1h-2.1v-0.7h2.1h2.1V556.8z M59.4,556.8h-0.3h-0.3v-0.7h0.3h0.3V556.8z"/>
<path d="M60.3,552.9c-0.1-2,2.6-1.2,4.4-1.4v0.7h-1.4h-1.4c-0.7,0-1.1,0.2-1.1,0.9c0,1.6,2.3,1,3.8,1.1v0.7l-4.3,0v-0.7
	c0.2,0,0.5,0,0.7,0C60.6,554,60.3,553.6,60.3,552.9z"/>
<path d="M64,668.2c0.2-2-0.4-3.3-2.2-3.3s-2.3,1.4-2.1,3.3h2.2H64z M59,668.9c-0.2-2.7,0.2-4.9,2.7-4.8c1.8,0.1,2.8,1,2.8,2.7v2.1
	h-2.8H59z"/>
<path d="M64.2,661.5c0-1-0.7-1.2-1.7-1.2c-1,0-1.7,0.2-1.7,1.1c0,1,0.7,1.2,1.7,1.2C63.5,662.7,64.1,662.5,64.2,661.5z M60.3,661.5
	c0-1.4,0.8-1.9,2.2-1.9c1.4,0,2.2,0.6,2.2,1.9s-0.9,1.9-2.2,1.9C61,663.4,60.3,662.8,60.3,661.5z"/>
<path d="M61.4,656.2c-0.8,0.1-0.9,1.9,0,2c1.2-0.3,0.3-2.6,2-2.7c1.8-0.1,1.7,3.4,0.2,3.5l-0.1-0.6c0.8-0.1,1-2.2,0-2.2
	c-1.3,0.2-0.3,2.5-2,2.7c-1.3,0.1-1.4-1.8-0.9-2.7c0.2-0.3,0.4-0.5,0.8-0.5L61.4,656.2z"/>
<path d="M62.1,651.8c-1.3-0.1-1.7,1.7-0.6,2.2c0.2,0.1,0.4,0.1,0.6,0.1V651.8z M60.3,653c0-1.4,0.9-1.9,2.4-1.9v3
	c0.9,0,1.5-0.3,1.5-1.2c0-0.6-0.3-1-0.7-1.1l0.2-0.6c0.6,0.2,1,0.8,1,1.7c0,1.3-0.8,2-2.3,2C61.1,654.9,60.3,654.3,60.3,653z"/>
<path d="M60.3,648.1c-0.1-2,2.6-1.2,4.4-1.3v0.7h-1.4h-1.4c-0.7,0-1.1,0.2-1.1,0.9c0,1.6,2.3,1,3.8,1.1v0.7l-4.3,0v-0.7
	c0.2,0,0.5,0,0.7,0C60.6,649.2,60.3,648.8,60.3,648.1z"/>
<path d="M59,640.6c2.3,0.2,5.7-0.8,5.7,1.6c0,1-0.6,1.5-1.5,1.7l-0.1-0.7c0.6-0.1,0.9-0.4,1-1c0-0.6-0.5-0.9-1.1-0.9h-1.7h-1.7v1.1
	h-0.3H59V640.6z"/>
<path d="M63.4,638.9c0.5,0,0.7-0.3,0.7-0.7c-0.1-0.9-0.7-1.4-1.7-1.4C62.5,637.8,62.4,638.9,63.4,638.9z M63.8,636.8
	c0.5,0.3,0.9,0.7,0.9,1.5c0,0.8-0.5,1.3-1.3,1.3c-1.4,0-1.4-1.4-1.4-2.8c-0.8-0.1-1.2,0.2-1.2,0.9c0,0.5,0.2,0.9,0.7,0.9l-0.1,0.7
	c-0.8-0.1-1.2-0.7-1.2-1.7c0-1,0.5-1.6,1.4-1.6h0.9h0.9c0.5,0,0.7-0.2,0.6-0.6h0.2h0.2C64.8,636.1,64.6,636.8,63.8,636.8z"/>
<path d="M64.1,633.3c0-0.8-0.7-1.1-1.6-1.1c-0.9,0-1.7,0.3-1.7,1.1c0,0.9,0.8,1,1.7,1S64.1,634.2,64.1,633.3z M60.3,631.5
	c2.8,0.2,6.6-0.9,5.9,2.5c-0.1,0.5-0.4,0.9-1,1l-0.1-0.7c1.1-0.3,0.7-2.3-0.6-2h-0.3h-0.3c0.5,0.2,0.8,0.7,0.8,1.4
	c0,1.2-0.9,1.5-2.2,1.5c-1.3,0-2.2-0.4-2.2-1.6c0-0.7,0.4-1.1,0.8-1.3c-0.2,0-0.5,0-0.7,0V631.5z"/>
<path d="M63.4,629.9c0.5,0,0.7-0.3,0.7-0.7c-0.1-0.9-0.7-1.4-1.7-1.4C62.5,628.8,62.4,629.9,63.4,629.9z M63.8,627.8
	c0.5,0.3,0.9,0.7,0.9,1.5c0,0.8-0.5,1.3-1.3,1.3c-1.4,0-1.4-1.4-1.4-2.8c-0.8-0.1-1.2,0.2-1.2,0.9c0,0.5,0.2,0.9,0.7,0.9l-0.1,0.7
	c-0.8-0.1-1.2-0.7-1.2-1.7c0-1,0.5-1.6,1.4-1.6h0.9h0.9c0.5,0,0.7-0.2,0.6-0.6h0.2h0.2C64.8,627.1,64.6,627.8,63.8,627.8z"/>
<path class="st0" d="M117,459h36c9.9,0,18,8.1,18,18s-8.1,18-18,18h-36V459z"/>
<path class="st2" d="M117,459h36c9.9,0,18,8.1,18,18s-8.1,18-18,18h-36V459z"/>
<polygon points="127.9,473.6 127,473.6 125.7,468.9 124.5,473.6 123.6,473.6 122,468.1 122.7,468.1 124.1,473 124.4,471.5 
	125.4,468.1 126.1,468.1 127.4,473 128.8,468.1 129.5,468.1 "/>
<path d="M130.3,472.4c0,0.4,0.3,0.7,0.7,0.7c0.9-0.1,1.4-0.7,1.4-1.7C131.4,471.6,130.3,471.4,130.3,472.4z M132.4,472.8
	c-0.3,0.5-0.7,0.9-1.5,0.9c-0.8,0-1.3-0.5-1.3-1.3c0-1.4,1.4-1.4,2.8-1.4c0.1-0.8-0.2-1.2-0.9-1.2c-0.5,0-0.9,0.2-0.9,0.7l-0.7-0.1
	c0.1-0.8,0.7-1.2,1.7-1.2c1,0,1.6,0.4,1.6,1.4v0.9v0.9c0,0.5,0.2,0.7,0.6,0.6v0.2v0.2C133.1,473.8,132.4,473.6,132.4,472.8z"/>
<polygon points="137,473.6 135.5,471.7 135,472.1 135,472.9 135,473.6 134.3,473.6 134.3,470.7 134.3,467.8 135,467.8 135,469.6 
	135,471.4 136.9,469.4 137.7,469.4 136,471.2 137.8,473.6 "/>
<path d="M139.1,472.6c0,0.5,0.4,0.7,0.9,0.5v0.3v0.3c-0.7,0.2-1.6,0.1-1.6-0.9v-1.4v-1.4h-0.5v-0.3v-0.3h0.5l0.2-1h0.5v0.5v0.5h0.8
	v0.3v0.3h-0.8v1.3V472.6z"/>
<path d="M141.9,473.7c-2,0.1-1.2-2.6-1.4-4.4h0.7v1.4v1.4c0,0.7,0.2,1.1,0.9,1.1c1.6,0,1-2.3,1.1-3.8h0.7l0,4.3h-0.7
	c0-0.2,0-0.6,0-0.7C143,473.4,142.7,473.7,141.9,473.7z"/>
<path d="M152,471.5c0,1.5-0.9,2.2-2.3,2.2c-1.4,0-2.3-0.7-2.3-2.1v-1.8v-1.8h0.7c0.2,2-0.7,5,1.5,5c2.3,0,1.4-3,1.6-5h0.7v1.7V471.5
	z"/>
<path d="M152.4,474.7c0.5,0.1,0.7-0.1,0.7-0.7v-2.4v-2.4h0.7v2.4v2.4c0,0.9-0.5,1.3-1.5,1.1V475V474.7z M153.2,468.4v-0.3v-0.3h0.7
	v0.3v0.3H153.2z"/>
<path d="M154.9,473.6v-2.1v-2.1h0.7v2.1v2.1H154.9z M154.9,468.4v-0.3v-0.3h0.7v0.3v0.3H154.9z"/>
<path d="M157.3,472.4c0,0.4,0.3,0.7,0.7,0.7c0.9-0.1,1.4-0.7,1.4-1.7C158.4,471.6,157.3,471.4,157.3,472.4z M159.4,472.8
	c-0.3,0.5-0.7,0.9-1.5,0.9c-0.8,0-1.3-0.5-1.3-1.3c0-1.4,1.4-1.4,2.8-1.4c0.1-0.8-0.2-1.2-0.9-1.2c-0.5,0-0.9,0.2-0.9,0.7l-0.7-0.1
	c0.1-0.8,0.7-1.2,1.7-1.2c1,0,1.6,0.4,1.6,1.4v0.9v0.9c0,0.5,0.2,0.7,0.6,0.6v0.2v0.2C160,473.8,159.3,473.6,159.4,472.8z"/>
<path d="M163.3,469.3c2-0.1,1.2,2.6,1.4,4.4h-0.7v-1.4v-1.4c0-0.7-0.2-1.1-0.9-1.1c-1.6,0-1,2.3-1.1,3.8h-0.7l0-4.3h0.7
	c0,0.2,0,0.5,0,0.7C162.2,469.6,162.6,469.3,163.3,469.3z"/>
<polygon points="137.7,483.4 137.7,482.1 137.7,480.8 134.6,480.8 134.6,482.1 134.6,483.4 133.9,483.4 133.9,480.6 133.9,477.8 
	134.6,477.8 134.6,479 134.6,480.1 137.7,480.1 137.7,479 137.7,477.8 138.4,477.8 138.4,480.6 138.4,483.4 "/>
<path d="M140.1,482.2c0,0.5,0.3,0.7,0.7,0.7c0.9-0.1,1.4-0.7,1.4-1.7C141.2,481.3,140.1,481.1,140.1,482.2z M142.2,482.5
	c-0.3,0.5-0.7,0.9-1.5,0.9c-0.8,0-1.3-0.5-1.3-1.3c0-1.4,1.4-1.4,2.8-1.4c0.1-0.8-0.2-1.2-0.9-1.2c-0.5,0-0.9,0.2-0.9,0.7l-0.7-0.1
	c0.1-0.8,0.7-1.2,1.7-1.2c1,0,1.6,0.5,1.6,1.4v0.9v0.9c0,0.4,0.2,0.7,0.6,0.6v0.2v0.2C142.9,483.5,142.2,483.3,142.2,482.5z"/>
<path d="M146,482.9c0.9,0,1-0.8,1-1.7c0-0.9-0.1-1.7-1-1.7c-0.9,0-1.1,0.7-1.1,1.7C144.8,482.2,145,482.9,146,482.9z M146.1,479
	c1.2,0,1.6,0.9,1.6,2.2c0,1.5-0.5,2.3-1.6,2.3c-0.7,0-1.1-0.2-1.3-0.8l0,0.7h-0.7l0-5.9h0.7v1.1v1.1C145,479.2,145.4,479,146.1,479z
	"/>
<path d="M148.6,483.4v-2.1v-2.1h0.7v2.1v2.1H148.6z M148.6,478.2v-0.3v-0.3h0.7v0.3v0.3H148.6z"/>
<path d="M152.9,480.1c-0.1-0.8-1.9-0.9-2,0c0.3,1.2,2.6,0.3,2.7,2s-3.4,1.7-3.5,0.2l0.6-0.1c0.1,0.8,2.2,1,2.2,0
	c-0.2-1.3-2.5-0.3-2.7-2c-0.1-1.3,1.8-1.4,2.7-0.9c0.3,0.2,0.5,0.4,0.5,0.8L152.9,480.1z"/>
<line class="st2" x1="171.9" y1="477" x2="189.2" y2="477"/>
<polygon points="171.9,477.5 171.4,477.5 171.4,477 171.4,476.5 171.9,476.5 "/>
<polygon points="196.1,477 189.7,478.8 189.7,474.8 "/>
<polygon class="st2" points="196.1,477 189.7,478.8 189.7,474.8 "/>
<rect x="198" y="463.5" class="st0" width="72" height="27"/>
<rect x="198" y="463.5" class="st2" width="72" height="27"/>
<polygon points="212.3,468.7 212.3,471.2 212.3,473.6 211.5,473.6 211.5,471.2 211.5,468.7 209.6,468.7 209.6,468.4 209.6,468.1 
	214.2,468.1 214.2,468.4 214.2,468.7 "/>
<path d="M216,473.7c-2,0.1-1.2-2.6-1.4-4.4h0.7v1.4v1.4c0,0.7,0.2,1.1,0.9,1.1c1.6,0,1-2.3,1.1-3.8h0.7l0,4.3h-0.7
	c0-0.2,0-0.6,0-0.7C217.1,473.4,216.7,473.7,216,473.7z"/>
<path d="M219.9,472.6c0,0.5,0.4,0.7,0.9,0.5v0.3v0.3c-0.7,0.2-1.6,0.1-1.6-0.9v-1.4v-1.4h-0.5v-0.3v-0.3h0.5l0.2-1h0.5v0.5v0.5h0.8
	v0.3v0.3h-0.8v1.3V472.6z"/>
<path d="M222.7,473.7c-2,0.1-1.2-2.6-1.4-4.4h0.7v1.4v1.4c0,0.7,0.2,1.1,0.9,1.1c1.6,0,1-2.3,1.1-3.8h0.7l0,4.3h-0.7
	c0-0.2,0-0.6,0-0.7C223.8,473.4,223.4,473.7,222.7,473.7z"/>
<path d="M227.7,473.2c0.9,0,1-0.8,1-1.7c0-0.9-0.1-1.6-1-1.7c-0.9,0-1.1,0.7-1.1,1.7C226.6,472.5,226.8,473.2,227.7,473.2z
	 M227.9,469.3c1.2,0,1.6,0.9,1.6,2.2c0,1.3-0.4,2.2-1.6,2.3c-0.7,0-1.1-0.3-1.4-0.8l0,2.4h-0.7l0-6h0.7l0,0.7
	C226.8,469.6,227.2,469.3,227.9,469.3z"/>
<polygon points="234.9,468.7 234.9,471.2 234.9,473.6 234.2,473.6 234.2,471.2 234.2,468.7 232.2,468.7 232.2,468.4 232.2,468.1 
	236.8,468.1 236.8,468.4 236.8,468.7 "/>
<path d="M239.5,471.1c0.1-1.3-1.7-1.7-2.2-0.6c-0.1,0.2-0.1,0.4-0.1,0.6H239.5z M238.3,469.3c1.4,0,1.9,0.9,1.9,2.4h-3
	c0,0.9,0.3,1.5,1.2,1.5c0.6,0,1-0.3,1.1-0.7l0.6,0.2c-0.2,0.6-0.8,1-1.7,1c-1.3,0-2-0.8-2-2.3C236.5,470.1,237,469.3,238.3,469.3z"
	/>
<path d="M245.3,469.8c-1.5,0.1-0.9,2.4-1,3.8h-0.7v-1.4v-1.4c0-0.7-0.1-1.1-0.8-1.1c-1.5,0.1-0.9,2.3-1,3.8h-0.7l0-4.3h0.7
	c0,0.2,0,0.5,0,0.7c0.2-1,2.2-1.1,2.4,0c0.2-0.5,0.6-0.8,1.3-0.8c1.9,0,1.1,2.7,1.2,4.4h-0.7v-1.4v-1.4
	C246.1,470.3,246,469.8,245.3,469.8z"/>
<path d="M249.7,473.2c0.9,0,1-0.8,1-1.7c0-0.9-0.1-1.6-1-1.7c-0.9,0-1.1,0.7-1.1,1.7C248.6,472.5,248.8,473.2,249.7,473.2z
	 M249.9,469.3c1.2,0,1.6,0.9,1.6,2.2c0,1.3-0.4,2.2-1.6,2.3c-0.7,0-1.1-0.3-1.4-0.8l0,2.4h-0.7l0-6h0.7l0,0.7
	C248.8,469.6,249.2,469.3,249.9,469.3z"/>
<path d="M252.9,472.4c0,0.4,0.3,0.7,0.7,0.7c0.9-0.1,1.4-0.7,1.4-1.7C254,471.6,252.9,471.4,252.9,472.4z M255,472.8
	c-0.3,0.5-0.7,0.9-1.5,0.9c-0.8,0-1.3-0.5-1.3-1.3c0-1.4,1.4-1.4,2.8-1.4c0.1-0.8-0.2-1.2-0.9-1.2c-0.5,0-0.9,0.2-0.9,0.7l-0.7-0.1
	c0.1-0.8,0.7-1.2,1.7-1.2c1,0,1.6,0.4,1.6,1.4v0.9v0.9c0,0.5,0.2,0.7,0.6,0.6v0.2v0.2C255.6,473.8,254.9,473.6,255,472.8z"/>
<path d="M257.6,472.6c0,0.5,0.4,0.7,0.9,0.5v0.3v0.3c-0.7,0.2-1.6,0.1-1.6-0.9v-1.4v-1.4h-0.5v-0.3v-0.3h0.5l0.2-1h0.5v0.5v0.5h0.8
	v0.3v0.3h-0.8v1.3V472.6z"/>
<path d="M210.5,480.6c1.3,0,2.8,0.2,2.8-1.1c0-1.3-1.5-1.1-2.8-1.1v1.1V480.6z M209.7,477.8c2,0,4.3-0.3,4.3,1.7
	c0,1.8-1.7,1.8-3.6,1.7v1.1v1.1h-0.7v-2.8V477.8z"/>
<path d="M217.9,480.8c0.1-1.4-1.7-1.7-2.2-0.6c-0.1,0.2-0.1,0.4-0.1,0.6H217.9z M216.7,479c1.4,0,1.9,0.9,1.9,2.4h-3
	c0,0.9,0.3,1.5,1.2,1.5c0.6,0,1-0.3,1.1-0.7l0.6,0.2c-0.2,0.6-0.8,1-1.7,1c-1.3,0-2-0.8-2-2.3C214.8,479.8,215.4,479,216.7,479z"/>
<path d="M221.6,479c2-0.1,1.2,2.6,1.4,4.4h-0.7V482v-1.4c0-0.7-0.2-1.1-0.9-1.1c-1.6,0-1,2.3-1.1,3.8h-0.7l0-4.3h0.7
	c0,0.2,0,0.5,0,0.7C220.5,479.3,220.9,479,221.6,479z"/>
<path d="M225.6,482.9c0.8,0,1.1-0.7,1.1-1.6c0-0.9-0.3-1.7-1.1-1.7c-0.9,0-1,0.8-1,1.7C224.5,482.1,224.7,482.9,225.6,482.9z
	 M227.4,479.1c-0.2,2.8,0.9,6.6-2.5,5.9c-0.5-0.1-0.9-0.4-1-1l0.7-0.1c0.3,1.1,2.3,0.7,2-0.6v-0.3v-0.3c-0.2,0.5-0.7,0.8-1.4,0.8
	c-1.2,0-1.5-0.9-1.5-2.2c0-1.3,0.4-2.2,1.6-2.2c0.7,0,1.1,0.4,1.3,0.8c0-0.2,0-0.5,0-0.7H227.4z"/>
<path d="M229.8,483.4c-2,0.1-1.2-2.6-1.4-4.4h0.7v1.4v1.3c0,0.7,0.2,1.1,0.9,1.1c1.6,0,1-2.3,1.1-3.8h0.7l0,4.3h-0.7
	c0-0.2,0-0.6,0-0.7C230.9,483.1,230.6,483.4,229.8,483.4z"/>
<path d="M237.2,479.6c-1.5,0.1-0.9,2.4-1,3.8h-0.7V482v-1.4c0-0.7-0.1-1.1-0.8-1.1c-1.5,0.1-0.9,2.3-1,3.8H233l0-4.3h0.7
	c0,0.2,0,0.5,0,0.7c0.2-1,2.2-1.1,2.4,0c0.2-0.5,0.6-0.8,1.3-0.8c1.9,0,1.1,2.7,1.2,4.4H238V482v-1.4
	C238,480,237.8,479.5,237.2,479.6z"/>
<path d="M241.6,482.9c0.9,0,1-0.8,1-1.7c0-0.9-0.1-1.6-1-1.7c-0.9,0-1.1,0.7-1.1,1.7C240.4,482.2,240.7,482.9,241.6,482.9z
	 M241.8,479c1.2,0,1.6,0.9,1.6,2.2c0,1.3-0.4,2.2-1.6,2.3c-0.7,0-1.1-0.3-1.4-0.8l0,2.4h-0.7l0-6h0.7l0,0.7
	C240.7,479.3,241.1,479,241.8,479z"/>
<path d="M245.6,483.4c-2,0.1-1.2-2.6-1.4-4.4h0.7v1.4v1.3c0,0.7,0.2,1.1,0.9,1.1c1.6,0,1-2.3,1.1-3.8h0.7l0,4.3H247
	c0-0.2,0-0.6,0-0.7C246.7,483.1,246.3,483.4,245.6,483.4z"/>
<polygon points="248.7,483.4 248.7,480.4 248.7,477.5 249.4,477.5 249.4,480.4 249.4,483.4 "/>
<path d="M251,482.2c0,0.5,0.3,0.7,0.7,0.7c0.9-0.1,1.4-0.7,1.4-1.7C252.1,481.3,251,481.1,251,482.2z M253.1,482.5
	c-0.3,0.5-0.7,0.9-1.5,0.9c-0.8,0-1.3-0.5-1.3-1.3c0-1.4,1.4-1.4,2.8-1.4c0.1-0.8-0.2-1.2-0.9-1.2c-0.5,0-0.9,0.2-0.9,0.7l-0.7-0.1
	c0.1-0.8,0.7-1.2,1.7-1.2c1,0,1.6,0.5,1.6,1.4v0.9v0.9c0,0.4,0.2,0.7,0.6,0.6v0.2v0.2C253.8,483.5,253.1,483.3,253.1,482.5z"/>
<path d="M257.1,479c2-0.1,1.2,2.6,1.4,4.4h-0.7V482v-1.4c0-0.7-0.2-1.1-0.9-1.1c-1.6,0-1,2.3-1.1,3.8H255l0-4.3h0.7
	c0,0.2,0,0.5,0,0.7C256,479.3,256.4,479,257.1,479z"/>
<polyline class="st2" points="270.9,477 288,477 288,657 297.2,657 "/>
<rect x="270.4" y="476.5" width="0.5" height="0.9"/>
<polygon points="304.1,657 297.7,658.8 297.7,654.8 "/>
<polygon class="st2" points="304.1,657 297.7,658.8 297.7,654.8 "/>
<rect x="306" y="639" class="st0" width="72" height="36"/>
<rect x="306" y="639" class="st2" width="72" height="36"/>
<path d="M325.2,648.7l0-4.9c-0.5,1.7-1.2,3.3-1.8,4.9h-0.5l-1.8-4.9l0,4.9h-0.7v-2.8v-2.8h1l1.7,4.7c0.5-1.7,1.1-3.1,1.7-4.7h1v2.8
	v2.8H325.2z"/>
<path d="M329.9,646.2c0.1-1.4-1.7-1.7-2.2-0.6c-0.1,0.2-0.1,0.4-0.1,0.6H329.9z M328.7,644.3c1.4,0,1.9,0.9,1.9,2.4h-3
	c0,0.9,0.3,1.5,1.2,1.5c0.6,0,1-0.3,1.1-0.7l0.6,0.2c-0.2,0.6-0.8,1-1.7,1c-1.3,0-2-0.8-2-2.3C326.9,645.2,327.4,644.3,328.7,644.3z
	"/>
<path d="M335.7,644.9c-1.5,0.1-0.9,2.4-1,3.8H334v-1.4V646c0-0.7-0.1-1.1-0.8-1.1c-1.5,0.1-0.9,2.3-1,3.8h-0.7l0-4.3h0.7
	c0,0.2,0,0.5,0,0.7c0.2-1,2.2-1.1,2.4,0c0.2-0.5,0.6-0.8,1.3-0.8c1.9,0,1.1,2.7,1.2,4.4h-0.7v-1.4V646
	C336.5,645.3,336.4,644.9,335.7,644.9z"/>
<path d="M340.1,648.3c0.9,0,1-0.8,1-1.7c0-0.9-0.1-1.7-1-1.7c-0.9,0-1.1,0.7-1.1,1.7C339,647.6,339.2,648.3,340.1,648.3z
	 M340.3,644.3c1.2,0,1.6,0.9,1.6,2.2c0,1.5-0.5,2.3-1.6,2.3c-0.7,0-1.1-0.2-1.3-0.8l0,0.7h-0.7l0-5.9h0.7v1.1v1.1
	C339.2,644.6,339.6,644.3,340.3,644.3z"/>
<path d="M345.6,646.2c0.1-1.4-1.7-1.7-2.2-0.6c-0.1,0.2-0.1,0.4-0.1,0.6H345.6z M344.5,644.3c1.4,0,1.9,0.9,1.9,2.4h-3
	c0,0.9,0.3,1.5,1.2,1.5c0.6,0,1-0.3,1.1-0.7l0.6,0.2c-0.2,0.6-0.8,1-1.7,1c-1.3,0-2-0.8-2-2.3C342.6,645.2,343.1,644.3,344.5,644.3z
	"/>
<path d="M349.3,645c-1.8-0.4-1.2,2-1.3,3.7h-0.7l0-4.3h0.7c0,0.3,0,0.7,0,0.9c0.1-0.6,0.5-1.1,1.3-0.9v0.3V645z"/>
<path d="M349.9,648.7v-2.1v-2.1h0.7v2.1v2.1H349.9z M349.9,643.5v-0.3v-0.3h0.7v0.3v0.3H349.9z"/>
<polygon points="354.4,648.7 353,646.8 352.4,647.2 352.4,647.9 352.4,648.7 351.7,648.7 351.7,645.8 351.7,642.8 352.4,642.8 
	352.4,644.7 352.4,646.5 354.3,644.4 355.1,644.4 353.4,646.3 355.3,648.7 "/>
<path d="M356.3,647.5c0,0.5,0.3,0.7,0.7,0.7c0.9-0.1,1.4-0.7,1.4-1.7C357.4,646.6,356.3,646.5,356.3,647.5z M358.4,647.9
	c-0.3,0.5-0.7,0.9-1.5,0.9c-0.8,0-1.3-0.5-1.3-1.3c0-1.4,1.4-1.4,2.8-1.4c0.1-0.8-0.2-1.2-0.9-1.2c-0.5,0-0.9,0.2-0.9,0.7l-0.7-0.1
	c0.1-0.8,0.7-1.2,1.7-1.2c1,0,1.6,0.5,1.6,1.4v0.9v0.9c0,0.5,0.2,0.7,0.6,0.6v0.2v0.2C359,648.9,358.4,648.6,358.4,647.9z"/>
<path d="M362.4,644.3c2-0.1,1.2,2.6,1.4,4.4H363v-1.4V646c0-0.7-0.2-1.1-0.9-1.1c-1.6,0-1,2.3-1.1,3.8h-0.7l0-4.3h0.7
	c0,0.2,0,0.5,0,0.7C361.2,644.7,361.6,644.4,362.4,644.3z"/>
<path d="M313.2,657.2c0,0.4,0.3,0.7,0.7,0.7c0.9-0.1,1.4-0.7,1.4-1.7C314.3,656.4,313.2,656.2,313.2,657.2z M315.3,657.6
	c-0.3,0.5-0.7,0.9-1.5,0.9c-0.8,0-1.3-0.5-1.3-1.3c0-1.4,1.4-1.4,2.8-1.4c0.1-0.8-0.2-1.2-0.9-1.2c-0.5,0-0.9,0.2-0.9,0.7l-0.7-0.1
	c0.1-0.8,0.7-1.2,1.7-1.2c1,0,1.6,0.5,1.6,1.4v0.9v0.9c0,0.5,0.2,0.7,0.6,0.6v0.2v0.2C315.9,658.6,315.2,658.4,315.3,657.6z"/>
<path d="M319,658c0.9,0,1-0.8,1-1.7c0-0.9-0.1-1.7-1-1.7c-0.9,0-1.1,0.7-1.1,1.7C317.9,657.3,318.1,658,319,658z M319.2,654.1
	c1.2,0,1.6,0.9,1.6,2.2c0,1.5-0.5,2.3-1.6,2.3c-0.7,0-1.1-0.2-1.3-0.8l0,0.7h-0.7l0-5.9h0.7v1.1v1.1
	C318.1,654.3,318.5,654.1,319.2,654.1z"/>
<path d="M322.2,657.2c0,0.4,0.3,0.7,0.7,0.7c0.9-0.1,1.4-0.7,1.4-1.7C323.3,656.4,322.2,656.2,322.2,657.2z M324.3,657.6
	c-0.3,0.5-0.7,0.9-1.5,0.9c-0.8,0-1.3-0.5-1.3-1.3c0-1.4,1.4-1.4,2.8-1.4c0.1-0.8-0.2-1.2-0.9-1.2c-0.5,0-0.9,0.2-0.9,0.7l-0.7-0.1
	c0.1-0.8,0.7-1.2,1.7-1.2c1,0,1.6,0.5,1.6,1.4v0.9v0.9c0,0.5,0.2,0.7,0.6,0.6v0.2v0.2C324.9,658.6,324.2,658.4,324.3,657.6z"/>
<polygon points="326,656.6 326,656.3 326,656 327.9,656 327.9,656.3 327.9,656.6 "/>
<path d="M329.4,657.2c0,0.4,0.3,0.7,0.7,0.7c0.9-0.1,1.4-0.7,1.4-1.7C330.5,656.4,329.4,656.2,329.4,657.2z M331.4,657.6
	c-0.3,0.5-0.7,0.9-1.5,0.9c-0.8,0-1.3-0.5-1.3-1.3c0-1.4,1.4-1.4,2.8-1.4c0.1-0.8-0.2-1.2-0.9-1.2c-0.5,0-0.9,0.2-0.9,0.7l-0.7-0.1
	c0.1-0.8,0.7-1.2,1.7-1.2c1,0,1.6,0.5,1.6,1.4v0.9v0.9c0,0.5,0.2,0.7,0.6,0.6v0.2v0.2C332.1,658.6,331.4,658.4,331.4,657.6z"/>
<path d="M335.2,658c0.9,0,1-0.8,1-1.7c0-0.9-0.1-1.7-1-1.7c-0.9,0-1.1,0.7-1.1,1.7C334,657.3,334.3,658,335.2,658z M335.4,654.1
	c1.2,0,1.6,0.9,1.6,2.2c0,1.5-0.5,2.3-1.6,2.3c-0.7,0-1.1-0.2-1.3-0.8l0,0.7h-0.7l0-5.9h0.7v1.1v1.1
	C334.3,654.3,334.7,654.1,335.4,654.1z"/>
<path d="M338.4,657.2c0,0.4,0.3,0.7,0.7,0.7c0.9-0.1,1.4-0.7,1.4-1.7C339.5,656.4,338.4,656.2,338.4,657.2z M340.4,657.6
	c-0.3,0.5-0.7,0.9-1.5,0.9c-0.8,0-1.3-0.5-1.3-1.3c0-1.4,1.4-1.4,2.8-1.4c0.1-0.8-0.2-1.2-0.9-1.2c-0.5,0-0.9,0.2-0.9,0.7l-0.7-0.1
	c0.1-0.8,0.7-1.2,1.7-1.2c1,0,1.6,0.5,1.6,1.4v0.9v0.9c0,0.5,0.2,0.7,0.6,0.6v0.2v0.2C341.1,658.6,340.4,658.4,340.4,657.6z"/>
<path d="M345.4,655.7c1.3,0,2.8,0.2,2.8-1.1c0-1.3-1.5-1.1-2.8-1.1v1.1V655.7z M344.7,652.9c2,0,4.3-0.3,4.3,1.7
	c0,1.8-1.7,1.8-3.6,1.7v1.1v1.1h-0.7v-2.8V652.9z"/>
<path d="M352.8,655.9c0.1-1.3-1.7-1.7-2.2-0.6c-0.1,0.2-0.1,0.4-0.1,0.6H352.8z M351.7,654.1c1.4,0,1.9,0.9,1.9,2.4h-3
	c0,0.9,0.3,1.5,1.2,1.5c0.6,0,1-0.3,1.1-0.7l0.6,0.2c-0.2,0.6-0.8,1-1.7,1c-1.3,0-2-0.8-2-2.3C349.8,654.9,350.3,654.1,351.7,654.1z
	"/>
<path d="M357,655.2c-0.1-0.8-1.9-0.9-2,0c0.3,1.2,2.6,0.3,2.7,2s-3.4,1.7-3.5,0.2l0.6-0.1c0.1,0.8,2.2,1,2.2,0
	c-0.2-1.3-2.5-0.3-2.7-2c-0.1-1.3,1.8-1.4,2.7-0.9c0.3,0.2,0.5,0.4,0.5,0.8L357,655.2z"/>
<path d="M361.4,655.9c0.1-1.3-1.7-1.7-2.2-0.6c-0.1,0.2-0.1,0.4-0.1,0.6H361.4z M360.2,654.1c1.4,0,1.9,0.9,1.9,2.4h-3
	c0,0.9,0.3,1.5,1.2,1.5c0.6,0,1-0.3,1.1-0.7l0.6,0.2c-0.2,0.6-0.8,1-1.7,1c-1.3,0-2-0.8-2-2.3C358.3,654.9,358.9,654.1,360.2,654.1z
	"/>
<path d="M365,654.8c-1.8-0.4-1.2,2-1.3,3.7H363l0-4.3h0.7c0,0.3,0,0.7,0,0.9c0.1-0.6,0.5-1.1,1.3-0.9v0.3V654.8z"/>
<path d="M366.5,657.4c0,0.5,0.4,0.7,0.9,0.5v0.3v0.3c-0.7,0.2-1.6,0.1-1.6-0.9v-1.4v-1.4h-0.5v-0.3v-0.3h0.5l0.2-1h0.5v0.5v0.5h0.8
	v0.3v0.3h-0.8v1.3V657.4z"/>
<path d="M368.5,657.2c0,0.4,0.3,0.7,0.7,0.7c0.9-0.1,1.4-0.7,1.4-1.7C369.6,656.4,368.5,656.2,368.5,657.2z M370.6,657.6
	c-0.3,0.5-0.7,0.9-1.5,0.9c-0.8,0-1.3-0.5-1.3-1.3c0-1.4,1.4-1.4,2.8-1.4c0.1-0.8-0.2-1.2-0.9-1.2c-0.5,0-0.9,0.2-0.9,0.7l-0.7-0.1
	c0.1-0.8,0.7-1.2,1.7-1.2c1,0,1.6,0.5,1.6,1.4v0.9v0.9c0,0.5,0.2,0.7,0.6,0.6v0.2v0.2C371.2,658.6,370.5,658.4,370.6,657.6z"/>
<polygon points="334.7,668.2 332.5,665.5 331.7,666 331.7,667.1 331.7,668.2 331,668.2 331,665.4 331,662.6 331.7,662.6 331.7,664 
	331.7,665.4 334.4,662.6 335.3,662.6 333,665 335.6,668.2 "/>
<path d="M339.1,665.6c0.1-1.4-1.7-1.7-2.2-0.6c-0.1,0.2-0.1,0.4-0.1,0.6H339.1z M338,663.8c1.4,0,1.9,0.9,1.9,2.4h-3
	c0,0.9,0.3,1.5,1.2,1.5c0.6,0,1-0.3,1.1-0.7l0.6,0.2c-0.2,0.6-0.8,1-1.7,1c-1.3,0-2-0.8-2-2.3C336.1,664.6,336.6,663.8,338,663.8z"
	/>
<polygon points="340.8,668.2 340.8,665.2 340.8,662.3 341.5,662.3 341.5,665.2 341.5,668.2 "/>
<path d="M343.9,668.2c-2,0.1-1.2-2.6-1.4-4.4h0.7v1.4v1.3c0,0.7,0.2,1.1,0.9,1.1c1.6,0,1-2.3,1.1-3.8h0.7l0,4.3h-0.7
	c0-0.2,0-0.6,0-0.7C345,667.9,344.6,668.2,343.9,668.2z"/>
<path d="M347.6,667c0,0.5,0.3,0.7,0.7,0.7c0.9-0.1,1.4-0.7,1.4-1.7C348.7,666.1,347.6,665.9,347.6,667z M349.7,667.3
	c-0.3,0.5-0.7,0.9-1.5,0.9c-0.8,0-1.3-0.5-1.3-1.3c0-1.4,1.4-1.4,2.8-1.4c0.1-0.8-0.2-1.2-0.9-1.2c-0.5,0-0.9,0.2-0.9,0.7L347,665
	c0.1-0.8,0.7-1.2,1.7-1.2c1,0,1.6,0.5,1.6,1.4v0.9v0.9c0,0.5,0.2,0.7,0.6,0.6v0.2v0.2C350.3,668.3,349.6,668.1,349.7,667.3z"/>
<path d="M353.6,664.5c-1.8-0.4-1.2,2-1.3,3.7h-0.7l0-4.3h0.7c0,0.3,0,0.7,0,0.9c0.1-0.6,0.5-1.1,1.3-0.9v0.3V664.5z"/>
<polyline class="st2" points="378.9,657 396,657 396,400.5 405.2,400.5 "/>
<rect x="378.4" y="656.5" width="0.4" height="0.9"/>
<polygon points="412.1,400.5 405.7,402.6 405.7,398.4 "/>
<polygon class="st2" points="412.1,400.5 405.7,402.6 405.7,398.4 "/>
<rect x="414" y="387" class="st0" width="72" height="27"/>
<rect x="414" y="387" class="st2" width="72" height="27"/>
<path d="M424.7,400c1.3,0,2.8,0.2,2.8-1.1c0-1.3-1.5-1.1-2.8-1.1v1.1V400z M423.9,397.2c2,0,4.3-0.3,4.3,1.7c0,1.8-1.7,1.8-3.6,1.7
	v1.1v1.1h-0.7V400V397.2z"/>
<path d="M432.1,400.2c0.1-1.4-1.7-1.7-2.2-0.6c-0.1,0.2-0.1,0.4-0.1,0.6H432.1z M430.9,398.4c1.4,0,1.9,0.9,1.9,2.4h-3
	c0,0.9,0.3,1.5,1.2,1.5c0.6,0,1-0.3,1.1-0.7l0.6,0.2c-0.2,0.6-0.8,1-1.7,1c-1.3,0-2-0.8-2-2.3C429,399.2,429.6,398.4,430.9,398.4z"
	/>
<path d="M436.2,399.5c-0.1-0.8-1.9-0.9-2,0c0.3,1.2,2.6,0.3,2.7,2c0.1,1.8-3.4,1.7-3.5,0.2l0.6-0.1c0.1,0.8,2.2,1,2.2,0
	c-0.2-1.3-2.5-0.3-2.7-2c-0.1-1.3,1.8-1.4,2.7-0.9c0.3,0.2,0.5,0.4,0.5,0.8L436.2,399.5z"/>
<path d="M440.6,400.2c0.1-1.4-1.7-1.7-2.2-0.6c-0.1,0.2-0.1,0.4-0.1,0.6H440.6z M439.5,398.4c1.4,0,1.9,0.9,1.9,2.4h-3
	c0,0.9,0.3,1.5,1.2,1.5c0.6,0,1-0.3,1.1-0.7l0.6,0.2c-0.2,0.6-0.8,1-1.7,1c-1.3,0-2-0.8-2-2.3C437.6,399.2,438.1,398.4,439.5,398.4z
	"/>
<path d="M444.3,399.1c-1.8-0.4-1.2,2-1.3,3.7h-0.7l0-4.3h0.7c0,0.3,0,0.7,0,0.9c0.1-0.6,0.5-1.1,1.3-0.9v0.3V399.1z"/>
<path d="M445.7,401.7c0,0.5,0.4,0.7,0.9,0.5v0.3v0.3c-0.7,0.2-1.6,0.1-1.6-0.9v-1.4V399h-0.5v-0.3v-0.3h0.5l0.2-1h0.5v0.5v0.5h0.8
	v0.3v0.3h-0.8v1.4V401.7z"/>
<path d="M447.7,401.6c0,0.4,0.3,0.7,0.7,0.7c0.9-0.1,1.4-0.7,1.4-1.7C448.8,400.7,447.7,400.5,447.7,401.6z M449.8,401.9
	c-0.3,0.5-0.7,0.9-1.5,0.9c-0.8,0-1.3-0.5-1.3-1.3c0-1.4,1.4-1.4,2.8-1.4c0.1-0.8-0.2-1.2-0.9-1.2c-0.5,0-0.9,0.2-0.9,0.7l-0.7-0.1
	c0.1-0.8,0.7-1.2,1.7-1.2c1,0,1.6,0.5,1.6,1.4v0.9v0.9c0,0.5,0.2,0.7,0.6,0.6v0.2v0.2C450.4,402.9,449.8,402.7,449.8,401.9z"/>
<polygon points="457.7,402.8 455.5,400.1 454.8,400.6 454.8,401.7 454.8,402.8 454.1,402.8 454.1,400 454.1,397.2 454.8,397.2 
	454.8,398.6 454.8,400 457.5,397.2 458.4,397.2 456,399.6 458.7,402.8 "/>
<path d="M462.2,400.2c0.1-1.4-1.7-1.7-2.2-0.6c-0.1,0.2-0.1,0.4-0.1,0.6H462.2z M461,398.4c1.4,0,1.9,0.9,1.9,2.4h-3
	c0,0.9,0.3,1.5,1.2,1.5c0.6,0,1-0.3,1.1-0.7l0.6,0.2c-0.2,0.6-0.8,1-1.7,1c-1.3,0-2-0.8-2-2.3C459.1,399.2,459.7,398.4,461,398.4z"
	/>
<polygon points="463.8,402.8 463.8,399.8 463.8,396.9 464.5,396.9 464.5,399.8 464.5,402.8 "/>
<path d="M467,402.8c-2,0.1-1.2-2.6-1.4-4.4h0.7v1.4v1.4c0,0.7,0.2,1.1,0.9,1.1c1.6,0,1-2.3,1.1-3.8h0.7l0,4.3h-0.7
	c0-0.2,0-0.6,0-0.7C468.1,402.5,467.7,402.8,467,402.8z"/>
<path d="M470.6,401.6c0,0.4,0.3,0.7,0.7,0.7c0.9-0.1,1.4-0.7,1.4-1.7C471.7,400.7,470.6,400.5,470.6,401.6z M472.7,401.9
	c-0.3,0.5-0.7,0.9-1.5,0.9c-0.8,0-1.3-0.5-1.3-1.3c0-1.4,1.4-1.4,2.8-1.4c0.1-0.8-0.2-1.2-0.9-1.2c-0.5,0-0.9,0.2-0.9,0.7l-0.7-0.1
	c0.1-0.8,0.7-1.2,1.7-1.2c1,0,1.6,0.5,1.6,1.4v0.9v0.9c0,0.5,0.2,0.7,0.6,0.6v0.2v0.2C473.4,402.9,472.7,402.7,472.7,401.9z"/>
<path d="M476.6,399.1c-1.8-0.4-1.2,2-1.3,3.7h-0.7l0-4.3h0.7c0,0.3,0,0.7,0,0.9c0.1-0.6,0.5-1.1,1.3-0.9v0.3V399.1z"/>
<polyline class="st3" points="721.3,54 738.4,54 738.4,378 98.5,378 98.5,477 106.3,477 "/>
<rect x="720.4" y="53.1" class="st4" width="0.9" height="1.8"/>
<polygon class="st4" points="113.6,477 107.2,478.8 107.2,474.8 "/>
<polygon class="st3" points="113.6,477 107.2,478.8 107.2,474.8 "/>
<line class="st2" x1="486.9" y1="400.5" x2="504" y2="400.5"/>
<rect x="486.4" y="400.1" width="0.4" height="0.9"/>
<polygon points="510.7,400.5 504.4,402.6 504.4,398.4 "/>
<polygon class="st2" points="510.7,400.5 504.4,402.6 504.4,398.4 "/>
<path class="st0" d="M549,393.8c5,0,9,3,9,6.8c0,3.7-4,6.8-9,6.8h-27c-4.9,0-9-3-9-6.8c0-3.7,4-6.8,9-6.8H549z"/>
<path class="st2" d="M549,393.8c5,0,9,3,9,6.8c0,3.7-4,6.8-9,6.8h-27c-4.9,0-9-3-9-6.8c0-3.7,4-6.8,9-6.8H549z"/>
<path d="M526.4,398.8c-0.1-1.1-2.8-1.2-2.8,0c0.3,1.7,3.6,0.3,3.7,2.7c0.1,1.8-2.7,2-3.9,1.2c-0.4-0.2-0.6-0.6-0.7-1l0.7-0.2
	c0.1,1.3,3.2,1.4,3.2,0c0-1.8-3.5-0.3-3.6-2.7c-0.1-1.8,3.3-1.9,4-0.8c0.1,0.2,0.2,0.4,0.2,0.6L526.4,398.8z"/>
<path d="M531.1,400.5c0.1-1.4-1.7-1.7-2.2-0.6c-0.1,0.2-0.1,0.4-0.1,0.6H531.1z M529.9,398.7c1.4,0,1.9,0.9,1.9,2.4h-3
	c0,0.9,0.3,1.5,1.2,1.5c0.6,0,1-0.3,1.1-0.7l0.6,0.2c-0.2,0.6-0.8,1-1.7,1c-1.3,0-2-0.8-2-2.3C528,399.5,528.6,398.7,529.9,398.7z"
	/>
<polygon points="532.7,403 532.7,400.1 532.7,397.2 533.4,397.2 533.4,400.1 533.4,403 "/>
<path d="M537.3,400.5c0.1-1.4-1.7-1.7-2.2-0.6c-0.1,0.2-0.1,0.4-0.1,0.6H537.3z M536.2,398.7c1.4,0,1.9,0.9,1.9,2.4h-3
	c0,0.9,0.3,1.5,1.2,1.5c0.6,0,1-0.3,1.1-0.7l0.6,0.2c-0.2,0.6-0.8,1-1.7,1c-1.3,0-2-0.8-2-2.3C534.3,399.5,534.8,398.7,536.2,398.7z
	"/>
<path d="M541.5,399.8c-0.1-0.8-1.9-0.9-2,0c0.3,1.2,2.6,0.3,2.7,2c0.1,1.8-3.4,1.7-3.5,0.2l0.6-0.1c0.1,0.8,2.2,1,2.2,0
	c-0.2-1.3-2.5-0.3-2.7-2c-0.1-1.3,1.8-1.4,2.7-0.9c0.3,0.2,0.5,0.4,0.5,0.8L541.5,399.8z"/>
<path d="M543.6,401.9c0,0.4,0.3,0.7,0.7,0.7c0.9-0.1,1.4-0.7,1.3-1.7C544.7,401,543.6,400.8,543.6,401.9z M545.6,402.2
	c-0.3,0.5-0.7,0.9-1.5,0.9c-0.8,0-1.3-0.5-1.3-1.3c0-1.4,1.4-1.4,2.8-1.4c0.1-0.8-0.2-1.2-0.9-1.2c-0.5,0-0.9,0.2-0.9,0.7l-0.7-0.1
	c0.1-0.8,0.7-1.2,1.7-1.2c1,0,1.6,0.5,1.6,1.4v0.9v0.9c0,0.5,0.2,0.7,0.6,0.6v0.2v0.2C546.3,403.2,545.6,403,545.6,402.2z"/>
<path d="M547.5,403v-2.1v-2.1h0.7v2.1v2.1H547.5z M547.5,397.8v-0.3v-0.3h0.7v0.3v0.3H547.5z"/>
</svg>
