<svg id="Layer_1" data-name="Layer 1" xmlns="http://www.w3.org/2000/svg" width="760" height="360" viewBox="0 0 760 360"><defs><style>.cls-1{fill:#fff;}.cls-2{fill:none;stroke:#000;stroke-miterlimit:10;stroke-width:0.9px;}</style></defs><title>exam-flow-ujian-pra</title><rect class="cls-1" x="157.5" y="41.67" width="72" height="33.66"/><rect class="cls-2" x="157.5" y="41.67" width="72" height="33.66"/><path d="M176.67,50.4l0-4.91c-.51,1.72-1.21,3.27-1.8,4.91h-.51l-1.83-4.91,0,4.91h-.66V44.82h1l1.74,4.75c.47-1.69,1.15-3.15,1.71-4.75h1V50.4Z"/><path d="M181.42,47.86a1.16,1.16,0,0,0-2.19-.63,1.79,1.79,0,0,0-.13.63ZM180.25,46c1.41,0,1.93.94,1.89,2.38h-3c0,.9.31,1.51,1.19,1.53a1,1,0,0,0,1.1-.65l.63.18a1.68,1.68,0,0,1-1.73,1c-1.3,0-2-.83-2-2.25S178.92,46,180.25,46Z"/><path d="M187.22,46.6c-1.51.07-.85,2.36-1,3.8h-.7V47.68c0-.65-.11-1.13-.78-1.08-1.49.09-.86,2.34-1,3.8h-.7l0-4.27h.67a3.3,3.3,0,0,0,0,.72c.22-1,2.22-1.13,2.4,0a1.37,1.37,0,0,1,1.31-.81c1.91,0,1.06,2.67,1.24,4.36H188V47.68C188,47,187.9,46.58,187.22,46.6Z"/><path d="M191.63,50c.9,0,1-.77,1-1.69s-.12-1.68-1-1.66-1.14.72-1.14,1.71S190.71,50,191.63,50Zm.18-3.91c1.2,0,1.56.87,1.58,2.2,0,1.49-.52,2.25-1.58,2.25a1.29,1.29,0,0,1-1.32-.76l-.05.67h-.7l0-5.87h.73V46.8A1.25,1.25,0,0,1,191.81,46Z"/><path d="M197.15,47.86a1.16,1.16,0,0,0-2.19-.63,1.79,1.79,0,0,0-.13.63ZM196,46c1.42,0,1.94.94,1.9,2.38h-3c0,.9.31,1.51,1.19,1.53a1,1,0,0,0,1.1-.65l.63.18a1.68,1.68,0,0,1-1.73,1c-1.31,0-2-.83-2-2.25S194.65,46,196,46Z"/><path d="M200.79,46.73c-1.75-.36-1.19,2.05-1.28,3.67h-.72l0-4.27h.68a4.8,4.8,0,0,0,.05.87,1,1,0,0,1,1.3-.92v.65Z"/><path d="M201.44,50.4V46.13h.72V50.4Zm0-5.2v-.67h.72v.67Z"/><polygon points="205.9 50.4 204.46 48.44 203.94 48.87 203.94 49.63 203.94 50.4 203.22 50.4 203.22 47.46 203.22 44.53 203.94 44.53 203.94 46.36 203.94 48.2 205.81 46.13 206.64 46.13 204.91 47.97 206.75 50.4 205.9 50.4"/><path d="M207.81,49.21a.68.68,0,0,0,.72.74,1.38,1.38,0,0,0,1.35-1.66C208.91,48.33,207.81,48.17,207.81,49.21Zm2.09.38a1.66,1.66,0,0,1-1.53.9,1.19,1.19,0,0,1-1.3-1.28c0-1.44,1.42-1.42,2.81-1.42.07-.79-.2-1.21-.92-1.21-.54,0-.92.15-1,.69l-.74-.06c.11-.84.74-1.17,1.71-1.17s1.62.45,1.62,1.44v1.84c0,.45.16.72.63.61v.45C210.53,50.58,209.86,50.33,209.9,49.59Z"/><path d="M213.86,46c2-.09,1.2,2.61,1.35,4.36h-.72V47.68c0-.7-.18-1.1-.87-1.08-1.62,0-1,2.29-1.11,3.8h-.72l0-4.27h.68a3.33,3.33,0,0,0,0,.72A1.41,1.41,0,0,1,213.86,46Z"/><path d="M161.89,59.51c1.24,0,2.79.32,2.79-1s-1.58-.94-2.79-1v2Zm0-2.58c1.12,0,2.47.2,2.47-1s-1.42-.81-2.47-.83v1.78Zm2.18.24c.79.12,1.37.52,1.37,1.38,0,2-2.38,1.53-4.3,1.57V54.54c1.71.07,4-.38,4,1.35A1.23,1.23,0,0,1,164.07,57.17Z"/><path d="M169.29,57.58a1.15,1.15,0,0,0-2.18-.63,1.59,1.59,0,0,0-.14.63Zm-1.17-1.82c1.42,0,1.93.94,1.89,2.38h-3c0,.9.32,1.51,1.19,1.53a1.06,1.06,0,0,0,1.11-.65l.63.18a1.7,1.7,0,0,1-1.74,1c-1.3,0-2-.83-1.95-2.25S166.79,55.76,168.12,55.76Z"/><path d="M172.93,56.45c-1.75-.36-1.19,2-1.28,3.67h-.72l0-4.27h.67a5.91,5.91,0,0,0,0,.87,1,1,0,0,1,1.3-.92v.65Z"/><polygon points="176.26 60.12 174.82 58.16 174.31 58.59 174.31 59.35 174.31 60.12 173.59 60.12 173.59 57.18 173.59 54.25 174.31 54.25 174.31 56.08 174.31 57.91 176.18 55.84 177.01 55.84 175.28 57.69 177.12 60.12 176.26 60.12"/><path d="M178.18,58.93a.68.68,0,0,0,.72.74A1.38,1.38,0,0,0,180.25,58C179.28,58.05,178.18,57.89,178.18,58.93Zm2.09.38a1.68,1.68,0,0,1-1.53.9,1.2,1.2,0,0,1-1.31-1.28c0-1.44,1.42-1.42,2.82-1.42.07-.79-.21-1.21-.93-1.21-.54,0-.92.15-.94.69l-.74-.06c.11-.84.74-1.17,1.71-1.17s1.62.45,1.62,1.44V59c0,.45.16.72.63.61v.45C180.9,60.3,180.22,60.05,180.27,59.31Z"/><path d="M184.63,56.9c-.06-.76-1.93-.85-1.95,0,.33,1.2,2.58.27,2.67,2s-3.37,1.66-3.53.18l.63-.11c.09.81,2.18,1,2.21,0-.23-1.26-2.55-.34-2.66-2-.09-1.28,1.85-1.42,2.75-.94a1.11,1.11,0,0,1,.54.78Z"/><path d="M193.12,58a2.06,2.06,0,0,1-2.34,2.18,2,2,0,0,1-2.25-2.11V54.54h.74c.18,2-.74,5,1.51,5s1.44-3,1.59-5h.75V58Z"/><path d="M193.52,61.22c.54.09.74-.13.74-.67v-4.7H195v4.81c.05.9-.51,1.3-1.46,1.1v-.54Zm.74-6.3v-.67H195v.67Z"/><path d="M196,60.12V55.85h.72v4.27Zm0-5.2v-.67h.72v.67Z"/><path d="M198.36,58.93a.68.68,0,0,0,.72.74A1.38,1.38,0,0,0,200.43,58C199.46,58.05,198.36,57.89,198.36,58.93Zm2.09.38a1.68,1.68,0,0,1-1.53.9,1.19,1.19,0,0,1-1.3-1.28c0-1.44,1.41-1.42,2.81-1.42.07-.79-.2-1.21-.92-1.21-.54,0-.93.15-.95.69l-.74-.06c.11-.84.74-1.17,1.71-1.17s1.62.45,1.62,1.44V59c0,.45.16.72.63.61v.45C201.08,60.3,200.41,60.05,200.45,59.31Z"/><path d="M204.41,55.76c2-.09,1.19,2.61,1.35,4.36H205V57.4c0-.7-.18-1.1-.88-1.08-1.62,0-1,2.29-1.1,3.8h-.72l0-4.27H203a4.07,4.07,0,0,0,0,.72A1.41,1.41,0,0,1,204.41,55.76Z"/><path d="M210.94,59.67c.9,0,1-.77,1-1.69s-.14-1.64-1-1.66-1.15.72-1.15,1.71S210,59.67,210.94,59.67Zm.18-3.91c1.23,0,1.57.92,1.57,2.2s-.36,2.21-1.57,2.25a1.37,1.37,0,0,1-1.35-.76l0,2.36h-.72l0-6h.69l0,.67A1.32,1.32,0,0,1,211.12,55.76Z"/><path d="M214.11,58.93a.68.68,0,0,0,.72.74A1.38,1.38,0,0,0,216.18,58C215.21,58.05,214.11,57.89,214.11,58.93Zm2.09.38a1.68,1.68,0,0,1-1.53.9,1.19,1.19,0,0,1-1.3-1.28c0-1.44,1.41-1.42,2.81-1.42.07-.79-.2-1.21-.92-1.21-.54,0-.93.15-.95.69l-.74-.06c.11-.84.74-1.17,1.71-1.17s1.62.45,1.62,1.44V59c0,.45.16.72.63.61v.45C216.83,60.3,216.16,60.05,216.2,59.31Z"/><path d="M219.64,56.3c-.9,0-1,.76-1,1.68s.13,1.67,1,1.67,1.15-.72,1.15-1.71S220.57,56.27,219.64,56.3Zm-.2-.54a1.42,1.42,0,0,1,1.35.74l0-2.25h.72l0,5.87h-.67a6.9,6.9,0,0,0-.07-.7,1.29,1.29,0,0,1-1.33.79c-1.19,0-1.55-.88-1.57-2.2C217.87,56.52,218.38,55.76,219.44,55.76Z"/><path d="M223.11,58.93a.68.68,0,0,0,.72.74A1.38,1.38,0,0,0,225.18,58C224.21,58.05,223.11,57.89,223.11,58.93Zm2.09.38a1.68,1.68,0,0,1-1.53.9,1.19,1.19,0,0,1-1.3-1.28c0-1.44,1.41-1.42,2.81-1.42.07-.79-.2-1.21-.92-1.21-.54,0-.93.15-.95.69l-.74-.06c.11-.84.74-1.17,1.71-1.17s1.62.45,1.62,1.44V59c0,.45.16.72.63.61v.45C225.83,60.3,225.16,60.05,225.2,59.31Z"/><polygon points="177.4 69.84 175.17 67.14 174.45 67.7 174.45 68.77 174.45 69.84 173.71 69.84 173.71 67.05 173.71 64.26 174.45 64.26 174.45 65.66 174.45 67.05 177.13 64.26 178.03 64.26 175.67 66.69 178.34 69.84 177.4 69.84"/><path d="M181.85,67.3a1.15,1.15,0,0,0-2.18-.63,1.56,1.56,0,0,0-.13.63Zm-1.17-1.83c1.42,0,1.94,1,1.89,2.39h-3c0,.9.31,1.51,1.19,1.53a1,1,0,0,0,1.1-.65l.63.18a1.69,1.69,0,0,1-1.73,1c-1.31,0-2-.83-2-2.25S179.36,65.47,180.68,65.47Z"/><path d="M185.34,69.39c.9,0,1-.77,1-1.69s-.13-1.64-1-1.66-1.15.72-1.15,1.71S184.42,69.39,185.34,69.39Zm.18-3.92c1.24,0,1.58.93,1.58,2.21s-.36,2.2-1.58,2.25a1.37,1.37,0,0,1-1.35-.77l0,2.37h-.72l0-6h.7l0,.68A1.34,1.34,0,0,1,185.52,65.47Z"/><path d="M188.51,68.65a.68.68,0,0,0,.72.74,1.37,1.37,0,0,0,1.35-1.67C189.62,67.77,188.51,67.61,188.51,68.65Zm2.1.38a1.68,1.68,0,0,1-1.53.9,1.2,1.2,0,0,1-1.31-1.28c0-1.44,1.42-1.42,2.81-1.42.07-.79-.2-1.22-.92-1.22-.54,0-.92.16-.94.7l-.75-.07c.12-.83.75-1.17,1.71-1.17s1.62.45,1.62,1.44v1.85c0,.45.16.72.63.61v.45C191.24,70,190.56,69.77,190.61,69Z"/><polygon points="192.47 69.84 192.47 66.9 192.47 63.97 193.19 63.97 193.19 66.9 193.19 69.84 192.47 69.84"/><path d="M194.79,68.65a.68.68,0,0,0,.72.74,1.38,1.38,0,0,0,1.35-1.67C195.89,67.77,194.79,67.61,194.79,68.65Zm2.09.38a1.66,1.66,0,0,1-1.53.9,1.19,1.19,0,0,1-1.3-1.28c0-1.44,1.42-1.42,2.81-1.42.07-.79-.2-1.22-.92-1.22-.54,0-.92.16-.95.7l-.74-.07c.11-.83.74-1.17,1.71-1.17s1.62.45,1.62,1.44v1.85c0,.45.16.72.63.61v.45C197.51,70,196.84,69.77,196.88,69Z"/><polygon points="201.14 69.84 201.14 67.05 201.14 64.26 201.88 64.26 201.88 66.75 201.88 69.23 204.69 69.23 204.69 69.54 204.69 69.84 201.14 69.84"/><path d="M206,68.65a.68.68,0,0,0,.72.74,1.38,1.38,0,0,0,1.35-1.67C207.14,67.77,206,67.61,206,68.65Zm2.09.38a1.66,1.66,0,0,1-1.53.9,1.19,1.19,0,0,1-1.3-1.28c0-1.44,1.42-1.42,2.81-1.42.07-.79-.2-1.22-.92-1.22-.54,0-.92.16-.95.7l-.74-.07c.11-.83.74-1.17,1.71-1.17s1.62.45,1.62,1.44v1.85c0,.45.16.72.63.61v.45C208.76,70,208.09,69.77,208.13,69Z"/><path d="M211.87,69.39c.9,0,1-.77,1-1.69s-.11-1.69-1-1.66-1.15.72-1.15,1.71S211,69.39,211.87,69.39Zm.18-3.92c1.19,0,1.55.88,1.57,2.21s-.51,2.25-1.57,2.25a1.3,1.3,0,0,1-1.33-.77l0,.68H210L210,64h.72v2.27A1.27,1.27,0,0,1,212.05,65.47Z"/><rect class="cls-1" x="49.5" y="18" width="18" height="81"/><rect class="cls-2" x="49.5" y="18" width="18" height="81"/><rect class="cls-1" x="49.5" y="99" width="18" height="81"/><rect class="cls-2" x="49.5" y="99" width="18" height="81"/><rect class="cls-1" x="49.5" y="180" width="18" height="81"/><rect class="cls-2" x="49.5" y="180" width="18" height="81"/><rect class="cls-1" x="49.5" y="261" width="18" height="81"/><rect class="cls-2" x="49.5" y="261" width="18" height="81"/><rect class="cls-2" x="67.5" y="18" width="675" height="81"/><rect class="cls-2" x="67.5" y="99" width="675" height="81"/><rect class="cls-2" x="67.5" y="180" width="675" height="81"/><rect class="cls-2" x="67.5" y="261" width="675" height="81"/><path d="M59.51,90.79c.18-2-.36-3.29-2.23-3.29S55,88.85,55.15,90.79h4.36Zm-5,.74c-.16-2.65.18-4.86,2.74-4.79,1.76.06,2.84,1,2.84,2.72v2.07H54.54Z"/><path d="M59.67,84.15c0-1-.7-1.19-1.69-1.19s-1.69.18-1.69,1.14S57,85.3,58,85.3,59.65,85.07,59.67,84.15Zm-3.92,0c0-1.4.84-1.92,2.23-1.92s2.23.61,2.23,1.94S59.33,86,58,86,55.75,85.41,55.75,84.13Z"/><path d="M56.9,78.84c-.76.07-.85,1.94,0,2,1.19-.34.27-2.59,2-2.68s1.66,3.38.18,3.53L59,81c.81-.09,1-2.18,0-2.2-1.26.22-.33,2.54-2,2.65-1.28.09-1.42-1.84-.95-2.74a1.15,1.15,0,0,1,.79-.54Z"/><path d="M57.58,74.41A1.15,1.15,0,0,0,57,76.59a1.55,1.55,0,0,0,.63.14Zm-1.83,1.17c0-1.42,1-1.94,2.39-1.89v3c.9,0,1.51-.32,1.53-1.2a1.06,1.06,0,0,0-.65-1.1l.18-.63a1.69,1.69,0,0,1,1,1.73c0,1.31-.83,2-2.25,2S55.75,76.9,55.75,75.58Z"/><path d="M55.75,70.7c-.09-2,2.61-1.2,4.37-1.35v.72H57.4c-.7,0-1.11.17-1.08.87,0,1.62,2.29,1,3.8,1.11v.72l-4.28,0v-.68a3.29,3.29,0,0,0,.72,0A1.44,1.44,0,0,1,55.75,70.7Z"/><polygon points="60.12 62.21 57.42 64.44 57.98 65.16 59.05 65.16 60.12 65.16 60.12 65.9 57.33 65.9 54.54 65.9 54.54 65.16 55.94 65.16 57.33 65.16 54.54 62.48 54.54 61.58 56.97 63.95 60.12 61.27 60.12 62.21"/><path d="M59.67,59c0-1-.7-1.19-1.69-1.19s-1.69.18-1.69,1.15S57,60.1,58,60.1,59.65,59.87,59.67,59Zm-3.92,0c0-1.4.84-1.91,2.23-1.91s2.23.6,2.23,1.93-.88,1.87-2.23,1.89S55.75,60.21,55.75,58.93Z"/><path d="M59.67,54.45c0-1-.7-1.19-1.69-1.19s-1.69.18-1.69,1.15S57,55.6,58,55.6,59.65,55.37,59.67,54.45Zm-3.92,0c0-1.4.84-1.91,2.23-1.91s2.23.6,2.23,1.93-.88,1.87-2.23,1.89S55.75,55.71,55.75,54.43Z"/><path d="M56.45,49.61c-.36,1.76,2,1.2,3.67,1.29v.72l-4.28,0V51a5,5,0,0,0,.88,0c-.61-.14-1.1-.52-.92-1.31h.65Z"/><path d="M56.29,47.39c0,.9.77,1,1.69,1s1.67-.13,1.67-1-.72-1.15-1.71-1.15S56.27,46.46,56.29,47.39Zm-.54.2a1.43,1.43,0,0,1,.75-1.35l-2.25,0v-.72l5.87,0v.67a6.62,6.62,0,0,0-.7.07,1.29,1.29,0,0,1,.79,1.33c0,1.19-.88,1.55-2.21,1.57S55.75,48.65,55.75,47.59Z"/><path d="M60.12,44.46H55.84v-.72h4.28Zm-5.2,0h-.67v-.72h.67Z"/><path d="M55.75,40.59c-.09-2,2.61-1.19,4.37-1.35V40H57.4c-.7,0-1.11.18-1.08.88,0,1.62,2.29,1,3.8,1.1v.72l-4.28,0V42a3.26,3.26,0,0,0,.72,0A1.43,1.43,0,0,1,55.75,40.59Z"/><path d="M58.93,37.64a.68.68,0,0,0,.74-.72A1.38,1.38,0,0,0,58,35.57C58.05,36.54,57.89,37.64,58.93,37.64Zm.38-2.09a1.68,1.68,0,0,1,.9,1.53,1.2,1.2,0,0,1-1.28,1.31c-1.44,0-1.42-1.42-1.42-2.82-.79-.06-1.22.21-1.22.93,0,.54.16.92.7.94l-.07.74c-.83-.11-1.17-.74-1.17-1.71s.45-1.62,1.44-1.62H59c.45,0,.72-.15.61-.63h.45C60.3,34.92,60.05,35.6,59.31,35.55Z"/><path d="M59.06,32.9c.54,0,.65-.41.5-.86h.54c.22.74.11,1.58-.88,1.58H56.36v.49h-.52v-.54l-1-.2V32.9h1v-.79h.52v.79h2.7Z"/><path d="M59.67,29.75c0-1-.7-1.2-1.69-1.2s-1.69.18-1.69,1.15S57,30.89,58,30.89,59.65,30.67,59.67,29.75Zm-3.92,0c0-1.39.84-1.91,2.23-1.91s2.23.61,2.23,1.94-.88,1.86-2.23,1.89S55.75,31,55.75,29.72Z"/><path d="M56.45,24.91c-.36,1.75,2,1.19,3.67,1.28v.72l-4.28,0v-.67a4.91,4.91,0,0,0,.88-.05,1,1,0,0,1-.92-1.3h.65Z"/><polygon points="60.12 155.6 57.42 157.83 57.98 158.55 59.05 158.55 60.12 158.55 60.12 159.29 57.33 159.29 54.54 159.29 54.54 158.55 55.94 158.55 57.33 158.55 54.54 155.87 54.54 154.97 56.97 157.33 60.12 154.66 60.12 155.6"/><path d="M57.58,151.15a1.15,1.15,0,0,0-.63,2.18,1.56,1.56,0,0,0,.63.13Zm-1.83,1.17c0-1.42,1-1.94,2.39-1.89v3c.9,0,1.51-.31,1.53-1.19a1,1,0,0,0-.65-1.1l.18-.63a1.69,1.69,0,0,1,1,1.73c0,1.31-.83,2-2.25,2S55.75,153.64,55.75,152.32Z"/><path d="M59.67,147.66c0-.9-.77-1-1.69-1s-1.64.13-1.66,1,.72,1.15,1.71,1.15S59.67,148.58,59.67,147.66Zm-3.92-.18c0-1.24.93-1.58,2.21-1.58s2.2.36,2.25,1.58a1.37,1.37,0,0,1-.77,1.35l2.37,0v.72l-6,0v-.7l.68,0A1.34,1.34,0,0,1,55.75,147.48Z"/><path d="M58.93,144.49a.68.68,0,0,0,.74-.72A1.37,1.37,0,0,0,58,142.42C58.05,143.38,57.89,144.49,58.93,144.49Zm.38-2.1a1.68,1.68,0,0,1,.9,1.53,1.2,1.2,0,0,1-1.28,1.31c-1.44,0-1.42-1.42-1.42-2.81-.79-.07-1.22.2-1.22.92,0,.54.16.92.7.94l-.07.75c-.83-.12-1.17-.75-1.17-1.71s.45-1.62,1.44-1.62H59c.45,0,.72-.16.61-.63h.45C60.3,141.76,60.05,142.44,59.31,142.39Z"/><polygon points="60.12 140.53 57.18 140.53 54.25 140.53 54.25 139.81 57.18 139.81 60.12 139.81 60.12 140.53"/><path d="M58.93,138.21a.68.68,0,0,0,.74-.72A1.38,1.38,0,0,0,58,136.14C58.05,137.11,57.89,138.21,58.93,138.21Zm.38-2.09a1.66,1.66,0,0,1,.9,1.53,1.19,1.19,0,0,1-1.28,1.3c-1.44,0-1.42-1.42-1.42-2.81-.79-.07-1.22.2-1.22.92,0,.54.16.92.7.95l-.07.74c-.83-.11-1.17-.74-1.17-1.71s.45-1.62,1.44-1.62H59c.45,0,.72-.16.61-.63h.45C60.3,135.49,60.05,136.16,59.31,136.12Z"/><polygon points="60.12 131.9 57.33 131.9 54.54 131.9 54.54 131.15 57.03 131.15 59.51 131.15 59.51 128.34 59.82 128.34 60.12 128.34 60.12 131.9"/><path d="M58.93,127a.68.68,0,0,0,.74-.72A1.38,1.38,0,0,0,58,124.92C58.05,125.89,57.89,127,58.93,127Zm.38-2.09a1.68,1.68,0,0,1,.9,1.53,1.19,1.19,0,0,1-1.28,1.3c-1.44,0-1.42-1.41-1.42-2.81-.79-.07-1.22.2-1.22.92,0,.54.16.93.7,1l-.07.74c-.83-.11-1.17-.74-1.17-1.71s.45-1.62,1.44-1.62H59c.45,0,.72-.16.61-.63h.45C60.3,124.27,60.05,124.94,59.31,124.9Z"/><path d="M59.67,121.16c0-.9-.77-1-1.69-1s-1.69.11-1.66,1,.72,1.15,1.71,1.15S59.67,122.09,59.67,121.16ZM55.75,121c0-1.19.88-1.55,2.21-1.57s2.25.52,2.25,1.57a1.29,1.29,0,0,1-.77,1.33l.68,0v.69l-5.87,0v-.72h2.27A1.26,1.26,0,0,1,55.75,121Z"/><path d="M57.89,228.2l-2.77,1.05a29,29,0,0,1,2.77,1Zm2.23-.86L58.5,228v2.54l1.62.63v.79l-5.58-2.27v-.86l5.58-2.22Z"/><path d="M56.29,224.44c0,.9.77,1,1.69,1s1.67-.13,1.67-1-.72-1.15-1.71-1.15S56.27,223.52,56.29,224.44Zm-.54.2a1.43,1.43,0,0,1,.75-1.35l-2.25,0v-.72l5.87,0v.68a6.79,6.79,0,0,0-.7.06,1.29,1.29,0,0,1,.79,1.33c0,1.19-.88,1.55-2.21,1.58S55.75,225.7,55.75,224.64Z"/><path d="M56.32,217.33c.06,1.51,2.36.85,3.8,1v.7H57.4c-.66,0-1.13.11-1.08.78.09,1.49,2.34.86,3.8,1v.7l-4.28,0v-.67a3.26,3.26,0,0,0,.72-.05c-1-.22-1.12-2.22,0-2.4a1.4,1.4,0,0,1-.81-1.31c0-1.91,2.68-1.06,4.37-1.24v.7H57.4C56.74,216.54,56.29,216.65,56.32,217.33Z"/><path d="M60.12,214.79H55.84v-.72h4.28Zm-5.2,0h-.67v-.72h.67Z"/><path d="M55.75,210.92c-.09-2,2.61-1.2,4.37-1.35v.72H57.4c-.7,0-1.11.18-1.08.87,0,1.62,2.29,1,3.8,1.11V213l-4.28,0v-.68a3.29,3.29,0,0,0,.72,0A1.44,1.44,0,0,1,55.75,210.92Z"/><path d="M55.87,309.69c-1.08.11-1.22,2.77,0,2.79,1.69-.31.32-3.55,2.68-3.67,1.75-.06,2,2.73,1.24,3.94a1.63,1.63,0,0,1-1,.74l-.16-.74c1.26-.11,1.42-3.17,0-3.17-1.75,0-.31,3.49-2.65,3.64-1.85.12-1.89-3.26-.77-4a2,2,0,0,1,.56-.25Z"/><path d="M60.12,307.91H55.84v-.72h4.28Zm-5.2,0h-.67v-.72h.67Z"/><path d="M56.9,303.64c-.76.07-.85,1.93,0,2,1.19-.34.27-2.59,2-2.68s1.66,3.37.18,3.53l-.12-.63c.81-.09,1-2.18,0-2.2-1.26.22-.33,2.54-2,2.65-1.28.09-1.42-1.84-.95-2.74a1.12,1.12,0,0,1,.79-.54Z"/><path d="M59.06,301.3c.54,0,.65-.41.5-.86h.54c.22.75.11,1.58-.88,1.58H56.36v.49h-.52V302l-1-.2v-.47h1v-.79h.52v.79h2.7Z"/><path d="M57.58,297a1.15,1.15,0,0,0-.63,2.18,1.56,1.56,0,0,0,.63.13Zm-1.83,1.17c0-1.42,1-1.94,2.39-1.89v3c.9,0,1.51-.31,1.53-1.19A1,1,0,0,0,59,297l.18-.63a1.69,1.69,0,0,1,1,1.73c0,1.31-.83,2-2.25,2S55.75,299.45,55.75,298.13Z"/><path d="M56.32,291.15c.06,1.51,2.36.86,3.8,1v.7H57.4c-.66,0-1.13.11-1.08.79.09,1.48,2.34.85,3.8,1v.69l-4.28,0v-.68a4.06,4.06,0,0,0,.72,0c-1-.23-1.12-2.23,0-2.41a1.4,1.4,0,0,1-.81-1.31c0-1.91,2.68-1,4.37-1.23v.69H57.4C56.74,290.36,56.29,290.48,56.32,291.15Z"/><polyline class="cls-2" points="230.4 58.5 337.5 58.5 337.5 117.22"/><rect x="229.95" y="58.05" width="0.45" height="0.9"/><polygon points="337.5 124.11 335.43 117.67 339.57 117.67 337.5 124.11"/><polygon class="cls-2" points="337.5 124.11 335.43 117.67 339.57 117.67 337.5 124.11"/><rect class="cls-1" x="301.5" y="126" width="72" height="27"/><rect class="cls-2" x="301.5" y="126" width="72" height="27"/><path d="M312.2,135.53c2,.18,3.28-.36,3.28-2.23s-1.35-2.27-3.28-2.14v4.37Zm-.75-5c2.66-.15,4.86.18,4.8,2.75-.07,1.75-1,2.83-2.73,2.83h-2.07v-5.58Z"/><path d="M317.15,136.13v-4.27h.72v4.27Zm0-5.19v-.68h.72v.68Z"/><path d="M321.42,132.92c-.07-.77-1.93-.86-2,0,.34,1.19,2.59.27,2.68,2s-3.37,1.67-3.53.18l.63-.11c.09.81,2.18,1,2.2,0-.22-1.26-2.54-.34-2.65-2-.09-1.28,1.84-1.41,2.74-.94a1.12,1.12,0,0,1,.54.79Z"/><path d="M323.76,135.08c0,.54.41.65.86.49v.54c-.75.23-1.58.11-1.58-.88v-2.85h-.49v-.52h.54l.2-1h.47v1h.79v.52h-.79v2.7Z"/><path d="M327.25,132.47c-1.76-.36-1.19,2-1.28,3.66h-.72l0-4.27h.68a6.19,6.19,0,0,0,0,.88c.14-.61.52-1.11,1.31-.93v.66Z"/><path d="M327.9,136.13v-4.27h.72v4.27Zm0-5.19v-.68h.72v.68Z"/><path d="M331.55,135.68c.9,0,1-.76,1-1.68s-.11-1.69-1-1.67-1.15.72-1.15,1.71S330.62,135.68,331.55,135.68Zm.18-3.91c1.19,0,1.55.88,1.57,2.2,0,1.49-.52,2.25-1.57,2.25a1.28,1.28,0,0,1-1.33-.76l0,.67h-.69l0-5.87h.72v2.27A1.27,1.27,0,0,1,331.73,131.77Z"/><path d="M335.53,136.22c-2,.09-1.22-2.61-1.37-4.36h.72v2.7c0,.7.15,1.12.87,1.1,1.62,0,1-2.27,1.13-3.8h.7l0,4.27h-.68a3.52,3.52,0,0,0,0-.74A1.4,1.4,0,0,1,335.53,136.22Z"/><path d="M341.18,132.92c-.07-.77-1.94-.86-2,0,.34,1.19,2.59.27,2.68,2s-3.38,1.67-3.54.18L339,135c.09.81,2.19,1,2.21,0-.23-1.26-2.54-.34-2.66-2-.09-1.28,1.85-1.41,2.75-.94a1.15,1.15,0,0,1,.54.79Z"/><path d="M342.73,136.13v-4.27h.72v4.27Zm0-5.19v-.68h.72v.68Z"/><path d="M348.62,135.68c.9,0,1-.76,1-1.68s-.14-1.65-1-1.67-1.14.72-1.14,1.71S347.7,135.68,348.62,135.68Zm.18-3.91c1.24,0,1.58.92,1.58,2.2s-.36,2.21-1.58,2.25a1.39,1.39,0,0,1-1.35-.76l0,2.36h-.72l0-6h.7l.05.67A1.32,1.32,0,0,1,348.8,131.77Z"/><path d="M351.8,134.94a.68.68,0,0,0,.72.74,1.38,1.38,0,0,0,1.35-1.66C352.9,134.06,351.8,133.91,351.8,134.94Zm2.09.38a1.65,1.65,0,0,1-1.53.9,1.2,1.2,0,0,1-1.31-1.28c0-1.44,1.42-1.42,2.82-1.42.06-.78-.21-1.21-.93-1.21-.54,0-.92.16-.94.7l-.74-.07c.11-.83.74-1.17,1.71-1.17s1.62.45,1.62,1.44v1.84c0,.45.15.72.63.61v.45C354.52,136.31,353.84,136.07,353.89,135.32Z"/><path d="M357.33,132.31c-.9,0-1,.76-1,1.69s.13,1.66,1,1.66,1.15-.72,1.15-1.71S358.25,132.29,357.33,132.31Zm-.2-.54a1.42,1.42,0,0,1,1.35.74l0-2.25h.72l0,5.87h-.68a6.83,6.83,0,0,0-.06-.69,1.29,1.29,0,0,1-1.33.78c-1.19,0-1.55-.87-1.58-2.2C355.55,132.53,356.07,131.77,357.13,131.77Z"/><path d="M360.8,134.94a.68.68,0,0,0,.72.74,1.38,1.38,0,0,0,1.35-1.66C361.9,134.06,360.8,133.91,360.8,134.94Zm2.09.38a1.65,1.65,0,0,1-1.53.9,1.2,1.2,0,0,1-1.31-1.28c0-1.44,1.42-1.42,2.82-1.42.06-.78-.21-1.21-.93-1.21-.54,0-.92.16-.94.7l-.74-.07c.11-.83.74-1.17,1.71-1.17s1.62.45,1.62,1.44v1.84c0,.45.15.72.63.61v.45C363.52,136.31,362.84,136.07,362.89,135.32Z"/><path d="M312.94,143.63l-1.06-2.77c-.27,1-.7,1.84-1,2.77Zm.85,2.22-.63-1.62h-2.54l-.63,1.62h-.79l2.28-5.58h.85l2.23,5.58Z"/><path d="M316.7,142c-.9,0-1,.76-1,1.69s.14,1.66,1,1.66,1.15-.72,1.15-1.71S317.62,142,316.7,142Zm-.21-.54a1.42,1.42,0,0,1,1.35.74l0-2.25h.72l0,5.87h-.67a6.69,6.69,0,0,0-.07-.69,1.28,1.28,0,0,1-1.33.78c-1.19,0-1.55-.87-1.57-2.2C314.92,142.25,315.44,141.49,316.49,141.49Z"/><path d="M323.81,142.05c-1.51.07-.86,2.36-1,3.8h-.7v-2.72c0-.65-.11-1.12-.79-1.08-1.48.09-.85,2.34-1,3.8h-.7l0-4.27h.68a3.33,3.33,0,0,0,0,.72c.23-1,2.23-1.13,2.41,0a1.38,1.38,0,0,1,1.3-.81c1.92-.05,1.06,2.68,1.24,4.36h-.7v-2.72C324.59,142.48,324.48,142,323.81,142.05Z"/><path d="M326.35,145.85v-4.27h.72v4.27Zm0-5.19V140h.72v.68Z"/><path d="M330.22,141.49c2-.09,1.19,2.61,1.35,4.36h-.72v-2.72c0-.7-.18-1.1-.88-1.08-1.62,0-1,2.3-1.1,3.8h-.72l0-4.27h.67a3.3,3.3,0,0,0,.05.72A1.4,1.4,0,0,1,330.22,141.49Z"/><path d="M336.74,145.4c.9,0,1-.76,1-1.68s-.12-1.69-1-1.67-1.14.72-1.14,1.71S335.82,145.4,336.74,145.4Zm.18-3.91c1.2,0,1.56.88,1.58,2.2,0,1.49-.52,2.25-1.58,2.25a1.28,1.28,0,0,1-1.32-.76l-.05.67h-.7l0-5.87h.72v2.27A1.26,1.26,0,0,1,336.92,141.49Z"/><path d="M342.26,143.31a1.16,1.16,0,0,0-2.19-.63,1.79,1.79,0,0,0-.13.63Zm-1.17-1.82c1.41,0,1.93.94,1.89,2.38h-3c0,.9.31,1.51,1.19,1.53a1,1,0,0,0,1.1-.65l.63.18a1.68,1.68,0,0,1-1.73,1c-1.3,0-2-.83-2-2.25S339.76,141.49,341.09,141.49Z"/><path d="M345.9,142.19c-1.75-.36-1.19,2-1.28,3.66h-.72l0-4.27h.67a5,5,0,0,0,.05.88c.13-.61.51-1.11,1.3-.93v.66Z"/><path d="M347.34,144.8c0,.54.41.65.86.49v.54c-.75.23-1.58.11-1.58-.88V142.1h-.49v-.52h.54l.2-1h.47v1h.79v.52h-.79v2.7Z"/><path d="M350.15,145.94c-2,.09-1.21-2.61-1.37-4.36h.72v2.7c0,.7.16,1.12.88,1.1,1.62,0,1-2.27,1.12-3.8h.7l0,4.27h-.67a3.49,3.49,0,0,0-.05-.74A1.39,1.39,0,0,1,350.15,145.94Z"/><path d="M354.88,145.36c.81,0,1.12-.72,1.12-1.64s-.31-1.69-1.12-1.69-1,.76-1,1.69S354,145.36,354.88,145.36Zm1.87-3.78c-.23,2.81.92,6.59-2.48,5.87a1.28,1.28,0,0,1-1-1l.72-.11a1.06,1.06,0,0,0,2-.63v-.67a1.42,1.42,0,0,1-1.37.81c-1.21,0-1.53-.93-1.53-2.16s.36-2.19,1.6-2.21a1.46,1.46,0,0,1,1.33.79c0-.23,0-.52,0-.72Z"/><path d="M358.34,144.66a.68.68,0,0,0,.72.74,1.37,1.37,0,0,0,1.35-1.66C359.45,143.78,358.34,143.63,358.34,144.66Zm2.1.38a1.65,1.65,0,0,1-1.53.9,1.2,1.2,0,0,1-1.31-1.28c0-1.44,1.42-1.42,2.81-1.42.07-.78-.2-1.21-.92-1.21-.54,0-.92.16-.94.7l-.75-.07c.12-.83.75-1.17,1.71-1.17s1.62.45,1.62,1.44v1.84c0,.45.16.72.63.61v.45C361.07,146,360.39,145.79,360.44,145Z"/><path d="M364.8,142.64c-.07-.77-1.93-.86-2,0,.34,1.19,2.59.27,2.68,2s-3.37,1.67-3.53.18l.63-.11c.09.81,2.18,1,2.2,0-.22-1.26-2.54-.34-2.65-2-.09-1.28,1.84-1.41,2.74-.94a1.12,1.12,0,0,1,.54.79Z"/><rect class="cls-1" x="220.5" y="207" width="72" height="27"/><rect class="cls-2" x="220.5" y="207" width="72" height="27"/><path d="M237,217.13l0-4.9c-.52,1.71-1.21,3.26-1.8,4.9h-.52l-1.82-4.9,0,4.9h-.65v-5.58h1L235,216.3c.48-1.69,1.15-3.15,1.71-4.75h1v5.58Z"/><path d="M241.7,214.59a1.15,1.15,0,0,0-2.18-.63,1.59,1.59,0,0,0-.13.63Zm-1.17-1.82c1.42,0,1.94.94,1.89,2.38h-3c0,.9.31,1.51,1.19,1.53a1,1,0,0,0,1.1-.65l.63.18a1.69,1.69,0,0,1-1.73,1c-1.31,0-2-.83-2-2.25S239.21,212.77,240.53,212.77Z"/><path d="M247.51,213.33c-1.51.07-.86,2.36-1,3.8h-.7v-2.72c0-.65-.11-1.12-.79-1.08-1.48.09-.85,2.34-1,3.8h-.69l0-4.27H244a4.11,4.11,0,0,0,0,.72c.23-1,2.23-1.13,2.41,0a1.39,1.39,0,0,1,1.31-.81c1.91-.05,1.05,2.68,1.23,4.36h-.69v-2.72C248.3,213.76,248.18,213.31,247.51,213.33Z"/><path d="M251.92,216.68c.9,0,1-.76,1-1.68s-.11-1.69-1-1.67-1.15.72-1.15,1.71S251,216.68,251.92,216.68Zm.18-3.91c1.19,0,1.55.88,1.57,2.2,0,1.49-.51,2.25-1.57,2.25a1.29,1.29,0,0,1-1.33-.76l0,.67H250l0-5.87h.72v2.27A1.28,1.28,0,0,1,252.1,212.77Z"/><path d="M255.9,217.22c-2,.09-1.21-2.61-1.37-4.36h.72v2.7c0,.7.16,1.12.88,1.1,1.62,0,1-2.27,1.12-3.8h.7l0,4.27h-.67a4.31,4.31,0,0,0-.05-.74A1.4,1.4,0,0,1,255.9,217.22Z"/><path d="M259.59,215.94a.68.68,0,0,0,.72.74,1.37,1.37,0,0,0,1.35-1.66C260.69,215.06,259.59,214.91,259.59,215.94Zm2.09.38a1.63,1.63,0,0,1-1.53.9,1.19,1.19,0,0,1-1.3-1.28c0-1.44,1.42-1.42,2.81-1.42.07-.78-.2-1.21-.92-1.21-.54,0-.92.16-.95.7l-.74-.07c.11-.83.74-1.17,1.71-1.17s1.62.45,1.62,1.44v1.84c0,.45.16.72.63.61v.45C262.31,217.31,261.64,217.07,261.68,216.32Z"/><path d="M264.34,216.08c0,.54.4.65.85.49v.54c-.74.23-1.57.11-1.57-.88v-2.85h-.5v-.52h.54l.21-1h.47v1h.79v.52h-.79v2.7Z"/><path d="M271.67,212.88c-.11-1.08-2.76-1.21-2.79.05.32,1.68,3.56.31,3.67,2.67.07,1.76-2.72,2-3.94,1.24a1.58,1.58,0,0,1-.74-1l.74-.16c.12,1.26,3.18,1.42,3.18,0,0-1.76-3.49-.32-3.65-2.66-.11-1.84,3.26-1.89,4-.76a2.21,2.21,0,0,1,.25.56Z"/><polygon points="273.45 217.13 273.45 214.2 273.45 211.26 274.17 211.26 274.17 214.2 274.17 217.13 273.45 217.13"/><path d="M276.92,216.68c1,0,1.19-.69,1.19-1.68s-.18-1.69-1.15-1.69-1.19.72-1.19,1.69S276,216.66,276.92,216.68Zm0-3.91c1.39,0,1.91.83,1.91,2.23s-.61,2.22-1.93,2.22-1.87-.87-1.89-2.22S275.66,212.77,276.94,212.77Z"/><path d="M280.52,216.08c0,.54.4.65.85.49v.54c-.74.23-1.57.11-1.57-.88v-2.85h-.5v-.52h.54l.2-1h.48v1h.78v.52h-.78v2.7Z"/><path d="M252.53,224.76a2.06,2.06,0,0,1-2.34,2.18,2,2,0,0,1-2.25-2.11v-3.56h.74c.18,2-.74,5,1.51,5s1.44-3,1.59-5h.75v3.49Z"/><path d="M252.93,228c.54.09.74-.14.74-.68v-4.7h.72v4.81c.05.9-.51,1.31-1.46,1.11V228Zm.74-6.3V221h.72v.68Z"/><path d="M255.45,226.85v-4.27h.72v4.27Zm0-5.19V221h.72v.68Z"/><path d="M257.77,225.66a.68.68,0,0,0,.72.74,1.37,1.37,0,0,0,1.35-1.66C258.87,224.78,257.77,224.63,257.77,225.66Zm2.09.38a1.65,1.65,0,0,1-1.53.9,1.19,1.19,0,0,1-1.3-1.28c0-1.44,1.41-1.42,2.81-1.42.07-.78-.2-1.21-.92-1.21-.54,0-.93.16-.95.7l-.74-.07c.11-.83.74-1.17,1.71-1.17s1.62.45,1.62,1.44v1.84c0,.45.16.72.63.61v.45C260.49,227,259.82,226.79,259.86,226Z"/><path d="M263.82,222.49c2-.09,1.19,2.61,1.35,4.36h-.72v-2.72c0-.7-.18-1.1-.88-1.08-1.62,0-1,2.3-1.1,3.8h-.72l0-4.27h.67a4.07,4.07,0,0,0,.05.72A1.41,1.41,0,0,1,263.82,222.49Z"/><rect class="cls-1" x="157.5" y="126" width="72" height="27"/><rect class="cls-2" x="157.5" y="126" width="72" height="27"/><path d="M176.67,136.13l0-4.9c-.51,1.71-1.21,3.26-1.8,4.9h-.51l-1.83-4.9,0,4.9h-.66v-5.58h1l1.74,4.75c.47-1.69,1.15-3.15,1.71-4.75h1v5.58Z"/><path d="M181.42,133.59a1.16,1.16,0,0,0-2.19-.63,1.79,1.79,0,0,0-.13.63Zm-1.17-1.82c1.41,0,1.93.94,1.89,2.38h-3c0,.9.31,1.51,1.19,1.53a1,1,0,0,0,1.1-.65l.63.18a1.68,1.68,0,0,1-1.73,1c-1.3,0-2-.83-2-2.25S178.92,131.77,180.25,131.77Z"/><path d="M187.22,132.33c-1.51.07-.85,2.36-1,3.8h-.7v-2.72c0-.65-.11-1.12-.78-1.08-1.49.09-.86,2.34-1,3.8h-.7l0-4.27h.67a3.3,3.3,0,0,0,0,.72c.22-1,2.22-1.13,2.4,0a1.39,1.39,0,0,1,1.31-.81c1.91-.05,1.06,2.68,1.24,4.36H188v-2.72C188,132.76,187.9,132.31,187.22,132.33Z"/><path d="M191.63,135.68c.9,0,1-.76,1-1.68s-.12-1.69-1-1.67-1.14.72-1.14,1.71S190.71,135.68,191.63,135.68Zm.18-3.91c1.2,0,1.56.88,1.58,2.2,0,1.49-.52,2.25-1.58,2.25a1.28,1.28,0,0,1-1.32-.76l-.05.67h-.7l0-5.87h.73v2.27A1.26,1.26,0,0,1,191.81,131.77Z"/><path d="M197.15,133.59A1.16,1.16,0,0,0,195,133a1.79,1.79,0,0,0-.13.63ZM196,131.77c1.42,0,1.94.94,1.9,2.38h-3c0,.9.31,1.51,1.19,1.53a1,1,0,0,0,1.1-.65l.63.18a1.68,1.68,0,0,1-1.73,1c-1.31,0-2-.83-2-2.25S194.65,131.77,196,131.77Z"/><path d="M200.79,132.47c-1.75-.36-1.19,2-1.28,3.66h-.72l0-4.27h.68a5,5,0,0,0,.05.88c.13-.61.51-1.11,1.3-.93v.66Z"/><path d="M201.44,136.13v-4.27h.72v4.27Zm0-5.19v-.68h.72v.68Z"/><polygon points="205.9 136.13 204.46 134.18 203.94 134.6 203.94 135.37 203.94 136.13 203.22 136.13 203.22 133.2 203.22 130.26 203.94 130.26 203.94 132.09 203.94 133.93 205.81 131.86 206.64 131.86 204.91 133.7 206.75 136.13 205.9 136.13"/><path d="M207.81,134.94a.68.68,0,0,0,.72.74,1.37,1.37,0,0,0,1.35-1.66C208.91,134.06,207.81,133.91,207.81,134.94Zm2.09.38a1.63,1.63,0,0,1-1.53.9,1.19,1.19,0,0,1-1.3-1.28c0-1.44,1.42-1.42,2.81-1.42.07-.78-.2-1.21-.92-1.21-.54,0-.92.16-1,.7l-.74-.07c.11-.83.74-1.17,1.71-1.17s1.62.45,1.62,1.44v1.84c0,.45.16.72.63.61v.45C210.53,136.31,209.86,136.07,209.9,135.32Z"/><path d="M213.86,131.77c2-.09,1.2,2.61,1.35,4.36h-.72v-2.72c0-.7-.18-1.1-.87-1.08-1.62,0-1,2.3-1.11,3.8h-.72l0-4.27h.68a3.33,3.33,0,0,0,0,.72A1.41,1.41,0,0,1,213.86,131.77Z"/><polygon points="167.31 145.85 167.31 143.06 167.31 140.27 168.07 140.27 168.07 143.06 168.07 145.85 167.31 145.85"/><path d="M171.45,141.49c2-.09,1.19,2.61,1.35,4.36h-.72v-2.72c0-.7-.18-1.1-.88-1.08-1.62,0-1,2.3-1.1,3.8h-.72l0-4.27H170a3.3,3.3,0,0,0,.05.72A1.4,1.4,0,0,1,171.45,141.49Z"/><path d="M175.59,140.59c-.7-.2-.94.22-.85,1h.85v.52h-.85v3.75H174V142.1h-.61v-.52H174c-.16-1.17.38-1.85,1.55-1.53v.54Z"/><path d="M177.79,145.4c1,0,1.2-.69,1.2-1.68s-.18-1.69-1.15-1.69-1.19.72-1.19,1.69S176.87,145.38,177.79,145.4Zm0-3.91c1.39,0,1.91.83,1.91,2.23s-.61,2.22-1.94,2.22-1.86-.87-1.89-2.22S176.54,141.49,177.82,141.49Z"/><path d="M182.63,142.19c-1.75-.36-1.19,2-1.28,3.66h-.72l0-4.27h.67a5,5,0,0,0,.05.88,1,1,0,0,1,1.3-.93v.66Z"/><path d="M187.47,142.05c-1.51.07-.85,2.36-1,3.8h-.7v-2.72c0-.65-.11-1.12-.79-1.08-1.48.09-.85,2.34-1,3.8h-.7l0-4.27H184a3.3,3.3,0,0,0,0,.72c.22-1,2.22-1.13,2.4,0a1.39,1.39,0,0,1,1.31-.81c1.91-.05,1.06,2.68,1.24,4.36h-.7v-2.72C188.26,142.48,188.15,142,187.47,142.05Z"/><path d="M190.55,144.66a.68.68,0,0,0,.72.74,1.37,1.37,0,0,0,1.35-1.66C191.65,143.78,190.55,143.63,190.55,144.66Zm2.09.38a1.63,1.63,0,0,1-1.53.9,1.19,1.19,0,0,1-1.3-1.28c0-1.44,1.42-1.42,2.81-1.42.07-.78-.2-1.21-.92-1.21-.54,0-.92.16-.95.7l-.74-.07c.12-.83.74-1.17,1.71-1.17s1.62.45,1.62,1.44v1.84c0,.45.16.72.63.61v.45C193.27,146,192.6,145.79,192.64,145Z"/><path d="M197,142.64c-.07-.77-1.94-.86-2,0,.34,1.19,2.59.27,2.68,2s-3.38,1.67-3.53.18l.63-.11c.09.81,2.18,1,2.2,0-.22-1.26-2.54-.34-2.65-2-.09-1.28,1.84-1.41,2.74-.94a1.12,1.12,0,0,1,.54.79Z"/><path d="M198.56,145.85v-4.27h.72v4.27Zm0-5.19V140h.72v.68Z"/><path d="M207.27,143.76a2.06,2.06,0,0,1-2.34,2.18,2,2,0,0,1-2.25-2.11v-3.56h.74c.18,2-.74,5,1.51,5s1.44-3,1.6-5h.74v3.49Z"/><path d="M207.67,147c.54.09.75-.14.75-.68v-4.7h.72v4.81c0,.9-.52,1.31-1.47,1.11V147Zm.75-6.3V140h.72v.68Z"/><path d="M210.19,145.85v-4.27h.72v4.27Zm0-5.19V140h.72v.68Z"/><path d="M212.51,144.66a.68.68,0,0,0,.72.74,1.37,1.37,0,0,0,1.35-1.66C213.61,143.78,212.51,143.63,212.51,144.66Zm2.09.38a1.63,1.63,0,0,1-1.53.9,1.19,1.19,0,0,1-1.3-1.28c0-1.44,1.42-1.42,2.81-1.42.07-.78-.2-1.21-.92-1.21-.54,0-.92.16-.95.7l-.74-.07c.11-.83.74-1.17,1.71-1.17s1.62.45,1.62,1.44v1.84c0,.45.16.72.63.61v.45C215.23,146,214.56,145.79,214.6,145Z"/><path d="M218.56,141.49c2-.09,1.2,2.61,1.35,4.36h-.72v-2.72c0-.7-.18-1.1-.87-1.08-1.62,0-1,2.3-1.11,3.8h-.72l0-4.27h.68a3.33,3.33,0,0,0,0,.72A1.41,1.41,0,0,1,218.56,141.49Z"/><polyline class="cls-2" points="230.4 139.5 256.5 139.5 256.5 198.22"/><rect x="229.95" y="139.05" width="0.45" height="0.9"/><polygon points="256.5 205.11 254.43 198.68 258.57 198.68 256.5 205.11"/><polygon class="cls-2" points="256.5 205.11 254.43 198.68 258.57 198.68 256.5 205.11"/><polyline class="cls-2" points="293.4 220.5 310.5 220.5 310.5 275.89"/><rect x="292.95" y="220.05" width="0.45" height="0.9"/><polygon points="310.5 282.78 308.43 276.35 312.57 276.35 310.5 282.78"/><polygon class="cls-2" points="310.5 282.78 308.43 276.35 312.57 276.35 310.5 282.78"/><rect class="cls-1" x="274.5" y="284.67" width="72" height="33.66"/><rect class="cls-2" x="274.5" y="284.67" width="72" height="33.66"/><path d="M291.23,290.63c1.28,0,2.79.25,2.79-1.12s-1.53-1.06-2.79-1.08v2.2Zm-.75-2.81c2,0,4.3-.34,4.3,1.69,0,1.75-1.73,1.8-3.55,1.71v2.18h-.75v-5.58Z"/><path d="M298.63,290.86a1.15,1.15,0,0,0-2.18-.63,1.55,1.55,0,0,0-.14.63ZM297.46,289c1.42,0,1.93,1,1.89,2.39h-3c0,.9.32,1.51,1.19,1.53a1.06,1.06,0,0,0,1.11-.65l.63.18a1.7,1.7,0,0,1-1.74,1c-1.3,0-2-.83-1.95-2.25S296.13,289,297.46,289Z"/><path d="M304.43,289.6c-1.5.06-.85,2.36-1,3.8h-.69v-2.72c0-.66-.12-1.13-.79-1.08-1.49.09-.86,2.34-1,3.8h-.7l0-4.28h.67a4,4,0,0,0,.05.72c.22-1,2.23-1.12,2.41,0a1.38,1.38,0,0,1,1.3-.81c1.91,0,1.06,2.68,1.24,4.37h-.7v-2.72C305.22,290,305.11,289.57,304.43,289.6Z"/><path d="M308.84,293c.9,0,1-.77,1-1.69s-.12-1.69-1-1.66-1.14.72-1.14,1.71S307.92,293,308.84,293ZM309,289c1.2,0,1.56.88,1.58,2.21,0,1.48-.52,2.25-1.58,2.25a1.28,1.28,0,0,1-1.32-.77l-.05.68H307l0-5.87h.72v2.27A1.26,1.26,0,0,1,309,289Z"/><path d="M312.83,293.49c-2,.09-1.22-2.61-1.38-4.37h.72v2.7c0,.7.16,1.13.88,1.11,1.62-.05,1-2.28,1.13-3.81h.69l0,4.28h-.68a4.29,4.29,0,0,0,0-.74A1.41,1.41,0,0,1,312.83,293.49Z"/><path d="M316.52,292.21a.68.68,0,0,0,.72.74,1.38,1.38,0,0,0,1.35-1.67C317.62,291.33,316.52,291.17,316.52,292.21Zm2.09.38a1.68,1.68,0,0,1-1.53.9,1.2,1.2,0,0,1-1.31-1.28c0-1.44,1.42-1.42,2.82-1.42.06-.79-.21-1.22-.93-1.22-.54,0-.92.16-.94.7l-.74-.07c.11-.83.74-1.17,1.71-1.17s1.62.45,1.62,1.44v1.85c0,.45.15.72.63.61v.45C319.24,293.58,318.56,293.33,318.61,292.59Z"/><path d="M321.26,292.34c0,.54.41.65.86.5v.54c-.74.22-1.58.11-1.58-.88v-2.86h-.49v-.52h.54l.2-1h.47v1h.79v.52h-.79v2.7Z"/><path d="M323.27,292.21a.68.68,0,0,0,.72.74,1.38,1.38,0,0,0,1.35-1.67C324.37,291.33,323.27,291.17,323.27,292.21Zm2.09.38a1.68,1.68,0,0,1-1.53.9,1.2,1.2,0,0,1-1.31-1.28c0-1.44,1.42-1.42,2.82-1.42.06-.79-.21-1.22-.93-1.22-.54,0-.92.16-.94.7l-.74-.07c.11-.83.74-1.17,1.71-1.17s1.62.45,1.62,1.44v1.85c0,.45.15.72.63.61v.45C326,293.58,325.31,293.33,325.36,292.59Z"/><path d="M329.32,289c2-.09,1.19,2.61,1.35,4.37H330v-2.72c0-.7-.18-1.11-.88-1.08-1.62,0-1,2.29-1.1,3.8h-.72l0-4.28h.67a3.26,3.26,0,0,0,.05.72A1.43,1.43,0,0,1,329.32,289Z"/><path d="M285.49,300.89l-1.06-2.77c-.27,1-.7,1.85-1,2.77Zm.85,2.23-.63-1.62h-2.54l-.63,1.62h-.79l2.28-5.58h.85l2.23,5.58Z"/><path d="M289.54,302.67c.9,0,1-.77,1-1.69s-.11-1.69-1-1.66-1.15.72-1.15,1.71S288.62,302.67,289.54,302.67Zm.18-3.92c1.19,0,1.55.88,1.57,2.21,0,1.48-.51,2.25-1.57,2.25a1.3,1.3,0,0,1-1.33-.77l0,.68h-.7l0-5.87h.72v2.27A1.27,1.27,0,0,1,289.72,298.75Z"/><path d="M294.67,299.9c-.07-.76-1.94-.85-2,0,.34,1.19,2.59.27,2.68,2s-3.38,1.66-3.53.18l.63-.12c.09.81,2.18,1,2.2,0-.22-1.26-2.54-.33-2.65-2-.09-1.28,1.84-1.42,2.74-1a1.15,1.15,0,0,1,.54.79Z"/><path d="M299.1,300.58a1.15,1.15,0,0,0-2.18-.63,1.55,1.55,0,0,0-.14.63Zm-1.17-1.83c1.42,0,1.94.95,1.89,2.39h-3c0,.9.32,1.51,1.2,1.53a1.06,1.06,0,0,0,1.1-.65l.63.18a1.69,1.69,0,0,1-1.73,1c-1.31,0-2-.83-2-2.25S296.6,298.75,297.93,298.75Z"/><path d="M302.81,298.75c2-.09,1.2,2.61,1.35,4.37h-.72V300.4c0-.7-.18-1.11-.87-1.08-1.62,0-1,2.29-1.11,3.8h-.72l0-4.28h.68a3.29,3.29,0,0,0,0,.72A1.44,1.44,0,0,1,302.81,298.75Z"/><path d="M307.72,299.9c-.07-.76-1.94-.85-2,0,.34,1.19,2.59.27,2.68,2s-3.38,1.66-3.53.18l.63-.12c.09.81,2.18,1,2.2,0-.22-1.26-2.54-.33-2.65-2-.09-1.28,1.84-1.42,2.74-1a1.15,1.15,0,0,1,.54.79Z"/><path d="M309.27,303.12v-4.28H310v4.28Zm0-5.2v-.67H310v.67Z"/><polygon points="315.62 298.17 315.62 300.64 315.62 303.12 314.85 303.12 314.85 300.64 314.85 298.17 312.94 298.17 312.94 297.86 312.94 297.54 317.53 297.54 317.53 297.86 317.53 298.17 315.62 298.17"/><path d="M320.21,300.58A1.16,1.16,0,0,0,318,300a1.74,1.74,0,0,0-.13.63ZM319,298.75c1.41,0,1.93.95,1.89,2.39h-3c0,.9.31,1.51,1.19,1.53a1,1,0,0,0,1.1-.65l.63.18a1.68,1.68,0,0,1-1.73,1c-1.3,0-2-.83-2-2.25S317.71,298.75,319,298.75Z"/><path d="M326,299.32c-1.51.06-.85,2.36-1,3.8h-.7V300.4c0-.66-.11-1.13-.78-1.08-1.49.09-.86,2.34-1,3.8h-.7l0-4.28h.67a3.26,3.26,0,0,0,.05.72c.22-1,2.22-1.12,2.4,0a1.4,1.4,0,0,1,1.31-.81c1.91,0,1.06,2.68,1.24,4.37h-.7V300.4C326.8,299.74,326.69,299.29,326,299.32Z"/><path d="M330.42,302.67c.9,0,1-.77,1-1.69s-.13-1.64-1-1.66-1.15.72-1.15,1.71S329.5,302.67,330.42,302.67Zm.18-3.92c1.24,0,1.58.93,1.58,2.21s-.36,2.2-1.58,2.25a1.37,1.37,0,0,1-1.35-.77l0,2.37h-.72l0-6h.7l0,.68A1.34,1.34,0,0,1,330.6,298.75Z"/><path d="M333.59,301.93a.68.68,0,0,0,.72.74,1.37,1.37,0,0,0,1.35-1.67C334.7,301.05,333.59,300.89,333.59,301.93Zm2.1.38a1.68,1.68,0,0,1-1.53.9,1.2,1.2,0,0,1-1.31-1.28c0-1.44,1.42-1.42,2.81-1.42.07-.79-.2-1.22-.92-1.22-.54,0-.92.16-.94.7l-.75-.07c.12-.83.75-1.17,1.71-1.17s1.62.45,1.62,1.44V302c0,.45.16.72.63.61v.45C336.32,303.3,335.64,303.05,335.69,302.31Z"/><path d="M338.34,302.06c0,.54.41.65.86.5v.54c-.75.22-1.58.11-1.58-.88v-2.86h-.49v-.52h.54l.2-1h.47v1h.79v.52h-.79v2.7Z"/><path d="M280.9,312.23c2,.18,3.29-.36,3.29-2.23s-1.35-2.27-3.29-2.13v4.36Zm-.74-5c2.65-.16,4.86.18,4.79,2.74-.07,1.76-1,2.84-2.72,2.84h-2.07v-5.58Z"/><path d="M287.2,312.93c-2,.09-1.21-2.61-1.37-4.37h.72v2.7c0,.7.16,1.13.88,1.11,1.62-.05,1-2.28,1.12-3.81h.7l0,4.28h-.67a4.24,4.24,0,0,0-.05-.74A1.41,1.41,0,0,1,287.2,312.93Z"/><path d="M291.93,309c-.9,0-1,.77-1,1.69s.14,1.67,1,1.67,1.15-.72,1.15-1.71S292.85,309,291.93,309Zm-.21-.54a1.43,1.43,0,0,1,1.35.75l0-2.25h.72l0,5.87h-.67a6.62,6.62,0,0,0-.07-.7,1.28,1.28,0,0,1-1.33.79c-1.19,0-1.55-.88-1.57-2.21C290.15,309.24,290.67,308.47,291.72,308.47Z"/><path d="M296.2,312.93c-2,.09-1.21-2.61-1.37-4.37h.72v2.7c0,.7.16,1.13.88,1.11,1.62-.05,1-2.28,1.12-3.81h.7l0,4.28h-.67a4.24,4.24,0,0,0-.05-.74A1.41,1.41,0,0,1,296.2,312.93Z"/><polygon points="302.03 312.84 300.59 310.88 300.07 311.31 300.07 312.07 300.07 312.84 299.35 312.84 299.35 309.9 299.35 306.97 300.07 306.97 300.07 308.8 300.07 310.63 301.94 308.56 302.77 308.56 301.04 310.41 302.88 312.84 302.03 312.84"/><path d="M307.22,309c-.9,0-1,.77-1,1.69s.13,1.67,1,1.67,1.15-.72,1.15-1.71S308.15,309,307.22,309Zm-.2-.54a1.43,1.43,0,0,1,1.35.75l0-2.25h.72l0,5.87h-.67a6.62,6.62,0,0,0-.07-.7,1.29,1.29,0,0,1-1.33.79c-1.19,0-1.55-.88-1.57-2.21C305.45,309.24,306,308.47,307,308.47Z"/><path d="M310.69,311.65a.68.68,0,0,0,.72.74,1.38,1.38,0,0,0,1.35-1.67C311.79,310.77,310.69,310.61,310.69,311.65Zm2.09.38a1.68,1.68,0,0,1-1.53.9,1.19,1.19,0,0,1-1.3-1.28c0-1.44,1.41-1.42,2.81-1.42.07-.79-.2-1.22-.92-1.22-.54,0-.93.16-.95.7l-.74-.07c.11-.83.74-1.17,1.71-1.17s1.62.45,1.62,1.44v1.85c0,.45.16.72.63.61v.45C313.41,313,312.74,312.77,312.78,312Z"/><path d="M316.74,308.47c2-.09,1.19,2.61,1.35,4.37h-.72v-2.72c0-.7-.18-1.11-.88-1.08-1.62,0-1,2.29-1.1,3.8h-.72l0-4.28h.67a4,4,0,0,0,.05.72A1.44,1.44,0,0,1,316.74,308.47Z"/><path d="M325,308.59c-.11-1.08-2.77-1.22-2.79,0,.32,1.69,3.56.32,3.67,2.68.07,1.75-2.72,2-3.94,1.24a1.63,1.63,0,0,1-.74-1l.74-.16c.11,1.26,3.17,1.42,3.17,0,0-1.75-3.48-.31-3.64-2.65-.11-1.85,3.26-1.89,4-.77a2,2,0,0,1,.24.56Z"/><path d="M328.42,309c-.9,0-1.08.74-1.08,1.64s.2,1.69,1.08,1.69a.9.9,0,0,0,1-.86l.72.05a1.55,1.55,0,0,1-1.67,1.37c-1.33,0-1.71-.92-1.84-2.23a1.85,1.85,0,0,1,3.3-1.44,1.72,1.72,0,0,1,.16.5l-.72.06A.86.86,0,0,0,328.42,309Z"/><path d="M332.87,309.17c-1.75-.36-1.19,2.05-1.28,3.67h-.72l0-4.28h.67a6.05,6.05,0,0,0,.05.88,1,1,0,0,1,1.3-.92v.65Z"/><path d="M333.53,312.84v-4.28h.72v4.28Zm0-5.2V307h.72v.67Z"/><path d="M337.17,312.39c.9,0,1-.77,1-1.69s-.13-1.64-1-1.66-1.15.72-1.15,1.71S336.25,312.39,337.17,312.39Zm.18-3.92c1.24,0,1.58.93,1.58,2.21s-.36,2.2-1.58,2.25a1.37,1.37,0,0,1-1.35-.77l0,2.37h-.72l0-6h.7l0,.68A1.34,1.34,0,0,1,337.35,308.47Z"/><path d="M340.59,311.78c0,.54.41.65.86.5v.54c-.75.22-1.58.11-1.58-.88v-2.86h-.49v-.52h.54l.2-1h.47v1h.79v.52h-.79v2.7Z"/><polyline class="cls-2" points="347.4 301.5 382.5 301.5 382.5 246.06"/><rect x="346.95" y="301.05" width="0.45" height="0.9"/><polygon points="382.5 239.18 384.57 245.61 380.43 245.61 382.5 239.18"/><polygon class="cls-2" points="382.5 239.18 384.57 245.61 380.43 245.61 382.5 239.18"/><rect class="cls-1" x="346.5" y="213.3" width="72" height="23.94"/><rect class="cls-2" x="346.5" y="213.3" width="72" height="23.94"/><path d="M362.33,218a1.6,1.6,0,0,0-1.65-1c-1.32,0-1.95.9-1.95,2.23s.65,2.27,2,2.27a1.87,1.87,0,0,0,1.75-1.17l.61.31a2.47,2.47,0,0,1-2.41,1.49c-1.8,0-2.63-1.13-2.72-2.9-.13-2.34,2.23-3.45,4.21-2.5a1.8,1.8,0,0,1,.88,1Z"/><path d="M366.8,219.49a1.15,1.15,0,0,0-2.18-.63,1.56,1.56,0,0,0-.13.63Zm-1.17-1.83c1.42,0,1.94,1,1.89,2.39h-3c0,.9.31,1.51,1.19,1.53a1,1,0,0,0,1.1-.65l.63.18a1.69,1.69,0,0,1-1.73,1c-1.31,0-2-.83-2-2.25S364.31,217.66,365.63,217.66Z"/><path d="M369.21,221c0,.54.41.65.86.5V222c-.75.22-1.58.11-1.58-.88v-2.86H368v-.52h.54l.2-1h.47v1H370v.52h-.79V221Z"/><path d="M371.21,220.84a.68.68,0,0,0,.72.74,1.37,1.37,0,0,0,1.35-1.67C372.32,220,371.21,219.8,371.21,220.84Zm2.1.38a1.68,1.68,0,0,1-1.53.9,1.2,1.2,0,0,1-1.31-1.28c0-1.44,1.42-1.42,2.81-1.42.07-.79-.2-1.22-.92-1.22-.54,0-.92.16-.94.7l-.75-.07c.12-.83.75-1.17,1.71-1.17s1.62.45,1.62,1.44V221c0,.45.16.72.63.61V222C373.94,222.21,373.26,222,373.31,221.22Z"/><polygon points="377.85 222.03 376.41 220.07 375.89 220.5 375.89 221.26 375.89 222.03 375.17 222.03 375.17 219.09 375.17 216.16 375.89 216.16 375.89 217.99 375.89 219.82 377.76 217.75 378.59 217.75 376.86 219.6 378.71 222.03 377.85 222.03"/><polygon points="383.79 217.08 383.79 219.56 383.79 222.03 383.03 222.03 383.03 219.56 383.03 217.08 381.11 217.08 381.11 216.76 381.11 216.45 385.7 216.45 385.7 216.76 385.7 217.08 383.79 217.08"/><path d="M388.38,219.49a1.15,1.15,0,0,0-2.18-.63,1.55,1.55,0,0,0-.14.63Zm-1.17-1.83c1.42,0,1.94,1,1.89,2.39h-3c0,.9.32,1.51,1.2,1.53a1.06,1.06,0,0,0,1.1-.65l.63.18a1.69,1.69,0,0,1-1.73,1c-1.31,0-2-.83-2-2.25S385.88,217.66,387.21,217.66Z"/><path d="M394.19,218.23c-1.51.06-.86,2.36-1,3.8h-.7v-2.72c0-.66-.11-1.13-.79-1.08-1.48.09-.85,2.34-1,3.8H390l0-4.28h.68a3.29,3.29,0,0,0,0,.72c.23-1,2.23-1.12,2.41,0a1.4,1.4,0,0,1,1.3-.81c1.92,0,1.06,2.68,1.24,4.37H395v-2.72C395,218.65,394.86,218.2,394.19,218.23Z"/><path d="M398.6,221.58c.9,0,1-.77,1-1.69s-.14-1.64-1-1.66-1.15.72-1.15,1.71S397.67,221.58,398.6,221.58Zm.18-3.92c1.23,0,1.57.93,1.57,2.21s-.36,2.2-1.57,2.25a1.36,1.36,0,0,1-1.35-.77l0,2.37h-.72l0-6h.69l.05.68A1.33,1.33,0,0,1,398.78,217.66Z"/><path d="M401.77,220.84a.68.68,0,0,0,.72.74,1.38,1.38,0,0,0,1.35-1.67C402.87,220,401.77,219.8,401.77,220.84Zm2.09.38a1.68,1.68,0,0,1-1.53.9,1.19,1.19,0,0,1-1.3-1.28c0-1.44,1.41-1.42,2.81-1.42.07-.79-.2-1.22-.92-1.22-.54,0-.93.16-.95.7l-.74-.07c.11-.83.74-1.17,1.71-1.17s1.62.45,1.62,1.44V221c0,.45.16.72.63.61V222C404.49,222.21,403.82,222,403.86,221.22Z"/><path d="M406.52,221c0,.54.4.65.85.5V222c-.74.22-1.57.11-1.57-.88v-2.86h-.5v-.52h.54l.2-1h.48v1h.78v.52h-.78V221Z"/><path d="M372.23,231.14c2,.18,3.28-.36,3.28-2.23s-1.35-2.27-3.28-2.13v4.36Zm-.75-5c2.66-.16,4.86.18,4.8,2.74-.07,1.76-1,2.84-2.73,2.84h-2.07v-5.58Z"/><path d="M378.53,231.84c-2,.09-1.22-2.61-1.38-4.37h.72v2.7c0,.7.16,1.13.88,1.11,1.62-.05,1-2.28,1.13-3.81h.69l0,4.28h-.68a4.29,4.29,0,0,0,0-.74A1.41,1.41,0,0,1,378.53,231.84Z"/><path d="M383.25,227.92c-.9,0-1,.77-1,1.69s.13,1.67,1,1.67,1.15-.72,1.15-1.71S384.17,227.9,383.25,227.92Zm-.2-.54a1.43,1.43,0,0,1,1.35.75l0-2.25h.72l0,5.87h-.68a6.79,6.79,0,0,0-.06-.7,1.29,1.29,0,0,1-1.33.79c-1.19,0-1.55-.88-1.58-2.21S382,227.38,383.05,227.38Z"/><path d="M387.53,231.84c-2,.09-1.22-2.61-1.38-4.37h.72v2.7c0,.7.16,1.13.88,1.11,1.62-.05,1-2.28,1.13-3.81h.69l0,4.28h-.68a4.29,4.29,0,0,0,0-.74A1.41,1.41,0,0,1,387.53,231.84Z"/><polygon points="393.35 231.75 391.91 229.79 391.4 230.22 391.4 230.99 391.4 231.75 390.68 231.75 390.68 228.81 390.68 225.88 391.4 225.88 391.4 227.71 391.4 229.54 393.26 227.47 394.1 227.47 392.36 229.32 394.21 231.75 393.35 231.75"/><polyline class="cls-2" points="374.4 139.5 490.5 139.5 490.5 199.66"/><rect x="373.95" y="139.05" width="0.45" height="0.9"/><polygon points="490.5 206.55 488.43 200.12 492.3 200.12 490.5 206.55"/><polygon class="cls-2" points="490.5 206.55 488.43 200.12 492.3 200.12 490.5 206.55"/><rect class="cls-1" x="454.5" y="208.44" width="72" height="33.66"/><rect class="cls-2" x="454.5" y="208.44" width="72" height="33.66"/><polygon points="464.21 221.74 464.21 218.95 464.21 216.16 468.41 216.16 468.41 216.47 468.41 216.79 464.95 216.79 464.95 217.68 464.95 218.56 468.19 218.56 468.19 218.87 468.19 219.17 464.95 219.17 464.95 220.15 464.95 221.13 468.59 221.13 468.59 221.43 468.59 221.74 464.21 221.74"/><polygon points="472.15 221.74 470.71 219.78 470.19 220.21 470.19 220.97 470.19 221.74 469.47 221.74 469.47 218.8 469.47 215.87 470.19 215.87 470.19 217.7 470.19 219.53 472.06 217.46 472.89 217.46 471.16 219.31 473 221.74 472.15 221.74"/><path d="M476,218.52c-.07-.76-1.94-.85-2,0,.34,1.19,2.59.27,2.68,2s-3.38,1.66-3.53.18l.63-.12c.09.81,2.18,1,2.2,0-.22-1.26-2.54-.33-2.65-2-.09-1.28,1.84-1.42,2.74-1a1.15,1.15,0,0,1,.54.79Z"/><path d="M480.45,219.2a1.15,1.15,0,0,0-2.18-.63,1.55,1.55,0,0,0-.14.63Zm-1.17-1.83c1.42,0,1.94.95,1.89,2.39h-3c0,.9.32,1.51,1.2,1.53a1.06,1.06,0,0,0,1.1-.65l.63.18a1.69,1.69,0,0,1-1.73,1c-1.31,0-2-.83-2-2.25S478,217.37,479.28,217.37Z"/><polygon points="484.75 221.74 483.31 219.78 482.79 220.21 482.79 220.97 482.79 221.74 482.07 221.74 482.07 218.8 482.07 215.87 482.79 215.87 482.79 217.7 482.79 219.53 484.66 217.46 485.49 217.46 483.76 219.31 485.6 221.74 484.75 221.74"/><path d="M487.47,221.83c-2,.09-1.21-2.61-1.37-4.37h.72v2.7c0,.7.16,1.13.88,1.11,1.62-.05,1-2.28,1.12-3.81h.7l0,4.28h-.67a4.24,4.24,0,0,0-.05-.74A1.41,1.41,0,0,1,487.47,221.83Z"/><path d="M493.12,218.52c-.07-.76-1.94-.85-2,0,.34,1.19,2.59.27,2.68,2s-3.38,1.66-3.53.18l.63-.12c.09.81,2.18,1,2.2,0-.22-1.26-2.54-.33-2.65-2-.09-1.28,1.84-1.42,2.74-1a1.15,1.15,0,0,1,.54.79Z"/><path d="M494.67,221.74v-4.28h.72v4.28Zm0-5.2v-.67h.72v.67Z"/><path d="M499.4,218.5c.29,1.12,2.34.54,2.34,2,0,1.73-3.24,1.78-3.56.38l.59-.22c.13.9,2.29.94,2.29-.09-.29-1.13-2.34-.52-2.34-2,0-1.6,3.22-1.6,3.33-.18l-.65.09C501.29,217.71,499.49,217.67,499.4,218.5Z"/><path d="M503.2,220.21c0,.65.25,1.06.85,1.06s.95-.43,1.15-.93l.63.21a1.8,1.8,0,0,1-1.78,1.28c-1.14,0-1.62-.74-1.57-2,.07-1.74,1.66-3.15,3.28-2.1a1.27,1.27,0,0,1,.41.9l-.7.12a.75.75,0,0,0-.81-.81C503.49,217.94,503.2,219,503.2,220.21Z"/><path d="M507.74,218.34c.27-.56.68-1.15,1.49-.9l-.14.59c-1.82-.25-1.53,2.25-2,3.71h-.72l.81-4.28h.68Z"/><path d="M509.07,221.74l.83-4.28h.7l-.83,4.28Zm1-5.2.14-.67h.72l-.14.67Z"/><path d="M514.22,218.9c0-.58-.22-1-.78-1-1.22,0-1.51,1.12-1.56,2.31a.9.9,0,0,0,1,1C514,221.29,514.22,220,514.22,218.9Zm-2-.81a1.49,1.49,0,0,1,2.72,1.13c-.29,1.37-.56,2.56-2,2.61a1.28,1.28,0,0,1-1.24-.79c-.09.83-.32,1.58-.45,2.39h-.7l1.13-6h.65A2.43,2.43,0,0,1,512.22,218.09Z"/><path d="M516.36,220.52c-.2.5.11.93.7.68l-.07.52c-.81.33-1.55-.07-1.35-1.15l.5-2.59h-.5l.11-.52h.5l.43-1h.47l-.2,1h.78l-.09.52h-.78Z"/><path d="M473.8,231c.9,0,1-.77,1-1.69s-.12-1.69-1-1.66-1.14.72-1.14,1.71S472.88,231,473.8,231Zm.18-3.92c1.2,0,1.56.88,1.58,2.21s-.52,2.25-1.58,2.25a1.28,1.28,0,0,1-1.32-.77l-.05.68h-.7l0-5.87h.72v2.27A1.26,1.26,0,0,1,474,227.09Z"/><path d="M477.79,231.55c-2,.09-1.22-2.61-1.38-4.37h.72v2.7c0,.7.16,1.13.88,1.11,1.62-.05,1-2.28,1.13-3.81h.69l0,4.28h-.68a4.29,4.29,0,0,0,0-.74A1.41,1.41,0,0,1,477.79,231.55Z"/><path d="M481.48,230.27a.68.68,0,0,0,.72.74,1.38,1.38,0,0,0,1.35-1.67C482.58,229.39,481.48,229.23,481.48,230.27Zm2.09.38a1.68,1.68,0,0,1-1.53.9,1.2,1.2,0,0,1-1.31-1.28c0-1.44,1.42-1.42,2.82-1.42.06-.79-.21-1.22-.93-1.22-.54,0-.92.16-.94.7l-.74-.07c.11-.83.74-1.17,1.71-1.17s1.62.45,1.62,1.44v1.85c0,.45.15.72.63.61v.45C484.2,231.64,483.52,231.39,483.57,230.65Z"/><path d="M486.22,230.4c0,.54.41.65.86.5v.54c-.74.22-1.58.11-1.58-.88V227.7H485v-.52h.54l.2-1h.47v1H487v.52h-.79v2.7Z"/><path d="M491.67,226.19c-.7-.2-.95.23-.86,1h.86v.52h-.86v3.76h-.69V227.7h-.61v-.52h.61c-.16-1.17.38-1.84,1.55-1.53v.54Z"/><path d="M493.87,231c1,0,1.2-.7,1.2-1.69s-.18-1.69-1.15-1.69-1.19.72-1.19,1.69S493,231,493.87,231Zm0-3.92c1.39,0,1.91.84,1.91,2.23s-.61,2.23-1.94,2.23-1.86-.88-1.89-2.23S492.61,227.09,493.9,227.09Z"/><polygon points="496.69 231.46 496.69 228.52 496.69 225.59 497.41 225.59 497.41 228.52 497.41 231.46 496.69 231.46"/><path d="M500,227.63c-.9,0-1,.77-1,1.69s.14,1.67,1,1.67,1.14-.72,1.14-1.71S501,227.61,500,227.63Zm-.2-.54a1.44,1.44,0,0,1,1.35.75l0-2.25h.72l0,5.87h-.68a4.73,4.73,0,0,0-.07-.7,1.27,1.27,0,0,1-1.32.79c-1.2,0-1.56-.88-1.58-2.21C498.26,227.86,498.78,227.09,499.84,227.09Z"/><path d="M505.84,228.92a1.15,1.15,0,0,0-2.18-.63,1.56,1.56,0,0,0-.13.63Zm-1.17-1.83c1.42,0,1.94.95,1.89,2.39h-3c0,.9.31,1.51,1.19,1.53a1,1,0,0,0,1.1-.65l.63.18a1.69,1.69,0,0,1-1.73,1c-1.31,0-2-.83-2-2.25S503.35,227.09,504.67,227.09Z"/><path d="M509.49,227.79c-1.76-.36-1.19,2.05-1.28,3.67h-.72l0-4.28h.68a6.12,6.12,0,0,0,0,.88c.14-.61.52-1.1,1.31-.92v.65Z"/><path class="cls-1" d="M119.7,126c6,0,10.8,6,10.8,13.5S125.68,153,119.7,153H87.3c-6,0-10.8-6-10.8-13.5S81.31,126,87.3,126Z"/><path class="cls-2" d="M119.7,126c6,0,10.8,6,10.8,13.5S125.68,153,119.7,153H87.3c-6,0-10.8-6-10.8-13.5S81.31,126,87.3,126Z"/><path d="M99.26,141.76l0-4.91c-.52,1.71-1.21,3.27-1.8,4.91H97l-1.82-4.91,0,4.91h-.65v-5.58h1l1.73,4.75c.48-1.69,1.15-3.15,1.71-4.75h1v5.58Z"/><path d="M102.47,141.85c-2,.09-1.21-2.61-1.37-4.37h.72v2.7c0,.7.16,1.13.88,1.11,1.62,0,1-2.28,1.12-3.81h.7l0,4.28h-.67a3.45,3.45,0,0,0-.05-.74A1.4,1.4,0,0,1,102.47,141.85Z"/><polygon points="105.62 141.76 105.62 138.82 105.62 135.89 106.34 135.89 106.34 138.82 106.34 141.76 105.62 141.76"/><path d="M107.94,140.57a.68.68,0,0,0,.72.74,1.38,1.38,0,0,0,1.35-1.67C109,139.69,107.94,139.53,107.94,140.57ZM110,141a1.66,1.66,0,0,1-1.53.9,1.19,1.19,0,0,1-1.3-1.28c0-1.44,1.42-1.42,2.81-1.42.07-.79-.2-1.22-.92-1.22-.54,0-.92.16-1,.7l-.74-.07c.11-.83.74-1.17,1.71-1.17s1.62.45,1.62,1.44v1.85c0,.45.16.72.63.61v.45C110.66,141.94,110,141.69,110,141Z"/><path d="M111.9,141.76v-4.28h.72v4.28Zm0-5.2v-.67h.72v.67Z"/><line class="cls-2" x1="131.4" y1="139.5" x2="148.72" y2="139.5"/><polygon points="131.4 139.95 130.91 139.95 130.95 139.5 130.95 139.05 131.4 139.05 131.4 139.95"/><polygon points="155.61 139.5 149.18 141.57 149.18 137.43 155.61 139.5"/><polygon class="cls-2" points="155.61 139.5 149.18 141.57 149.18 137.43 155.61 139.5"/><polyline class="cls-2" points="131.4 139.5 139.5 139.5 139.5 58.5 148.72 58.5"/><polygon points="131.4 139.95 130.91 139.95 130.95 139.5 130.95 139.05 131.4 139.05 131.4 139.95"/><polygon points="155.61 58.5 149.18 60.57 149.18 56.43 155.61 58.5"/><polygon class="cls-2" points="155.61 58.5 149.18 60.57 149.18 56.43 155.61 58.5"/><line class="cls-2" x1="527.4" y1="225.32" x2="553.5" y2="225.32"/><rect x="526.95" y="224.82" width="0.45" height="0.9"/><polygon points="560.25 225.31 553.95 227.38 553.95 223.2 560.25 225.31"/><polygon class="cls-2" points="560.25 225.31 553.95 227.38 553.95 223.2 560.25 225.31"/><line class="cls-2" x1="635.4" y1="225.32" x2="661.5" y2="225.32"/><rect x="634.95" y="224.82" width="0.45" height="0.9"/><polygon points="668.25 225.31 661.95 227.38 661.95 223.2 668.25 225.31"/><polygon class="cls-2" points="668.25 225.31 661.95 227.38 661.95 223.2 668.25 225.31"/><path class="cls-1" d="M713.7,211.77c6,0,10.8,6,10.8,13.5s-4.82,13.5-10.8,13.5H681.3c-6,0-10.8-6-10.8-13.5s4.81-13.5,10.8-13.5Z"/><path class="cls-2" d="M713.7,211.77c6,0,10.8,6,10.8,13.5s-4.82,13.5-10.8,13.5H681.3c-6,0-10.8-6-10.8-13.5s4.81-13.5,10.8-13.5Z"/><path d="M688.41,223.28c-.11-1.08-2.77-1.22-2.79,0,.31,1.69,3.55.32,3.67,2.68.06,1.75-2.73,2-3.94,1.24a1.63,1.63,0,0,1-.74-1l.74-.16c.11,1.26,3.17,1.42,3.17,0,0-1.75-3.49-.31-3.64-2.65-.12-1.85,3.26-1.89,4-.77a2,2,0,0,1,.25.56Z"/><path d="M693.07,225a1.15,1.15,0,0,0-2.18-.63,1.55,1.55,0,0,0-.14.63Zm-1.17-1.83c1.42,0,1.93,1,1.89,2.39h-3c0,.9.32,1.51,1.19,1.53a1,1,0,0,0,1.1-.65l.63.18a1.68,1.68,0,0,1-1.73,1c-1.3,0-2-.83-2-2.25S690.57,223.16,691.9,223.16Z"/><polygon points="694.69 227.53 694.69 224.59 694.69 221.66 695.41 221.66 695.41 224.59 695.41 227.53 694.69 227.53"/><path d="M699.34,225a1.15,1.15,0,0,0-2.18-.63,1.56,1.56,0,0,0-.13.63Zm-1.17-1.83c1.42,0,1.94,1,1.89,2.39h-3c0,.9.31,1.51,1.19,1.53a1,1,0,0,0,1.1-.65l.63.18a1.69,1.69,0,0,1-1.73,1c-1.31,0-2-.83-2-2.25S696.85,223.16,698.17,223.16Z"/><path d="M703.46,224.31c-.07-.76-1.93-.85-2,0,.34,1.19,2.59.27,2.68,2s-3.37,1.66-3.53.18l.63-.12c.09.81,2.18,1,2.2,0-.22-1.26-2.54-.33-2.65-2-.09-1.28,1.84-1.42,2.74-.95a1.12,1.12,0,0,1,.54.79Z"/><path d="M705.55,226.34a.68.68,0,0,0,.72.74,1.37,1.37,0,0,0,1.35-1.67C706.66,225.46,705.55,225.3,705.55,226.34Zm2.1.38a1.68,1.68,0,0,1-1.53.9,1.2,1.2,0,0,1-1.31-1.28c0-1.44,1.42-1.42,2.81-1.42.07-.79-.2-1.22-.92-1.22-.54,0-.92.16-.94.7l-.75-.07c.12-.83.75-1.17,1.71-1.17s1.62.45,1.62,1.44v1.85c0,.45.16.72.63.61v.45C708.28,227.71,707.6,227.46,707.65,226.72Z"/><path d="M709.51,227.53v-4.28h.72v4.28Zm0-5.2v-.67h.72v.67Z"/><rect class="cls-1" x="562.5" y="208.44" width="72" height="33.66"/><rect class="cls-2" x="562.5" y="208.44" width="72" height="33.66"/><polygon points="572.21 221.74 572.21 218.95 572.21 216.16 576.41 216.16 576.41 216.47 576.41 216.79 572.95 216.79 572.95 217.68 572.95 218.56 576.19 218.56 576.19 218.87 576.19 219.17 572.95 219.17 572.95 220.15 572.95 221.13 576.59 221.13 576.59 221.43 576.59 221.74 572.21 221.74"/><polygon points="580.15 221.74 578.71 219.78 578.19 220.21 578.19 220.97 578.19 221.74 577.47 221.74 577.47 218.8 577.47 215.87 578.19 215.87 578.19 217.7 578.19 219.53 580.06 217.46 580.89 217.46 579.16 219.31 581 221.74 580.15 221.74"/><path d="M584,218.52c-.07-.76-1.94-.85-2,0,.34,1.19,2.59.27,2.68,2s-3.38,1.66-3.53.18l.63-.12c.09.81,2.18,1,2.2,0-.22-1.26-2.54-.33-2.65-2-.09-1.28,1.84-1.42,2.74-1a1.15,1.15,0,0,1,.54.79Z"/><path d="M588.45,219.2a1.15,1.15,0,0,0-2.18-.63,1.55,1.55,0,0,0-.14.63Zm-1.17-1.83c1.42,0,1.94.95,1.89,2.39h-3c0,.9.32,1.51,1.2,1.53a1.06,1.06,0,0,0,1.1-.65l.63.18a1.69,1.69,0,0,1-1.73,1c-1.31,0-2-.83-2-2.25S586,217.37,587.28,217.37Z"/><polygon points="592.75 221.74 591.31 219.78 590.79 220.21 590.79 220.97 590.79 221.74 590.07 221.74 590.07 218.8 590.07 215.87 590.79 215.87 590.79 217.7 590.79 219.53 592.66 217.46 593.49 217.46 591.76 219.31 593.6 221.74 592.75 221.74"/><path d="M595.47,221.83c-2,.09-1.21-2.61-1.37-4.37h.72v2.7c0,.7.16,1.13.88,1.11,1.62-.05,1-2.28,1.12-3.81h.7l0,4.28h-.67a4.24,4.24,0,0,0,0-.74A1.41,1.41,0,0,1,595.47,221.83Z"/><path d="M601.12,218.52c-.07-.76-1.94-.85-2,0,.34,1.19,2.59.27,2.68,2s-3.38,1.66-3.53.18l.63-.12c.09.81,2.18,1,2.2,0-.22-1.26-2.54-.33-2.65-2-.09-1.28,1.84-1.42,2.74-1a1.15,1.15,0,0,1,.54.79Z"/><path d="M602.67,221.74v-4.28h.72v4.28Zm0-5.2v-.67h.72v.67Z"/><path d="M607.4,218.5c.29,1.12,2.34.54,2.34,2,0,1.73-3.24,1.78-3.56.38l.59-.22c.13.9,2.29.94,2.29-.09-.29-1.13-2.34-.52-2.34-2,0-1.6,3.22-1.6,3.33-.18l-.65.09C609.29,217.71,607.49,217.67,607.4,218.5Z"/><path d="M611.2,220.21c0,.65.25,1.06.85,1.06s1-.43,1.15-.93l.63.21a1.8,1.8,0,0,1-1.78,1.28c-1.14,0-1.62-.74-1.57-2,.07-1.74,1.66-3.15,3.28-2.1a1.27,1.27,0,0,1,.41.9l-.7.12a.75.75,0,0,0-.81-.81C611.49,217.94,611.2,219,611.2,220.21Z"/><path d="M615.74,218.34c.27-.56.68-1.15,1.49-.9l-.14.59c-1.82-.25-1.53,2.25-2,3.71h-.72l.81-4.28h.68Z"/><path d="M617.07,221.74l.83-4.28h.7l-.83,4.28Zm1-5.2.14-.67h.72l-.14.67Z"/><path d="M622.22,218.9c0-.58-.22-1-.78-1-1.22,0-1.51,1.12-1.56,2.31a.9.9,0,0,0,1,1C622,221.29,622.22,220,622.22,218.9Zm-2-.81a1.49,1.49,0,0,1,2.72,1.13c-.29,1.37-.56,2.56-2,2.61a1.28,1.28,0,0,1-1.24-.79c-.09.83-.32,1.58-.45,2.39h-.7l1.13-6h.65A2.43,2.43,0,0,1,620.22,218.09Z"/><path d="M624.36,220.52c-.2.5.11.93.7.68l-.07.52c-.81.33-1.55-.07-1.35-1.15l.5-2.59h-.5l.11-.52h.5l.43-1h.47l-.2,1h.78l-.09.52h-.78Z"/><path d="M571.42,227.63c-.9,0-1,.77-1,1.69s.14,1.67,1,1.67,1.14-.72,1.14-1.71S572.34,227.61,571.42,227.63Zm-.2-.54a1.44,1.44,0,0,1,1.35.75l0-2.25h.72l0,5.87h-.68a4.73,4.73,0,0,0-.07-.7,1.27,1.27,0,0,1-1.32.79c-1.2,0-1.56-.88-1.58-2.21C569.64,227.86,570.16,227.09,571.22,227.09Z"/><path d="M574.34,231.46v-4.28h.72v4.28Zm0-5.2v-.67h.72v.67Z"/><path d="M578.62,228.24c-.07-.76-1.94-.85-2,0,.34,1.19,2.59.27,2.68,2s-3.38,1.66-3.53.18l.63-.12c.09.81,2.18,1,2.2,0-.22-1.26-2.54-.33-2.65-2-.09-1.28,1.84-1.42,2.74-.95a1.15,1.15,0,0,1,.54.79Z"/><path d="M581,230.4c-.05.54.4.65.85.5v.54c-.74.22-1.57.11-1.57-.88V227.7h-.5v-.52h.54l.21-1H581v1h.79v.52H581v2.7Z"/><path d="M584.45,227.79c-1.76-.36-1.2,2.05-1.29,3.67h-.72l0-4.28h.68a5,5,0,0,0,0,.88c.14-.61.52-1.1,1.31-.92v.65Z"/><path d="M585.1,231.46v-4.28h.72v4.28Zm0-5.2v-.67h.72v.67Z"/><path d="M588.74,231c.9,0,1-.77,1-1.69s-.12-1.69-1-1.66-1.14.72-1.14,1.71S587.82,231,588.74,231Zm.18-3.92c1.2,0,1.56.88,1.58,2.21s-.52,2.25-1.58,2.25a1.28,1.28,0,0,1-1.32-.77l-.05.68h-.7l0-5.87h.72v2.27A1.26,1.26,0,0,1,588.92,227.09Z"/><path d="M592.73,231.55c-2,.09-1.22-2.61-1.38-4.37h.72v2.7c0,.7.16,1.13.88,1.11,1.62-.05,1-2.28,1.13-3.81h.69l0,4.28h-.68a4.29,4.29,0,0,0,0-.74A1.41,1.41,0,0,1,592.73,231.55Z"/><path d="M598.37,228.24c-.06-.76-1.93-.85-2,0,.33,1.19,2.58.27,2.67,2s-3.37,1.66-3.53.18l.63-.12c.09.81,2.18,1,2.21,0-.23-1.26-2.55-.33-2.66-2-.09-1.28,1.85-1.42,2.75-.95a1.15,1.15,0,0,1,.54.79Z"/><path d="M599.93,231.46v-4.28h.72v4.28Zm0-5.2v-.67h.72v.67Z"/><path d="M605.82,231c.9,0,1-.77,1-1.69s-.11-1.69-1-1.66-1.15.72-1.15,1.71S604.9,231,605.82,231Zm.18-3.92c1.19,0,1.55.88,1.58,2.21s-.52,2.25-1.58,2.25a1.3,1.3,0,0,1-1.33-.77l0,.68h-.7l0-5.87h.72v2.27A1.27,1.27,0,0,1,606,227.09Z"/><path d="M611.33,228.92a1.15,1.15,0,0,0-2.18-.63,1.56,1.56,0,0,0-.13.63Zm-1.17-1.83c1.42,0,1.94.95,1.89,2.39h-3c0,.9.31,1.51,1.19,1.53a1,1,0,0,0,1.1-.65l.63.18a1.69,1.69,0,0,1-1.73,1c-1.31,0-2-.83-2-2.25S608.84,227.09,610.16,227.09Z"/><path d="M615,227.79c-1.76-.36-1.19,2.05-1.28,3.67H613l0-4.28h.68a6.12,6.12,0,0,0,0,.88c.14-.61.52-1.1,1.31-.92v.65Z"/><polygon points="618.31 231.46 616.87 229.5 616.35 229.93 616.35 230.69 616.35 231.46 615.63 231.46 615.63 228.52 615.63 225.59 616.35 225.59 616.35 227.42 616.35 229.25 618.22 227.18 619.05 227.18 617.32 229.03 619.16 231.46 618.31 231.46"/><path d="M620.22,230.27a.68.68,0,0,0,.72.74,1.38,1.38,0,0,0,1.35-1.67C621.32,229.39,620.22,229.23,620.22,230.27Zm2.09.38a1.66,1.66,0,0,1-1.53.9,1.19,1.19,0,0,1-1.3-1.28c0-1.44,1.42-1.42,2.81-1.42.07-.79-.2-1.22-.92-1.22-.54,0-.92.16-1,.7l-.74-.07c.11-.83.74-1.17,1.71-1.17s1.62.45,1.62,1.44v1.85c0,.45.16.72.63.61v.45C622.94,231.64,622.27,231.39,622.31,230.65Z"/><path d="M626.68,228.24c-.07-.76-1.94-.85-2,0,.34,1.19,2.59.27,2.68,2s-3.38,1.66-3.53.18l.63-.12c.09.81,2.18,1,2.2,0-.22-1.26-2.54-.33-2.65-2-.09-1.28,1.84-1.42,2.74-.95a1.15,1.15,0,0,1,.54.79Z"/><line class="cls-2" x1="419.4" y1="225.32" x2="445.72" y2="225.32"/><rect x="418.95" y="224.82" width="0.45" height="0.9"/><polygon points="452.61 225.31 446.18 227.38 446.18 223.2 452.61 225.31"/><polygon class="cls-2" points="452.61 225.31 446.18 227.38 446.18 223.2 452.61 225.31"/></svg>