<?xml version="1.0" encoding="utf-8"?>
<!-- Generator: Adobe Illustrator 23.0.3, SVG Export Plug-In . SVG Version: 6.00 Build 0)  -->
<svg version="1.1" id="Layer_1" xmlns="http://www.w3.org/2000/svg" xmlns:xlink="http://www.w3.org/1999/xlink" x="0px" y="0px"
	 viewBox="0 0 760 360" style="enable-background:new 0 0 760 360;" xml:space="preserve">
<style type="text/css">
	.st0{fill:#FFFFFF;}
	.st1{fill:none;stroke:#000000;stroke-width:0.9;stroke-miterlimit:10;}
</style>
<rect x="157.5" y="41.7" class="st0" width="72" height="33.7"/>
<rect x="157.5" y="41.7" class="st1" width="72" height="33.7"/>
<path d="M176.7,50.4l0-4.9c-0.5,1.7-1.2,3.3-1.8,4.9h-0.5l-1.8-4.9l0,4.9h-0.7v-2.8v-2.8h1l1.7,4.7c0.5-1.7,1.1-3.1,1.7-4.7h1v2.8
	v2.8H176.7z"/>
<path d="M181.4,47.9c0.1-1.4-1.7-1.7-2.2-0.6c-0.1,0.2-0.1,0.4-0.1,0.6H181.4z M180.2,46c1.4,0,1.9,0.9,1.9,2.4h-3
	c0,0.9,0.3,1.5,1.2,1.5c0.6,0,1-0.3,1.1-0.7l0.6,0.2c-0.2,0.6-0.8,1-1.7,1c-1.3,0-2-0.8-2-2.3C178.4,46.9,178.9,46,180.2,46z"/>
<path d="M187.2,46.6c-1.5,0.1-0.9,2.4-1,3.8h-0.7V49v-1.4c0-0.7-0.1-1.1-0.8-1.1c-1.5,0.1-0.9,2.3-1,3.8h-0.7l0-4.3h0.7
	c0,0.2,0,0.5,0,0.7c0.2-1,2.2-1.1,2.4,0c0.2-0.5,0.6-0.8,1.3-0.8c1.9,0,1.1,2.7,1.2,4.4H188V49v-1.4C188,47,187.9,46.6,187.2,46.6z"
	/>
<path d="M191.6,50c0.9,0,1-0.8,1-1.7c0-0.9-0.1-1.7-1-1.7c-0.9,0-1.1,0.7-1.1,1.7C190.5,49.3,190.7,50,191.6,50z M191.8,46
	c1.2,0,1.6,0.9,1.6,2.2c0,1.5-0.5,2.3-1.6,2.3c-0.7,0-1.1-0.2-1.3-0.8l0,0.7h-0.7l0-5.9h0.7v1.1v1.1C190.7,46.3,191.1,46,191.8,46z"
	/>
<path d="M197.1,47.9c0.1-1.4-1.7-1.7-2.2-0.6c-0.1,0.2-0.1,0.4-0.1,0.6H197.1z M196,46c1.4,0,1.9,0.9,1.9,2.4h-3
	c0,0.9,0.3,1.5,1.2,1.5c0.6,0,1-0.3,1.1-0.7l0.6,0.2c-0.2,0.6-0.8,1-1.7,1c-1.3,0-2-0.8-2-2.3C194.1,46.9,194.6,46,196,46z"/>
<path d="M200.8,46.7c-1.8-0.4-1.2,2-1.3,3.7h-0.7l0-4.3h0.7c0,0.3,0,0.7,0,0.9c0.1-0.6,0.5-1.1,1.3-0.9v0.3V46.7z"/>
<path d="M201.4,50.4v-2.1v-2.1h0.7v2.1v2.1H201.4z M201.4,45.2v-0.3v-0.3h0.7v0.3v0.3H201.4z"/>
<polygon points="205.9,50.4 204.5,48.4 203.9,48.9 203.9,49.6 203.9,50.4 203.2,50.4 203.2,47.5 203.2,44.5 203.9,44.5 203.9,46.4 
	203.9,48.2 205.8,46.1 206.6,46.1 204.9,48 206.8,50.4 "/>
<path d="M207.8,49.2c0,0.4,0.3,0.7,0.7,0.7c0.9-0.1,1.4-0.7,1.4-1.7C208.9,48.3,207.8,48.2,207.8,49.2z M209.9,49.6
	c-0.3,0.5-0.7,0.9-1.5,0.9c-0.8,0-1.3-0.5-1.3-1.3c0-1.4,1.4-1.4,2.8-1.4c0.1-0.8-0.2-1.2-0.9-1.2c-0.5,0-0.9,0.2-0.9,0.7l-0.7-0.1
	c0.1-0.8,0.7-1.2,1.7-1.2c1,0,1.6,0.5,1.6,1.4v0.9v0.9c0,0.5,0.2,0.7,0.6,0.6v0.2v0.2C210.5,50.6,209.9,50.3,209.9,49.6z"/>
<path d="M213.9,46c2-0.1,1.2,2.6,1.4,4.4h-0.7V49v-1.4c0-0.7-0.2-1.1-0.9-1.1c-1.6,0-1,2.3-1.1,3.8h-0.7l0-4.3h0.7
	c0,0.2,0,0.5,0,0.7C212.7,46.4,213.1,46.1,213.9,46z"/>
<path d="M161.9,59.5c1.2,0,2.8,0.3,2.8-1c0-1.3-1.6-0.9-2.8-1v1V59.5z M161.9,56.9c1.1,0,2.5,0.2,2.5-0.9c0-1.1-1.4-0.8-2.5-0.8V56
	V56.9z M164.1,57.2c0.8,0.1,1.4,0.5,1.4,1.4c0,2-2.4,1.5-4.3,1.6v-2.8v-2.8c1.7,0.1,4-0.4,4,1.4C165.1,56.6,164.7,57,164.1,57.2z"/>
<path d="M169.3,57.6c0.1-1.4-1.7-1.7-2.2-0.6c-0.1,0.2-0.1,0.4-0.1,0.6H169.3z M168.1,55.8c1.4,0,1.9,0.9,1.9,2.4h-3
	c0,0.9,0.3,1.5,1.2,1.5c0.6,0,1-0.3,1.1-0.7l0.6,0.2c-0.2,0.6-0.8,1-1.7,1c-1.3,0-2-0.8-2-2.3C166.2,56.6,166.8,55.8,168.1,55.8z"/>
<path d="M172.9,56.5c-1.8-0.4-1.2,2-1.3,3.7h-0.7l0-4.3h0.7c0,0.3,0,0.7,0,0.9c0.1-0.6,0.5-1.1,1.3-0.9v0.3V56.5z"/>
<polygon points="176.3,60.1 174.8,58.2 174.3,58.6 174.3,59.4 174.3,60.1 173.6,60.1 173.6,57.2 173.6,54.2 174.3,54.2 174.3,56.1 
	174.3,57.9 176.2,55.8 177,55.8 175.3,57.7 177.1,60.1 "/>
<path d="M178.2,58.9c0,0.4,0.3,0.7,0.7,0.7c0.9-0.1,1.4-0.7,1.4-1.7C179.3,58.1,178.2,57.9,178.2,58.9z M180.3,59.3
	c-0.3,0.5-0.7,0.9-1.5,0.9c-0.8,0-1.3-0.5-1.3-1.3c0-1.4,1.4-1.4,2.8-1.4c0.1-0.8-0.2-1.2-0.9-1.2c-0.5,0-0.9,0.2-0.9,0.7l-0.7-0.1
	c0.1-0.8,0.7-1.2,1.7-1.2c1,0,1.6,0.5,1.6,1.4v0.9V59c0,0.5,0.2,0.7,0.6,0.6v0.2v0.2C180.9,60.3,180.2,60.1,180.3,59.3z"/>
<path d="M184.6,56.9c-0.1-0.8-1.9-0.9-2,0c0.3,1.2,2.6,0.3,2.7,2c0.1,1.8-3.4,1.7-3.5,0.2l0.6-0.1c0.1,0.8,2.2,1,2.2,0
	c-0.2-1.3-2.5-0.3-2.7-2c-0.1-1.3,1.8-1.4,2.7-0.9c0.3,0.2,0.5,0.4,0.5,0.8L184.6,56.9z"/>
<path d="M193.1,58c0,1.5-0.9,2.2-2.3,2.2c-1.4,0-2.3-0.7-2.3-2.1v-1.8v-1.8h0.7c0.2,2-0.7,5,1.5,5c2.3,0,1.4-3,1.6-5h0.7v1.7V58z"/>
<path d="M193.5,61.2c0.5,0.1,0.7-0.1,0.7-0.7v-2.4v-2.4h0.7v2.4v2.4c0,0.9-0.5,1.3-1.5,1.1v-0.3V61.2z M194.3,54.9v-0.3v-0.3h0.7
	v0.3v0.3H194.3z"/>
<path d="M196,60.1V58v-2.1h0.7V58v2.1H196z M196,54.9v-0.3v-0.3h0.7v0.3v0.3H196z"/>
<path d="M198.4,58.9c0,0.4,0.3,0.7,0.7,0.7c0.9-0.1,1.4-0.7,1.4-1.7C199.5,58.1,198.4,57.9,198.4,58.9z M200.5,59.3
	c-0.3,0.5-0.7,0.9-1.5,0.9c-0.8,0-1.3-0.5-1.3-1.3c0-1.4,1.4-1.4,2.8-1.4c0.1-0.8-0.2-1.2-0.9-1.2c-0.5,0-0.9,0.2-0.9,0.7l-0.7-0.1
	c0.1-0.8,0.7-1.2,1.7-1.2c1,0,1.6,0.5,1.6,1.4v0.9V59c0,0.5,0.2,0.7,0.6,0.6v0.2v0.2C201.1,60.3,200.4,60.1,200.5,59.3z"/>
<path d="M204.4,55.8c2-0.1,1.2,2.6,1.4,4.4H205v-1.4v-1.4c0-0.7-0.2-1.1-0.9-1.1c-1.6,0-1,2.3-1.1,3.8h-0.7l0-4.3h0.7
	c0,0.2,0,0.5,0,0.7C203.3,56.1,203.7,55.8,204.4,55.8z"/>
<path d="M210.9,59.7c0.9,0,1-0.8,1-1.7c0-0.9-0.1-1.6-1-1.7c-0.9,0-1.1,0.7-1.1,1.7C209.8,59,210,59.7,210.9,59.7z M211.1,55.8
	c1.2,0,1.6,0.9,1.6,2.2s-0.4,2.2-1.6,2.3c-0.7,0-1.1-0.3-1.4-0.8l0,2.4h-0.7l0-6h0.7l0,0.7C210,56,210.4,55.8,211.1,55.8z"/>
<path d="M214.1,58.9c0,0.4,0.3,0.7,0.7,0.7c0.9-0.1,1.4-0.7,1.4-1.7C215.2,58.1,214.1,57.9,214.1,58.9z M216.2,59.3
	c-0.3,0.5-0.7,0.9-1.5,0.9c-0.8,0-1.3-0.5-1.3-1.3c0-1.4,1.4-1.4,2.8-1.4c0.1-0.8-0.2-1.2-0.9-1.2c-0.5,0-0.9,0.2-0.9,0.7l-0.7-0.1
	c0.1-0.8,0.7-1.2,1.7-1.2c1,0,1.6,0.5,1.6,1.4v0.9V59c0,0.5,0.2,0.7,0.6,0.6v0.2v0.2C216.8,60.3,216.2,60.1,216.2,59.3z"/>
<path d="M219.6,56.3c-0.9,0-1,0.8-1,1.7c0,0.9,0.1,1.7,1,1.7c0.9,0,1.1-0.7,1.1-1.7C220.8,57,220.6,56.3,219.6,56.3z M219.4,55.8
	c0.7,0,1.1,0.3,1.4,0.7l0-2.3h0.7l0,5.9h-0.7c0-0.2,0-0.5-0.1-0.7c-0.2,0.5-0.6,0.8-1.3,0.8c-1.2,0-1.6-0.9-1.6-2.2
	C217.9,56.5,218.4,55.8,219.4,55.8z"/>
<path d="M223.1,58.9c0,0.4,0.3,0.7,0.7,0.7c0.9-0.1,1.4-0.7,1.4-1.7C224.2,58.1,223.1,57.9,223.1,58.9z M225.2,59.3
	c-0.3,0.5-0.7,0.9-1.5,0.9c-0.8,0-1.3-0.5-1.3-1.3c0-1.4,1.4-1.4,2.8-1.4c0.1-0.8-0.2-1.2-0.9-1.2c-0.5,0-0.9,0.2-0.9,0.7l-0.7-0.1
	c0.1-0.8,0.7-1.2,1.7-1.2c1,0,1.6,0.5,1.6,1.4v0.9V59c0,0.5,0.2,0.7,0.6,0.6v0.2v0.2C225.8,60.3,225.2,60.1,225.2,59.3z"/>
<polygon points="177.4,69.8 175.2,67.1 174.5,67.7 174.5,68.8 174.5,69.8 173.7,69.8 173.7,67 173.7,64.3 174.5,64.3 174.5,65.7 
	174.5,67 177.1,64.3 178,64.3 175.7,66.7 178.3,69.8 "/>
<path d="M181.9,67.3c0.1-1.4-1.7-1.7-2.2-0.6c-0.1,0.2-0.1,0.4-0.1,0.6H181.9z M180.7,65.5c1.4,0,1.9,0.9,1.9,2.4h-3
	c0,0.9,0.3,1.5,1.2,1.5c0.6,0,1-0.3,1.1-0.7l0.6,0.2c-0.2,0.6-0.8,1-1.7,1c-1.3,0-2-0.8-2-2.3C178.8,66.3,179.4,65.5,180.7,65.5z"/>
<path d="M185.3,69.4c0.9,0,1-0.8,1-1.7c0-0.9-0.1-1.6-1-1.7c-0.9,0-1.1,0.7-1.1,1.7C184.2,68.7,184.4,69.4,185.3,69.4z M185.5,65.5
	c1.2,0,1.6,0.9,1.6,2.2s-0.4,2.2-1.6,2.3c-0.7,0-1.1-0.3-1.4-0.8l0,2.4h-0.7l0-6h0.7l0,0.7C184.4,65.8,184.8,65.5,185.5,65.5z"/>
<path d="M188.5,68.6c0,0.4,0.3,0.7,0.7,0.7c0.9-0.1,1.4-0.7,1.4-1.7C189.6,67.8,188.5,67.6,188.5,68.6z M190.6,69
	c-0.3,0.5-0.7,0.9-1.5,0.9c-0.8,0-1.3-0.5-1.3-1.3c0-1.4,1.4-1.4,2.8-1.4c0.1-0.8-0.2-1.2-0.9-1.2c-0.5,0-0.9,0.2-0.9,0.7l-0.7-0.1
	c0.1-0.8,0.7-1.2,1.7-1.2c1,0,1.6,0.5,1.6,1.4v0.9v0.9c0,0.5,0.2,0.7,0.6,0.6v0.2v0.2C191.2,70,190.6,69.8,190.6,69z"/>
<polygon points="192.5,69.8 192.5,66.9 192.5,64 193.2,64 193.2,66.9 193.2,69.8 "/>
<path d="M194.8,68.6c0,0.4,0.3,0.7,0.7,0.7c0.9-0.1,1.4-0.7,1.4-1.7C195.9,67.8,194.8,67.6,194.8,68.6z M196.9,69
	c-0.3,0.5-0.7,0.9-1.5,0.9c-0.8,0-1.3-0.5-1.3-1.3c0-1.4,1.4-1.4,2.8-1.4c0.1-0.8-0.2-1.2-0.9-1.2c-0.5,0-0.9,0.2-0.9,0.7l-0.7-0.1
	c0.1-0.8,0.7-1.2,1.7-1.2c1,0,1.6,0.5,1.6,1.4v0.9v0.9c0,0.5,0.2,0.7,0.6,0.6v0.2v0.2C197.5,70,196.8,69.8,196.9,69z"/>
<polygon points="201.1,69.8 201.1,67 201.1,64.3 201.9,64.3 201.9,66.7 201.9,69.2 204.7,69.2 204.7,69.5 204.7,69.8 "/>
<path d="M206,68.6c0,0.4,0.3,0.7,0.7,0.7c0.9-0.1,1.4-0.7,1.4-1.7C207.1,67.8,206,67.6,206,68.6z M208.1,69
	c-0.3,0.5-0.7,0.9-1.5,0.9c-0.8,0-1.3-0.5-1.3-1.3c0-1.4,1.4-1.4,2.8-1.4c0.1-0.8-0.2-1.2-0.9-1.2c-0.5,0-0.9,0.2-0.9,0.7l-0.7-0.1
	c0.1-0.8,0.7-1.2,1.7-1.2c1,0,1.6,0.5,1.6,1.4v0.9v0.9c0,0.5,0.2,0.7,0.6,0.6v0.2v0.2C208.8,70,208.1,69.8,208.1,69z"/>
<path d="M211.9,69.4c0.9,0,1-0.8,1-1.7c0-0.9-0.1-1.7-1-1.7c-0.9,0-1.1,0.7-1.1,1.7C210.7,68.7,210.9,69.4,211.9,69.4z M212,65.5
	c1.2,0,1.6,0.9,1.6,2.2c0,1.5-0.5,2.3-1.6,2.3c-0.7,0-1.1-0.2-1.3-0.8l0,0.7H210l0-5.9h0.7v1.1v1.1C210.9,65.7,211.4,65.5,212,65.5z
	"/>
<rect x="49.5" y="18" class="st0" width="18" height="81"/>
<rect x="49.5" y="18" class="st1" width="18" height="81"/>
<rect x="49.5" y="99" class="st0" width="18" height="81"/>
<rect x="49.5" y="99" class="st1" width="18" height="81"/>
<rect x="49.5" y="180" class="st0" width="18" height="81"/>
<rect x="49.5" y="180" class="st1" width="18" height="81"/>
<rect x="49.5" y="261" class="st0" width="18" height="81"/>
<rect x="49.5" y="261" class="st1" width="18" height="81"/>
<rect x="67.5" y="18" class="st1" width="675" height="81"/>
<rect x="67.5" y="99" class="st1" width="675" height="81"/>
<rect x="67.5" y="180" class="st1" width="675" height="81"/>
<rect x="67.5" y="261" class="st1" width="675" height="81"/>
<path d="M59.5,90.8c0.2-2-0.4-3.3-2.2-3.3s-2.3,1.4-2.1,3.3h2.2H59.5z M54.5,91.5c-0.2-2.7,0.2-4.9,2.7-4.8c1.8,0.1,2.8,1,2.8,2.7
	v2.1h-2.8H54.5z"/>
<path d="M59.7,84.1c0-1-0.7-1.2-1.7-1.2c-1,0-1.7,0.2-1.7,1.1s0.7,1.2,1.7,1.2C58.9,85.3,59.6,85.1,59.7,84.1z M55.8,84.1
	c0-1.4,0.8-1.9,2.2-1.9c1.4,0,2.2,0.6,2.2,1.9c0,1.3-0.9,1.9-2.2,1.9C56.5,86,55.8,85.4,55.8,84.1z"/>
<path d="M56.9,78.8c-0.8,0.1-0.9,1.9,0,2c1.2-0.3,0.3-2.6,2-2.7c1.8-0.1,1.7,3.4,0.2,3.5L59,81c0.8-0.1,1-2.2,0-2.2
	c-1.3,0.2-0.3,2.5-2,2.7c-1.3,0.1-1.4-1.8-0.9-2.7c0.2-0.3,0.4-0.5,0.8-0.5L56.9,78.8z"/>
<path d="M57.6,74.4c-1.3-0.1-1.7,1.7-0.6,2.2c0.2,0.1,0.4,0.1,0.6,0.1V74.4z M55.8,75.6c0-1.4,0.9-1.9,2.4-1.9v3
	c0.9,0,1.5-0.3,1.5-1.2c0-0.6-0.3-1-0.7-1.1l0.2-0.6c0.6,0.2,1,0.8,1,1.7c0,1.3-0.8,2-2.3,2C56.6,77.5,55.8,76.9,55.8,75.6z"/>
<path d="M55.8,70.7c-0.1-2,2.6-1.2,4.4-1.4v0.7h-1.4h-1.4c-0.7,0-1.1,0.2-1.1,0.9c0,1.6,2.3,1,3.8,1.1v0.7l-4.3,0v-0.7
	c0.2,0,0.5,0,0.7,0C56.1,71.8,55.8,71.4,55.8,70.7z"/>
<polygon points="60.1,62.2 57.4,64.4 58,65.2 59.1,65.2 60.1,65.2 60.1,65.9 57.3,65.9 54.5,65.9 54.5,65.2 55.9,65.2 57.3,65.2 
	54.5,62.5 54.5,61.6 57,63.9 60.1,61.3 "/>
<path d="M59.7,59c0-1-0.7-1.2-1.7-1.2c-1,0-1.7,0.2-1.7,1.1s0.7,1.2,1.7,1.2C58.9,60.1,59.6,59.9,59.7,59z M55.8,58.9
	c0-1.4,0.8-1.9,2.2-1.9c1.4,0,2.2,0.6,2.2,1.9c0,1.3-0.9,1.9-2.2,1.9C56.5,60.8,55.8,60.2,55.8,58.9z"/>
<path d="M59.7,54.5c0-1-0.7-1.2-1.7-1.2c-1,0-1.7,0.2-1.7,1.1s0.7,1.2,1.7,1.2C58.9,55.6,59.6,55.4,59.7,54.5z M55.8,54.4
	c0-1.4,0.8-1.9,2.2-1.9c1.4,0,2.2,0.6,2.2,1.9c0,1.3-0.9,1.9-2.2,1.9C56.5,56.3,55.8,55.7,55.8,54.4z"/>
<path d="M56.5,49.6c-0.4,1.8,2,1.2,3.7,1.3v0.7l-4.3,0V51c0.3,0,0.7,0,0.9,0c-0.6-0.1-1.1-0.5-0.9-1.3h0.3H56.5z"/>
<path d="M56.3,47.4c0,0.9,0.8,1,1.7,1c0.9,0,1.7-0.1,1.7-1c0-0.9-0.7-1.1-1.7-1.1C57,46.3,56.3,46.5,56.3,47.4z M55.8,47.6
	c0-0.7,0.3-1.1,0.7-1.4l-2.3,0v-0.7l5.9,0v0.7c-0.2,0-0.5,0-0.7,0.1c0.5,0.2,0.8,0.6,0.8,1.3c0,1.2-0.9,1.6-2.2,1.6
	C56.5,49.2,55.8,48.6,55.8,47.6z"/>
<path d="M60.1,44.5H58h-2.1v-0.7H58h2.1V44.5z M54.9,44.5h-0.3h-0.3v-0.7h0.3h0.3V44.5z"/>
<path d="M55.8,40.6c-0.1-2,2.6-1.2,4.4-1.4V40h-1.4h-1.4c-0.7,0-1.1,0.2-1.1,0.9c0,1.6,2.3,1,3.8,1.1v0.7l-4.3,0V42
	c0.2,0,0.5,0,0.7,0C56.1,41.7,55.8,41.3,55.8,40.6z"/>
<path d="M58.9,37.6c0.5,0,0.7-0.3,0.7-0.7C59.6,36,59,35.5,58,35.6C58,36.5,57.9,37.6,58.9,37.6z M59.3,35.6
	c0.5,0.3,0.9,0.7,0.9,1.5c0,0.8-0.5,1.3-1.3,1.3c-1.4,0-1.4-1.4-1.4-2.8c-0.8-0.1-1.2,0.2-1.2,0.9c0,0.5,0.2,0.9,0.7,0.9l-0.1,0.7
	c-0.8-0.1-1.2-0.7-1.2-1.7c0-1,0.5-1.6,1.4-1.6h0.9H59c0.5,0,0.7-0.2,0.6-0.6h0.2h0.2C60.3,34.9,60.1,35.6,59.3,35.6z"/>
<path d="M59.1,32.9c0.5,0,0.7-0.4,0.5-0.9h0.3h0.3c0.2,0.7,0.1,1.6-0.9,1.6h-1.4h-1.4v0.5h-0.3h-0.3v-0.5l-1-0.2v-0.5h0.5h0.5v-0.8
	h0.3h0.3v0.8h1.4H59.1z"/>
<path d="M59.7,29.7c0-1-0.7-1.2-1.7-1.2c-1,0-1.7,0.2-1.7,1.1s0.7,1.2,1.7,1.2C58.9,30.9,59.6,30.7,59.7,29.7z M55.8,29.7
	c0-1.4,0.8-1.9,2.2-1.9c1.4,0,2.2,0.6,2.2,1.9c0,1.3-0.9,1.9-2.2,1.9C56.5,31.6,55.8,31,55.8,29.7z"/>
<path d="M56.5,24.9c-0.4,1.8,2,1.2,3.7,1.3v0.7l-4.3,0v-0.7c0.3,0,0.7,0,0.9,0c-0.6-0.1-1.1-0.5-0.9-1.3h0.3H56.5z"/>
<polygon points="60.1,155.6 57.4,157.8 58,158.5 59.1,158.5 60.1,158.5 60.1,159.3 57.3,159.3 54.5,159.3 54.5,158.5 55.9,158.5 
	57.3,158.5 54.5,155.9 54.5,155 57,157.3 60.1,154.7 "/>
<path d="M57.6,151.1c-1.3-0.1-1.7,1.7-0.6,2.2c0.2,0.1,0.4,0.1,0.6,0.1V151.1z M55.8,152.3c0-1.4,0.9-1.9,2.4-1.9v3
	c0.9,0,1.5-0.3,1.5-1.2c0-0.6-0.3-1-0.7-1.1l0.2-0.6c0.6,0.2,1,0.8,1,1.7c0,1.3-0.8,2-2.3,2C56.6,154.2,55.8,153.6,55.8,152.3z"/>
<path d="M59.7,147.7c0-0.9-0.8-1-1.7-1s-1.6,0.1-1.7,1c0,0.9,0.7,1.1,1.7,1.1C59,148.8,59.7,148.6,59.7,147.7z M55.8,147.5
	c0-1.2,0.9-1.6,2.2-1.6c1.3,0,2.2,0.4,2.3,1.6c0,0.7-0.3,1.1-0.8,1.4l2.4,0v0.7l-6,0v-0.7l0.7,0C56,148.6,55.8,148.2,55.8,147.5z"/>
<path d="M58.9,144.5c0.5,0,0.7-0.3,0.7-0.7c-0.1-0.9-0.7-1.4-1.7-1.4C58,143.4,57.9,144.5,58.9,144.5z M59.3,142.4
	c0.5,0.3,0.9,0.7,0.9,1.5c0,0.8-0.5,1.3-1.3,1.3c-1.4,0-1.4-1.4-1.4-2.8c-0.8-0.1-1.2,0.2-1.2,0.9c0,0.5,0.2,0.9,0.7,0.9l-0.1,0.7
	c-0.8-0.1-1.2-0.7-1.2-1.7c0-1,0.5-1.6,1.4-1.6h0.9H59c0.5,0,0.7-0.2,0.6-0.6h0.2h0.2C60.3,141.8,60.1,142.4,59.3,142.4z"/>
<polygon points="60.1,140.5 57.2,140.5 54.2,140.5 54.2,139.8 57.2,139.8 60.1,139.8 "/>
<path d="M58.9,138.2c0.5,0,0.7-0.3,0.7-0.7c-0.1-0.9-0.7-1.4-1.7-1.4C58,137.1,57.9,138.2,58.9,138.2z M59.3,136.1
	c0.5,0.3,0.9,0.7,0.9,1.5c0,0.8-0.5,1.3-1.3,1.3c-1.4,0-1.4-1.4-1.4-2.8c-0.8-0.1-1.2,0.2-1.2,0.9c0,0.5,0.2,0.9,0.7,0.9l-0.1,0.7
	c-0.8-0.1-1.2-0.7-1.2-1.7c0-1,0.5-1.6,1.4-1.6h0.9H59c0.5,0,0.7-0.2,0.6-0.6h0.2h0.2C60.3,135.5,60.1,136.2,59.3,136.1z"/>
<polygon points="60.1,131.9 57.3,131.9 54.5,131.9 54.5,131.2 57,131.2 59.5,131.2 59.5,128.3 59.8,128.3 60.1,128.3 "/>
<path d="M58.9,127c0.5,0,0.7-0.3,0.7-0.7c-0.1-0.9-0.7-1.4-1.7-1.4C58,125.9,57.9,127,58.9,127z M59.3,124.9
	c0.5,0.3,0.9,0.7,0.9,1.5c0,0.8-0.5,1.3-1.3,1.3c-1.4,0-1.4-1.4-1.4-2.8c-0.8-0.1-1.2,0.2-1.2,0.9c0,0.5,0.2,0.9,0.7,0.9l-0.1,0.7
	c-0.8-0.1-1.2-0.7-1.2-1.7c0-1,0.5-1.6,1.4-1.6h0.9H59c0.5,0,0.7-0.2,0.6-0.6h0.2h0.2C60.3,124.3,60.1,124.9,59.3,124.9z"/>
<path d="M59.7,121.2c0-0.9-0.8-1-1.7-1c-0.9,0-1.7,0.1-1.7,1c0,0.9,0.7,1.1,1.7,1.1C59,122.3,59.7,122.1,59.7,121.2z M55.8,121
	c0-1.2,0.9-1.6,2.2-1.6c1.5,0,2.3,0.5,2.3,1.6c0,0.7-0.2,1.1-0.8,1.3l0.7,0v0.7l-5.9,0v-0.7h1.1h1.1C56,122.1,55.8,121.7,55.8,121z"
	/>
<path d="M57.9,228.2l-2.8,1.1c1,0.3,1.8,0.7,2.8,1V228.2z M60.1,227.3l-1.6,0.6v2.5l1.6,0.6v0.8l-5.6-2.3v-0.9l5.6-2.2V227.3z"/>
<path d="M56.3,224.4c0,0.9,0.8,1,1.7,1c0.9,0,1.7-0.1,1.7-1c0-0.9-0.7-1.1-1.7-1.1C57,223.3,56.3,223.5,56.3,224.4z M55.8,224.6
	c0-0.7,0.3-1.1,0.7-1.4l-2.3,0v-0.7l5.9,0v0.7c-0.2,0-0.5,0-0.7,0.1c0.5,0.2,0.8,0.6,0.8,1.3c0,1.2-0.9,1.6-2.2,1.6
	C56.5,226.2,55.8,225.7,55.8,224.6z"/>
<path d="M56.3,217.3c0.1,1.5,2.4,0.9,3.8,1v0.7h-1.4h-1.4c-0.7,0-1.1,0.1-1.1,0.8c0.1,1.5,2.3,0.9,3.8,1v0.7l-4.3,0v-0.7
	c0.2,0,0.5,0,0.7,0c-1-0.2-1.1-2.2,0-2.4c-0.5-0.2-0.8-0.6-0.8-1.3c0-1.9,2.7-1.1,4.4-1.2v0.7h-1.4h-1.4
	C56.7,216.5,56.3,216.7,56.3,217.3z"/>
<path d="M60.1,214.8H58h-2.1v-0.7H58h2.1V214.8z M54.9,214.8h-0.3h-0.3v-0.7h0.3h0.3V214.8z"/>
<path d="M55.8,210.9c-0.1-2,2.6-1.2,4.4-1.4v0.7h-1.4h-1.4c-0.7,0-1.1,0.2-1.1,0.9c0,1.6,2.3,1,3.8,1.1v0.7l-4.3,0v-0.7
	c0.2,0,0.5,0,0.7,0C56.1,212,55.8,211.6,55.8,210.9z"/>
<path d="M55.9,309.7c-1.1,0.1-1.2,2.8,0,2.8c1.7-0.3,0.3-3.6,2.7-3.7c1.8-0.1,2,2.7,1.2,3.9c-0.2,0.4-0.6,0.6-1,0.7l-0.2-0.7
	c1.3-0.1,1.4-3.2,0-3.2c-1.8,0-0.3,3.5-2.7,3.6c-1.8,0.1-1.9-3.3-0.8-4c0.2-0.1,0.4-0.2,0.6-0.2L55.9,309.7z"/>
<path d="M60.1,307.9H58h-2.1v-0.7H58h2.1V307.9z M54.9,307.9h-0.3h-0.3v-0.7h0.3h0.3V307.9z"/>
<path d="M56.9,303.6c-0.8,0.1-0.9,1.9,0,2c1.2-0.3,0.3-2.6,2-2.7c1.8-0.1,1.7,3.4,0.2,3.5l-0.1-0.6c0.8-0.1,1-2.2,0-2.2
	c-1.3,0.2-0.3,2.5-2,2.7c-1.3,0.1-1.4-1.8-0.9-2.7c0.2-0.3,0.4-0.5,0.8-0.5L56.9,303.6z"/>
<path d="M59.1,301.3c0.5,0,0.7-0.4,0.5-0.9h0.3h0.3c0.2,0.7,0.1,1.6-0.9,1.6h-1.4h-1.4v0.5h-0.3h-0.3V302l-1-0.2v-0.5h0.5h0.5v-0.8
	h0.3h0.3v0.8h1.4H59.1z"/>
<path d="M57.6,297c-1.3-0.1-1.7,1.7-0.6,2.2c0.2,0.1,0.4,0.1,0.6,0.1V297z M55.8,298.1c0-1.4,0.9-1.9,2.4-1.9v3
	c0.9,0,1.5-0.3,1.5-1.2c0-0.6-0.3-1-0.7-1.1l0.2-0.6c0.6,0.2,1,0.8,1,1.7c0,1.3-0.8,2-2.3,2C56.6,300,55.8,299.5,55.8,298.1z"/>
<path d="M56.3,291.1c0.1,1.5,2.4,0.9,3.8,1v0.7h-1.4h-1.4c-0.7,0-1.1,0.1-1.1,0.8c0.1,1.5,2.3,0.9,3.8,1v0.7l-4.3,0v-0.7
	c0.2,0,0.5,0,0.7,0c-1-0.2-1.1-2.2,0-2.4c-0.5-0.2-0.8-0.6-0.8-1.3c0-1.9,2.7-1.1,4.4-1.2v0.7h-1.4h-1.4
	C56.7,290.4,56.3,290.5,56.3,291.1z"/>
<polyline class="st1" points="230.4,58.5 337.5,58.5 337.5,117.2 "/>
<rect x="229.9" y="58.1" width="0.5" height="0.9"/>
<polygon points="337.5,124.1 335.4,117.7 339.6,117.7 "/>
<polygon class="st1" points="337.5,124.1 335.4,117.7 339.6,117.7 "/>
<rect x="301.5" y="126" class="st0" width="72" height="27"/>
<rect x="301.5" y="126" class="st1" width="72" height="27"/>
<path d="M312.2,135.5c2,0.2,3.3-0.4,3.3-2.2c0-1.9-1.4-2.3-3.3-2.1v2.2V135.5z M311.5,130.6c2.7-0.2,4.9,0.2,4.8,2.7
	c-0.1,1.8-1,2.8-2.7,2.8h-2.1v-2.8V130.6z"/>
<path d="M317.1,136.1V134v-2.1h0.7v2.1v2.1H317.1z M317.1,130.9v-0.3v-0.3h0.7v0.3v0.3H317.1z"/>
<path d="M321.4,132.9c-0.1-0.8-1.9-0.9-2,0c0.3,1.2,2.6,0.3,2.7,2c0.1,1.8-3.4,1.7-3.5,0.2l0.6-0.1c0.1,0.8,2.2,1,2.2,0
	c-0.2-1.3-2.5-0.3-2.7-2c-0.1-1.3,1.8-1.4,2.7-0.9c0.3,0.2,0.5,0.4,0.5,0.8L321.4,132.9z"/>
<path d="M323.8,135.1c0,0.5,0.4,0.7,0.9,0.5v0.3v0.3c-0.7,0.2-1.6,0.1-1.6-0.9v-1.4v-1.4h-0.5v-0.3v-0.3h0.5l0.2-1h0.5v0.5v0.5h0.8
	v0.3v0.3h-0.8v1.4V135.1z"/>
<path d="M327.2,132.5c-1.8-0.4-1.2,2-1.3,3.7h-0.7l0-4.3h0.7c0,0.3,0,0.7,0,0.9c0.1-0.6,0.5-1.1,1.3-0.9v0.3V132.5z"/>
<path d="M327.9,136.1V134v-2.1h0.7v2.1v2.1H327.9z M327.9,130.9v-0.3v-0.3h0.7v0.3v0.3H327.9z"/>
<path d="M331.5,135.7c0.9,0,1-0.8,1-1.7c0-0.9-0.1-1.7-1-1.7c-0.9,0-1.1,0.7-1.1,1.7C330.4,135,330.6,135.7,331.5,135.7z
	 M331.7,131.8c1.2,0,1.6,0.9,1.6,2.2c0,1.5-0.5,2.3-1.6,2.3c-0.7,0-1.1-0.2-1.3-0.8l0,0.7h-0.7l0-5.9h0.7v1.1v1.1
	C330.6,132,331,131.8,331.7,131.8z"/>
<path d="M335.5,136.2c-2,0.1-1.2-2.6-1.4-4.4h0.7v1.4v1.3c0,0.7,0.2,1.1,0.9,1.1c1.6,0,1-2.3,1.1-3.8h0.7l0,4.3h-0.7
	c0-0.2,0-0.6,0-0.7C336.6,135.9,336.2,136.2,335.5,136.2z"/>
<path d="M341.2,132.9c-0.1-0.8-1.9-0.9-2,0c0.3,1.2,2.6,0.3,2.7,2c0.1,1.8-3.4,1.7-3.5,0.2l0.6-0.1c0.1,0.8,2.2,1,2.2,0
	c-0.2-1.3-2.5-0.3-2.7-2c-0.1-1.3,1.8-1.4,2.7-0.9c0.3,0.2,0.5,0.4,0.5,0.8L341.2,132.9z"/>
<path d="M342.7,136.1V134v-2.1h0.7v2.1v2.1H342.7z M342.7,130.9v-0.3v-0.3h0.7v0.3v0.3H342.7z"/>
<path d="M348.6,135.7c0.9,0,1-0.8,1-1.7s-0.1-1.6-1-1.7c-0.9,0-1.1,0.7-1.1,1.7C347.5,135,347.7,135.7,348.6,135.7z M348.8,131.8
	c1.2,0,1.6,0.9,1.6,2.2s-0.4,2.2-1.6,2.3c-0.7,0-1.1-0.3-1.4-0.8l0,2.4h-0.7l0-6h0.7l0,0.7C347.7,132.1,348.1,131.8,348.8,131.8z"/>
<path d="M351.8,134.9c0,0.4,0.3,0.7,0.7,0.7c0.9-0.1,1.4-0.7,1.4-1.7C352.9,134.1,351.8,133.9,351.8,134.9z M353.9,135.3
	c-0.3,0.5-0.7,0.9-1.5,0.9c-0.8,0-1.3-0.5-1.3-1.3c0-1.4,1.4-1.4,2.8-1.4c0.1-0.8-0.2-1.2-0.9-1.2c-0.5,0-0.9,0.2-0.9,0.7l-0.7-0.1
	c0.1-0.8,0.7-1.2,1.7-1.2c1,0,1.6,0.4,1.6,1.4v0.9v0.9c0,0.4,0.2,0.7,0.6,0.6v0.2v0.2C354.5,136.3,353.8,136.1,353.9,135.3z"/>
<path d="M357.3,132.3c-0.9,0-1,0.8-1,1.7c0,0.9,0.1,1.7,1,1.7c0.9,0,1.1-0.7,1.1-1.7C358.5,133,358.3,132.3,357.3,132.3z
	 M357.1,131.8c0.7,0,1.1,0.3,1.4,0.7l0-2.3h0.7l0,5.9h-0.7c0-0.2,0-0.5-0.1-0.7c-0.2,0.5-0.6,0.8-1.3,0.8c-1.2,0-1.6-0.9-1.6-2.2
	C355.6,132.5,356.1,131.8,357.1,131.8z"/>
<path d="M360.8,134.9c0,0.4,0.3,0.7,0.7,0.7c0.9-0.1,1.4-0.7,1.4-1.7C361.9,134.1,360.8,133.9,360.8,134.9z M362.9,135.3
	c-0.3,0.5-0.7,0.9-1.5,0.9c-0.8,0-1.3-0.5-1.3-1.3c0-1.4,1.4-1.4,2.8-1.4c0.1-0.8-0.2-1.2-0.9-1.2c-0.5,0-0.9,0.2-0.9,0.7l-0.7-0.1
	c0.1-0.8,0.7-1.2,1.7-1.2c1,0,1.6,0.4,1.6,1.4v0.9v0.9c0,0.4,0.2,0.7,0.6,0.6v0.2v0.2C363.5,136.3,362.8,136.1,362.9,135.3z"/>
<path d="M312.9,143.6l-1.1-2.8c-0.3,1-0.7,1.8-1,2.8H312.9z M313.8,145.9l-0.6-1.6h-2.5l-0.6,1.6h-0.8l2.3-5.6h0.9l2.2,5.6H313.8z"
	/>
<path d="M316.7,142c-0.9,0-1,0.8-1,1.7c0,0.9,0.1,1.7,1,1.7c0.9,0,1.1-0.7,1.1-1.7C317.8,142.7,317.6,142,316.7,142z M316.5,141.5
	c0.7,0,1.1,0.3,1.4,0.7l0-2.3h0.7l0,5.9h-0.7c0-0.2,0-0.5-0.1-0.7c-0.2,0.5-0.6,0.8-1.3,0.8c-1.2,0-1.6-0.9-1.6-2.2
	C314.9,142.3,315.4,141.5,316.5,141.5z"/>
<path d="M323.8,142.1c-1.5,0.1-0.9,2.4-1,3.8h-0.7v-1.4v-1.4c0-0.7-0.1-1.1-0.8-1.1c-1.5,0.1-0.9,2.3-1,3.8h-0.7l0-4.3h0.7
	c0,0.2,0,0.5,0,0.7c0.2-1,2.2-1.1,2.4,0c0.2-0.5,0.6-0.8,1.3-0.8c1.9,0,1.1,2.7,1.2,4.4h-0.7v-1.4v-1.4
	C324.6,142.5,324.5,142,323.8,142.1z"/>
<path d="M326.3,145.9v-2.1v-2.1h0.7v2.1v2.1H326.3z M326.3,140.7v-0.3V140h0.7v0.3v0.3H326.3z"/>
<path d="M330.2,141.5c2-0.1,1.2,2.6,1.4,4.4h-0.7v-1.4v-1.4c0-0.7-0.2-1.1-0.9-1.1c-1.6,0-1,2.3-1.1,3.8h-0.7l0-4.3h0.7
	c0,0.2,0,0.5,0,0.7C329.1,141.8,329.5,141.5,330.2,141.5z"/>
<path d="M336.7,145.4c0.9,0,1-0.8,1-1.7c0-0.9-0.1-1.7-1-1.7c-0.9,0-1.1,0.7-1.1,1.7C335.6,144.7,335.8,145.4,336.7,145.4z
	 M336.9,141.5c1.2,0,1.6,0.9,1.6,2.2c0,1.5-0.5,2.3-1.6,2.3c-0.7,0-1.1-0.2-1.3-0.8l0,0.7h-0.7l0-5.9h0.7v1.1v1.1
	C335.8,141.7,336.2,141.5,336.9,141.5z"/>
<path d="M342.3,143.3c0.1-1.3-1.7-1.7-2.2-0.6c-0.1,0.2-0.1,0.4-0.1,0.6H342.3z M341.1,141.5c1.4,0,1.9,0.9,1.9,2.4h-3
	c0,0.9,0.3,1.5,1.2,1.5c0.6,0,1-0.3,1.1-0.7l0.6,0.2c-0.2,0.6-0.8,1-1.7,1c-1.3,0-2-0.8-2-2.3C339.2,142.3,339.8,141.5,341.1,141.5z
	"/>
<path d="M345.9,142.2c-1.8-0.4-1.2,2-1.3,3.7h-0.7l0-4.3h0.7c0,0.3,0,0.7,0,0.9c0.1-0.6,0.5-1.1,1.3-0.9v0.3V142.2z"/>
<path d="M347.3,144.8c0,0.5,0.4,0.7,0.9,0.5v0.3v0.3c-0.7,0.2-1.6,0.1-1.6-0.9v-1.4v-1.4h-0.5v-0.3v-0.3h0.5l0.2-1h0.5v0.5v0.5h0.8
	v0.3v0.3h-0.8v1.4V144.8z"/>
<path d="M350.2,145.9c-2,0.1-1.2-2.6-1.4-4.4h0.7v1.4v1.3c0,0.7,0.2,1.1,0.9,1.1c1.6,0,1-2.3,1.1-3.8h0.7l0,4.3h-0.7
	c0-0.2,0-0.6,0-0.7C351.3,145.6,350.9,145.9,350.2,145.9z"/>
<path d="M354.9,145.4c0.8,0,1.1-0.7,1.1-1.6c0-0.9-0.3-1.7-1.1-1.7c-0.9,0-1,0.8-1,1.7S354,145.4,354.9,145.4z M356.7,141.6
	c-0.2,2.8,0.9,6.6-2.5,5.9c-0.5-0.1-0.9-0.4-1-1l0.7-0.1c0.3,1.1,2.3,0.7,2-0.6v-0.3v-0.3c-0.2,0.5-0.7,0.8-1.4,0.8
	c-1.2,0-1.5-0.9-1.5-2.2c0-1.3,0.4-2.2,1.6-2.2c0.7,0,1.1,0.4,1.3,0.8c0-0.2,0-0.5,0-0.7H356.7z"/>
<path d="M358.3,144.7c0,0.4,0.3,0.7,0.7,0.7c0.9-0.1,1.4-0.7,1.4-1.7C359.4,143.8,358.3,143.6,358.3,144.7z M360.4,145
	c-0.3,0.5-0.7,0.9-1.5,0.9c-0.8,0-1.3-0.5-1.3-1.3c0-1.4,1.4-1.4,2.8-1.4c0.1-0.8-0.2-1.2-0.9-1.2c-0.5,0-0.9,0.2-0.9,0.7l-0.7-0.1
	c0.1-0.8,0.7-1.2,1.7-1.2c1,0,1.6,0.4,1.6,1.4v0.9v0.9c0,0.4,0.2,0.7,0.6,0.6v0.2v0.2C361.1,146,360.4,145.8,360.4,145z"/>
<path d="M364.8,142.6c-0.1-0.8-1.9-0.9-2,0c0.3,1.2,2.6,0.3,2.7,2c0.1,1.8-3.4,1.7-3.5,0.2l0.6-0.1c0.1,0.8,2.2,1,2.2,0
	c-0.2-1.3-2.5-0.3-2.7-2c-0.1-1.3,1.8-1.4,2.7-0.9c0.3,0.2,0.5,0.4,0.5,0.8L364.8,142.6z"/>
<rect x="220.5" y="207" class="st0" width="72" height="27"/>
<rect x="220.5" y="207" class="st1" width="72" height="27"/>
<path d="M237,217.1l0-4.9c-0.5,1.7-1.2,3.3-1.8,4.9h-0.5l-1.8-4.9l0,4.9h-0.7v-2.8v-2.8h1l1.7,4.7c0.5-1.7,1.1-3.2,1.7-4.7h1v2.8
	v2.8H237z"/>
<path d="M241.7,214.6c0.1-1.3-1.7-1.7-2.2-0.6c-0.1,0.2-0.1,0.4-0.1,0.6H241.7z M240.5,212.8c1.4,0,1.9,0.9,1.9,2.4h-3
	c0,0.9,0.3,1.5,1.2,1.5c0.6,0,1-0.3,1.1-0.7l0.6,0.2c-0.2,0.6-0.8,1-1.7,1c-1.3,0-2-0.8-2-2.3C238.6,213.6,239.2,212.8,240.5,212.8z
	"/>
<path d="M247.5,213.3c-1.5,0.1-0.9,2.4-1,3.8h-0.7v-1.4v-1.4c0-0.7-0.1-1.1-0.8-1.1c-1.5,0.1-0.9,2.3-1,3.8h-0.7l0-4.3h0.7
	c0,0.2,0,0.5,0,0.7c0.2-1,2.2-1.1,2.4,0c0.2-0.5,0.6-0.8,1.3-0.8c1.9,0,1.1,2.7,1.2,4.4h-0.7v-1.4v-1.4
	C248.3,213.8,248.2,213.3,247.5,213.3z"/>
<path d="M251.9,216.7c0.9,0,1-0.8,1-1.7c0-0.9-0.1-1.7-1-1.7c-0.9,0-1.1,0.7-1.1,1.7C250.8,216,251,216.7,251.9,216.7z M252.1,212.8
	c1.2,0,1.6,0.9,1.6,2.2c0,1.5-0.5,2.3-1.6,2.3c-0.7,0-1.1-0.2-1.3-0.8l0,0.7H250l0-5.9h0.7v1.1v1.1C251,213,251.4,212.8,252.1,212.8
	z"/>
<path d="M255.9,217.2c-2,0.1-1.2-2.6-1.4-4.4h0.7v1.4v1.3c0,0.7,0.2,1.1,0.9,1.1c1.6,0,1-2.3,1.1-3.8h0.7l0,4.3h-0.7
	c0-0.2,0-0.6,0-0.7C257,216.9,256.6,217.2,255.9,217.2z"/>
<path d="M259.6,215.9c0,0.4,0.3,0.7,0.7,0.7c0.9-0.1,1.4-0.7,1.4-1.7C260.7,215.1,259.6,214.9,259.6,215.9z M261.7,216.3
	c-0.3,0.5-0.7,0.9-1.5,0.9c-0.8,0-1.3-0.5-1.3-1.3c0-1.4,1.4-1.4,2.8-1.4c0.1-0.8-0.2-1.2-0.9-1.2c-0.5,0-0.9,0.2-0.9,0.7l-0.7-0.1
	c0.1-0.8,0.7-1.2,1.7-1.2c1,0,1.6,0.4,1.6,1.4v0.9v0.9c0,0.4,0.2,0.7,0.6,0.6v0.2v0.2C262.3,217.3,261.6,217.1,261.7,216.3z"/>
<path d="M264.3,216.1c0,0.5,0.4,0.7,0.9,0.5v0.3v0.3c-0.7,0.2-1.6,0.1-1.6-0.9v-1.4v-1.4h-0.5v-0.3v-0.3h0.5l0.2-1h0.5v0.5v0.5h0.8
	v0.3v0.3h-0.8v1.4V216.1z"/>
<path d="M271.7,212.9c-0.1-1.1-2.8-1.2-2.8,0c0.3,1.7,3.6,0.3,3.7,2.7c0.1,1.8-2.7,2-3.9,1.2c-0.4-0.2-0.6-0.6-0.7-1l0.7-0.2
	c0.1,1.3,3.2,1.4,3.2,0c0-1.8-3.5-0.3-3.6-2.7c-0.1-1.8,3.3-1.9,4-0.8c0.1,0.2,0.2,0.4,0.2,0.6L271.7,212.9z"/>
<polygon points="273.5,217.1 273.5,214.2 273.5,211.3 274.2,211.3 274.2,214.2 274.2,217.1 "/>
<path d="M276.9,216.7c1,0,1.2-0.7,1.2-1.7c0-1-0.2-1.7-1.1-1.7s-1.2,0.7-1.2,1.7S276,216.7,276.9,216.7z M276.9,212.8
	c1.4,0,1.9,0.8,1.9,2.2c0,1.4-0.6,2.2-1.9,2.2c-1.3,0-1.9-0.9-1.9-2.2C275,213.5,275.7,212.8,276.9,212.8z"/>
<path d="M280.5,216.1c0,0.5,0.4,0.7,0.9,0.5v0.3v0.3c-0.7,0.2-1.6,0.1-1.6-0.9v-1.4v-1.4h-0.5v-0.3v-0.3h0.5l0.2-1h0.5v0.5v0.5h0.8
	v0.3v0.3h-0.8v1.4V216.1z"/>
<path d="M252.5,224.8c0,1.5-0.9,2.2-2.3,2.2c-1.4,0-2.3-0.7-2.3-2.1v-1.8v-1.8h0.7c0.2,2-0.7,5,1.5,5c2.3,0,1.4-3,1.6-5h0.7v1.7
	V224.8z"/>
<path d="M252.9,228c0.5,0.1,0.7-0.1,0.7-0.7v-2.4v-2.4h0.7v2.4v2.4c0,0.9-0.5,1.3-1.5,1.1v-0.3V228z M253.7,221.7v-0.3V221h0.7v0.3
	v0.3H253.7z"/>
<path d="M255.5,226.9v-2.1v-2.1h0.7v2.1v2.1H255.5z M255.5,221.7v-0.3V221h0.7v0.3v0.3H255.5z"/>
<path d="M257.8,225.7c0,0.4,0.3,0.7,0.7,0.7c0.9-0.1,1.4-0.7,1.4-1.7C258.9,224.8,257.8,224.6,257.8,225.7z M259.9,226
	c-0.3,0.5-0.7,0.9-1.5,0.9c-0.8,0-1.3-0.5-1.3-1.3c0-1.4,1.4-1.4,2.8-1.4c0.1-0.8-0.2-1.2-0.9-1.2c-0.5,0-0.9,0.2-0.9,0.7l-0.7-0.1
	c0.1-0.8,0.7-1.2,1.7-1.2c1,0,1.6,0.4,1.6,1.4v0.9v0.9c0,0.4,0.2,0.7,0.6,0.6v0.2v0.2C260.5,227,259.8,226.8,259.9,226z"/>
<path d="M263.8,222.5c2-0.1,1.2,2.6,1.4,4.4h-0.7v-1.4v-1.4c0-0.7-0.2-1.1-0.9-1.1c-1.6,0-1,2.3-1.1,3.8h-0.7l0-4.3h0.7
	c0,0.2,0,0.5,0,0.7C262.7,222.8,263.1,222.5,263.8,222.5z"/>
<rect x="157.5" y="126" class="st0" width="72" height="27"/>
<rect x="157.5" y="126" class="st1" width="72" height="27"/>
<path d="M176.7,136.1l0-4.9c-0.5,1.7-1.2,3.3-1.8,4.9h-0.5l-1.8-4.9l0,4.9h-0.7v-2.8v-2.8h1l1.7,4.7c0.5-1.7,1.1-3.2,1.7-4.7h1v2.8
	v2.8H176.7z"/>
<path d="M181.4,133.6c0.1-1.3-1.7-1.7-2.2-0.6c-0.1,0.2-0.1,0.4-0.1,0.6H181.4z M180.2,131.8c1.4,0,1.9,0.9,1.9,2.4h-3
	c0,0.9,0.3,1.5,1.2,1.5c0.6,0,1-0.3,1.1-0.7l0.6,0.2c-0.2,0.6-0.8,1-1.7,1c-1.3,0-2-0.8-2-2.3C178.4,132.6,178.9,131.8,180.2,131.8z
	"/>
<path d="M187.2,132.3c-1.5,0.1-0.9,2.4-1,3.8h-0.7v-1.4v-1.4c0-0.7-0.1-1.1-0.8-1.1c-1.5,0.1-0.9,2.3-1,3.8h-0.7l0-4.3h0.7
	c0,0.2,0,0.5,0,0.7c0.2-1,2.2-1.1,2.4,0c0.2-0.5,0.6-0.8,1.3-0.8c1.9,0,1.1,2.7,1.2,4.4H188v-1.4v-1.4
	C188,132.8,187.9,132.3,187.2,132.3z"/>
<path d="M191.6,135.7c0.9,0,1-0.8,1-1.7c0-0.9-0.1-1.7-1-1.7c-0.9,0-1.1,0.7-1.1,1.7C190.5,135,190.7,135.7,191.6,135.7z
	 M191.8,131.8c1.2,0,1.6,0.9,1.6,2.2c0,1.5-0.5,2.3-1.6,2.3c-0.7,0-1.1-0.2-1.3-0.8l0,0.7h-0.7l0-5.9h0.7v1.1v1.1
	C190.7,132,191.1,131.8,191.8,131.8z"/>
<path d="M197.1,133.6c0.1-1.3-1.7-1.7-2.2-0.6c-0.1,0.2-0.1,0.4-0.1,0.6H197.1z M196,131.8c1.4,0,1.9,0.9,1.9,2.4h-3
	c0,0.9,0.3,1.5,1.2,1.5c0.6,0,1-0.3,1.1-0.7l0.6,0.2c-0.2,0.6-0.8,1-1.7,1c-1.3,0-2-0.8-2-2.3C194.1,132.6,194.6,131.8,196,131.8z"
	/>
<path d="M200.8,132.5c-1.8-0.4-1.2,2-1.3,3.7h-0.7l0-4.3h0.7c0,0.3,0,0.7,0,0.9c0.1-0.6,0.5-1.1,1.3-0.9v0.3V132.5z"/>
<path d="M201.4,136.1V134v-2.1h0.7v2.1v2.1H201.4z M201.4,130.9v-0.3v-0.3h0.7v0.3v0.3H201.4z"/>
<polygon points="205.9,136.1 204.5,134.2 203.9,134.6 203.9,135.4 203.9,136.1 203.2,136.1 203.2,133.2 203.2,130.3 203.9,130.3 
	203.9,132.1 203.9,133.9 205.8,131.9 206.6,131.9 204.9,133.7 206.8,136.1 "/>
<path d="M207.8,134.9c0,0.4,0.3,0.7,0.7,0.7c0.9-0.1,1.4-0.7,1.4-1.7C208.9,134.1,207.8,133.9,207.8,134.9z M209.9,135.3
	c-0.3,0.5-0.7,0.9-1.5,0.9c-0.8,0-1.3-0.5-1.3-1.3c0-1.4,1.4-1.4,2.8-1.4c0.1-0.8-0.2-1.2-0.9-1.2c-0.5,0-0.9,0.2-0.9,0.7l-0.7-0.1
	c0.1-0.8,0.7-1.2,1.7-1.2c1,0,1.6,0.4,1.6,1.4v0.9v0.9c0,0.4,0.2,0.7,0.6,0.6v0.2v0.2C210.5,136.3,209.9,136.1,209.9,135.3z"/>
<path d="M213.9,131.8c2-0.1,1.2,2.6,1.4,4.4h-0.7v-1.4v-1.4c0-0.7-0.2-1.1-0.9-1.1c-1.6,0-1,2.3-1.1,3.8h-0.7l0-4.3h0.7
	c0,0.2,0,0.5,0,0.7C212.7,132.1,213.1,131.8,213.9,131.8z"/>
<polygon points="167.3,145.9 167.3,143.1 167.3,140.3 168.1,140.3 168.1,143.1 168.1,145.9 "/>
<path d="M171.4,141.5c2-0.1,1.2,2.6,1.4,4.4h-0.7v-1.4v-1.4c0-0.7-0.2-1.1-0.9-1.1c-1.6,0-1,2.3-1.1,3.8h-0.7l0-4.3h0.7
	c0,0.2,0,0.5,0,0.7C170.3,141.8,170.7,141.5,171.4,141.5z"/>
<path d="M175.6,140.6c-0.7-0.2-0.9,0.2-0.9,1h0.9v0.3v0.3h-0.9v1.9v1.9H174V144v-1.9h-0.6v-0.3v-0.3h0.6c-0.2-1.2,0.4-1.8,1.6-1.5
	v0.3V140.6z"/>
<path d="M177.8,145.4c1,0,1.2-0.7,1.2-1.7c0-1-0.2-1.7-1.1-1.7s-1.2,0.7-1.2,1.7S176.9,145.4,177.8,145.4z M177.8,141.5
	c1.4,0,1.9,0.8,1.9,2.2c0,1.4-0.6,2.2-1.9,2.2s-1.9-0.9-1.9-2.2C175.9,142.2,176.5,141.5,177.8,141.5z"/>
<path d="M182.6,142.2c-1.8-0.4-1.2,2-1.3,3.7h-0.7l0-4.3h0.7c0,0.3,0,0.7,0,0.9c0.1-0.6,0.5-1.1,1.3-0.9v0.3V142.2z"/>
<path d="M187.5,142.1c-1.5,0.1-0.9,2.4-1,3.8h-0.7v-1.4v-1.4c0-0.7-0.1-1.1-0.8-1.1c-1.5,0.1-0.9,2.3-1,3.8h-0.7l0-4.3h0.7
	c0,0.2,0,0.5,0,0.7c0.2-1,2.2-1.1,2.4,0c0.2-0.5,0.6-0.8,1.3-0.8c1.9,0,1.1,2.7,1.2,4.4h-0.7v-1.4v-1.4
	C188.3,142.5,188.1,142,187.5,142.1z"/>
<path d="M190.6,144.7c0,0.4,0.3,0.7,0.7,0.7c0.9-0.1,1.4-0.7,1.4-1.7C191.7,143.8,190.6,143.6,190.6,144.7z M192.6,145
	c-0.3,0.5-0.7,0.9-1.5,0.9c-0.8,0-1.3-0.5-1.3-1.3c0-1.4,1.4-1.4,2.8-1.4c0.1-0.8-0.2-1.2-0.9-1.2c-0.5,0-0.9,0.2-0.9,0.7l-0.7-0.1
	c0.1-0.8,0.7-1.2,1.7-1.2c1,0,1.6,0.4,1.6,1.4v0.9v0.9c0,0.4,0.2,0.7,0.6,0.6v0.2v0.2C193.3,146,192.6,145.8,192.6,145z"/>
<path d="M197,142.6c-0.1-0.8-1.9-0.9-2,0c0.3,1.2,2.6,0.3,2.7,2c0.1,1.8-3.4,1.7-3.5,0.2l0.6-0.1c0.1,0.8,2.2,1,2.2,0
	c-0.2-1.3-2.5-0.3-2.7-2c-0.1-1.3,1.8-1.4,2.7-0.9c0.3,0.2,0.5,0.4,0.5,0.8L197,142.6z"/>
<path d="M198.6,145.9v-2.1v-2.1h0.7v2.1v2.1H198.6z M198.6,140.7v-0.3V140h0.7v0.3v0.3H198.6z"/>
<path d="M207.3,143.8c0,1.5-0.9,2.2-2.3,2.2c-1.4,0-2.3-0.7-2.3-2.1v-1.8v-1.8h0.7c0.2,2-0.7,5,1.5,5c2.3,0,1.4-3,1.6-5h0.7v1.7
	V143.8z"/>
<path d="M207.7,147c0.5,0.1,0.7-0.1,0.7-0.7v-2.4v-2.4h0.7v2.4v2.4c0,0.9-0.5,1.3-1.5,1.1v-0.3V147z M208.4,140.7v-0.3V140h0.7v0.3
	v0.3H208.4z"/>
<path d="M210.2,145.9v-2.1v-2.1h0.7v2.1v2.1H210.2z M210.2,140.7v-0.3V140h0.7v0.3v0.3H210.2z"/>
<path d="M212.5,144.7c0,0.4,0.3,0.7,0.7,0.7c0.9-0.1,1.4-0.7,1.4-1.7C213.6,143.8,212.5,143.6,212.5,144.7z M214.6,145
	c-0.3,0.5-0.7,0.9-1.5,0.9c-0.8,0-1.3-0.5-1.3-1.3c0-1.4,1.4-1.4,2.8-1.4c0.1-0.8-0.2-1.2-0.9-1.2c-0.5,0-0.9,0.2-0.9,0.7l-0.7-0.1
	c0.1-0.8,0.7-1.2,1.7-1.2c1,0,1.6,0.4,1.6,1.4v0.9v0.9c0,0.4,0.2,0.7,0.6,0.6v0.2v0.2C215.2,146,214.6,145.8,214.6,145z"/>
<path d="M218.6,141.5c2-0.1,1.2,2.6,1.4,4.4h-0.7v-1.4v-1.4c0-0.7-0.2-1.1-0.9-1.1c-1.6,0-1,2.3-1.1,3.8h-0.7l0-4.3h0.7
	c0,0.2,0,0.5,0,0.7C217.4,141.8,217.8,141.5,218.6,141.5z"/>
<polyline class="st1" points="230.4,139.5 256.5,139.5 256.5,198.2 "/>
<rect x="229.9" y="139.1" width="0.5" height="0.9"/>
<polygon points="256.5,205.1 254.4,198.7 258.6,198.7 "/>
<polygon class="st1" points="256.5,205.1 254.4,198.7 258.6,198.7 "/>
<polyline class="st1" points="293.4,220.5 310.5,220.5 310.5,275.9 "/>
<rect x="292.9" y="220.1" width="0.4" height="0.9"/>
<polygon points="310.5,282.8 308.4,276.3 312.6,276.3 "/>
<polygon class="st1" points="310.5,282.8 308.4,276.3 312.6,276.3 "/>
<rect x="274.5" y="284.7" class="st0" width="72" height="33.7"/>
<rect x="274.5" y="284.7" class="st1" width="72" height="33.7"/>
<path d="M291.2,290.6c1.3,0,2.8,0.2,2.8-1.1c0-1.3-1.5-1.1-2.8-1.1v1.1V290.6z M290.5,287.8c2,0,4.3-0.3,4.3,1.7
	c0,1.8-1.7,1.8-3.6,1.7v1.1v1.1h-0.7v-2.8V287.8z"/>
<path d="M298.6,290.9c0.1-1.4-1.7-1.7-2.2-0.6c-0.1,0.2-0.1,0.4-0.1,0.6H298.6z M297.5,289c1.4,0,1.9,0.9,1.9,2.4h-3
	c0,0.9,0.3,1.5,1.2,1.5c0.6,0,1-0.3,1.1-0.7l0.6,0.2c-0.2,0.6-0.8,1-1.7,1c-1.3,0-2-0.8-2-2.3C295.6,289.9,296.1,289,297.5,289z"/>
<path d="M304.4,289.6c-1.5,0.1-0.9,2.4-1,3.8h-0.7V292v-1.4c0-0.7-0.1-1.1-0.8-1.1c-1.5,0.1-0.9,2.3-1,3.8h-0.7l0-4.3h0.7
	c0,0.2,0,0.5,0,0.7c0.2-1,2.2-1.1,2.4,0c0.2-0.5,0.6-0.8,1.3-0.8c1.9,0,1.1,2.7,1.2,4.4h-0.7V292v-1.4
	C305.2,290,305.1,289.6,304.4,289.6z"/>
<path d="M308.8,292.9c0.9,0,1-0.8,1-1.7c0-0.9-0.1-1.7-1-1.7c-0.9,0-1.1,0.7-1.1,1.7C307.7,292.3,307.9,292.9,308.8,292.9z M309,289
	c1.2,0,1.6,0.9,1.6,2.2c0,1.5-0.5,2.3-1.6,2.3c-0.7,0-1.1-0.2-1.3-0.8l0,0.7H307l0-5.9h0.7v1.1v1.1C307.9,289.3,308.3,289,309,289z"
	/>
<path d="M312.8,293.5c-2,0.1-1.2-2.6-1.4-4.4h0.7v1.3v1.4c0,0.7,0.2,1.1,0.9,1.1c1.6,0,1-2.3,1.1-3.8h0.7l0,4.3h-0.7
	c0-0.2,0-0.6,0-0.7C313.9,293.2,313.5,293.5,312.8,293.5z"/>
<path d="M316.5,292.2c0,0.4,0.3,0.7,0.7,0.7c0.9-0.1,1.4-0.7,1.4-1.7C317.6,291.3,316.5,291.2,316.5,292.2z M318.6,292.6
	c-0.3,0.5-0.7,0.9-1.5,0.9c-0.8,0-1.3-0.5-1.3-1.3c0-1.4,1.4-1.4,2.8-1.4c0.1-0.8-0.2-1.2-0.9-1.2c-0.5,0-0.9,0.2-0.9,0.7l-0.7-0.1
	c0.1-0.8,0.7-1.2,1.7-1.2c1,0,1.6,0.5,1.6,1.4v0.9v0.9c0,0.5,0.2,0.7,0.6,0.6v0.2v0.2C319.2,293.6,318.6,293.3,318.6,292.6z"/>
<path d="M321.3,292.3c0,0.5,0.4,0.7,0.9,0.5v0.3v0.3c-0.7,0.2-1.6,0.1-1.6-0.9v-1.4v-1.4H320v-0.3v-0.3h0.5l0.2-1h0.5v0.5v0.5h0.8
	v0.3v0.3h-0.8v1.4V292.3z"/>
<path d="M323.3,292.2c0,0.4,0.3,0.7,0.7,0.7c0.9-0.1,1.4-0.7,1.4-1.7C324.4,291.3,323.3,291.2,323.3,292.2z M325.4,292.6
	c-0.3,0.5-0.7,0.9-1.5,0.9c-0.8,0-1.3-0.5-1.3-1.3c0-1.4,1.4-1.4,2.8-1.4c0.1-0.8-0.2-1.2-0.9-1.2c-0.5,0-0.9,0.2-0.9,0.7l-0.7-0.1
	c0.1-0.8,0.7-1.2,1.7-1.2c1,0,1.6,0.5,1.6,1.4v0.9v0.9c0,0.5,0.2,0.7,0.6,0.6v0.2v0.2C326,293.6,325.3,293.3,325.4,292.6z"/>
<path d="M329.3,289c2-0.1,1.2,2.6,1.4,4.4h-0.7V292v-1.4c0-0.7-0.2-1.1-0.9-1.1c-1.6,0-1,2.3-1.1,3.8h-0.7l0-4.3h0.7
	c0,0.2,0,0.5,0,0.7C328.2,289.3,328.6,289.1,329.3,289z"/>
<path d="M285.5,300.9l-1.1-2.8c-0.3,1-0.7,1.8-1,2.8H285.5z M286.3,303.1l-0.6-1.6h-2.5l-0.6,1.6h-0.8l2.3-5.6h0.9l2.2,5.6H286.3z"
	/>
<path d="M289.5,302.7c0.9,0,1-0.8,1-1.7c0-0.9-0.1-1.7-1-1.7c-0.9,0-1.1,0.7-1.1,1.7C288.4,302,288.6,302.7,289.5,302.7z
	 M289.7,298.8c1.2,0,1.6,0.9,1.6,2.2c0,1.5-0.5,2.3-1.6,2.3c-0.7,0-1.1-0.2-1.3-0.8l0,0.7h-0.7l0-5.9h0.7v1.1v1.1
	C288.6,299,289,298.8,289.7,298.8z"/>
<path d="M294.7,299.9c-0.1-0.8-1.9-0.9-2,0c0.3,1.2,2.6,0.3,2.7,2s-3.4,1.7-3.5,0.2l0.6-0.1c0.1,0.8,2.2,1,2.2,0
	c-0.2-1.3-2.5-0.3-2.7-2c-0.1-1.3,1.8-1.4,2.7-0.9c0.3,0.2,0.5,0.4,0.5,0.8L294.7,299.9z"/>
<path d="M299.1,300.6c0.1-1.4-1.7-1.7-2.2-0.6c-0.1,0.2-0.1,0.4-0.1,0.6H299.1z M297.9,298.8c1.4,0,1.9,0.9,1.9,2.4h-3
	c0,0.9,0.3,1.5,1.2,1.5c0.6,0,1-0.3,1.1-0.7l0.6,0.2c-0.2,0.6-0.8,1-1.7,1c-1.3,0-2-0.8-2-2.3C296,299.6,296.6,298.8,297.9,298.8z"
	/>
<path d="M302.8,298.8c2-0.1,1.2,2.6,1.4,4.4h-0.7v-1.4v-1.4c0-0.7-0.2-1.1-0.9-1.1c-1.6,0-1,2.3-1.1,3.8h-0.7l0-4.3h0.7
	c0,0.2,0,0.5,0,0.7C301.7,299.1,302.1,298.8,302.8,298.8z"/>
<path d="M307.7,299.9c-0.1-0.8-1.9-0.9-2,0c0.3,1.2,2.6,0.3,2.7,2s-3.4,1.7-3.5,0.2l0.6-0.1c0.1,0.8,2.2,1,2.2,0
	c-0.2-1.3-2.5-0.3-2.7-2c-0.1-1.3,1.8-1.4,2.7-0.9c0.3,0.2,0.5,0.4,0.5,0.8L307.7,299.9z"/>
<path d="M309.3,303.1V301v-2.1h0.7v2.1v2.1H309.3z M309.3,297.9v-0.3v-0.3h0.7v0.3v0.3H309.3z"/>
<polygon points="315.6,298.2 315.6,300.6 315.6,303.1 314.9,303.1 314.9,300.6 314.9,298.2 312.9,298.2 312.9,297.9 312.9,297.5 
	317.5,297.5 317.5,297.9 317.5,298.2 "/>
<path d="M320.2,300.6c0.1-1.4-1.7-1.7-2.2-0.6c-0.1,0.2-0.1,0.4-0.1,0.6H320.2z M319,298.8c1.4,0,1.9,0.9,1.9,2.4h-3
	c0,0.9,0.3,1.5,1.2,1.5c0.6,0,1-0.3,1.1-0.7l0.6,0.2c-0.2,0.6-0.8,1-1.7,1c-1.3,0-2-0.8-2-2.3C317.1,299.6,317.7,298.8,319,298.8z"
	/>
<path d="M326,299.3c-1.5,0.1-0.9,2.4-1,3.8h-0.7v-1.4v-1.4c0-0.7-0.1-1.1-0.8-1.1c-1.5,0.1-0.9,2.3-1,3.8h-0.7l0-4.3h0.7
	c0,0.2,0,0.5,0,0.7c0.2-1,2.2-1.1,2.4,0c0.2-0.5,0.6-0.8,1.3-0.8c1.9,0,1.1,2.7,1.2,4.4h-0.7v-1.4v-1.4
	C326.8,299.7,326.7,299.3,326,299.3z"/>
<path d="M330.4,302.7c0.9,0,1-0.8,1-1.7s-0.1-1.6-1-1.7c-0.9,0-1.1,0.7-1.1,1.7C329.3,302,329.5,302.7,330.4,302.7z M330.6,298.8
	c1.2,0,1.6,0.9,1.6,2.2s-0.4,2.2-1.6,2.3c-0.7,0-1.1-0.3-1.4-0.8l0,2.4h-0.7l0-6h0.7l0,0.7C329.5,299,329.9,298.8,330.6,298.8z"/>
<path d="M333.6,301.9c0,0.4,0.3,0.7,0.7,0.7c0.9-0.1,1.4-0.7,1.4-1.7C334.7,301,333.6,300.9,333.6,301.9z M335.7,302.3
	c-0.3,0.5-0.7,0.9-1.5,0.9c-0.8,0-1.3-0.5-1.3-1.3c0-1.4,1.4-1.4,2.8-1.4c0.1-0.8-0.2-1.2-0.9-1.2c-0.5,0-0.9,0.2-0.9,0.7l-0.7-0.1
	c0.1-0.8,0.7-1.2,1.7-1.2c1,0,1.6,0.5,1.6,1.4v0.9v0.9c0,0.5,0.2,0.7,0.6,0.6v0.2v0.2C336.3,303.3,335.6,303.1,335.7,302.3z"/>
<path d="M338.3,302.1c0,0.5,0.4,0.7,0.9,0.5v0.3v0.3c-0.7,0.2-1.6,0.1-1.6-0.9v-1.4v-1.4h-0.5v-0.3v-0.3h0.5l0.2-1h0.5v0.5v0.5h0.8
	v0.3v0.3h-0.8v1.4V302.1z"/>
<path d="M280.9,312.2c2,0.2,3.3-0.4,3.3-2.2c0-1.9-1.4-2.3-3.3-2.1v2.2V312.2z M280.2,307.3c2.7-0.2,4.9,0.2,4.8,2.7
	c-0.1,1.8-1,2.8-2.7,2.8h-2.1V310V307.3z"/>
<path d="M287.2,312.9c-2,0.1-1.2-2.6-1.4-4.4h0.7v1.4v1.4c0,0.7,0.2,1.1,0.9,1.1c1.6,0,1-2.3,1.1-3.8h0.7l0,4.3h-0.7
	c0-0.2,0-0.6,0-0.7C288.3,312.6,287.9,312.9,287.2,312.9z"/>
<path d="M291.9,309c-0.9,0-1,0.8-1,1.7c0,0.9,0.1,1.7,1,1.7c0.9,0,1.1-0.7,1.1-1.7C293.1,309.7,292.8,309,291.9,309z M291.7,308.5
	c0.7,0,1.1,0.3,1.4,0.7l0-2.3h0.7l0,5.9h-0.7c0-0.2,0-0.5-0.1-0.7c-0.2,0.5-0.6,0.8-1.3,0.8c-1.2,0-1.6-0.9-1.6-2.2
	C290.1,309.2,290.7,308.5,291.7,308.5z"/>
<path d="M296.2,312.9c-2,0.1-1.2-2.6-1.4-4.4h0.7v1.4v1.4c0,0.7,0.2,1.1,0.9,1.1c1.6,0,1-2.3,1.1-3.8h0.7l0,4.3h-0.7
	c0-0.2,0-0.6,0-0.7C297.3,312.6,296.9,312.9,296.2,312.9z"/>
<polygon points="302,312.8 300.6,310.9 300.1,311.3 300.1,312.1 300.1,312.8 299.4,312.8 299.4,309.9 299.4,307 300.1,307 
	300.1,308.8 300.1,310.6 301.9,308.6 302.8,308.6 301,310.4 302.9,312.8 "/>
<path d="M307.2,309c-0.9,0-1,0.8-1,1.7c0,0.9,0.1,1.7,1,1.7c0.9,0,1.1-0.7,1.1-1.7C308.3,309.7,308.1,309,307.2,309z M307,308.5
	c0.7,0,1.1,0.3,1.4,0.7l0-2.3h0.7l0,5.9h-0.7c0-0.2,0-0.5-0.1-0.7c-0.2,0.5-0.6,0.8-1.3,0.8c-1.2,0-1.6-0.9-1.6-2.2
	C305.4,309.2,306,308.5,307,308.5z"/>
<path d="M310.7,311.6c0,0.4,0.3,0.7,0.7,0.7c0.9-0.1,1.4-0.7,1.4-1.7C311.8,310.8,310.7,310.6,310.7,311.6z M312.8,312
	c-0.3,0.5-0.7,0.9-1.5,0.9c-0.8,0-1.3-0.5-1.3-1.3c0-1.4,1.4-1.4,2.8-1.4c0.1-0.8-0.2-1.2-0.9-1.2c-0.5,0-0.9,0.2-0.9,0.7l-0.7-0.1
	c0.1-0.8,0.7-1.2,1.7-1.2c1,0,1.6,0.5,1.6,1.4v0.9v0.9c0,0.5,0.2,0.7,0.6,0.6v0.2v0.2C313.4,313,312.7,312.8,312.8,312z"/>
<path d="M316.7,308.5c2-0.1,1.2,2.6,1.4,4.4h-0.7v-1.4v-1.4c0-0.7-0.2-1.1-0.9-1.1c-1.6,0-1,2.3-1.1,3.8h-0.7l0-4.3h0.7
	c0,0.2,0,0.5,0,0.7C315.6,308.8,316,308.5,316.7,308.5z"/>
<path d="M325,308.6c-0.1-1.1-2.8-1.2-2.8,0c0.3,1.7,3.6,0.3,3.7,2.7c0.1,1.8-2.7,2-3.9,1.2c-0.4-0.2-0.6-0.6-0.7-1l0.7-0.2
	c0.1,1.3,3.2,1.4,3.2,0c0-1.8-3.5-0.3-3.6-2.7c-0.1-1.8,3.3-1.9,4-0.8c0.1,0.2,0.2,0.4,0.2,0.6L325,308.6z"/>
<path d="M328.4,309c-0.9,0-1.1,0.7-1.1,1.6c0,0.9,0.2,1.7,1.1,1.7c0.5,0,0.9-0.3,1-0.9l0.7,0c-0.1,0.8-0.7,1.4-1.7,1.4
	c-1.3,0-1.7-0.9-1.8-2.2c-0.2-2.1,2.3-2.9,3.3-1.4c0.1,0.2,0.1,0.3,0.2,0.5l-0.7,0.1C329.3,309.4,329,309,328.4,309z"/>
<path d="M332.9,309.2c-1.8-0.4-1.2,2-1.3,3.7h-0.7l0-4.3h0.7c0,0.3,0,0.7,0,0.9c0.1-0.6,0.5-1.1,1.3-0.9v0.3V309.2z"/>
<path d="M333.5,312.8v-2.1v-2.1h0.7v2.1v2.1H333.5z M333.5,307.6v-0.3V307h0.7v0.3v0.3H333.5z"/>
<path d="M337.2,312.4c0.9,0,1-0.8,1-1.7s-0.1-1.6-1-1.7c-0.9,0-1.1,0.7-1.1,1.7C336,311.7,336.2,312.4,337.2,312.4z M337.4,308.5
	c1.2,0,1.6,0.9,1.6,2.2s-0.4,2.2-1.6,2.3c-0.7,0-1.1-0.3-1.4-0.8l0,2.4h-0.7l0-6h0.7l0,0.7C336.2,308.8,336.7,308.5,337.4,308.5z"/>
<path d="M340.6,311.8c0,0.5,0.4,0.7,0.9,0.5v0.3v0.3c-0.7,0.2-1.6,0.1-1.6-0.9v-1.4v-1.4h-0.5v-0.3v-0.3h0.5l0.2-1h0.5v0.5v0.5h0.8
	v0.3v0.3h-0.8v1.4V311.8z"/>
<polyline class="st1" points="347.4,301.5 382.5,301.5 382.5,246.1 "/>
<rect x="346.9" y="301.1" width="0.4" height="0.9"/>
<polygon points="382.5,239.2 384.6,245.6 380.4,245.6 "/>
<polygon class="st1" points="382.5,239.2 384.6,245.6 380.4,245.6 "/>
<rect x="346.5" y="213.3" class="st0" width="72" height="23.9"/>
<rect x="346.5" y="213.3" class="st1" width="72" height="23.9"/>
<path d="M362.3,218c-0.2-0.6-0.8-1-1.6-1c-1.3,0-2,0.9-2,2.2c0,1.3,0.7,2.3,2,2.3c1,0,1.4-0.5,1.8-1.2l0.6,0.3
	c-0.4,0.9-1.1,1.5-2.4,1.5c-1.8,0-2.6-1.1-2.7-2.9c-0.1-2.3,2.2-3.4,4.2-2.5c0.4,0.2,0.7,0.6,0.9,1L362.3,218z"/>
<path d="M366.8,219.5c0.1-1.3-1.7-1.7-2.2-0.6c-0.1,0.2-0.1,0.4-0.1,0.6H366.8z M365.6,217.7c1.4,0,1.9,0.9,1.9,2.4h-3
	c0,0.9,0.3,1.5,1.2,1.5c0.6,0,1-0.3,1.1-0.7l0.6,0.2c-0.2,0.6-0.8,1-1.7,1c-1.3,0-2-0.8-2-2.3C363.7,218.5,364.3,217.7,365.6,217.7z
	"/>
<path d="M369.2,221c0,0.5,0.4,0.7,0.9,0.5v0.3v0.3c-0.7,0.2-1.6,0.1-1.6-0.9v-1.4v-1.4H368V218v-0.3h0.5l0.2-1h0.5v0.5v0.5h0.8v0.3
	v0.3h-0.8v1.4V221z"/>
<path d="M371.2,220.8c0,0.4,0.3,0.7,0.7,0.7c0.9-0.1,1.4-0.7,1.4-1.7C372.3,220,371.2,219.8,371.2,220.8z M373.3,221.2
	c-0.3,0.5-0.7,0.9-1.5,0.9c-0.8,0-1.3-0.5-1.3-1.3c0-1.4,1.4-1.4,2.8-1.4c0.1-0.8-0.2-1.2-0.9-1.2c-0.5,0-0.9,0.2-0.9,0.7l-0.7-0.1
	c0.1-0.8,0.7-1.2,1.7-1.2c1,0,1.6,0.4,1.6,1.4v0.9v0.9c0,0.4,0.2,0.7,0.6,0.6v0.2v0.2C373.9,222.2,373.3,222,373.3,221.2z"/>
<polygon points="377.9,222 376.4,220.1 375.9,220.5 375.9,221.3 375.9,222 375.2,222 375.2,219.1 375.2,216.2 375.9,216.2 
	375.9,218 375.9,219.8 377.8,217.8 378.6,217.8 376.9,219.6 378.7,222 "/>
<polygon points="383.8,217.1 383.8,219.6 383.8,222 383,222 383,219.6 383,217.1 381.1,217.1 381.1,216.8 381.1,216.4 385.7,216.4 
	385.7,216.8 385.7,217.1 "/>
<path d="M388.4,219.5c0.1-1.3-1.7-1.7-2.2-0.6c-0.1,0.2-0.1,0.4-0.1,0.6H388.4z M387.2,217.7c1.4,0,1.9,0.9,1.9,2.4h-3
	c0,0.9,0.3,1.5,1.2,1.5c0.6,0,1-0.3,1.1-0.7l0.6,0.2c-0.2,0.6-0.8,1-1.7,1c-1.3,0-2-0.8-2-2.3C385.3,218.5,385.9,217.7,387.2,217.7z
	"/>
<path d="M394.2,218.2c-1.5,0.1-0.9,2.4-1,3.8h-0.7v-1.4v-1.4c0-0.7-0.1-1.1-0.8-1.1c-1.5,0.1-0.9,2.3-1,3.8H390l0-4.3h0.7
	c0,0.2,0,0.5,0,0.7c0.2-1,2.2-1.1,2.4,0c0.2-0.5,0.6-0.8,1.3-0.8c1.9,0,1.1,2.7,1.2,4.4H395v-1.4v-1.4
	C395,218.7,394.9,218.2,394.2,218.2z"/>
<path d="M398.6,221.6c0.9,0,1-0.8,1-1.7s-0.1-1.6-1-1.7c-0.9,0-1.1,0.7-1.1,1.7C397.4,220.9,397.7,221.6,398.6,221.6z M398.8,217.7
	c1.2,0,1.6,0.9,1.6,2.2s-0.4,2.2-1.6,2.3c-0.7,0-1.1-0.3-1.4-0.8l0,2.4h-0.7l0-6h0.7l0,0.7C397.7,218,398.1,217.7,398.8,217.7z"/>
<path d="M401.8,220.8c0,0.4,0.3,0.7,0.7,0.7c0.9-0.1,1.4-0.7,1.4-1.7C402.9,220,401.8,219.8,401.8,220.8z M403.9,221.2
	c-0.3,0.5-0.7,0.9-1.5,0.9c-0.8,0-1.3-0.5-1.3-1.3c0-1.4,1.4-1.4,2.8-1.4c0.1-0.8-0.2-1.2-0.9-1.2c-0.5,0-0.9,0.2-0.9,0.7l-0.7-0.1
	c0.1-0.8,0.7-1.2,1.7-1.2c1,0,1.6,0.4,1.6,1.4v0.9v0.9c0,0.4,0.2,0.7,0.6,0.6v0.2v0.2C404.5,222.2,403.8,222,403.9,221.2z"/>
<path d="M406.5,221c0,0.5,0.4,0.7,0.9,0.5v0.3v0.3c-0.7,0.2-1.6,0.1-1.6-0.9v-1.4v-1.4h-0.5V218v-0.3h0.5l0.2-1h0.5v0.5v0.5h0.8v0.3
	v0.3h-0.8v1.4V221z"/>
<path d="M372.2,231.1c2,0.2,3.3-0.4,3.3-2.2c0-1.9-1.4-2.3-3.3-2.1v2.2V231.1z M371.5,226.2c2.7-0.2,4.9,0.2,4.8,2.7
	c-0.1,1.8-1,2.8-2.7,2.8h-2.1V229V226.2z"/>
<path d="M378.5,231.8c-2,0.1-1.2-2.6-1.4-4.4h0.7v1.4v1.3c0,0.7,0.2,1.1,0.9,1.1c1.6,0,1-2.3,1.1-3.8h0.7l0,4.3h-0.7
	c0-0.2,0-0.6,0-0.7C379.6,231.5,379.2,231.8,378.5,231.8z"/>
<path d="M383.3,227.9c-0.9,0-1,0.8-1,1.7c0,0.9,0.1,1.7,1,1.7c0.9,0,1.1-0.7,1.1-1.7C384.4,228.6,384.2,227.9,383.3,227.9z
	 M383,227.4c0.7,0,1.1,0.3,1.4,0.7l0-2.3h0.7l0,5.9h-0.7c0-0.2,0-0.5-0.1-0.7c-0.2,0.5-0.6,0.8-1.3,0.8c-1.2,0-1.6-0.9-1.6-2.2
	C381.5,228.1,382,227.4,383,227.4z"/>
<path d="M387.5,231.8c-2,0.1-1.2-2.6-1.4-4.4h0.7v1.4v1.3c0,0.7,0.2,1.1,0.9,1.1c1.6,0,1-2.3,1.1-3.8h0.7l0,4.3h-0.7
	c0-0.2,0-0.6,0-0.7C388.6,231.5,388.2,231.8,387.5,231.8z"/>
<polygon points="393.4,231.7 391.9,229.8 391.4,230.2 391.4,231 391.4,231.7 390.7,231.7 390.7,228.8 390.7,225.9 391.4,225.9 
	391.4,227.7 391.4,229.5 393.3,227.5 394.1,227.5 392.4,229.3 394.2,231.7 "/>
<polyline class="st1" points="374.4,139.5 490.5,139.5 490.5,199.7 "/>
<rect x="373.9" y="139.1" width="0.4" height="0.9"/>
<polygon points="490.5,206.6 488.4,200.1 492.3,200.1 "/>
<polygon class="st1" points="490.5,206.6 488.4,200.1 492.3,200.1 "/>
<rect x="454.5" y="208.4" class="st0" width="72" height="33.7"/>
<rect x="454.5" y="208.4" class="st1" width="72" height="33.7"/>
<polygon points="464.2,221.7 464.2,218.9 464.2,216.2 468.4,216.2 468.4,216.5 468.4,216.8 464.9,216.8 464.9,217.7 464.9,218.6 
	468.2,218.6 468.2,218.9 468.2,219.2 464.9,219.2 464.9,220.2 464.9,221.1 468.6,221.1 468.6,221.4 468.6,221.7 "/>
<polygon points="472.1,221.7 470.7,219.8 470.2,220.2 470.2,221 470.2,221.7 469.5,221.7 469.5,218.8 469.5,215.9 470.2,215.9 
	470.2,217.7 470.2,219.5 472.1,217.5 472.9,217.5 471.2,219.3 473,221.7 "/>
<path d="M476,218.5c-0.1-0.8-1.9-0.9-2,0c0.3,1.2,2.6,0.3,2.7,2c0.1,1.8-3.4,1.7-3.5,0.2l0.6-0.1c0.1,0.8,2.2,1,2.2,0
	c-0.2-1.3-2.5-0.3-2.7-2c-0.1-1.3,1.8-1.4,2.7-0.9c0.3,0.2,0.5,0.4,0.5,0.8L476,218.5z"/>
<path d="M480.5,219.2c0.1-1.3-1.7-1.7-2.2-0.6c-0.1,0.2-0.1,0.4-0.1,0.6H480.5z M479.3,217.4c1.4,0,1.9,0.9,1.9,2.4h-3
	c0,0.9,0.3,1.5,1.2,1.5c0.6,0,1-0.3,1.1-0.7l0.6,0.2c-0.2,0.6-0.8,1-1.7,1c-1.3,0-2-0.8-2-2.3C477.4,218.2,478,217.4,479.3,217.4z"
	/>
<polygon points="484.7,221.7 483.3,219.8 482.8,220.2 482.8,221 482.8,221.7 482.1,221.7 482.1,218.8 482.1,215.9 482.8,215.9 
	482.8,217.7 482.8,219.5 484.7,217.5 485.5,217.5 483.8,219.3 485.6,221.7 "/>
<path d="M487.5,221.8c-2,0.1-1.2-2.6-1.4-4.4h0.7v1.4v1.3c0,0.7,0.2,1.1,0.9,1.1c1.6,0,1-2.3,1.1-3.8h0.7l0,4.3h-0.7
	c0-0.2,0-0.6,0-0.7C488.6,221.5,488.2,221.8,487.5,221.8z"/>
<path d="M493.1,218.5c-0.1-0.8-1.9-0.9-2,0c0.3,1.2,2.6,0.3,2.7,2c0.1,1.8-3.4,1.7-3.5,0.2l0.6-0.1c0.1,0.8,2.2,1,2.2,0
	c-0.2-1.3-2.5-0.3-2.7-2c-0.1-1.3,1.8-1.4,2.7-0.9c0.3,0.2,0.5,0.4,0.5,0.8L493.1,218.5z"/>
<path d="M494.7,221.7v-2.1v-2.1h0.7v2.1v2.1H494.7z M494.7,216.5v-0.3v-0.3h0.7v0.3v0.3H494.7z"/>
<path d="M499.4,218.5c0.3,1.1,2.3,0.5,2.3,2c0,1.7-3.2,1.8-3.6,0.4l0.6-0.2c0.1,0.9,2.3,0.9,2.3-0.1c-0.3-1.1-2.3-0.5-2.3-2
	c0-1.6,3.2-1.6,3.3-0.2l-0.7,0.1C501.3,217.7,499.5,217.7,499.4,218.5z"/>
<path d="M503.2,220.2c0,0.7,0.2,1.1,0.9,1.1c0.7,0,0.9-0.4,1.1-0.9l0.6,0.2c-0.3,0.7-0.8,1.3-1.8,1.3c-1.1,0-1.6-0.7-1.6-2
	c0.1-1.7,1.7-3.1,3.3-2.1c0.3,0.2,0.3,0.5,0.4,0.9l-0.7,0.1c0-0.5-0.3-0.8-0.8-0.8C503.5,217.9,503.2,219,503.2,220.2z"/>
<path d="M507.7,218.3c0.3-0.6,0.7-1.1,1.5-0.9l-0.1,0.6c-1.8-0.2-1.5,2.3-2,3.7h-0.7l0.8-4.3h0.7L507.7,218.3z"/>
<path d="M509.1,221.7l0.8-4.3h0.7l-0.8,4.3H509.1z M510.1,216.5l0.1-0.7h0.7l-0.1,0.7H510.1z"/>
<path d="M514.2,218.9c0-0.6-0.2-1-0.8-1c-1.2,0-1.5,1.1-1.6,2.3c0,0.7,0.3,1,0.9,1C514,221.3,514.2,220,514.2,218.9z M512.2,218.1
	c0.7-1.2,3.1-0.8,2.7,1.1c-0.3,1.4-0.6,2.6-2,2.6c-0.7,0-1-0.3-1.2-0.8c-0.1,0.8-0.3,1.6-0.4,2.4h-0.7l1.1-6h0.7
	C512.3,217.7,512.3,217.9,512.2,218.1z"/>
<path d="M516.4,220.5c-0.2,0.5,0.1,0.9,0.7,0.7l-0.1,0.5c-0.8,0.3-1.6-0.1-1.3-1.1l0.5-2.6h-0.5l0.1-0.5h0.5l0.4-1h0.5l-0.2,1h0.8
	l-0.1,0.5h-0.8L516.4,220.5z"/>
<path d="M473.8,231c0.9,0,1-0.8,1-1.7c0-0.9-0.1-1.7-1-1.7c-0.9,0-1.1,0.7-1.1,1.7C472.7,230.3,472.9,231,473.8,231z M474,227.1
	c1.2,0,1.6,0.9,1.6,2.2c0,1.5-0.5,2.3-1.6,2.3c-0.7,0-1.1-0.2-1.3-0.8l0,0.7h-0.7l0-5.9h0.7v1.1v1.1
	C472.9,227.3,473.3,227.1,474,227.1z"/>
<path d="M477.8,231.5c-2,0.1-1.2-2.6-1.4-4.4h0.7v1.4v1.3c0,0.7,0.2,1.1,0.9,1.1c1.6,0,1-2.3,1.1-3.8h0.7l0,4.3h-0.7
	c0-0.2,0-0.6,0-0.7C478.9,231.2,478.5,231.5,477.8,231.5z"/>
<path d="M481.5,230.3c0,0.4,0.3,0.7,0.7,0.7c0.9-0.1,1.4-0.7,1.4-1.7C482.6,229.4,481.5,229.2,481.5,230.3z M483.6,230.6
	c-0.3,0.5-0.7,0.9-1.5,0.9c-0.8,0-1.3-0.5-1.3-1.3c0-1.4,1.4-1.4,2.8-1.4c0.1-0.8-0.2-1.2-0.9-1.2c-0.5,0-0.9,0.2-0.9,0.7l-0.7-0.1
	c0.1-0.8,0.7-1.2,1.7-1.2c1,0,1.6,0.4,1.6,1.4v0.9v0.9c0,0.4,0.2,0.7,0.6,0.6v0.2v0.2C484.2,231.6,483.5,231.4,483.6,230.6z"/>
<path d="M486.2,230.4c0,0.5,0.4,0.7,0.9,0.5v0.3v0.3c-0.7,0.2-1.6,0.1-1.6-0.9v-1.4v-1.4H485v-0.3v-0.3h0.5l0.2-1h0.5v0.5v0.5h0.8
	v0.3v0.3h-0.8v1.4V230.4z"/>
<path d="M491.7,226.2c-0.7-0.2-0.9,0.2-0.9,1h0.9v0.3v0.3h-0.9v1.9v1.9h-0.7v-1.9v-1.9h-0.6v-0.3v-0.3h0.6c-0.2-1.2,0.4-1.8,1.6-1.5
	v0.3V226.2z"/>
<path d="M493.9,231c1,0,1.2-0.7,1.2-1.7c0-1-0.2-1.7-1.1-1.7s-1.2,0.7-1.2,1.7S493,231,493.9,231z M493.9,227.1
	c1.4,0,1.9,0.8,1.9,2.2c0,1.4-0.6,2.2-1.9,2.2c-1.3,0-1.9-0.9-1.9-2.2C492,227.8,492.6,227.1,493.9,227.1z"/>
<polygon points="496.7,231.5 496.7,228.5 496.7,225.6 497.4,225.6 497.4,228.5 497.4,231.5 "/>
<path d="M500,227.6c-0.9,0-1,0.8-1,1.7c0,0.9,0.1,1.7,1,1.7c0.9,0,1.1-0.7,1.1-1.7C501.2,228.3,501,227.6,500,227.6z M499.8,227.1
	c0.7,0,1.1,0.3,1.4,0.7l0-2.3h0.7l0,5.9h-0.7c0-0.2,0-0.5-0.1-0.7c-0.2,0.5-0.6,0.8-1.3,0.8c-1.2,0-1.6-0.9-1.6-2.2
	C498.3,227.9,498.8,227.1,499.8,227.1z"/>
<path d="M505.8,228.9c0.1-1.3-1.7-1.7-2.2-0.6c-0.1,0.2-0.1,0.4-0.1,0.6H505.8z M504.7,227.1c1.4,0,1.9,0.9,1.9,2.4h-3
	c0,0.9,0.3,1.5,1.2,1.5c0.6,0,1-0.3,1.1-0.7l0.6,0.2c-0.2,0.6-0.8,1-1.7,1c-1.3,0-2-0.8-2-2.3C502.8,227.9,503.3,227.1,504.7,227.1z
	"/>
<path d="M509.5,227.8c-1.8-0.4-1.2,2-1.3,3.7h-0.7l0-4.3h0.7c0,0.3,0,0.7,0,0.9c0.1-0.6,0.5-1.1,1.3-0.9v0.3V227.8z"/>
<path class="st0" d="M119.7,126c6,0,10.8,6,10.8,13.5c0,7.5-4.8,13.5-10.8,13.5H87.3c-6,0-10.8-6-10.8-13.5
	c0-7.5,4.8-13.5,10.8-13.5H119.7z"/>
<path class="st1" d="M119.7,126c6,0,10.8,6,10.8,13.5c0,7.5-4.8,13.5-10.8,13.5H87.3c-6,0-10.8-6-10.8-13.5
	c0-7.5,4.8-13.5,10.8-13.5H119.7z"/>
<path d="M99.3,141.8l0-4.9c-0.5,1.7-1.2,3.3-1.8,4.9H97l-1.8-4.9l0,4.9h-0.7V139v-2.8h1l1.7,4.7c0.5-1.7,1.1-3.2,1.7-4.7h1v2.8v2.8
	H99.3z"/>
<path d="M102.5,141.8c-2,0.1-1.2-2.6-1.4-4.4h0.7v1.4v1.3c0,0.7,0.2,1.1,0.9,1.1c1.6,0,1-2.3,1.1-3.8h0.7l0,4.3h-0.7
	c0-0.2,0-0.6,0-0.7C103.6,141.5,103.2,141.8,102.5,141.8z"/>
<polygon points="105.6,141.8 105.6,138.8 105.6,135.9 106.3,135.9 106.3,138.8 106.3,141.8 "/>
<path d="M107.9,140.6c0,0.4,0.3,0.7,0.7,0.7c0.9-0.1,1.4-0.7,1.3-1.7C109,139.7,107.9,139.5,107.9,140.6z M110,140.9
	c-0.3,0.5-0.7,0.9-1.5,0.9c-0.8,0-1.3-0.5-1.3-1.3c0-1.4,1.4-1.4,2.8-1.4c0.1-0.8-0.2-1.2-0.9-1.2c-0.5,0-0.9,0.2-0.9,0.7l-0.7-0.1
	c0.1-0.8,0.7-1.2,1.7-1.2c1,0,1.6,0.4,1.6,1.4v0.9v0.9c0,0.4,0.2,0.7,0.6,0.6v0.2v0.2C110.7,141.9,110,141.7,110,140.9z"/>
<path d="M111.9,141.8v-2.1v-2.1h0.7v2.1v2.1H111.9z M111.9,136.6v-0.3v-0.3h0.7v0.3v0.3H111.9z"/>
<line class="st1" x1="131.4" y1="139.5" x2="148.7" y2="139.5"/>
<polygon points="131.4,139.9 130.9,139.9 130.9,139.5 130.9,139.1 131.4,139.1 "/>
<polygon points="155.6,139.5 149.2,141.6 149.2,137.4 "/>
<polygon class="st1" points="155.6,139.5 149.2,141.6 149.2,137.4 "/>
<polyline class="st1" points="131.4,139.5 139.5,139.5 139.5,58.5 148.7,58.5 "/>
<polygon points="131.4,139.9 130.9,139.9 130.9,139.5 130.9,139.1 131.4,139.1 "/>
<polygon points="155.6,58.5 149.2,60.6 149.2,56.4 "/>
<polygon class="st1" points="155.6,58.5 149.2,60.6 149.2,56.4 "/>
<line class="st1" x1="527.4" y1="225.3" x2="553.5" y2="225.3"/>
<rect x="526.9" y="224.8" width="0.5" height="0.9"/>
<polygon points="560.2,225.3 553.9,227.4 553.9,223.2 "/>
<polygon class="st1" points="560.2,225.3 553.9,227.4 553.9,223.2 "/>
<line class="st1" x1="635.4" y1="225.3" x2="661.5" y2="225.3"/>
<rect x="634.9" y="224.8" width="0.5" height="0.9"/>
<polygon points="668.2,225.3 661.9,227.4 661.9,223.2 "/>
<polygon class="st1" points="668.2,225.3 661.9,227.4 661.9,223.2 "/>
<path class="st0" d="M713.7,211.8c6,0,10.8,6,10.8,13.5c0,7.5-4.8,13.5-10.8,13.5h-32.4c-6,0-10.8-6-10.8-13.5
	c0-7.5,4.8-13.5,10.8-13.5H713.7z"/>
<path class="st1" d="M713.7,211.8c6,0,10.8,6,10.8,13.5c0,7.5-4.8,13.5-10.8,13.5h-32.4c-6,0-10.8-6-10.8-13.5
	c0-7.5,4.8-13.5,10.8-13.5H713.7z"/>
<path d="M688.4,223.3c-0.1-1.1-2.8-1.2-2.8,0c0.3,1.7,3.6,0.3,3.7,2.7c0.1,1.8-2.7,2-3.9,1.2c-0.4-0.2-0.6-0.6-0.7-1l0.7-0.2
	c0.1,1.3,3.2,1.4,3.2,0c0-1.8-3.5-0.3-3.6-2.7c-0.1-1.8,3.3-1.9,4-0.8c0.1,0.2,0.2,0.4,0.2,0.6L688.4,223.3z"/>
<path d="M693.1,225c0.1-1.3-1.7-1.7-2.2-0.6c-0.1,0.2-0.1,0.4-0.1,0.6H693.1z M691.9,223.2c1.4,0,1.9,0.9,1.9,2.4h-3
	c0,0.9,0.3,1.5,1.2,1.5c0.6,0,1-0.3,1.1-0.7l0.6,0.2c-0.2,0.6-0.8,1-1.7,1c-1.3,0-2-0.8-2-2.3C690,224,690.6,223.2,691.9,223.2z"/>
<polygon points="694.7,227.5 694.7,224.6 694.7,221.7 695.4,221.7 695.4,224.6 695.4,227.5 "/>
<path d="M699.3,225c0.1-1.3-1.7-1.7-2.2-0.6c-0.1,0.2-0.1,0.4-0.1,0.6H699.3z M698.2,223.2c1.4,0,1.9,0.9,1.9,2.4h-3
	c0,0.9,0.3,1.5,1.2,1.5c0.6,0,1-0.3,1.1-0.7l0.6,0.2c-0.2,0.6-0.8,1-1.7,1c-1.3,0-2-0.8-2-2.3C696.3,224,696.8,223.2,698.2,223.2z"
	/>
<path d="M703.5,224.3c-0.1-0.8-1.9-0.9-2,0c0.3,1.2,2.6,0.3,2.7,2c0.1,1.8-3.4,1.7-3.5,0.2l0.6-0.1c0.1,0.8,2.2,1,2.2,0
	c-0.2-1.3-2.5-0.3-2.7-2c-0.1-1.3,1.8-1.4,2.7-0.9c0.3,0.2,0.5,0.4,0.5,0.8L703.5,224.3z"/>
<path d="M705.6,226.3c0,0.4,0.3,0.7,0.7,0.7c0.9-0.1,1.4-0.7,1.3-1.7C706.7,225.5,705.6,225.3,705.6,226.3z M707.6,226.7
	c-0.3,0.5-0.7,0.9-1.5,0.9c-0.8,0-1.3-0.5-1.3-1.3c0-1.4,1.4-1.4,2.8-1.4c0.1-0.8-0.2-1.2-0.9-1.2c-0.5,0-0.9,0.2-0.9,0.7l-0.7-0.1
	c0.1-0.8,0.7-1.2,1.7-1.2c1,0,1.6,0.4,1.6,1.4v0.9v0.9c0,0.4,0.2,0.7,0.6,0.6v0.2v0.2C708.3,227.7,707.6,227.5,707.6,226.7z"/>
<path d="M709.5,227.5v-2.1v-2.1h0.7v2.1v2.1H709.5z M709.5,222.3V222v-0.3h0.7v0.3v0.3H709.5z"/>
<rect x="562.5" y="208.4" class="st0" width="72" height="33.7"/>
<rect x="562.5" y="208.4" class="st1" width="72" height="33.7"/>
<polygon points="572.2,221.7 572.2,218.9 572.2,216.2 576.4,216.2 576.4,216.5 576.4,216.8 572.9,216.8 572.9,217.7 572.9,218.6 
	576.2,218.6 576.2,218.9 576.2,219.2 572.9,219.2 572.9,220.2 572.9,221.1 576.6,221.1 576.6,221.4 576.6,221.7 "/>
<polygon points="580.1,221.7 578.7,219.8 578.2,220.2 578.2,221 578.2,221.7 577.5,221.7 577.5,218.8 577.5,215.9 578.2,215.9 
	578.2,217.7 578.2,219.5 580.1,217.5 580.9,217.5 579.2,219.3 581,221.7 "/>
<path d="M584,218.5c-0.1-0.8-1.9-0.9-2,0c0.3,1.2,2.6,0.3,2.7,2c0.1,1.8-3.4,1.7-3.5,0.2l0.6-0.1c0.1,0.8,2.2,1,2.2,0
	c-0.2-1.3-2.5-0.3-2.7-2c-0.1-1.3,1.8-1.4,2.7-0.9c0.3,0.2,0.5,0.4,0.5,0.8L584,218.5z"/>
<path d="M588.5,219.2c0.1-1.3-1.7-1.7-2.2-0.6c-0.1,0.2-0.1,0.4-0.1,0.6H588.5z M587.3,217.4c1.4,0,1.9,0.9,1.9,2.4h-3
	c0,0.9,0.3,1.5,1.2,1.5c0.6,0,1-0.3,1.1-0.7l0.6,0.2c-0.2,0.6-0.8,1-1.7,1c-1.3,0-2-0.8-2-2.3C585.4,218.2,586,217.4,587.3,217.4z"
	/>
<polygon points="592.7,221.7 591.3,219.8 590.8,220.2 590.8,221 590.8,221.7 590.1,221.7 590.1,218.8 590.1,215.9 590.8,215.9 
	590.8,217.7 590.8,219.5 592.7,217.5 593.5,217.5 591.8,219.3 593.6,221.7 "/>
<path d="M595.5,221.8c-2,0.1-1.2-2.6-1.4-4.4h0.7v1.4v1.3c0,0.7,0.2,1.1,0.9,1.1c1.6,0,1-2.3,1.1-3.8h0.7l0,4.3h-0.7
	c0-0.2,0-0.6,0-0.7C596.6,221.5,596.2,221.8,595.5,221.8z"/>
<path d="M601.1,218.5c-0.1-0.8-1.9-0.9-2,0c0.3,1.2,2.6,0.3,2.7,2c0.1,1.8-3.4,1.7-3.5,0.2l0.6-0.1c0.1,0.8,2.2,1,2.2,0
	c-0.2-1.3-2.5-0.3-2.7-2c-0.1-1.3,1.8-1.4,2.7-0.9c0.3,0.2,0.5,0.4,0.5,0.8L601.1,218.5z"/>
<path d="M602.7,221.7v-2.1v-2.1h0.7v2.1v2.1H602.7z M602.7,216.5v-0.3v-0.3h0.7v0.3v0.3H602.7z"/>
<path d="M607.4,218.5c0.3,1.1,2.3,0.5,2.3,2c0,1.7-3.2,1.8-3.6,0.4l0.6-0.2c0.1,0.9,2.3,0.9,2.3-0.1c-0.3-1.1-2.3-0.5-2.3-2
	c0-1.6,3.2-1.6,3.3-0.2l-0.7,0.1C609.3,217.7,607.5,217.7,607.4,218.5z"/>
<path d="M611.2,220.2c0,0.7,0.2,1.1,0.9,1.1c0.7,0,0.9-0.4,1.1-0.9l0.6,0.2c-0.3,0.7-0.8,1.3-1.8,1.3c-1.1,0-1.6-0.7-1.6-2
	c0.1-1.7,1.7-3.1,3.3-2.1c0.3,0.2,0.3,0.5,0.4,0.9l-0.7,0.1c0-0.5-0.3-0.8-0.8-0.8C611.5,217.9,611.2,219,611.2,220.2z"/>
<path d="M615.7,218.3c0.3-0.6,0.7-1.1,1.5-0.9l-0.1,0.6c-1.8-0.2-1.5,2.3-2,3.7h-0.7l0.8-4.3h0.7L615.7,218.3z"/>
<path d="M617.1,221.7l0.8-4.3h0.7l-0.8,4.3H617.1z M618.1,216.5l0.1-0.7h0.7l-0.1,0.7H618.1z"/>
<path d="M622.2,218.9c0-0.6-0.2-1-0.8-1c-1.2,0-1.5,1.1-1.6,2.3c0,0.7,0.3,1,0.9,1C622,221.3,622.2,220,622.2,218.9z M620.2,218.1
	c0.7-1.2,3.1-0.8,2.7,1.1c-0.3,1.4-0.6,2.6-2,2.6c-0.7,0-1-0.3-1.2-0.8c-0.1,0.8-0.3,1.6-0.4,2.4h-0.7l1.1-6h0.7
	C620.3,217.7,620.3,217.9,620.2,218.1z"/>
<path d="M624.4,220.5c-0.2,0.5,0.1,0.9,0.7,0.7l-0.1,0.5c-0.8,0.3-1.6-0.1-1.3-1.1l0.5-2.6h-0.5l0.1-0.5h0.5l0.4-1h0.5l-0.2,1h0.8
	l-0.1,0.5h-0.8L624.4,220.5z"/>
<path d="M581.8,231c0.9,0,1-0.8,1-1.7c0-0.9-0.1-1.7-1-1.7c-0.9,0-1.1,0.7-1.1,1.7C580.7,230.3,580.9,231,581.8,231z M582,227.1
	c1.2,0,1.6,0.9,1.6,2.2c0,1.5-0.5,2.3-1.6,2.3c-0.7,0-1.1-0.2-1.3-0.8l0,0.7h-0.7l0-5.9h0.7v1.1v1.1
	C580.9,227.3,581.3,227.1,582,227.1z"/>
<path d="M585.8,231.5c-2,0.1-1.2-2.6-1.4-4.4h0.7v1.4v1.3c0,0.7,0.2,1.1,0.9,1.1c1.6,0,1-2.3,1.1-3.8h0.7l0,4.3h-0.7
	c0-0.2,0-0.6,0-0.7C586.9,231.2,586.5,231.5,585.8,231.5z"/>
<path d="M589.5,230.3c0,0.4,0.3,0.7,0.7,0.7c0.9-0.1,1.4-0.7,1.3-1.7C590.6,229.4,589.5,229.2,589.5,230.3z M591.6,230.6
	c-0.3,0.5-0.7,0.9-1.5,0.9c-0.8,0-1.3-0.5-1.3-1.3c0-1.4,1.4-1.4,2.8-1.4c0.1-0.8-0.2-1.2-0.9-1.2c-0.5,0-0.9,0.2-0.9,0.7l-0.7-0.1
	c0.1-0.8,0.7-1.2,1.7-1.2c1,0,1.6,0.4,1.6,1.4v0.9v0.9c0,0.4,0.2,0.7,0.6,0.6v0.2v0.2C592.2,231.6,591.5,231.4,591.6,230.6z"/>
<path d="M594.2,230.4c0,0.5,0.4,0.7,0.9,0.5v0.3v0.3c-0.7,0.2-1.6,0.1-1.6-0.9v-1.4v-1.4H593v-0.3v-0.3h0.5l0.2-1h0.5v0.5v0.5h0.8
	v0.3v0.3h-0.8v1.4V230.4z"/>
<path d="M599.7,226.2c-0.7-0.2-0.9,0.2-0.9,1h0.9v0.3v0.3h-0.9v1.9v1.9h-0.7v-1.9v-1.9h-0.6v-0.3v-0.3h0.6c-0.2-1.2,0.4-1.8,1.6-1.5
	v0.3V226.2z"/>
<path d="M601.9,231c1,0,1.2-0.7,1.2-1.7c0-1-0.2-1.7-1.1-1.7c-1,0-1.2,0.7-1.2,1.7S601,231,601.9,231z M601.9,227.1
	c1.4,0,1.9,0.8,1.9,2.2c0,1.4-0.6,2.2-1.9,2.2s-1.9-0.9-1.9-2.2C600,227.8,600.6,227.1,601.9,227.1z"/>
<polygon points="604.7,231.5 604.7,228.5 604.7,225.6 605.4,225.6 605.4,228.5 605.4,231.5 "/>
<path d="M608,227.6c-0.9,0-1,0.8-1,1.7c0,0.9,0.1,1.7,1,1.7c0.9,0,1.1-0.7,1.1-1.7C609.2,228.3,609,227.6,608,227.6z M607.8,227.1
	c0.7,0,1.1,0.3,1.3,0.7l0-2.3h0.7l0,5.9h-0.7c0-0.2,0-0.5-0.1-0.7c-0.2,0.5-0.6,0.8-1.3,0.8c-1.2,0-1.6-0.9-1.6-2.2
	C606.3,227.9,606.8,227.1,607.8,227.1z"/>
<path d="M613.8,228.9c0.1-1.3-1.7-1.7-2.2-0.6c-0.1,0.2-0.1,0.4-0.1,0.6H613.8z M612.7,227.1c1.4,0,1.9,0.9,1.9,2.4h-3
	c0,0.9,0.3,1.5,1.2,1.5c0.6,0,1-0.3,1.1-0.7l0.6,0.2c-0.2,0.6-0.8,1-1.7,1c-1.3,0-2-0.8-2-2.3C610.8,227.9,611.3,227.1,612.7,227.1z
	"/>
<path d="M617.5,227.8c-1.8-0.4-1.2,2-1.3,3.7h-0.7l0-4.3h0.7c0,0.3,0,0.7,0,0.9c0.1-0.6,0.5-1.1,1.3-0.9v0.3V227.8z"/>
<line class="st1" x1="419.4" y1="225.3" x2="445.7" y2="225.3"/>
<rect x="418.9" y="224.8" width="0.4" height="0.9"/>
<polygon points="452.6,225.3 446.2,227.4 446.2,223.2 "/>
<polygon class="st1" points="452.6,225.3 446.2,227.4 446.2,223.2 "/>
</svg>
