<?xml version="1.0" encoding="utf-8"?>
<!-- Generator: Adobe Illustrator 23.0.3, SVG Export Plug-In . SVG Version: 6.00 Build 0)  -->
<svg version="1.1" id="Layer_1" xmlns="http://www.w3.org/2000/svg" xmlns:xlink="http://www.w3.org/1999/xlink" x="0px" y="0px"
	 viewBox="0 0 657 127" style="enable-background:new 0 0 657 127;" xml:space="preserve">
<style type="text/css">
	.st0{fill:#FFFFFF;}
	.st1{fill:none;stroke:#000000;stroke-width:0.9;stroke-miterlimit:10;}
</style>
<path class="st0" d="M75.6,51.4c8,0,14.4,6,14.4,13.5c0,7.5-6.4,13.5-14.4,13.5H32.4c-8,0-14.4-6-14.4-13.5
	c0-7.5,6.4-13.5,14.4-13.5H75.6z"/>
<path class="st1" d="M75.6,51.4c8,0,14.4,6,14.4,13.5c0,7.5-6.4,13.5-14.4,13.5H32.4c-8,0-14.4-6-14.4-13.5
	c0-7.5,6.4-13.5,14.4-13.5H75.6z"/>
<path d="M49.8,67.1l0-4.9c-0.5,1.7-1.2,3.3-1.8,4.9h-0.5l-1.8-4.9l0,4.9H45v-2.8v-2.8h1l1.7,4.7c0.5-1.7,1.1-3.1,1.7-4.7h1v2.8v2.8
	H49.8z"/>
<path d="M53,67.2c-2,0.1-1.2-2.6-1.4-4.4h0.7v1.3v1.4c0,0.7,0.2,1.1,0.9,1.1c1.6,0,1-2.3,1.1-3.8H55l0,4.3h-0.7c0-0.2,0-0.6,0-0.7
	C54.1,66.9,53.7,67.2,53,67.2z"/>
<polygon points="56.1,67.1 56.1,64.2 56.1,61.3 56.8,61.3 56.8,64.2 56.8,67.1 "/>
<path d="M58.4,66c0,0.5,0.3,0.7,0.7,0.7c0.9-0.1,1.4-0.7,1.3-1.7C59.5,65.1,58.4,64.9,58.4,66z M60.5,66.3c-0.3,0.5-0.7,0.9-1.5,0.9
	c-0.8,0-1.3-0.5-1.3-1.3c0-1.4,1.4-1.4,2.8-1.4c0.1-0.8-0.2-1.2-0.9-1.2c-0.5,0-0.9,0.2-0.9,0.7L57.9,64c0.1-0.8,0.7-1.2,1.7-1.2
	c1,0,1.6,0.4,1.6,1.4v0.9v0.9c0,0.4,0.2,0.7,0.6,0.6v0.2v0.2C61.2,67.3,60.5,67.1,60.5,66.3z"/>
<path d="M62.4,67.1V65v-2.1h0.7V65v2.1H62.4z M62.4,62v-0.3v-0.3h0.7v0.3V62H62.4z"/>
<rect x="108" y="52.9" class="st0" width="72" height="23.9"/>
<rect x="108" y="52.9" class="st1" width="72" height="23.9"/>
<path d="M129.5,58.9c1.3,0,2.8,0.2,2.8-1.1c0-1.3-1.5-1.1-2.8-1.1v1.1V58.9z M128.7,56.1c2,0,4.3-0.3,4.3,1.7c0,1.8-1.7,1.8-3.6,1.7
	v1.1v1.1h-0.7v-2.8V56.1z"/>
<path d="M136,58c-1.8-0.4-1.2,2-1.3,3.7H134l0-4.3h0.7c0,0.3,0,0.7,0,0.9c0.1-0.6,0.5-1.1,1.3-0.9v0.3V58z"/>
<path d="M137.2,60.5c0,0.5,0.3,0.7,0.7,0.7c0.9-0.1,1.4-0.7,1.4-1.7C138.3,59.6,137.2,59.4,137.2,60.5z M139.3,60.8
	c-0.3,0.5-0.7,0.9-1.5,0.9c-0.8,0-1.3-0.5-1.3-1.3c0-1.4,1.4-1.4,2.8-1.4c0.1-0.8-0.2-1.2-0.9-1.2c-0.5,0-0.9,0.2-0.9,0.7l-0.7-0.1
	c0.1-0.8,0.7-1.2,1.7-1.2c1,0,1.6,0.5,1.6,1.4v0.9v0.9c0,0.4,0.2,0.7,0.6,0.6v0.2v0.2C139.9,61.8,139.3,61.6,139.3,60.8z"/>
<path d="M142.5,61.7c-2,0.1-1.2-2.6-1.4-4.4h0.7v1.3v1.3c0,0.7,0.2,1.1,0.9,1.1c1.6,0,1-2.3,1.1-3.8h0.7l0,4.3h-0.7
	c0-0.2,0-0.6,0-0.7C143.6,61.4,143.2,61.7,142.5,61.7z"/>
<path d="M144.9,62.8c0.5,0.1,0.7-0.1,0.7-0.7v-2.4v-2.4h0.7v2.4v2.4c0,0.9-0.5,1.3-1.5,1.1V63V62.8z M145.7,56.5v-0.3v-0.3h0.7v0.3
	v0.3H145.7z"/>
<path d="M147.5,61.6v-2.1v-2.1h0.7v2.1v2.1H147.5z M147.5,56.5v-0.3v-0.3h0.7v0.3v0.3H147.5z"/>
<path d="M149.8,60.5c0,0.5,0.3,0.7,0.7,0.7c0.9-0.1,1.4-0.7,1.4-1.7C150.9,59.6,149.8,59.4,149.8,60.5z M151.9,60.8
	c-0.3,0.5-0.7,0.9-1.5,0.9c-0.8,0-1.3-0.5-1.3-1.3c0-1.4,1.4-1.4,2.8-1.4c0.1-0.8-0.2-1.2-0.9-1.2c-0.5,0-0.9,0.2-0.9,0.7l-0.7-0.1
	c0.1-0.8,0.7-1.2,1.7-1.2c1,0,1.6,0.5,1.6,1.4v0.9v0.9c0,0.4,0.2,0.7,0.6,0.6v0.2v0.2C152.5,61.8,151.8,61.6,151.9,60.8z"/>
<path d="M155.8,57.3c2-0.1,1.2,2.6,1.4,4.4h-0.7v-1.4v-1.4c0-0.7-0.2-1.1-0.9-1.1c-1.6,0-1,2.3-1.1,3.8h-0.7l0-4.3h0.7
	c0,0.2,0,0.5,0,0.7C154.7,57.6,155.1,57.3,155.8,57.3z"/>
<path d="M158.4,61.6v-0.4v-0.4h0.8v0.4v0.4H158.4z M158.4,58.2v-0.4v-0.4h0.8v0.4v0.4H158.4z"/>
<path d="M116.9,68.6c1.3,0,2.8,0.2,2.8-1.1c0-1.3-1.5-1.1-2.8-1.1v1.1V68.6z M116.2,65.8c2,0,4.3-0.3,4.3,1.7c0,1.8-1.7,1.8-3.6,1.7
	v1.1v1.1h-0.7v-2.8V65.8z"/>
<path d="M124.3,68.8c0.1-1.4-1.7-1.7-2.2-0.6c-0.1,0.2-0.1,0.4-0.1,0.6H124.3z M123.1,67c1.4,0,1.9,0.9,1.9,2.4h-3
	c0,0.9,0.3,1.5,1.2,1.5c0.6,0,1-0.3,1.1-0.7l0.6,0.2c-0.2,0.6-0.8,1-1.7,1c-1.3,0-2-0.8-2-2.3C121.2,67.8,121.8,67,123.1,67z"/>
<path d="M127.9,67.7c-1.8-0.4-1.2,2-1.3,3.7h-0.7l0-4.3h0.7c0,0.3,0,0.7,0,0.9c0.1-0.6,0.5-1.1,1.3-0.9v0.3V67.7z"/>
<path d="M131.1,68.2c-0.1-0.8-1.9-0.9-2,0c0.3,1.2,2.6,0.3,2.7,2s-3.4,1.7-3.5,0.2l0.6-0.1c0.1,0.8,2.2,1,2.2,0
	c-0.2-1.3-2.5-0.3-2.7-2c-0.1-1.3,1.8-1.4,2.7-0.9c0.3,0.2,0.5,0.4,0.5,0.8L131.1,68.2z"/>
<path d="M132.6,71.4v-2.1v-2.1h0.7v2.1v2.1H132.6z M132.6,66.2v-0.3v-0.3h0.7v0.3v0.3H132.6z"/>
<path d="M135,70.2c0,0.5,0.3,0.7,0.7,0.7c0.9-0.1,1.4-0.7,1.4-1.7C136.1,69.3,135,69.1,135,70.2z M137.1,70.6
	c-0.3,0.5-0.7,0.9-1.5,0.9c-0.8,0-1.3-0.5-1.3-1.3c0-1.4,1.4-1.4,2.8-1.4c0.1-0.8-0.2-1.2-0.9-1.2c-0.5,0-0.9,0.2-0.9,0.7l-0.7-0.1
	c0.1-0.8,0.7-1.2,1.7-1.2c1,0,1.6,0.5,1.6,1.4v0.9v0.9c0,0.5,0.2,0.7,0.6,0.6v0.2v0.2C137.7,71.5,137,71.3,137.1,70.6z"/>
<path d="M140.8,70.9c0.9,0,1-0.8,1-1.7s-0.1-1.6-1-1.7c-0.9,0-1.1,0.7-1.1,1.7C139.6,70.2,139.9,70.9,140.8,70.9z M141,67
	c1.2,0,1.6,0.9,1.6,2.2c0,1.3-0.4,2.2-1.6,2.3c-0.7,0-1.1-0.3-1.4-0.8l0,2.4h-0.7l0-6h0.7l0,0.7C139.9,67.3,140.3,67,141,67z"/>
<path d="M144,70.2c0,0.5,0.3,0.7,0.7,0.7c0.9-0.1,1.4-0.7,1.4-1.7C145.1,69.3,144,69.1,144,70.2z M146.1,70.6
	c-0.3,0.5-0.7,0.9-1.5,0.9c-0.8,0-1.3-0.5-1.3-1.3c0-1.4,1.4-1.4,2.8-1.4c0.1-0.8-0.2-1.2-0.9-1.2c-0.5,0-0.9,0.2-0.9,0.7l-0.7-0.1
	c0.1-0.8,0.7-1.2,1.7-1.2c1,0,1.6,0.5,1.6,1.4v0.9v0.9c0,0.5,0.2,0.7,0.6,0.6v0.2v0.2C146.7,71.5,146,71.3,146.1,70.6z"/>
<path d="M150,67c2-0.1,1.2,2.6,1.4,4.4h-0.7V70v-1.4c0-0.7-0.2-1.1-0.9-1.1c-1.6,0-1,2.3-1.1,3.8h-0.7l0-4.3h0.7c0,0.2,0,0.5,0,0.7
	C148.9,67.3,149.3,67,150,67z"/>
<path d="M159.4,69.3c0,1.5-0.9,2.2-2.3,2.2c-1.4,0-2.3-0.7-2.3-2.1v-1.8v-1.8h0.7c0.2,2-0.7,5,1.5,5c2.3,0,1.4-3,1.6-5h0.7v1.7V69.3
	z"/>
<path d="M159.8,72.5c0.5,0.1,0.7-0.1,0.7-0.7v-2.4v-2.4h0.7v2.4v2.4c0,0.9-0.5,1.3-1.5,1.1v-0.3V72.5z M160.5,66.2v-0.3v-0.3h0.7
	v0.3v0.3H160.5z"/>
<path d="M162.3,71.4v-2.1v-2.1h0.7v2.1v2.1H162.3z M162.3,66.2v-0.3v-0.3h0.7v0.3v0.3H162.3z"/>
<path d="M164.6,70.2c0,0.5,0.3,0.7,0.7,0.7c0.9-0.1,1.4-0.7,1.4-1.7C165.7,69.3,164.6,69.1,164.6,70.2z M166.7,70.6
	c-0.3,0.5-0.7,0.9-1.5,0.9c-0.8,0-1.3-0.5-1.3-1.3c0-1.4,1.4-1.4,2.8-1.4c0.1-0.8-0.2-1.2-0.9-1.2c-0.5,0-0.9,0.2-0.9,0.7l-0.7-0.1
	c0.1-0.8,0.7-1.2,1.7-1.2c1,0,1.6,0.5,1.6,1.4v0.9v0.9c0,0.5,0.2,0.7,0.6,0.6v0.2v0.2C167.3,71.5,166.6,71.3,166.7,70.6z"/>
<path d="M170.6,67c2-0.1,1.2,2.6,1.4,4.4h-0.7V70v-1.4c0-0.7-0.2-1.1-0.9-1.1c-1.6,0-1,2.3-1.1,3.8h-0.7l0-4.3h0.7
	c0,0.2,0,0.5,0,0.7C169.5,67.3,169.9,67,170.6,67z"/>
<rect x="324" y="18.4" class="st0" width="72" height="23.9"/>
<rect x="324" y="18.4" class="st1" width="72" height="23.9"/>
<path d="M354.9,25.1c0,1.5-0.9,2.2-2.3,2.2c-1.4,0-2.3-0.7-2.3-2.1v-1.8v-1.8h0.7c0.2,2-0.7,5,1.5,5c2.3,0,1.4-3,1.6-5h0.7v1.7V25.1
	z"/>
<path d="M355.3,28.3c0.5,0.1,0.7-0.1,0.7-0.7v-2.4v-2.4h0.7v2.4v2.4c0,0.9-0.5,1.3-1.5,1.1v-0.3V28.3z M356,22v-0.3v-0.3h0.7v0.3V22
	H356z"/>
<path d="M357.8,27.2V25v-2.1h0.7V25v2.1H357.8z M357.8,22v-0.3v-0.3h0.7v0.3V22H357.8z"/>
<path d="M360.1,26c0,0.5,0.3,0.7,0.7,0.7c0.9-0.1,1.4-0.7,1.4-1.7C361.2,25.1,360.1,25,360.1,26z M362.2,26.4
	c-0.3,0.5-0.7,0.9-1.5,0.9c-0.8,0-1.3-0.5-1.3-1.3c0-1.4,1.4-1.4,2.8-1.4c0.1-0.8-0.2-1.2-0.9-1.2c-0.5,0-0.9,0.2-0.9,0.7l-0.7-0.1
	c0.1-0.8,0.7-1.2,1.7-1.2c1,0,1.6,0.5,1.6,1.4v0.9v0.9c0,0.4,0.2,0.7,0.6,0.6v0.2v0.2C362.9,27.4,362.2,27.1,362.2,26.4z"/>
<path d="M366.2,22.8c2-0.1,1.2,2.6,1.4,4.4h-0.7v-1.4v-1.4c0-0.7-0.2-1.1-0.9-1.1c-1.6,0-1,2.3-1.1,3.8h-0.7l0-4.3h0.7
	c0,0.2,0,0.5,0,0.7C365.1,23.1,365.5,22.8,366.2,22.8z"/>
<path d="M368.8,27.2v-0.4v-0.4h0.8v0.4v0.4H368.8z M368.8,23.7v-0.4v-0.4h0.8v0.4v0.4H368.8z"/>
<path d="M327.7,34.1c1.3,0,2.8,0.2,2.8-1.1c0-1.3-1.5-1.1-2.8-1.1V33V34.1z M327,31.3c2,0,4.3-0.3,4.3,1.7c0,1.8-1.7,1.8-3.6,1.7
	v1.1v1.1H327v-2.8V31.3z"/>
<path d="M335.1,34.4c0.1-1.3-1.7-1.7-2.2-0.6c-0.1,0.2-0.1,0.4-0.1,0.6H335.1z M333.9,32.5c1.4,0,1.9,0.9,1.9,2.4h-3
	c0,0.9,0.3,1.5,1.2,1.5c0.6,0,1-0.3,1.1-0.7l0.6,0.2c-0.2,0.6-0.8,1-1.7,1c-1.3,0-2-0.8-2-2.3C332.1,33.4,332.6,32.5,333.9,32.5z"/>
<polygon points="336.7,36.9 336.7,34 336.7,31 337.5,31 337.5,34 337.5,36.9 "/>
<path d="M339.1,35.7c0,0.5,0.3,0.7,0.7,0.7c0.9-0.1,1.4-0.7,1.4-1.7C340.2,34.8,339.1,34.7,339.1,35.7z M341.1,36.1
	c-0.3,0.5-0.7,0.9-1.5,0.9c-0.8,0-1.3-0.5-1.3-1.3c0-1.4,1.4-1.4,2.8-1.4c0.1-0.8-0.2-1.2-0.9-1.2c-0.5,0-0.9,0.2-0.9,0.7l-0.7-0.1
	c0.1-0.8,0.7-1.2,1.7-1.2c1,0,1.6,0.5,1.6,1.4v0.9v0.9c0,0.4,0.2,0.7,0.6,0.6v0.2v0.2C341.8,37.1,341.1,36.8,341.1,36.1z"/>
<polygon points="345.7,36.9 344.3,34.9 343.7,35.4 343.7,36.1 343.7,36.9 343,36.9 343,34 343,31 343.7,31 343.7,32.9 343.7,34.7 
	345.6,32.6 346.4,32.6 344.7,34.5 346.5,36.9 "/>
<path d="M349.6,33.7c-0.1-0.8-1.9-0.9-2,0c0.3,1.2,2.6,0.3,2.7,2s-3.4,1.7-3.5,0.2l0.6-0.1c0.1,0.8,2.2,1,2.2,0
	c-0.2-1.3-2.5-0.3-2.7-2c-0.1-1.3,1.8-1.4,2.7-0.9c0.3,0.2,0.5,0.4,0.5,0.8L349.6,33.7z"/>
<path d="M351.7,35.7c0,0.5,0.3,0.7,0.7,0.7c0.9-0.1,1.4-0.7,1.4-1.7C352.8,34.8,351.7,34.7,351.7,35.7z M353.7,36.1
	c-0.3,0.5-0.7,0.9-1.5,0.9c-0.8,0-1.3-0.5-1.3-1.3c0-1.4,1.4-1.4,2.8-1.4c0.1-0.8-0.2-1.2-0.9-1.2c-0.5,0-0.9,0.2-0.9,0.7l-0.7-0.1
	c0.1-0.8,0.7-1.2,1.7-1.2c1,0,1.6,0.5,1.6,1.4v0.9v0.9c0,0.4,0.2,0.7,0.6,0.6v0.2v0.2C354.4,37.1,353.7,36.8,353.7,36.1z"/>
<path d="M357.7,32.5c2-0.1,1.2,2.6,1.4,4.4h-0.7v-1.4v-1.4c0-0.7-0.2-1.1-0.9-1.1c-1.6,0-1,2.3-1.1,3.8h-0.7l0-4.3h0.7
	c0,0.2,0,0.5,0,0.7C356.6,32.8,357,32.6,357.7,32.5z"/>
<path d="M360.7,35.7c0,0.5,0.3,0.7,0.7,0.7c0.9-0.1,1.4-0.7,1.4-1.7C361.8,34.8,360.7,34.7,360.7,35.7z M362.7,36.1
	c-0.3,0.5-0.7,0.9-1.5,0.9c-0.8,0-1.3-0.5-1.3-1.3c0-1.4,1.4-1.4,2.8-1.4c0.1-0.8-0.2-1.2-0.9-1.2c-0.5,0-0.9,0.2-0.9,0.7l-0.7-0.1
	c0.1-0.8,0.7-1.2,1.7-1.2c1,0,1.6,0.5,1.6,1.4v0.9v0.9c0,0.4,0.2,0.7,0.6,0.6v0.2v0.2C363.4,37.1,362.7,36.8,362.7,36.1z"/>
<path d="M365.2,35.7c0,0.5,0.3,0.7,0.7,0.7c0.9-0.1,1.4-0.7,1.4-1.7C366.3,34.8,365.2,34.7,365.2,35.7z M367.2,36.1
	c-0.3,0.5-0.7,0.9-1.5,0.9c-0.8,0-1.3-0.5-1.3-1.3c0-1.4,1.4-1.4,2.8-1.4c0.1-0.8-0.2-1.2-0.9-1.2c-0.5,0-0.9,0.2-0.9,0.7l-0.7-0.1
	c0.1-0.8,0.7-1.2,1.7-1.2c1,0,1.6,0.5,1.6,1.4v0.9v0.9c0,0.4,0.2,0.7,0.6,0.6v0.2v0.2C367.9,37.1,367.2,36.8,367.2,36.1z"/>
<path d="M371.2,32.5c2-0.1,1.2,2.6,1.4,4.4h-0.7v-1.4v-1.4c0-0.7-0.2-1.1-0.9-1.1c-1.6,0-1,2.3-1.1,3.8h-0.7l0-4.3h0.7
	c0,0.2,0,0.5,0,0.7C370.1,32.8,370.5,32.6,371.2,32.5z"/>
<path d="M380.5,34.8c0,1.5-0.9,2.2-2.3,2.2c-1.4,0-2.3-0.7-2.3-2.1v-1.8v-1.8h0.7c0.2,2-0.7,5,1.5,5c2.3,0,1.4-3,1.6-5h0.7v1.7V34.8
	z"/>
<path d="M380.9,38c0.5,0.1,0.7-0.1,0.7-0.7V35v-2.4h0.7V35v2.4c0,0.9-0.5,1.3-1.5,1.1v-0.3V38z M381.7,31.7v-0.3V31h0.7v0.3v0.3
	H381.7z"/>
<path d="M383.4,36.9v-2.1v-2.1h0.7v2.1v2.1H383.4z M383.4,31.7v-0.3V31h0.7v0.3v0.3H383.4z"/>
<path d="M385.8,35.7c0,0.5,0.3,0.7,0.7,0.7c0.9-0.1,1.4-0.7,1.4-1.7C386.9,34.8,385.8,34.7,385.8,35.7z M387.9,36.1
	c-0.3,0.5-0.7,0.9-1.5,0.9c-0.8,0-1.3-0.5-1.3-1.3c0-1.4,1.4-1.4,2.8-1.4c0.1-0.8-0.2-1.2-0.9-1.2c-0.5,0-0.9,0.2-0.9,0.7l-0.7-0.1
	c0.1-0.8,0.7-1.2,1.7-1.2c1,0,1.6,0.5,1.6,1.4v0.9v0.9c0,0.4,0.2,0.7,0.6,0.6v0.2v0.2C388.5,37.1,387.8,36.8,387.9,36.1z"/>
<path d="M391.8,32.5c2-0.1,1.2,2.6,1.4,4.4h-0.7v-1.4v-1.4c0-0.7-0.2-1.1-0.9-1.1c-1.6,0-1,2.3-1.1,3.8h-0.7l0-4.3h0.7
	c0,0.2,0,0.5,0,0.7C390.7,32.8,391.1,32.6,391.8,32.5z"/>
<polygon class="st0" points="225,41.6 252,64.9 225,88.2 198,64.9 "/>
<polygon class="st1" points="225,41.6 252,64.9 225,88.2 198,64.9 "/>
<path d="M213.6,58.4c-0.9,0-1,0.8-1,1.7c0,0.9,0.1,1.7,1,1.7c0.9,0,1.1-0.7,1.1-1.7C214.7,59.1,214.5,58.4,213.6,58.4z M213.4,57.9
	c0.7,0,1.1,0.3,1.4,0.7l0-2.3h0.7l0,5.9h-0.7c0-0.2,0-0.5-0.1-0.7c-0.2,0.5-0.6,0.8-1.3,0.8c-1.2,0-1.6-0.9-1.6-2.2
	C211.8,58.6,212.4,57.9,213.4,57.9z"/>
<path d="M219.4,59.7c0.1-1.3-1.7-1.7-2.2-0.6c-0.1,0.2-0.1,0.4-0.1,0.6H219.4z M218.2,57.9c1.4,0,1.9,0.9,1.9,2.4h-3
	c0,0.9,0.3,1.5,1.2,1.5c0.6,0,1-0.3,1.1-0.7l0.6,0.2c-0.2,0.6-0.8,1-1.7,1c-1.3,0-2-0.8-2-2.3C216.4,58.7,216.9,57.9,218.2,57.9z"/>
<path d="M223.1,57.9c2-0.1,1.2,2.6,1.4,4.4h-0.7v-1.4v-1.4c0-0.7-0.2-1.1-0.9-1.1c-1.6,0-1,2.3-1.1,3.8h-0.7l0-4.3h0.7
	c0,0.2,0,0.5,0,0.7C222,58.2,222.4,57.9,223.1,57.9z"/>
<path d="M227.1,61.8c0.8,0,1.1-0.7,1.1-1.6c0-0.9-0.3-1.7-1.1-1.7c-0.9,0-1,0.8-1,1.7S226.2,61.8,227.1,61.8z M229,58
	c-0.2,2.8,0.9,6.6-2.5,5.9c-0.5-0.1-0.9-0.5-1-1l0.7-0.1c0.3,1.1,2.3,0.7,2-0.6v-0.3v-0.3c-0.2,0.5-0.7,0.8-1.4,0.8
	c-1.2,0-1.5-0.9-1.5-2.2c0-1.3,0.4-2.2,1.6-2.2c0.7,0,1.1,0.4,1.3,0.8c0-0.2,0-0.5,0-0.7H229z"/>
<path d="M230.6,61.1c0,0.5,0.3,0.7,0.7,0.7c0.9-0.1,1.4-0.7,1.4-1.7C231.7,60.2,230.6,60,230.6,61.1z M232.7,61.4
	c-0.3,0.5-0.7,0.9-1.5,0.9c-0.8,0-1.3-0.5-1.3-1.3c0-1.4,1.4-1.4,2.8-1.4c0.1-0.8-0.2-1.2-0.9-1.2c-0.5,0-0.9,0.2-0.9,0.7l-0.7-0.1
	c0.1-0.8,0.7-1.2,1.7-1.2c1,0,1.6,0.5,1.6,1.4v0.9v0.9c0,0.4,0.2,0.7,0.6,0.6V62v0.2C233.3,62.4,232.6,62.2,232.7,61.4z"/>
<path d="M236.6,57.9c2-0.1,1.2,2.6,1.4,4.4h-0.7v-1.4v-1.4c0-0.7-0.2-1.1-0.9-1.1c-1.6,0-1,2.3-1.1,3.8h-0.7l0-4.3h0.7
	c0,0.2,0,0.5,0,0.7C235.5,58.2,235.9,57.9,236.6,57.9z"/>
<path d="M220.6,68.8c-0.1-0.8-1.9-0.9-2,0c0.3,1.2,2.6,0.3,2.7,2c0.1,1.8-3.4,1.7-3.5,0.2l0.6-0.1c0.1,0.8,2.2,1,2.2,0
	c-0.2-1.3-2.5-0.3-2.7-2c-0.1-1.3,1.8-1.4,2.7-0.9c0.3,0.2,0.5,0.4,0.5,0.8L220.6,68.8z"/>
<path d="M224,68.2c-1.6,0-1,2.3-1.1,3.8h-0.7V69v-2.9h0.7l0,2.3c0.3-0.5,0.6-0.8,1.4-0.8c2,0,1.2,2.6,1.4,4.4h-0.7v-1.4v-1.4
	C224.9,68.5,224.7,68.1,224,68.2z"/>
<path d="M226.7,72v-2.1v-2.1h0.7v2.1V72H226.7z M226.7,66.8v-0.3v-0.3h0.7v0.3v0.3H226.7z"/>
<path d="M230.2,66.7c-0.7-0.2-0.9,0.2-0.9,1h0.9V68v0.3h-0.9v1.9V72h-0.7v-1.9v-1.9H228V68v-0.3h0.6c-0.2-1.2,0.4-1.8,1.6-1.5v0.3
	V66.7z"/>
<path d="M231.5,70.9c0,0.5,0.4,0.7,0.9,0.5v0.3v0.3c-0.7,0.2-1.6,0.1-1.6-0.9v-1.4v-1.4h-0.5V68v-0.3h0.5l0.2-1h0.5v0.5v0.5h0.8V68
	v0.3h-0.8v1.4V70.9z"/>
<line class="st1" x1="180.9" y1="64.9" x2="189" y2="64.9"/>
<rect x="180.4" y="64.4" width="0.5" height="0.9"/>
<polygon points="195.8,64.9 189.4,67 189.4,62.8 "/>
<polygon class="st1" points="195.8,64.9 189.4,67 189.4,62.8 "/>
<rect x="278.3" y="76.9" class="st0" width="72" height="33.7"/>
<rect x="278.3" y="76.9" class="st1" width="72" height="33.7"/>
<path d="M309.2,83.5c0,1.5-0.9,2.2-2.3,2.2c-1.4,0-2.3-0.7-2.3-2.1v-1.8V80h0.7c0.2,2-0.7,5,1.5,5c2.3,0,1.4-3,1.6-5h0.7v1.7V83.5z"
	/>
<path d="M309.6,86.7c0.5,0.1,0.7-0.1,0.7-0.7v-2.4v-2.4h0.7v2.4v2.4c0,0.9-0.5,1.3-1.5,1.1V87V86.7z M310.3,80.4v-0.3v-0.3h0.7v0.3
	v0.3H310.3z"/>
<path d="M312.1,85.6v-2.1v-2.1h0.7v2.1v2.1H312.1z M312.1,80.4v-0.3v-0.3h0.7v0.3v0.3H312.1z"/>
<path d="M314.4,84.4c0,0.5,0.3,0.7,0.7,0.7c0.9-0.1,1.4-0.7,1.4-1.7C315.5,83.5,314.4,83.4,314.4,84.4z M316.5,84.8
	c-0.3,0.5-0.7,0.9-1.5,0.9c-0.8,0-1.3-0.5-1.3-1.3c0-1.4,1.4-1.4,2.8-1.4c0.1-0.8-0.2-1.2-0.9-1.2c-0.5,0-0.9,0.2-0.9,0.7l-0.7-0.1
	c0.1-0.8,0.7-1.2,1.7-1.2c1,0,1.6,0.5,1.6,1.4v0.9v0.9c0,0.4,0.2,0.7,0.6,0.6v0.2v0.2C317.1,85.8,316.5,85.5,316.5,84.8z"/>
<path d="M320.5,81.2c2-0.1,1.2,2.6,1.4,4.4h-0.7v-1.4v-1.4c0-0.7-0.2-1.1-0.9-1.1c-1.6,0-1,2.3-1.1,3.8h-0.7l0-4.3h0.7
	c0,0.2,0,0.5,0,0.7C319.4,81.5,319.8,81.2,320.5,81.2z"/>
<path d="M323.1,85.6v-0.4v-0.4h0.8v0.4v0.4H323.1z M323.1,82.1v-0.4v-0.4h0.8v0.4v0.4H323.1z"/>
<path d="M282,92.5c1.3,0,2.8,0.2,2.8-1.1c0-1.3-1.5-1.1-2.8-1.1v1.1V92.5z M281.3,89.7c2,0,4.3-0.3,4.3,1.7c0,1.8-1.7,1.8-3.6,1.7
	v1.1v1.1h-0.7v-2.8V89.7z"/>
<path d="M289.4,92.8c0.1-1.3-1.7-1.7-2.2-0.6c-0.1,0.2-0.1,0.4-0.1,0.6H289.4z M288.2,90.9c1.4,0,1.9,0.9,1.9,2.4h-3
	c0,0.9,0.3,1.5,1.2,1.5c0.6,0,1-0.3,1.1-0.7l0.6,0.2c-0.2,0.6-0.8,1-1.7,1c-1.3,0-2-0.8-2-2.3C286.3,91.8,286.9,90.9,288.2,90.9z"/>
<polygon points="291,95.3 291,92.4 291,89.4 291.7,89.4 291.7,92.4 291.7,95.3 "/>
<path d="M293.3,94.1c0,0.4,0.3,0.7,0.7,0.7c0.9-0.1,1.4-0.7,1.4-1.7C294.4,93.2,293.3,93.1,293.3,94.1z M295.4,94.5
	c-0.3,0.5-0.7,0.9-1.5,0.9c-0.8,0-1.3-0.5-1.3-1.3c0-1.4,1.4-1.4,2.8-1.4c0.1-0.8-0.2-1.2-0.9-1.2c-0.5,0-0.9,0.2-0.9,0.7l-0.7-0.1
	c0.1-0.8,0.7-1.2,1.7-1.2c1,0,1.6,0.4,1.6,1.4v0.9v0.9c0,0.4,0.2,0.7,0.6,0.6v0.2v0.2C296.1,95.5,295.4,95.2,295.4,94.5z"/>
<polygon points="300,95.3 298.5,93.4 298,93.8 298,94.5 298,95.3 297.3,95.3 297.3,92.4 297.3,89.4 298,89.4 298,91.3 298,93.1 
	299.9,91 300.7,91 299,92.9 300.8,95.3 "/>
<path d="M303.8,92.1c-0.1-0.8-1.9-0.9-2,0c0.3,1.2,2.6,0.3,2.7,2s-3.4,1.7-3.5,0.2l0.6-0.1c0.1,0.8,2.2,1,2.2,0
	c-0.2-1.3-2.5-0.3-2.7-2c-0.1-1.3,1.8-1.4,2.7-0.9c0.3,0.2,0.5,0.4,0.5,0.8L303.8,92.1z"/>
<path d="M305.9,94.1c0,0.4,0.3,0.7,0.7,0.7c0.9-0.1,1.4-0.7,1.4-1.7C307,93.2,305.9,93.1,305.9,94.1z M308,94.5
	c-0.3,0.5-0.7,0.9-1.5,0.9c-0.8,0-1.3-0.5-1.3-1.3c0-1.4,1.4-1.4,2.8-1.4c0.1-0.8-0.2-1.2-0.9-1.2c-0.5,0-0.9,0.2-0.9,0.7l-0.7-0.1
	c0.1-0.8,0.7-1.2,1.7-1.2c1,0,1.6,0.4,1.6,1.4v0.9v0.9c0,0.4,0.2,0.7,0.6,0.6v0.2v0.2C308.7,95.5,308,95.2,308,94.5z"/>
<path d="M312,90.9c2-0.1,1.2,2.6,1.4,4.4h-0.7v-1.4v-1.4c0-0.7-0.2-1.1-0.9-1.1c-1.6,0-1,2.3-1.1,3.8h-0.7l0-4.3h0.7
	c0,0.2,0,0.5,0,0.7C310.9,91.3,311.3,91,312,90.9z"/>
<path d="M314.9,94.1c0,0.4,0.3,0.7,0.7,0.7c0.9-0.1,1.4-0.7,1.4-1.7C316,93.2,314.9,93.1,314.9,94.1z M317,94.5
	c-0.3,0.5-0.7,0.9-1.5,0.9c-0.8,0-1.3-0.5-1.3-1.3c0-1.4,1.4-1.4,2.8-1.4c0.1-0.8-0.2-1.2-0.9-1.2c-0.5,0-0.9,0.2-0.9,0.7l-0.7-0.1
	c0.1-0.8,0.7-1.2,1.7-1.2c1,0,1.6,0.4,1.6,1.4v0.9v0.9c0,0.4,0.2,0.7,0.6,0.6v0.2v0.2C317.7,95.5,317,95.2,317,94.5z"/>
<path d="M319.4,94.1c0,0.4,0.3,0.7,0.7,0.7c0.9-0.1,1.4-0.7,1.4-1.7C320.5,93.2,319.4,93.1,319.4,94.1z M321.5,94.5
	c-0.3,0.5-0.7,0.9-1.5,0.9c-0.8,0-1.3-0.5-1.3-1.3c0-1.4,1.4-1.4,2.8-1.4c0.1-0.8-0.2-1.2-0.9-1.2c-0.5,0-0.9,0.2-0.9,0.7l-0.7-0.1
	c0.1-0.8,0.7-1.2,1.7-1.2c1,0,1.6,0.4,1.6,1.4v0.9v0.9c0,0.4,0.2,0.7,0.6,0.6v0.2v0.2C322.2,95.5,321.5,95.2,321.5,94.5z"/>
<path d="M325.5,90.9c2-0.1,1.2,2.6,1.4,4.4h-0.7v-1.4v-1.4c0-0.7-0.2-1.1-0.9-1.1c-1.6,0-1,2.3-1.1,3.8h-0.7l0-4.3h0.7
	c0,0.2,0,0.5,0,0.7C324.4,91.3,324.8,91,325.5,90.9z"/>
<path d="M334.8,93.2c0,1.5-0.9,2.2-2.3,2.2c-1.4,0-2.3-0.7-2.3-2.1v-1.8v-1.8h0.7c0.2,2-0.7,5,1.5,5c2.3,0,1.4-3,1.6-5h0.7v1.7V93.2
	z"/>
<path d="M335.2,96.4c0.5,0.1,0.7-0.1,0.7-0.7v-2.4V91h0.7v2.4v2.4c0,0.9-0.5,1.3-1.5,1.1v-0.3V96.4z M335.9,90.1v-0.3v-0.3h0.7v0.3
	v0.3H335.9z"/>
<path d="M337.7,95.3v-2.1V91h0.7v2.1v2.1H337.7z M337.7,90.1v-0.3v-0.3h0.7v0.3v0.3H337.7z"/>
<path d="M340,94.1c0,0.4,0.3,0.7,0.7,0.7c0.9-0.1,1.4-0.7,1.4-1.7C341.1,93.2,340,93.1,340,94.1z M342.1,94.5
	c-0.3,0.5-0.7,0.9-1.5,0.9c-0.8,0-1.3-0.5-1.3-1.3c0-1.4,1.4-1.4,2.8-1.4c0.1-0.8-0.2-1.2-0.9-1.2c-0.5,0-0.9,0.2-0.9,0.7l-0.7-0.1
	c0.1-0.8,0.7-1.2,1.7-1.2c1,0,1.6,0.4,1.6,1.4v0.9v0.9c0,0.4,0.2,0.7,0.6,0.6v0.2v0.2C342.8,95.5,342.1,95.2,342.1,94.5z"/>
<path d="M346.1,90.9c2-0.1,1.2,2.6,1.4,4.4h-0.7v-1.4v-1.4c0-0.7-0.2-1.1-0.9-1.1c-1.6,0-1,2.3-1.1,3.8H344l0-4.3h0.7
	c0,0.2,0,0.5,0,0.7C345,91.3,345.4,91,346.1,90.9z"/>
<path d="M307,100.8c-0.1-1.1-2.8-1.2-2.8,0c0.3,1.7,3.6,0.3,3.7,2.7c0.1,1.8-2.7,2-3.9,1.2c-0.4-0.2-0.6-0.6-0.7-1l0.7-0.2
	c0.1,1.3,3.2,1.4,3.2,0c0-1.8-3.5-0.3-3.6-2.7c-0.1-1.8,3.3-1.9,4-0.8c0.1,0.2,0.2,0.4,0.2,0.6L307,100.8z"/>
<path d="M310.6,101.2c-1.6,0-1,2.3-1.1,3.8h-0.7v-2.9v-2.9h0.7l0,2.3c0.3-0.5,0.6-0.8,1.4-0.8c2,0,1.2,2.6,1.4,4.4h-0.7v-1.4v-1.4
	C311.5,101.6,311.3,101.2,310.6,101.2z"/>
<path d="M313.3,105v-2.1v-2.1h0.7v2.1v2.1H313.3z M313.3,99.8v-0.3v-0.3h0.7v0.3v0.3H313.3z"/>
<path d="M316.8,99.8c-0.7-0.2-0.9,0.2-0.9,1h0.9v0.3v0.3h-0.9v1.9v1.9h-0.7v-1.9v-1.9h-0.6V101v-0.3h0.6c-0.2-1.2,0.4-1.8,1.6-1.5
	v0.3V99.8z"/>
<path d="M318.1,104c0,0.5,0.4,0.7,0.9,0.5v0.3v0.3c-0.7,0.2-1.6,0.1-1.6-0.9v-1.4v-1.4h-0.5V101v-0.3h0.5l0.2-1h0.5v0.5v0.5h0.8v0.3
	v0.3h-0.8v1.3V104z"/>
<polygon points="321.8,105 321.8,104.7 321.8,104.4 323.3,104.4 323.3,102.3 323.3,100.1 322,101 322,100.7 322,100.4 323.3,99.4 
	324,99.4 324,101.9 324,104.4 325.4,104.4 325.4,104.7 325.4,105 "/>
<path d="M265.7,74.4h-0.9v-9.1h-11.7v-0.9h12.6V74.4z M265.7,93.2h3.8v0.9h-4.7v-10h0.9V93.2z"/>
<polygon points="253.2,65.3 252.2,65.3 252.7,64.9 252.2,64.4 253.2,64.4 "/>
<polygon points="276.4,93.7 270,95.8 270,91.6 "/>
<path d="M270.4,95.2l4.5-1.5l-4.5-1.5V95.2z M277.9,93.7l-8.3,2.7V91L277.9,93.7z"/>
<path d="M265,76.6l-1.9,5c-0.3,0.6-0.8,1.1-1.8,0.9v-0.3V82c0.9,0.1,1.2-0.5,1.4-1.1l-1.7-4.3h0.8l1.3,3.5l1.2-3.5H265z"/>
<path d="M266.1,79.7c0,0.4,0.3,0.7,0.7,0.7c0.9-0.1,1.4-0.7,1.4-1.7C267.2,78.8,266.1,78.7,266.1,79.7z M268.2,80.1
	c-0.3,0.5-0.7,0.9-1.5,0.9c-0.8,0-1.3-0.5-1.3-1.3c0-1.4,1.4-1.4,2.8-1.4c0.1-0.8-0.2-1.2-0.9-1.2c-0.5,0-0.9,0.2-0.9,0.7l-0.7-0.1
	c0.1-0.8,0.7-1.2,1.7-1.2c1,0,1.6,0.4,1.6,1.4v0.9v0.9c0,0.5,0.2,0.7,0.6,0.6v0.2v0.2C268.9,81.1,268.2,80.8,268.2,80.1z"/>
<path d="M315.2,30.9h-50v9.5h-0.9V30h50.9V30.9z M265.3,65.3h-12.1v-0.9h11.2V50.1h0.9V65.3z"/>
<polygon points="253.2,65.3 252.2,65.3 252.7,64.9 252.2,64.4 253.2,64.4 "/>
<polygon points="322.1,30.4 315.7,32.5 315.7,28.3 "/>
<path d="M316.1,31.9l4.5-1.5l-4.5-1.5V31.9z M323.5,30.4l-8.3,2.7v-5.4L323.5,30.4z"/>
<path d="M257.6,45.8c0,0.5,0.4,0.7,0.9,0.5v0.3v0.3c-0.7,0.2-1.6,0.1-1.6-0.9v-1.4v-1.4h-0.5v-0.3v-0.3h0.5l0.2-1h0.5v0.5v0.5h0.8
	v0.3v0.3h-0.8v1.4V45.8z"/>
<path d="M259,46.8v-2.1v-2.1h0.7v2.1v2.1H259z M259,41.6v-0.3V41h0.7v0.3v0.3H259z"/>
<path d="M262.4,43c-0.9,0-1,0.8-1,1.7c0,0.9,0.1,1.7,1,1.7c0.9,0,1.1-0.7,1.1-1.7C263.5,43.7,263.3,43,262.4,43z M262.2,42.5
	c0.7,0,1.1,0.3,1.4,0.7l0-2.3h0.7l0,5.9h-0.7c0-0.2,0-0.5-0.1-0.7c-0.2,0.5-0.6,0.8-1.3,0.8c-1.2,0-1.6-0.9-1.6-2.2
	C260.6,43.2,261.1,42.5,262.2,42.5z"/>
<path d="M265.8,45.7c0,0.5,0.3,0.7,0.7,0.7c0.9-0.1,1.4-0.7,1.4-1.7C266.9,44.8,265.8,44.6,265.8,45.7z M267.9,46
	c-0.3,0.5-0.7,0.9-1.5,0.9c-0.8,0-1.3-0.5-1.3-1.3c0-1.4,1.4-1.4,2.8-1.4c0.1-0.8-0.2-1.2-0.9-1.2c-0.5,0-0.9,0.2-0.9,0.7l-0.7-0.1
	c0.1-0.8,0.7-1.2,1.7-1.2c1,0,1.6,0.5,1.6,1.4v0.9v0.9c0,0.4,0.2,0.7,0.6,0.6v0.2v0.2C268.6,47,267.9,46.8,267.9,46z"/>
<polygon points="272.5,46.8 271,44.9 270.5,45.3 270.5,46.1 270.5,46.8 269.8,46.8 269.8,43.9 269.8,41 270.5,41 270.5,42.8 
	270.5,44.6 272.4,42.6 273.2,42.6 271.5,44.4 273.3,46.8 "/>
<rect x="368.3" y="76.9" class="st0" width="72" height="33.7"/>
<rect x="368.3" y="76.9" class="st1" width="72" height="33.7"/>
<path d="M399.2,83.5c0,1.5-0.9,2.2-2.3,2.2c-1.4,0-2.3-0.7-2.3-2.1v-1.8V80h0.7c0.2,2-0.7,5,1.5,5c2.3,0,1.4-3,1.6-5h0.7v1.7V83.5z"
	/>
<path d="M399.6,86.7c0.5,0.1,0.7-0.1,0.7-0.7v-2.4v-2.4h0.7v2.4v2.4c0,0.9-0.5,1.3-1.5,1.1V87V86.7z M400.3,80.4v-0.3v-0.3h0.7v0.3
	v0.3H400.3z"/>
<path d="M402.1,85.6v-2.1v-2.1h0.7v2.1v2.1H402.1z M402.1,80.4v-0.3v-0.3h0.7v0.3v0.3H402.1z"/>
<path d="M404.4,84.4c0,0.5,0.3,0.7,0.7,0.7c0.9-0.1,1.4-0.7,1.4-1.7C405.5,83.5,404.4,83.4,404.4,84.4z M406.5,84.8
	c-0.3,0.5-0.7,0.9-1.5,0.9c-0.8,0-1.3-0.5-1.3-1.3c0-1.4,1.4-1.4,2.8-1.4c0.1-0.8-0.2-1.2-0.9-1.2c-0.5,0-0.9,0.2-0.9,0.7l-0.7-0.1
	c0.1-0.8,0.7-1.2,1.7-1.2c1,0,1.6,0.5,1.6,1.4v0.9v0.9c0,0.4,0.2,0.7,0.6,0.6v0.2v0.2C407.1,85.8,406.5,85.5,406.5,84.8z"/>
<path d="M410.5,81.2c2-0.1,1.2,2.6,1.4,4.4h-0.7v-1.4v-1.4c0-0.7-0.2-1.1-0.9-1.1c-1.6,0-1,2.3-1.1,3.8h-0.7l0-4.3h0.7
	c0,0.2,0,0.5,0,0.7C409.4,81.5,409.8,81.2,410.5,81.2z"/>
<path d="M413.1,85.6v-0.4v-0.4h0.8v0.4v0.4H413.1z M413.1,82.1v-0.4v-0.4h0.8v0.4v0.4H413.1z"/>
<path d="M372,92.5c1.3,0,2.8,0.2,2.8-1.1c0-1.3-1.5-1.1-2.8-1.1v1.1V92.5z M371.3,89.7c2,0,4.3-0.3,4.3,1.7c0,1.8-1.7,1.8-3.6,1.7
	v1.1v1.1h-0.7v-2.8V89.7z"/>
<path d="M379.4,92.8c0.1-1.3-1.7-1.7-2.2-0.6c-0.1,0.2-0.1,0.4-0.1,0.6H379.4z M378.2,90.9c1.4,0,1.9,0.9,1.9,2.4h-3
	c0,0.9,0.3,1.5,1.2,1.5c0.6,0,1-0.3,1.1-0.7l0.6,0.2c-0.2,0.6-0.8,1-1.7,1c-1.3,0-2-0.8-2-2.3C376.3,91.8,376.9,90.9,378.2,90.9z"/>
<polygon points="381,95.3 381,92.4 381,89.4 381.7,89.4 381.7,92.4 381.7,95.3 "/>
<path d="M383.3,94.1c0,0.4,0.3,0.7,0.7,0.7c0.9-0.1,1.4-0.7,1.4-1.7C384.4,93.2,383.3,93.1,383.3,94.1z M385.4,94.5
	c-0.3,0.5-0.7,0.9-1.5,0.9c-0.8,0-1.3-0.5-1.3-1.3c0-1.4,1.4-1.4,2.8-1.4c0.1-0.8-0.2-1.2-0.9-1.2c-0.5,0-0.9,0.2-0.9,0.7l-0.7-0.1
	c0.1-0.8,0.7-1.2,1.7-1.2c1,0,1.6,0.4,1.6,1.4v0.9v0.9c0,0.4,0.2,0.7,0.6,0.6v0.2v0.2C386.1,95.5,385.4,95.2,385.4,94.5z"/>
<polygon points="390,95.3 388.5,93.4 388,93.8 388,94.5 388,95.3 387.3,95.3 387.3,92.4 387.3,89.4 388,89.4 388,91.3 388,93.1 
	389.9,91 390.7,91 389,92.9 390.8,95.3 "/>
<path d="M393.8,92.1c-0.1-0.8-1.9-0.9-2,0c0.3,1.2,2.6,0.3,2.7,2s-3.4,1.7-3.5,0.2l0.6-0.1c0.1,0.8,2.2,1,2.2,0
	c-0.2-1.3-2.5-0.3-2.7-2c-0.1-1.3,1.8-1.4,2.7-0.9c0.3,0.2,0.5,0.4,0.5,0.8L393.8,92.1z"/>
<path d="M395.9,94.1c0,0.4,0.3,0.7,0.7,0.7c0.9-0.1,1.4-0.7,1.4-1.7C397,93.2,395.9,93.1,395.9,94.1z M398,94.5
	c-0.3,0.5-0.7,0.9-1.5,0.9c-0.8,0-1.3-0.5-1.3-1.3c0-1.4,1.4-1.4,2.8-1.4c0.1-0.8-0.2-1.2-0.9-1.2c-0.5,0-0.9,0.2-0.9,0.7l-0.7-0.1
	c0.1-0.8,0.7-1.2,1.7-1.2c1,0,1.6,0.4,1.6,1.4v0.9v0.9c0,0.4,0.2,0.7,0.6,0.6v0.2v0.2C398.7,95.5,398,95.2,398,94.5z"/>
<path d="M402,90.9c2-0.1,1.2,2.6,1.4,4.4h-0.7v-1.4v-1.4c0-0.7-0.2-1.1-0.9-1.1c-1.6,0-1,2.3-1.1,3.8h-0.7l0-4.3h0.7
	c0,0.2,0,0.5,0,0.7C400.9,91.3,401.3,91,402,90.9z"/>
<path d="M404.9,94.1c0,0.4,0.3,0.7,0.7,0.7c0.9-0.1,1.4-0.7,1.4-1.7C406,93.2,404.9,93.1,404.9,94.1z M407,94.5
	c-0.3,0.5-0.7,0.9-1.5,0.9c-0.8,0-1.3-0.5-1.3-1.3c0-1.4,1.4-1.4,2.8-1.4c0.1-0.8-0.2-1.2-0.9-1.2c-0.5,0-0.9,0.2-0.9,0.7l-0.7-0.1
	c0.1-0.8,0.7-1.2,1.7-1.2c1,0,1.6,0.4,1.6,1.4v0.9v0.9c0,0.4,0.2,0.7,0.6,0.6v0.2v0.2C407.7,95.5,407,95.2,407,94.5z"/>
<path d="M409.4,94.1c0,0.4,0.3,0.7,0.7,0.7c0.9-0.1,1.4-0.7,1.4-1.7C410.5,93.2,409.4,93.1,409.4,94.1z M411.5,94.5
	c-0.3,0.5-0.7,0.9-1.5,0.9c-0.8,0-1.3-0.5-1.3-1.3c0-1.4,1.4-1.4,2.8-1.4c0.1-0.8-0.2-1.2-0.9-1.2c-0.5,0-0.9,0.2-0.9,0.7l-0.7-0.1
	c0.1-0.8,0.7-1.2,1.7-1.2c1,0,1.6,0.4,1.6,1.4v0.9v0.9c0,0.4,0.2,0.7,0.6,0.6v0.2v0.2C412.2,95.5,411.5,95.2,411.5,94.5z"/>
<path d="M415.5,90.9c2-0.1,1.2,2.6,1.4,4.4h-0.7v-1.4v-1.4c0-0.7-0.2-1.1-0.9-1.1c-1.6,0-1,2.3-1.1,3.8h-0.7l0-4.3h0.7
	c0,0.2,0,0.5,0,0.7C414.4,91.3,414.8,91,415.5,90.9z"/>
<path d="M424.8,93.2c0,1.5-0.9,2.2-2.3,2.2c-1.4,0-2.3-0.7-2.3-2.1v-1.8v-1.8h0.7c0.2,2-0.7,5,1.5,5c2.3,0,1.4-3,1.6-5h0.7v1.7V93.2
	z"/>
<path d="M425.2,96.4c0.5,0.1,0.7-0.1,0.7-0.7v-2.4V91h0.7v2.4v2.4c0,0.9-0.5,1.3-1.5,1.1v-0.3V96.4z M425.9,90.1v-0.3v-0.3h0.7v0.3
	v0.3H425.9z"/>
<path d="M427.7,95.3v-2.1V91h0.7v2.1v2.1H427.7z M427.7,90.1v-0.3v-0.3h0.7v0.3v0.3H427.7z"/>
<path d="M430,94.1c0,0.4,0.3,0.7,0.7,0.7c0.9-0.1,1.4-0.7,1.4-1.7C431.1,93.2,430,93.1,430,94.1z M432.1,94.5
	c-0.3,0.5-0.7,0.9-1.5,0.9c-0.8,0-1.3-0.5-1.3-1.3c0-1.4,1.4-1.4,2.8-1.4c0.1-0.8-0.2-1.2-0.9-1.2c-0.5,0-0.9,0.2-0.9,0.7l-0.7-0.1
	c0.1-0.8,0.7-1.2,1.7-1.2c1,0,1.6,0.4,1.6,1.4v0.9v0.9c0,0.4,0.2,0.7,0.6,0.6v0.2v0.2C432.8,95.5,432.1,95.2,432.1,94.5z"/>
<path d="M436.1,90.9c2-0.1,1.2,2.6,1.4,4.4h-0.7v-1.4v-1.4c0-0.7-0.2-1.1-0.9-1.1c-1.6,0-1,2.3-1.1,3.8H434l0-4.3h0.7
	c0,0.2,0,0.5,0,0.7C435,91.3,435.4,91,436.1,90.9z"/>
<path d="M397,100.8c-0.1-1.1-2.8-1.2-2.8,0c0.3,1.7,3.6,0.3,3.7,2.7c0.1,1.8-2.7,2-3.9,1.2c-0.4-0.2-0.6-0.6-0.7-1l0.7-0.2
	c0.1,1.3,3.2,1.4,3.2,0c0-1.8-3.5-0.3-3.6-2.7c-0.1-1.8,3.3-1.9,4-0.8c0.1,0.2,0.2,0.4,0.2,0.6L397,100.8z"/>
<path d="M400.6,101.2c-1.6,0-1,2.3-1.1,3.8h-0.7v-2.9v-2.9h0.7l0,2.3c0.3-0.5,0.6-0.8,1.4-0.8c2,0,1.2,2.6,1.4,4.4h-0.7v-1.4v-1.4
	C401.5,101.6,401.3,101.2,400.6,101.2z"/>
<path d="M403.3,105v-2.1v-2.1h0.7v2.1v2.1H403.3z M403.3,99.8v-0.3v-0.3h0.7v0.3v0.3H403.3z"/>
<path d="M406.8,99.8c-0.7-0.2-0.9,0.2-0.9,1h0.9v0.3v0.3h-0.9v1.9v1.9h-0.7v-1.9v-1.9h-0.6V101v-0.3h0.6c-0.2-1.2,0.4-1.8,1.6-1.5
	v0.3V99.8z"/>
<path d="M408.1,104c0,0.5,0.4,0.7,0.9,0.5v0.3v0.3c-0.7,0.2-1.6,0.1-1.6-0.9v-1.4v-1.4h-0.5V101v-0.3h0.5l0.2-1h0.5v0.5v0.5h0.8v0.3
	v0.3h-0.8v1.3V104z"/>
<path d="M413.5,99.4c1.8-0.2,2.1,2,1,3l-1.4,1.2c-0.2,0.2-0.5,0.5-0.7,0.8h2.9v0.3v0.3h-3.7c0-2.2,2.9-2.1,2.9-4.1c0-0.6-0.4-1-1-1
	s-1,0.3-1.1,0.9l-0.7-0.1C411.8,99.9,412.5,99.5,413.5,99.4z"/>
<line class="st1" x1="351.2" y1="93.7" x2="359.5" y2="93.7"/>
<rect x="350.8" y="93.2" width="0.5" height="0.9"/>
<polygon points="366.4,93.7 360,95.8 360,91.6 "/>
<polygon class="st1" points="366.4,93.7 360,95.8 360,91.6 "/>
<line class="st1" x1="90.9" y1="64.9" x2="99.2" y2="64.9"/>
<polygon points="90.9,65.3 90.4,65.3 90.4,64.9 90.4,64.8 90.4,64.4 90.9,64.4 "/>
<polygon points="106.1,64.9 99.7,67 99.7,62.8 "/>
<polygon class="st1" points="106.1,64.9 99.7,67 99.7,62.8 "/>
<rect x="477" y="45.4" class="st0" width="72" height="23.9"/>
<rect x="477" y="45.4" class="st1" width="72" height="23.9"/>
<path d="M493.5,51.4c1.3,0,2.8,0.2,2.8-1.1c0-1.3-1.5-1.1-2.8-1.1v1.1V51.4z M492.8,48.6c2,0,4.3-0.3,4.3,1.7c0,1.8-1.7,1.8-3.6,1.7
	v1.1v1.1h-0.7v-2.8V48.6z"/>
<path d="M498.6,53c0,0.5,0.3,0.7,0.7,0.7c0.9-0.1,1.4-0.7,1.4-1.7C499.7,52.1,498.6,52,498.6,53z M500.7,53.4
	c-0.3,0.5-0.7,0.9-1.5,0.9c-0.8,0-1.3-0.5-1.3-1.3c0-1.4,1.4-1.4,2.8-1.4c0.1-0.8-0.2-1.2-0.9-1.2c-0.5,0-0.9,0.2-0.9,0.7L498,51
	c0.1-0.8,0.7-1.2,1.7-1.2c1,0,1.6,0.5,1.6,1.4v0.9v0.9c0,0.4,0.2,0.7,0.6,0.6v0.2v0.2C501.3,54.4,500.6,54.1,500.7,53.4z"/>
<path d="M505,51c-0.1-0.8-1.9-0.9-2,0c0.3,1.2,2.6,0.3,2.7,2s-3.4,1.7-3.5,0.2l0.6-0.1c0.1,0.8,2.2,1,2.2,0c-0.2-1.3-2.5-0.3-2.7-2
	c-0.1-1.3,1.8-1.4,2.7-0.9c0.3,0.2,0.5,0.4,0.5,0.8L505,51z"/>
<path d="M508.2,50.4c-0.9,0-1.1,0.7-1.1,1.6s0.2,1.7,1.1,1.7c0.5,0,0.9-0.3,1-0.9l0.7,0c-0.1,0.8-0.7,1.4-1.7,1.4
	c-1.3,0-1.7-0.9-1.8-2.2c-0.2-2.1,2.3-2.9,3.3-1.4c0.1,0.2,0.1,0.3,0.2,0.5l-0.7,0.1C509,50.7,508.8,50.4,508.2,50.4z"/>
<path d="M511.2,53c0,0.5,0.3,0.7,0.7,0.7c0.9-0.1,1.4-0.7,1.4-1.7C512.3,52.1,511.2,52,511.2,53z M513.3,53.4
	c-0.3,0.5-0.7,0.9-1.5,0.9c-0.8,0-1.3-0.5-1.3-1.3c0-1.4,1.4-1.4,2.8-1.4c0.1-0.8-0.2-1.2-0.9-1.2c-0.5,0-0.9,0.2-0.9,0.7l-0.7-0.1
	c0.1-0.8,0.7-1.2,1.7-1.2c1,0,1.6,0.5,1.6,1.4v0.9v0.9c0,0.4,0.2,0.7,0.6,0.6v0.2v0.2C513.9,54.4,513.2,54.1,513.3,53.4z"/>
<path d="M516.5,54.3c-2,0.1-1.2-2.6-1.4-4.4h0.7v1.3v1.3c0,0.7,0.2,1.1,0.9,1.1c1.6,0,1-2.3,1.1-3.8h0.7l0,4.3h-0.7
	c0-0.2,0-0.6,0-0.7C517.6,53.9,517.2,54.2,516.5,54.3z"/>
<path d="M518.9,55.3c0.5,0.1,0.7-0.1,0.7-0.7v-2.4v-2.4h0.7v2.4v2.4c0,0.9-0.5,1.3-1.5,1.1v-0.3V55.3z M519.6,49v-0.3v-0.3h0.7v0.3
	V49H519.6z"/>
<path d="M521.4,54.2V52v-2.1h0.7V52v2.1H521.4z M521.4,49v-0.3v-0.3h0.7v0.3V49H521.4z"/>
<path d="M523.7,53c0,0.5,0.3,0.7,0.7,0.7c0.9-0.1,1.4-0.7,1.3-1.7C524.8,52.1,523.7,52,523.7,53z M525.8,53.4
	c-0.3,0.5-0.7,0.9-1.5,0.9c-0.8,0-1.3-0.5-1.3-1.3c0-1.4,1.4-1.4,2.8-1.4c0.1-0.8-0.2-1.2-0.9-1.2c-0.5,0-0.9,0.2-0.9,0.7l-0.7-0.1
	c0.1-0.8,0.7-1.2,1.7-1.2c1,0,1.6,0.5,1.6,1.4v0.9v0.9c0,0.4,0.2,0.7,0.6,0.6v0.2v0.2C526.5,54.4,525.8,54.1,525.8,53.4z"/>
<path d="M529.8,49.8c2-0.1,1.2,2.6,1.4,4.4h-0.7v-1.4v-1.4c0-0.7-0.2-1.1-0.9-1.1c-1.6,0-1,2.3-1.1,3.8h-0.7l0-4.3h0.7
	c0,0.2,0,0.5,0,0.7C528.7,50.1,529.1,49.8,529.8,49.8z"/>
<path d="M532.4,54.2v-0.4v-0.4h0.8v0.4v0.4H532.4z M532.4,50.7v-0.4v-0.4h0.8v0.4v0.4H532.4z"/>
<path d="M480.7,61.1c1.3,0,2.8,0.2,2.8-1.1c0-1.3-1.5-1.1-2.8-1.1V60V61.1z M480,58.3c2,0,4.3-0.3,4.3,1.7c0,1.8-1.7,1.8-3.6,1.7
	v1.1v1.1H480v-2.8V58.3z"/>
<path d="M488.1,61.4c0.1-1.3-1.7-1.7-2.2-0.6c-0.1,0.2-0.1,0.4-0.1,0.6H488.1z M487,59.5c1.4,0,1.9,0.9,1.9,2.4h-3
	c0,0.9,0.3,1.5,1.2,1.5c0.6,0,1-0.3,1.1-0.7l0.6,0.2c-0.2,0.6-0.8,1-1.7,1c-1.3,0-2-0.8-2-2.2C485.1,60.4,485.6,59.5,487,59.5z"/>
<path d="M491.8,59.5c2-0.1,1.2,2.6,1.4,4.4h-0.7v-1.4v-1.4c0-0.7-0.2-1.1-0.9-1.1c-1.6,0-1,2.3-1.1,3.8h-0.7l0-4.3h0.7
	c0,0.2,0,0.5,0,0.7C490.7,59.8,491.1,59.6,491.8,59.5z"/>
<path d="M495.8,63.4c0.8,0,1.1-0.7,1.1-1.6c0-0.9-0.3-1.7-1.1-1.7c-0.9,0-1,0.8-1,1.7S494.9,63.4,495.8,63.4z M497.7,59.6
	c-0.2,2.8,0.9,6.6-2.5,5.9c-0.5-0.1-0.9-0.4-1-1l0.7-0.1c0.3,1.1,2.3,0.7,2-0.6v-0.3v-0.3c-0.2,0.5-0.7,0.8-1.4,0.8
	c-1.2,0-1.5-0.9-1.5-2.2c0-1.3,0.4-2.2,1.6-2.2c0.7,0,1.1,0.4,1.3,0.8c0-0.2,0-0.5,0-0.7H497.7z"/>
<path d="M498.7,63.9v-2.1v-2.1h0.7v2.1v2.1H498.7z M498.7,58.7v-0.3V58h0.7v0.3v0.3H498.7z"/>
<path d="M502.5,60.2c-1.8-0.4-1.2,2-1.3,3.7h-0.7l0-4.3h0.7c0,0.3,0,0.7,0,0.9c0.1-0.6,0.5-1.1,1.3-0.9v0.3V60.2z"/>
<path d="M503.2,63.9v-2.1v-2.1h0.7v2.1v2.1H503.2z M503.2,58.7v-0.3V58h0.7v0.3v0.3H503.2z"/>
<path d="M509.2,60.1c-1.5,0.1-0.9,2.4-1,3.8h-0.7v-1.4v-1.4c0-0.7-0.1-1.1-0.8-1.1c-1.5,0.1-0.9,2.3-1,3.8H505l0-4.3h0.7
	c0,0.2,0,0.5,0,0.7c0.2-1,2.2-1.1,2.4,0c0.2-0.5,0.6-0.8,1.3-0.8c1.9,0,1.1,2.7,1.2,4.4H510v-1.4v-1.4
	C510,60.5,509.8,60.1,509.2,60.1z"/>
<path d="M512.2,62.7c0,0.5,0.3,0.7,0.7,0.7c0.9-0.1,1.4-0.7,1.4-1.7C513.3,61.8,512.2,61.7,512.2,62.7z M514.3,63.1
	c-0.3,0.5-0.7,0.9-1.5,0.9c-0.8,0-1.3-0.5-1.3-1.3c0-1.4,1.4-1.4,2.8-1.4c0.1-0.8-0.2-1.2-0.9-1.2c-0.5,0-0.9,0.2-0.9,0.7l-0.7-0.1
	c0.1-0.8,0.7-1.2,1.7-1.2c1,0,1.6,0.5,1.6,1.4v0.9v0.9c0,0.4,0.2,0.7,0.6,0.6v0.2v0.2C515,64.1,514.3,63.8,514.3,63.1z"/>
<path d="M518.3,59.5c2-0.1,1.2,2.6,1.4,4.4h-0.7v-1.4v-1.4c0-0.7-0.2-1.1-0.9-1.1c-1.6,0-1,2.3-1.1,3.8h-0.7l0-4.3h0.7
	c0,0.2,0,0.5,0,0.7C517.2,59.8,517.6,59.6,518.3,59.5z"/>
<path d="M524.8,63.4c0.9,0,1-0.8,1-1.7c0-0.9-0.1-1.7-1-1.7c-0.9,0-1.1,0.7-1.1,1.7C523.7,62.8,523.9,63.4,524.8,63.4z M525,59.5
	c1.2,0,1.6,0.9,1.6,2.2c0,1.5-0.5,2.2-1.6,2.2c-0.7,0-1.1-0.2-1.3-0.8l0,0.7h-0.7l0-5.9h0.7v1.1v1.1C523.9,59.8,524.3,59.5,525,59.5
	z"/>
<path d="M530.3,61.4c0.1-1.3-1.7-1.7-2.2-0.6c-0.1,0.2-0.1,0.4-0.1,0.6H530.3z M529.2,59.5c1.4,0,1.9,0.9,1.9,2.4h-3
	c0,0.9,0.3,1.5,1.2,1.5c0.6,0,1-0.3,1.1-0.7l0.6,0.2c-0.2,0.6-0.8,1-1.7,1c-1.3,0-2-0.8-2-2.2C527.3,60.4,527.8,59.5,529.2,59.5z"/>
<path d="M534,60.2c-1.8-0.4-1.2,2-1.3,3.7H532l0-4.3h0.7c0,0.3,0,0.7,0,0.9c0.1-0.6,0.5-1.1,1.3-0.9v0.3V60.2z"/>
<polygon points="537.3,63.9 535.9,61.9 535.4,62.4 535.4,63.1 535.4,63.9 534.6,63.9 534.6,61 534.6,58 535.4,58 535.4,59.9 
	535.4,61.7 537.2,59.6 538.1,59.6 536.3,61.5 538.2,63.9 "/>
<path d="M539.2,62.7c0,0.5,0.3,0.7,0.7,0.7c0.9-0.1,1.4-0.7,1.3-1.7C540.3,61.8,539.2,61.7,539.2,62.7z M541.3,63.1
	c-0.3,0.5-0.7,0.9-1.5,0.9c-0.8,0-1.3-0.5-1.3-1.3c0-1.4,1.4-1.4,2.8-1.4c0.1-0.8-0.2-1.2-0.9-1.2c-0.5,0-0.9,0.2-0.9,0.7l-0.7-0.1
	c0.1-0.8,0.7-1.2,1.7-1.2c1,0,1.6,0.5,1.6,1.4v0.9v0.9c0,0.4,0.2,0.7,0.6,0.6v0.2v0.2C541.9,64.1,541.3,63.8,541.3,63.1z"/>
<path d="M545.7,60.7c-0.1-0.8-1.9-0.9-2,0c0.3,1.2,2.6,0.3,2.7,2c0.1,1.8-3.4,1.7-3.5,0.2l0.6-0.1c0.1,0.8,2.2,1,2.2,0
	c-0.2-1.3-2.5-0.3-2.7-2c-0.1-1.3,1.8-1.4,2.7-0.9c0.3,0.2,0.5,0.4,0.5,0.8L545.7,60.7z"/>
<polyline class="st1" points="396.9,30.4 454.5,30.4 454.5,57.4 468,57.4 "/>
<rect x="396.4" y="30" width="0.4" height="0.9"/>
<polygon points="474.7,57.4 468.4,59.5 468.4,55.3 "/>
<polygon class="st1" points="474.7,57.4 468.4,59.5 468.4,55.3 "/>
<polyline class="st1" points="441.2,93.7 454.5,93.7 454.5,57.4 468,57.4 "/>
<rect x="440.8" y="93.2" width="0.5" height="0.9"/>
<polygon points="474.7,57.4 468.4,59.5 468.4,55.3 "/>
<polygon class="st1" points="474.7,57.4 468.4,59.5 468.4,55.3 "/>
<path class="st0" d="M624.6,43.9c8,0,14.4,6,14.4,13.5c0,7.5-6.4,13.5-14.4,13.5h-43.2c-8,0-14.4-6-14.4-13.5
	c0-7.5,6.4-13.5,14.4-13.5H624.6z"/>
<path class="st1" d="M624.6,43.9c8,0,14.4,6,14.4,13.5c0,7.5-6.4,13.5-14.4,13.5h-43.2c-8,0-14.4-6-14.4-13.5
	c0-7.5,6.4-13.5,14.4-13.5H624.6z"/>
<path d="M593.9,55.4c-0.1-1.1-2.8-1.2-2.8,0c0.3,1.7,3.6,0.3,3.7,2.7c0.1,1.8-2.7,2-3.9,1.2c-0.4-0.2-0.6-0.6-0.7-1l0.7-0.2
	c0.1,1.3,3.2,1.4,3.2,0c0-1.8-3.5-0.3-3.6-2.7c-0.1-1.8,3.3-1.9,4-0.8c0.1,0.2,0.2,0.4,0.2,0.6L593.9,55.4z"/>
<path d="M598.6,57.1c0.1-1.3-1.7-1.7-2.2-0.6c-0.1,0.2-0.1,0.4-0.1,0.6H598.6z M597.4,55.3c1.4,0,1.9,0.9,1.9,2.4h-3
	c0,0.9,0.3,1.5,1.2,1.5c0.6,0,1-0.3,1.1-0.7l0.6,0.2c-0.2,0.6-0.8,1-1.7,1c-1.3,0-2-0.8-2-2.3C595.5,56.1,596.1,55.3,597.4,55.3z"/>
<polygon points="600.2,59.7 600.2,56.7 600.2,53.8 600.9,53.8 600.9,56.7 600.9,59.7 "/>
<path d="M604.8,57.1c0.1-1.3-1.7-1.7-2.2-0.6c-0.1,0.2-0.1,0.4-0.1,0.6H604.8z M603.7,55.3c1.4,0,1.9,0.9,1.9,2.4h-3
	c0,0.9,0.3,1.5,1.2,1.5c0.6,0,1-0.3,1.1-0.7l0.6,0.2c-0.2,0.6-0.8,1-1.7,1c-1.3,0-2-0.8-2-2.3C601.8,56.1,602.3,55.3,603.7,55.3z"/>
<path d="M609,56.5c-0.1-0.8-1.9-0.9-2,0c0.3,1.2,2.6,0.3,2.7,2c0.1,1.8-3.4,1.7-3.5,0.2l0.6-0.1c0.1,0.8,2.2,1,2.2,0
	c-0.2-1.3-2.5-0.3-2.7-2c-0.1-1.3,1.8-1.4,2.7-0.9c0.3,0.2,0.5,0.4,0.5,0.8L609,56.5z"/>
<path d="M611.1,58.5c0,0.5,0.3,0.7,0.7,0.7c0.9-0.1,1.4-0.7,1.3-1.7C612.2,57.6,611.1,57.5,611.1,58.5z M613.1,58.9
	c-0.3,0.5-0.7,0.9-1.5,0.9c-0.8,0-1.3-0.5-1.3-1.3c0-1.4,1.4-1.4,2.8-1.4c0.1-0.8-0.2-1.2-0.9-1.2c-0.5,0-0.9,0.2-0.9,0.7l-0.7-0.1
	c0.1-0.8,0.7-1.2,1.7-1.2c1,0,1.6,0.5,1.6,1.4v0.9v0.9c0,0.4,0.2,0.7,0.6,0.6v0.2v0.2C613.8,59.9,613.1,59.6,613.1,58.9z"/>
<path d="M615,59.7v-2.1v-2.1h0.7v2.1v2.1H615z M615,54.5v-0.3v-0.3h0.7v0.3v0.3H615z"/>
<line class="st1" x1="549.9" y1="57.4" x2="558" y2="57.4"/>
<rect x="549.4" y="57" width="0.5" height="0.9"/>
<polygon points="564.7,57.4 558.4,59.5 558.4,55.3 "/>
<polygon class="st1" points="564.7,57.4 558.4,59.5 558.4,55.3 "/>
</svg>
