<?xml version="1.0" encoding="utf-8"?>
<!-- Generator: Adobe Illustrator 23.0.3, SVG Export Plug-In . SVG Version: 6.00 Build 0)  -->
<svg version="1.1" id="Layer_1" xmlns="http://www.w3.org/2000/svg" xmlns:xlink="http://www.w3.org/1999/xlink" x="0px" y="0px"
	 viewBox="0 0 329 288" style="enable-background:new 0 0 329 288;" xml:space="preserve">
<style type="text/css">
	.st0{fill:#FFFFFF;}
	.st1{fill:none;stroke:#000000;stroke-width:0.9;stroke-miterlimit:10;}
	.st2{fill:#232F3E;}
	.st3{opacity:0;fill:none;stroke:#FFFFFF;stroke-width:0.45;stroke-miterlimit:10;}
	.st4{opacity:0;fill:none;stroke:#000000;stroke-width:0.9;stroke-miterlimit:10;}
</style>
<rect x="18" y="18" class="st0" width="117" height="180"/>
<rect x="18" y="18" class="st1" width="117" height="180"/>
<path class="st2" d="M60.8,217.5L60.8,217.5c-0.4,0-0.8,0.3-0.8,0.8v20.5c0,0.4,0.4,0.8,0.8,0.8h31.4c0.5,0,0.8-0.4,0.8-0.8v-20.5
	c0-0.5-0.3-0.8-0.8-0.8H60.8z M92.2,241.1H60.8c-1.3,0-2.3-1-2.3-2.3v-20.5c0-1.3,1-2.3,2.3-2.3h31.4c1.3,0,2.3,1,2.3,2.3v20.5
	C94.5,240.1,93.5,241.1,92.2,241.1C92.2,241.1,92.2,241.1,92.2,241.1z"/>
<path class="st3" d="M60.8,217.5L60.8,217.5c-0.4,0-0.8,0.3-0.8,0.8v20.5c0,0.4,0.4,0.8,0.8,0.8h31.4c0.5,0,0.8-0.4,0.8-0.8v-20.5
	c0-0.5-0.3-0.8-0.8-0.8H60.8z M92.2,241.1H60.8c-1.3,0-2.3-1-2.3-2.3v-20.5c0-1.3,1-2.3,2.3-2.3h31.4c1.3,0,2.3,1,2.3,2.3v20.5
	C94.5,240.1,93.5,241.1,92.2,241.1C92.2,241.1,92.2,241.1,92.2,241.1z"/>
<path class="st2" d="M61.2,244L61.2,244c-0.6,0-1.1,0.5-1.1,1.1v3.3c0,0.6,0.5,1.1,1.1,1.1h30.6c0.6,0,1.2-0.5,1.2-1.2v-3.3
	c0-0.6-0.5-1.1-1.2-1.1H61.2z M91.8,251.1H61.2c-1.5,0-2.7-1.2-2.7-2.7v-3.3c0-1.4,1.2-2.7,2.7-2.7h30.6c1.5,0,2.7,1.2,2.7,2.7v3.3
	C94.5,249.9,93.3,251.1,91.8,251.1z"/>
<path class="st3" d="M61.2,244L61.2,244c-0.6,0-1.1,0.5-1.1,1.1v3.3c0,0.6,0.5,1.1,1.1,1.1h30.6c0.6,0,1.2-0.5,1.2-1.2v-3.3
	c0-0.6-0.5-1.1-1.2-1.1H61.2z M91.8,251.1H61.2c-1.5,0-2.7-1.2-2.7-2.7v-3.3c0-1.4,1.2-2.7,2.7-2.7h30.6c1.5,0,2.7,1.2,2.7,2.7v3.3
	C94.5,249.9,93.3,251.1,91.8,251.1z"/>
<path class="st2" d="M62.9,236.7h27.2v-16.3H62.9V236.7z M90.9,238.2H62.1c-0.4,0-0.8-0.3-0.8-0.7v-17.9c0-0.4,0.4-0.8,0.8-0.8h28.7
	c0.4,0,0.8,0.4,0.8,0.8v17.9C91.6,237.9,91.3,238.2,90.9,238.2z"/>
<path class="st3" d="M62.9,236.7h27.2v-16.3H62.9V236.7z M90.9,238.2H62.1c-0.4,0-0.8-0.3-0.8-0.7v-17.9c0-0.4,0.4-0.8,0.8-0.8h28.7
	c0.4,0,0.8,0.4,0.8,0.8v17.9C91.6,237.9,91.3,238.2,90.9,238.2z"/>
<path class="st2" d="M82.2,245.3h8.6c0.5,0,0.8,0.3,0.8,0.8v1.4c0,0.5-0.3,0.8-0.8,0.8h-8.6c-0.5,0-0.7-0.3-0.7-0.8v-1.4
	C81.5,245.6,81.7,245.3,82.2,245.3z"/>
<path class="st3" d="M82.2,245.3h8.6c0.5,0,0.8,0.3,0.8,0.8v1.4c0,0.5-0.3,0.8-0.8,0.8h-8.6c-0.5,0-0.7-0.3-0.7-0.8v-1.4
	C81.5,245.6,81.7,245.3,82.2,245.3z"/>
<polygon points="62.3,256.7 61.9,258.8 65,258.8 64.9,259.4 61.8,259.4 61.3,261.6 60.6,261.6 61.6,256 65.7,256 65.5,256.7 "/>
<path d="M66.7,258.2c0.3-0.6,0.7-1.1,1.5-0.9l-0.1,0.6c-1.8-0.2-1.5,2.3-2,3.7h-0.7l0.8-4.3h0.7L66.7,258.2z"/>
<path d="M69.9,261.2c1.2,0,1.5-1.1,1.5-2.3c0-0.7-0.2-1.1-1-1.1c-1.2,0-1.5,1-1.5,2.2C68.9,260.7,69.2,261.2,69.9,261.2z
	 M68.6,258.3c0.7-1.4,3.7-1.5,3.6,0.6c-0.1,1.6-0.7,2.7-2.3,2.8C68.1,261.8,67.9,259.6,68.6,258.3z"/>
<path d="M73.9,258.1c0.5-1.1,3-1.2,2.6,0.7l-0.6,2.9h-0.7l0.6-3.2c0.1-0.9-1.2-0.7-1.6-0.3c-0.7,0.8-0.7,2.3-1,3.4h-0.7l0.8-4.3H74
	L73.9,258.1z"/>
<path d="M78.1,260.4c-0.2,0.5,0.1,0.9,0.7,0.7l-0.1,0.5c-0.8,0.3-1.6-0.1-1.3-1.1l0.5-2.6h-0.5l0.1-0.5H78l0.4-1h0.5l-0.2,1h0.8
	l-0.1,0.5h-0.8L78.1,260.4z"/>
<path d="M82.7,259.1c0.3-1.5-1.6-1.6-2.1-0.6c-0.1,0.2-0.2,0.4-0.2,0.6H82.7z M81.7,257.3c1.4-0.1,1.9,1.1,1.6,2.4h-3.1
	c-0.2,0.9,0.1,1.6,1,1.5c0.6,0,1-0.3,1.2-0.7l0.5,0.2c-0.3,0.6-0.9,1-1.8,1c-1.1,0-1.7-0.6-1.7-1.7
	C79.4,258.5,80.2,257.4,81.7,257.3z"/>
<path d="M85.2,258.1c0.5-1.1,3-1.2,2.6,0.7l-0.6,2.9h-0.7l0.6-3.2c0.1-0.9-1.2-0.7-1.6-0.3c-0.7,0.8-0.7,2.3-1,3.4h-0.7l0.8-4.3h0.7
	L85.2,258.1z"/>
<path d="M89.2,260.2c0,0.6,0.2,1,0.8,1c1.2,0,1.6-1.1,1.6-2.3c0-0.7-0.3-1-0.9-1C89.4,257.8,89.3,259.1,89.2,260.2z M91.2,261
	c-0.7,1.2-3.1,0.8-2.7-1.1c0.3-1.4,0.5-2.6,2-2.6c0.7,0,1,0.3,1.3,0.8l0.4-2.3h0.7l-1.1,5.9h-0.7L91.2,261z"/>
<path d="M66.8,273c-0.9-0.9-1.5-2.1-1.5-3.8c0-1.7,0.6-2.8,1.5-3.8h0.7c-0.9,0.9-1.4,2.1-1.4,3.8c0,1.7,0.6,2.9,1.4,3.8H66.8z"/>
<polygon points="71.9,271.4 69.7,268.6 68.9,269.2 68.9,270.3 68.9,271.4 68.2,271.4 68.2,268.6 68.2,265.8 68.9,265.8 68.9,267.2 
	68.9,268.6 71.6,265.8 72.5,265.8 70.2,268.2 72.8,271.4 "/>
<polygon points="73.5,271.4 73.5,268.4 73.5,265.5 74.2,265.5 74.2,268.4 74.2,271.4 "/>
<path d="M75.2,271.4v-2.1v-2.1H76v2.1v2.1H75.2z M75.2,266.2v-0.3v-0.3H76v0.3v0.3H75.2z"/>
<path d="M79.9,268.8c0.1-1.4-1.7-1.7-2.2-0.6c-0.1,0.2-0.1,0.4-0.1,0.6H79.9z M78.7,267c1.4,0,1.9,0.9,1.9,2.4h-3
	c0,0.9,0.3,1.5,1.2,1.5c0.6,0,1-0.3,1.1-0.7l0.6,0.2c-0.2,0.6-0.8,1-1.7,1c-1.3,0-2-0.8-2-2.3C76.8,267.8,77.4,267,78.7,267z"/>
<path d="M83.6,267c2-0.1,1.2,2.6,1.3,4.4h-0.7V270v-1.4c0-0.7-0.2-1.1-0.9-1.1c-1.6,0-1,2.3-1.1,3.8h-0.7l0-4.3h0.7
	c0,0.2,0,0.5,0,0.7C82.5,267.3,82.9,267,83.6,267z"/>
<path d="M86.2,265.5c0.9,0.9,1.5,2.1,1.5,3.8c0,1.7-0.6,2.9-1.5,3.8h-0.7c0.8-0.9,1.4-2.1,1.4-3.8c0-1.7-0.6-2.9-1.4-3.8H86.2z"/>
<rect x="231" y="18" class="st0" width="81" height="180"/>
<rect x="231" y="18" class="st1" width="81" height="180"/>
<path class="st2" d="M262.5,249.6h18v-32.9h-18V249.6z M281.2,251.1h-19.5c-0.5,0-0.8-0.4-0.8-0.8v-34.5c0-0.4,0.3-0.8,0.8-0.8h19.5
	c0.5,0,0.8,0.4,0.8,0.8v34.5C282,250.7,281.7,251.1,281.2,251.1z"/>
<path class="st3" d="M262.5,249.6h18v-32.9h-18V249.6z M281.2,251.1h-19.5c-0.5,0-0.8-0.4-0.8-0.8v-34.5c0-0.4,0.3-0.8,0.8-0.8h19.5
	c0.5,0,0.8,0.4,0.8,0.8v34.5C282,250.7,281.7,251.1,281.2,251.1z"/>
<rect x="264.6" y="218.7" class="st2" width="13.7" height="1.5"/>
<rect x="264.6" y="218.7" class="st3" width="13.7" height="1.5"/>
<rect x="264.6" y="222.3" class="st2" width="13.7" height="1.5"/>
<rect x="264.6" y="222.3" class="st3" width="13.7" height="1.5"/>
<rect x="264.6" y="225.9" class="st2" width="13.7" height="1.5"/>
<rect x="264.6" y="225.9" class="st3" width="13.7" height="1.5"/>
<rect x="264.6" y="229.5" class="st2" width="13.7" height="1.5"/>
<rect x="264.6" y="229.5" class="st3" width="13.7" height="1.5"/>
<path d="M258.7,259.9c0-1.1-1.6-0.8-2.7-0.9l-0.4,2C257,261,258.7,261.3,258.7,259.9z M258.8,257.4c0-1-1.4-0.7-2.4-0.7l-0.4,1.8
	C257.3,258.4,258.8,258.6,258.8,257.4z M259.4,259.9c0,2.1-2.6,1.7-4.7,1.7l1.1-5.6c1.6,0,3.8-0.3,3.8,1.3c0,0.9-0.5,1.2-1.4,1.4
	C258.9,258.8,259.4,259.2,259.4,259.9z"/>
<path d="M260.8,260.5c0.1,1.2,1.8,0.5,2-0.1c0.2-0.3,0.2-0.5,0.2-0.9C262,259.5,260.8,259.4,260.8,260.5z M263.6,260.5
	c-0.1,0.4,0,0.8,0.5,0.6l-0.1,0.4c-0.7,0.2-1.4,0-1.2-0.8h0c-0.3,0.5-0.7,0.9-1.5,0.9c-0.7,0-1.2-0.5-1.2-1.2c0-1.5,1.6-1.5,3.1-1.5
	c0.2-0.6,0-1.3-0.7-1.2c-0.6,0-0.9,0.2-1.1,0.7l-0.7-0.1c0.2-1.5,3.6-1.6,3.2,0.3C263.8,259.4,263.7,259.9,263.6,260.5z"/>
<path d="M265.4,260.1c0,0.7,0.2,1.1,0.9,1.1c0.7,0,0.9-0.4,1.1-0.9l0.6,0.2c-0.3,0.7-0.8,1.3-1.8,1.3c-1.1,0-1.6-0.7-1.6-2
	c0.1-1.7,1.7-3.1,3.3-2.1c0.3,0.2,0.3,0.5,0.4,0.9l-0.7,0.1c0-0.5-0.3-0.8-0.8-0.8C265.7,257.8,265.4,258.9,265.4,260.1z"/>
<polygon points="271.3,261.6 270.2,259.6 269.6,260.1 269.3,261.6 268.6,261.6 269.7,255.8 270.4,255.8 269.7,259.4 271.9,257.4 
	272.8,257.4 270.7,259.2 272.1,261.6 "/>
<polygon points="272.9,259.8 273,259.2 275,259.2 274.9,259.8 "/>
<path d="M278.6,259.1c0.3-1.5-1.6-1.6-2.1-0.6c-0.1,0.2-0.2,0.4-0.2,0.6H278.6z M277.7,257.3c1.4-0.1,1.9,1.1,1.6,2.4h-3.1
	c-0.2,0.9,0.1,1.6,1,1.5c0.6,0,1-0.3,1.2-0.7l0.5,0.2c-0.3,0.6-0.9,1-1.8,1c-1.1,0-1.7-0.6-1.7-1.7
	C275.4,258.5,276.2,257.4,277.7,257.3z"/>
<path d="M281.2,258.1c0.5-1.1,3-1.2,2.6,0.7l-0.6,2.9h-0.7l0.6-3.2c0.1-0.9-1.2-0.7-1.6-0.3c-0.7,0.8-0.7,2.3-1,3.4h-0.7l0.8-4.3
	h0.7L281.2,258.1z"/>
<path d="M285.2,260.2c0,0.6,0.2,1,0.8,1c1.2,0,1.6-1.1,1.6-2.3c0-0.7-0.3-1-0.9-1C285.4,257.8,285.3,259.1,285.2,260.2z M287.2,261
	c-0.7,1.2-3.1,0.8-2.7-1.1c0.3-1.4,0.5-2.6,2-2.6c0.7,0,1,0.3,1.3,0.8l0.4-2.3h0.7l-1.1,5.9h-0.7L287.2,261z"/>
<path d="M257.4,270.2c0-2.3,1-3.7,2.3-4.8h0.7c-1.3,1.1-2.3,2.6-2.3,4.8c0,1.1,0.3,2,0.8,2.7h-0.7
	C257.7,272.3,257.4,271.4,257.4,270.2z"/>
<path d="M264,268.6c1.3,1.2,0,3-1.9,2.8c-1.2-0.1-2-0.4-2.2-1.4l0.7-0.2c0.2,0.7,0.7,1,1.6,1c1,0,1.9-0.4,1.6-1.4
	c-0.7-1-3-0.5-3.1-2.2c-0.1-2,4-2,4.3-0.4l-0.7,0.2c-0.2-1.1-2.9-1.2-2.9,0.1C261.4,268.4,263.3,268,264,268.6z"/>
<path d="M268.6,268.8c0.3-1.5-1.6-1.6-2.1-0.6c-0.1,0.2-0.2,0.4-0.2,0.6H268.6z M267.6,267c1.4-0.1,1.9,1.1,1.6,2.4h-3.1
	c-0.2,0.9,0.1,1.6,1,1.5c0.6,0,1-0.3,1.2-0.7l0.5,0.2c-0.3,0.6-0.9,1-1.8,1c-1.1,0-1.7-0.6-1.7-1.7
	C265.3,268.2,266.1,267.1,267.6,267z"/>
<path d="M271.1,268c0.3-0.6,0.7-1.1,1.5-0.9l-0.1,0.6c-1.8-0.2-1.5,2.3-2,3.7h-0.7l0.8-4.3h0.7L271.1,268z"/>
<polygon points="274.3,271.4 273.4,271.4 272.7,267.1 273.4,267.1 273.9,270.8 275.9,267.1 276.7,267.1 "/>
<path d="M279.8,268.8c0.3-1.5-1.6-1.6-2.1-0.6c-0.1,0.2-0.2,0.4-0.2,0.6H279.8z M278.8,267c1.4-0.1,1.9,1.1,1.6,2.4h-3.1
	c-0.2,0.9,0.1,1.6,1,1.5c0.6,0,1-0.3,1.2-0.7l0.5,0.2c-0.3,0.6-0.9,1-1.8,1c-1.1,0-1.7-0.6-1.7-1.7
	C276.6,268.2,277.3,267.1,278.8,267z"/>
<path d="M282.3,268c0.3-0.6,0.7-1.1,1.5-0.9l-0.1,0.6c-1.8-0.2-1.5,2.3-2,3.7h-0.7l0.8-4.3h0.7L282.3,268z"/>
<path d="M285.7,268.3c0,2.3-1,3.7-2.3,4.8h-0.7c1.3-1.2,2.3-2.6,2.3-4.8c0-1.1-0.3-2-0.8-2.7h0.7
	C285.4,266.2,285.7,267.1,285.7,268.3z"/>
<ellipse class="st0" cx="58.5" cy="54" rx="22.5" ry="18"/>
<ellipse class="st1" cx="58.5" cy="54" rx="22.5" ry="18"/>
<polygon points="51.9,55.6 51.9,54.3 51.9,53 48.9,53 48.9,54.3 48.9,55.6 48.2,55.6 48.2,52.8 48.2,50 48.9,50 48.9,51.2 
	48.9,52.3 51.9,52.3 51.9,51.2 51.9,50 52.7,50 52.7,52.8 52.7,55.6 "/>
<polygon points="56.2,50.6 56.2,53.1 56.2,55.6 55.4,55.6 55.4,53.1 55.4,50.6 53.5,50.6 53.5,50.3 53.5,50 58.1,50 58.1,50.3 
	58.1,50.6 "/>
<path d="M63.7,55.6l0-4.9c-0.5,1.7-1.2,3.3-1.8,4.9h-0.5l-1.8-4.9l0,4.9h-0.7v-2.8V50h1l1.7,4.7c0.5-1.7,1.1-3.2,1.7-4.7h1v2.8v2.8
	H63.7z"/>
<polygon points="65.7,55.6 65.7,52.8 65.7,50 66.4,50 66.4,52.5 66.4,54.9 69.2,54.9 69.2,55.3 69.2,55.6 "/>
<ellipse class="st0" cx="103.5" cy="99" rx="22.5" ry="18"/>
<ellipse class="st1" cx="103.5" cy="99" rx="22.5" ry="18"/>
<path d="M100,96.5c-0.2-0.6-0.8-1-1.6-1c-1.3,0-2,0.9-2,2.2c0,1.3,0.7,2.3,2,2.3c1,0,1.4-0.5,1.8-1.2l0.6,0.3
	c-0.4,0.9-1.1,1.5-2.4,1.5c-1.8,0-2.6-1.1-2.7-2.9c-0.1-2.3,2.2-3.4,4.2-2.5c0.4,0.2,0.7,0.6,0.9,1L100,96.5z"/>
<path d="M105.2,96.3c-0.1-1.1-2.8-1.2-2.8,0c0.3,1.7,3.6,0.3,3.7,2.7c0.1,1.8-2.7,2-3.9,1.2c-0.4-0.2-0.6-0.6-0.7-1l0.7-0.2
	c0.1,1.3,3.2,1.4,3.2,0c0-1.8-3.5-0.3-3.6-2.7c-0.1-1.8,3.3-1.9,4-0.8c0.1,0.2,0.2,0.4,0.2,0.6L105.2,96.3z"/>
<path d="M110.6,96.3c-0.1-1.1-2.8-1.2-2.8,0c0.3,1.7,3.6,0.3,3.7,2.7c0.1,1.8-2.7,2-3.9,1.2c-0.4-0.2-0.6-0.6-0.7-1l0.7-0.2
	c0.1,1.3,3.2,1.4,3.2,0c0-1.8-3.5-0.3-3.6-2.7c-0.1-1.8,3.3-1.9,4-0.8c0.1,0.2,0.2,0.4,0.2,0.6L110.6,96.3z"/>
<ellipse class="st0" cx="49.5" cy="108" rx="22.5" ry="18"/>
<ellipse class="st1" cx="49.5" cy="108" rx="22.5" ry="18"/>
<path d="M48.2,104c-0.2,2.3,0.8,5.7-1.6,5.7c-1,0-1.5-0.6-1.7-1.5l0.7-0.1c0.1,0.6,0.4,0.9,1,1c0.6,0,0.9-0.4,0.9-1.1v-1.7v-1.7
	h-1.1v-0.3V104H48.2z"/>
<path d="M53,105.3c-0.1-1.1-2.8-1.2-2.8,0c0.3,1.7,3.6,0.3,3.7,2.7c0.1,1.8-2.7,2-3.9,1.2c-0.4-0.2-0.6-0.6-0.7-1l0.7-0.2
	c0.1,1.3,3.2,1.4,3.2,0c0-1.8-3.5-0.3-3.6-2.7c-0.1-1.8,3.3-1.9,4-0.8c0.1,0.2,0.2,0.4,0.2,0.6L53,105.3z"/>
<ellipse class="st0" cx="103.5" cy="153" rx="22.5" ry="18"/>
<ellipse class="st1" cx="103.5" cy="153" rx="22.5" ry="18"/>
<path d="M91.4,151.7c1.3,0,3.1,0.3,3.1-1.1c0-1.4-1.8-0.9-3.1-1v1V151.7z M95.3,150.6c0,0.9-0.5,1.4-1.3,1.6l1.6,2.4h-0.9l-1.5-2.3
	h-1.7v1.2v1.2h-0.7v-2.8V149C92.7,149,95.3,148.5,95.3,150.6z"/>
<path d="M99.3,152c0.1-1.3-1.7-1.7-2.2-0.6c-0.1,0.2-0.1,0.4-0.1,0.6H99.3z M98.1,150.2c1.4,0,1.9,0.9,1.9,2.4h-3
	c0,0.9,0.3,1.5,1.2,1.5c0.6,0,1-0.3,1.1-0.7l0.6,0.2c-0.2,0.6-0.8,1-1.7,1c-1.3,0-2-0.8-2-2.3C96.2,151,96.8,150.2,98.1,150.2z"/>
<path d="M101.4,153.4c0,0.4,0.3,0.7,0.7,0.7c0.9-0.1,1.4-0.7,1.3-1.7C102.5,152.5,101.4,152.3,101.4,153.4z M103.5,153.7
	c-0.3,0.5-0.7,0.9-1.5,0.9c-0.8,0-1.3-0.5-1.3-1.3c0-1.4,1.4-1.4,2.8-1.4c0.1-0.8-0.2-1.2-0.9-1.2c-0.5,0-0.9,0.2-0.9,0.7l-0.7-0.1
	c0.1-0.8,0.7-1.2,1.7-1.2c1,0,1.6,0.4,1.6,1.4v0.9v0.9c0,0.4,0.2,0.7,0.6,0.6v0.2v0.2C104.2,154.7,103.5,154.5,103.5,153.7z"/>
<path d="M107,150.8c-0.9,0-1.1,0.7-1.1,1.6c0,0.9,0.2,1.7,1.1,1.7c0.5,0,0.9-0.3,1-0.9l0.7,0c-0.1,0.8-0.7,1.4-1.7,1.4
	c-1.3,0-1.7-0.9-1.8-2.2c-0.2-2.1,2.3-2.9,3.3-1.4c0.1,0.2,0.1,0.3,0.2,0.5l-0.7,0.1C107.8,151.1,107.6,150.8,107,150.8z"/>
<path d="M110.2,153.5c0,0.5,0.4,0.7,0.9,0.5v0.3v0.3c-0.7,0.2-1.6,0.1-1.6-0.9v-1.4v-1.4H109v-0.3v-0.3h0.5l0.2-1h0.5v0.5v0.5h0.8
	v0.3v0.3h-0.8v1.4V153.5z"/>
<path d="M110.9,155.7c0.5,0.1,0.7-0.1,0.7-0.7v-2.4v-2.4h0.7v2.4v2.4c0,0.9-0.5,1.3-1.5,1.1v-0.3V155.7z M111.7,149.4V149v-0.3h0.7
	v0.3v0.3H111.7z"/>
<path d="M116,151.3c-0.1-0.8-1.9-0.9-2,0c0.3,1.2,2.6,0.3,2.7,2c0.1,1.8-3.4,1.7-3.5,0.2l0.6-0.1c0.1,0.8,2.2,1,2.2,0
	c-0.2-1.3-2.5-0.3-2.7-2c-0.1-1.3,1.8-1.4,2.7-0.9c0.3,0.2,0.5,0.4,0.5,0.8L116,151.3z"/>
<ellipse class="st0" cx="49.5" cy="171" rx="22.5" ry="18"/>
<ellipse class="st1" cx="49.5" cy="171" rx="22.5" ry="18"/>
<polygon points="42.6,172.6 41.8,172.6 39.6,167 40.4,167 42.2,171.9 44.1,167 44.9,167 "/>
<path d="M46.5,172.6c-2,0.1-1.2-2.6-1.4-4.4h0.7v1.3v1.4c0,0.7,0.2,1.1,0.9,1.1c1.6,0,1-2.3,1.1-3.8h0.7l0,4.3h-0.7
	c0-0.2,0-0.6,0-0.7C47.6,172.3,47.2,172.6,46.5,172.6z"/>
<path d="M52.6,170c0.1-1.4-1.7-1.7-2.2-0.6c-0.1,0.2-0.1,0.4-0.1,0.6H52.6z M51.4,168.2c1.4,0,1.9,0.9,1.9,2.4h-3
	c0,0.9,0.3,1.5,1.2,1.5c0.6,0,1-0.3,1.1-0.7l0.6,0.2c-0.2,0.6-0.8,1-1.7,1c-1.3,0-2-0.8-2-2.3C49.5,169,50.1,168.2,51.4,168.2z"/>
<path d="M53.4,173.7c0.5,0.1,0.7-0.1,0.7-0.7v-2.4v-2.4h0.7v2.4v2.4c0,0.9-0.5,1.3-1.5,1.1v-0.3V173.7z M54.2,167.4V167v-0.3h0.7
	v0.3v0.3H54.2z"/>
<path d="M58.5,169.3c-0.1-0.8-1.9-0.9-2,0c0.3,1.2,2.6,0.3,2.7,2c0.1,1.8-3.4,1.7-3.5,0.2l0.6-0.1c0.1,0.8,2.2,1,2.2,0
	c-0.2-1.3-2.5-0.3-2.7-2c-0.1-1.3,1.8-1.4,2.7-0.9c0.3,0.2,0.5,0.4,0.5,0.8L58.5,169.3z"/>
<ellipse class="st0" cx="271.5" cy="49.5" rx="22.5" ry="18"/>
<ellipse class="st1" cx="271.5" cy="49.5" rx="22.5" ry="18"/>
<path d="M261.5,48.8l-1.1-2.8c-0.3,1-0.7,1.8-1,2.8H261.5z M262.4,51.1l-0.6-1.6h-2.5l-0.6,1.6h-0.8l2.3-5.6h0.9l2.2,5.6H262.4z"/>
<path d="M265.6,50.6c0.9,0,1-0.8,1-1.7s-0.1-1.6-1-1.7c-0.9,0-1.1,0.7-1.1,1.7C264.4,49.9,264.6,50.6,265.6,50.6z M265.7,46.7
	c1.2,0,1.6,0.9,1.6,2.2s-0.4,2.2-1.6,2.3c-0.7,0-1.1-0.3-1.4-0.8l0,2.4h-0.7l0-6h0.7l0,0.7C264.6,47,265,46.7,265.7,46.7z"/>
<path d="M268.7,49.9c0,0.4,0.3,0.7,0.7,0.7c0.9-0.1,1.4-0.7,1.4-1.7C269.8,49,268.7,48.8,268.7,49.9z M270.8,50.2
	c-0.3,0.5-0.7,0.9-1.5,0.9c-0.8,0-1.3-0.5-1.3-1.3c0-1.4,1.4-1.4,2.8-1.4c0.1-0.8-0.2-1.2-0.9-1.2c-0.5,0-0.9,0.2-0.9,0.7l-0.7-0.1
	c0.1-0.8,0.7-1.2,1.7-1.2c1,0,1.6,0.4,1.6,1.4v0.9V50c0,0.4,0.2,0.7,0.6,0.6v0.2V51C271.5,51.2,270.8,51,270.8,50.2z"/>
<path d="M274.3,47.3c-0.9,0-1.1,0.7-1.1,1.6c0,0.9,0.2,1.7,1.1,1.7c0.5,0,0.9-0.3,1-0.9l0.7,0c-0.1,0.8-0.7,1.4-1.7,1.4
	c-1.3,0-1.7-0.9-1.8-2.2c-0.2-2.1,2.3-2.9,3.3-1.4c0.1,0.2,0.1,0.3,0.2,0.5l-0.7,0.1C275.2,47.6,274.9,47.3,274.3,47.3z"/>
<path d="M278.6,47.3c-1.6,0-1,2.3-1.1,3.8h-0.7v-2.9v-2.9h0.7l0,2.3c0.3-0.5,0.6-0.8,1.4-0.8c2,0,1.2,2.6,1.4,4.4h-0.7v-1.4v-1.4
	C279.5,47.6,279.3,47.2,278.6,47.3z"/>
<path d="M284.1,48.5c0.1-1.3-1.7-1.7-2.2-0.6c-0.1,0.2-0.1,0.4-0.1,0.6H284.1z M283,46.7c1.4,0,1.9,0.9,1.9,2.4h-3
	c0,0.9,0.3,1.5,1.2,1.5c0.6,0,1-0.3,1.1-0.7l0.6,0.2c-0.2,0.6-0.8,1-1.7,1c-1.3,0-2-0.8-2-2.3C281.1,47.5,281.6,46.7,283,46.7z"/>
<ellipse class="st0" cx="271.5" cy="103.5" rx="22.5" ry="18"/>
<ellipse class="st1" cx="271.5" cy="103.5" rx="22.5" ry="18"/>
<path d="M264.6,102.3c1.3,0,2.8,0.2,2.8-1.1c0-1.3-1.5-1.1-2.8-1.1v1.1V102.3z M263.8,99.5c2,0,4.3-0.3,4.3,1.7
	c0,1.8-1.7,1.8-3.6,1.7v1.1v1.1h-0.7v-2.8V99.5z"/>
<polygon points="273,105.1 273,103.8 273,102.5 270,102.5 270,103.8 270,105.1 269.2,105.1 269.2,102.3 269.2,99.5 270,99.5 
	270,100.7 270,101.8 273,101.8 273,100.7 273,99.5 273.8,99.5 273.8,102.3 273.8,105.1 "/>
<path d="M275.8,102.3c1.3,0,2.8,0.2,2.8-1.1c0-1.3-1.5-1.1-2.8-1.1v1.1V102.3z M275.1,99.5c2,0,4.3-0.3,4.3,1.7
	c0,1.8-1.7,1.8-3.6,1.7v1.1v1.1h-0.7v-2.8V99.5z"/>
<ellipse class="st0" cx="271.5" cy="166.5" rx="22.5" ry="18"/>
<ellipse class="st1" cx="271.5" cy="166.5" rx="22.5" ry="18"/>
<path d="M255.6,167.4c2,0.2,3.3-0.4,3.3-2.2c0-1.9-1.4-2.3-3.3-2.1v2.2V167.4z M254.8,162.5c2.7-0.2,4.9,0.2,4.8,2.7
	c-0.1,1.8-1,2.8-2.7,2.8h-2.1v-2.8V162.5z"/>
<path d="M261.1,166.9c0,0.4,0.3,0.7,0.7,0.7c0.9-0.1,1.4-0.7,1.4-1.7C262.2,166,261.1,165.8,261.1,166.9z M263.2,167.2
	c-0.3,0.5-0.7,0.9-1.5,0.9c-0.8,0-1.3-0.5-1.3-1.3c0-1.4,1.4-1.4,2.8-1.4c0.1-0.8-0.2-1.2-0.9-1.2c-0.5,0-0.9,0.2-0.9,0.7l-0.7-0.1
	c0.1-0.8,0.7-1.2,1.7-1.2c1,0,1.6,0.5,1.6,1.4v0.9v0.9c0,0.5,0.2,0.7,0.6,0.6v0.2v0.2C263.8,168.2,263.1,168,263.2,167.2z"/>
<path d="M265.8,167c0,0.5,0.4,0.7,0.9,0.5v0.3v0.3c-0.7,0.2-1.6,0.1-1.6-0.9v-1.4v-1.4h-0.5V164v-0.3h0.5l0.2-1h0.5v0.5v0.5h0.8v0.3
	v0.3h-0.8v1.4V167z"/>
<path d="M267.8,166.9c0,0.4,0.3,0.7,0.7,0.7c0.9-0.1,1.4-0.7,1.4-1.7C268.9,166,267.8,165.8,267.8,166.9z M269.9,167.2
	c-0.3,0.5-0.7,0.9-1.5,0.9c-0.8,0-1.3-0.5-1.3-1.3c0-1.4,1.4-1.4,2.8-1.4c0.1-0.8-0.2-1.2-0.9-1.2c-0.5,0-0.9,0.2-0.9,0.7l-0.7-0.1
	c0.1-0.8,0.7-1.2,1.7-1.2c1,0,1.6,0.5,1.6,1.4v0.9v0.9c0,0.5,0.2,0.7,0.6,0.6v0.2v0.2C270.6,168.2,269.9,168,269.9,167.2z"/>
<path d="M273.7,167.6c0.9,0,1-0.8,1-1.7c0-0.9-0.1-1.7-1-1.7c-0.9,0-1.1,0.7-1.1,1.7C272.5,166.9,272.7,167.6,273.7,167.6z
	 M273.8,163.7c1.2,0,1.6,0.9,1.6,2.2c0,1.5-0.5,2.3-1.6,2.3c-0.7,0-1.1-0.2-1.3-0.8l0,0.7h-0.7l0-5.9h0.7v1.1v1.1
	C272.7,163.9,273.1,163.7,273.8,163.7z"/>
<path d="M276.8,166.9c0,0.4,0.3,0.7,0.7,0.7c0.9-0.1,1.4-0.7,1.4-1.7C277.9,166,276.8,165.8,276.8,166.9z M278.9,167.2
	c-0.3,0.5-0.7,0.9-1.5,0.9c-0.8,0-1.3-0.5-1.3-1.3c0-1.4,1.4-1.4,2.8-1.4c0.1-0.8-0.2-1.2-0.9-1.2c-0.5,0-0.9,0.2-0.9,0.7l-0.7-0.1
	c0.1-0.8,0.7-1.2,1.7-1.2c1,0,1.6,0.5,1.6,1.4v0.9v0.9c0,0.5,0.2,0.7,0.6,0.6v0.2v0.2C279.6,168.2,278.9,168,278.9,167.2z"/>
<path d="M283.3,164.8c-0.1-0.8-1.9-0.9-2,0c0.3,1.2,2.6,0.3,2.7,2c0.1,1.8-3.4,1.7-3.5,0.2l0.6-0.1c0.1,0.8,2.2,1,2.2,0
	c-0.2-1.3-2.5-0.3-2.7-2c-0.1-1.3,1.8-1.4,2.7-0.9c0.3,0.2,0.5,0.4,0.5,0.8L283.3,164.8z"/>
<path d="M287.7,165.5c0.1-1.4-1.7-1.7-2.2-0.6c-0.1,0.2-0.1,0.4-0.1,0.6H287.7z M286.5,163.7c1.4,0,1.9,0.9,1.9,2.4h-3
	c0,0.9,0.3,1.5,1.2,1.5c0.6,0,1-0.3,1.1-0.7l0.6,0.2c-0.2,0.6-0.8,1-1.7,1c-1.3,0-2-0.8-2-2.3C284.7,164.5,285.2,163.7,286.5,163.7z
	"/>
<line class="st1" x1="135.9" y1="69.6" x2="189.7" y2="69.6"/>
<rect x="135.4" y="69.2" width="0.5" height="0.9"/>
<polygon points="196.6,69.6 190.1,71.7 190.1,67.5 "/>
<polygon class="st1" points="196.6,69.6 190.1,71.7 190.1,67.5 "/>
<line class="st1" x1="230.1" y1="108" x2="179.3" y2="108"/>
<rect x="230.1" y="107.6" width="0.5" height="0.9"/>
<polygon points="172.4,108 178.9,105.9 178.9,110.1 "/>
<polygon class="st1" points="172.4,108 178.9,105.9 178.9,110.1 "/>
<rect x="153" y="36" class="st4" width="63" height="13.5"/>
<polygon points="159.7,44.7 159.7,43.4 159.7,42.1 156.7,42.1 156.7,43.4 156.7,44.7 155.9,44.7 155.9,41.9 155.9,39.2 156.7,39.2 
	156.7,40.3 156.7,41.5 159.7,41.5 159.7,40.3 159.7,39.2 160.4,39.2 160.4,41.9 160.4,44.7 "/>
<polygon points="163.9,39.8 163.9,42.3 163.9,44.7 163.2,44.7 163.2,42.3 163.2,39.8 161.3,39.8 161.3,39.5 161.3,39.2 165.8,39.2 
	165.8,39.5 165.8,39.8 "/>
<polygon points="168.9,39.8 168.9,42.3 168.9,44.7 168.1,44.7 168.1,42.3 168.1,39.8 166.2,39.8 166.2,39.5 166.2,39.2 170.8,39.2 
	170.8,39.5 170.8,39.8 "/>
<path d="M172.3,42c1.3,0,2.8,0.2,2.8-1.1c0-1.3-1.5-1.1-2.8-1.1v1.1V42z M171.6,39.2c2,0,4.3-0.3,4.3,1.7c0,1.8-1.7,1.8-3.6,1.7v1.1
	v1.1h-0.7v-2.8V39.2z"/>
<polygon points="182.8,44.7 181.1,42.3 179.4,44.7 178.6,44.7 180.7,41.8 178.8,39.2 179.6,39.2 181.1,41.4 182.7,39.2 183.5,39.2 
	181.6,41.8 183.7,44.7 "/>
<path d="M189.2,44.7l0-4.9c-0.5,1.7-1.2,3.3-1.8,4.9H187l-1.8-4.9l0,4.9h-0.7v-2.8v-2.8h1l1.7,4.7c0.5-1.7,1.1-3.2,1.7-4.7h1v2.8
	v2.8H189.2z"/>
<polygon points="191.2,44.7 191.2,41.9 191.2,39.2 192,39.2 192,41.6 192,44.1 194.8,44.1 194.8,44.4 194.8,44.7 "/>
<path d="M156.7,51.5c1.3,0,3.1,0.3,3.1-1.1c0-1.4-1.8-0.9-3.1-1v1V51.5z M160.5,50.5c0,0.9-0.5,1.4-1.4,1.6l1.6,2.4h-0.9l-1.5-2.3
	h-1.7v1.2v1.2h-0.7v-2.8v-2.8C157.9,48.9,160.5,48.4,160.5,50.5z"/>
<path d="M164.5,51.9c0.1-1.3-1.7-1.7-2.2-0.6c-0.1,0.2-0.1,0.4-0.1,0.6H164.5z M163.3,50.1c1.4,0,1.9,0.9,1.9,2.4h-3
	c0,0.9,0.3,1.5,1.2,1.5c0.6,0,1-0.3,1.1-0.7l0.6,0.2c-0.2,0.6-0.8,1-1.7,1c-1.3,0-2-0.8-2-2.3C161.4,50.9,162,50.1,163.3,50.1z"/>
<path d="M167.7,54c0.9,0,1.1-0.7,1.1-1.7s-0.2-1.6-1.1-1.6c-0.9,0-1,0.8-1,1.7C166.7,53.2,166.8,54,167.7,54z M168.8,53.8
	c-0.2,0.5-0.7,0.8-1.4,0.8c-1.2,0-1.6-0.9-1.6-2.2c0-1.3,0.4-2.2,1.6-2.3c0.7,0,1.1,0.3,1.4,0.7c0-0.2,0-0.5,0-0.7h0.7l0,6h-0.7
	L168.8,53.8z"/>
<path d="M172,54.5c-2,0.1-1.2-2.6-1.4-4.4h0.7v1.4v1.3c0,0.7,0.2,1.1,0.9,1.1c1.6,0,1-2.3,1.1-3.8h0.7l0,4.3h-0.7c0-0.2,0-0.6,0-0.7
	C173.1,54.2,172.7,54.5,172,54.5z"/>
<path d="M178,51.9c0.1-1.3-1.7-1.7-2.2-0.6c-0.1,0.2-0.1,0.4-0.1,0.6H178z M176.8,50.1c1.4,0,1.9,0.9,1.9,2.4h-3
	c0,0.9,0.3,1.5,1.2,1.5c0.6,0,1-0.3,1.1-0.7l0.6,0.2c-0.2,0.6-0.8,1-1.7,1c-1.3,0-2-0.8-2-2.3C174.9,50.9,175.5,50.1,176.8,50.1z"/>
<path d="M182.1,51.2c-0.1-0.8-1.9-0.9-2,0c0.3,1.2,2.6,0.3,2.7,2c0.1,1.8-3.4,1.7-3.5,0.2l0.6-0.1c0.1,0.8,2.2,1,2.2,0
	c-0.2-1.3-2.5-0.3-2.7-2c-0.1-1.3,1.8-1.4,2.7-0.9c0.3,0.2,0.5,0.4,0.5,0.8L182.1,51.2z"/>
<path d="M184.5,53.4c0,0.5,0.4,0.7,0.9,0.5v0.3v0.3c-0.7,0.2-1.6,0.1-1.6-0.9v-1.4v-1.4h-0.5v-0.3v-0.3h0.5l0.2-1h0.5v0.5v0.5h0.8
	v0.3v0.3h-0.8V52V53.4z"/>
<rect x="171" y="121.5" class="st4" width="63" height="13.5"/>
<polygon points="177.7,130.2 177.7,128.9 177.7,127.6 174.7,127.6 174.7,128.9 174.7,130.2 173.9,130.2 173.9,127.4 173.9,124.7 
	174.7,124.7 174.7,125.8 174.7,127 177.7,127 177.7,125.8 177.7,124.7 178.4,124.7 178.4,127.4 178.4,130.2 "/>
<polygon points="181.9,125.3 181.9,127.8 181.9,130.2 181.2,130.2 181.2,127.8 181.2,125.3 179.3,125.3 179.3,125 179.3,124.7 
	183.8,124.7 183.8,125 183.8,125.3 "/>
<polygon points="186.9,125.3 186.9,127.8 186.9,130.2 186.1,130.2 186.1,127.8 186.1,125.3 184.2,125.3 184.2,125 184.2,124.7 
	188.8,124.7 188.8,125 188.8,125.3 "/>
<path d="M190.3,127.5c1.3,0,2.8,0.2,2.8-1.1c0-1.3-1.5-1.1-2.8-1.1v1.1V127.5z M189.6,124.7c2,0,4.3-0.3,4.3,1.7
	c0,1.8-1.7,1.8-3.6,1.7v1.1v1.1h-0.7v-2.8V124.7z"/>
<path d="M174.7,137c1.3,0,3.1,0.3,3.1-1.1c0-1.4-1.8-0.9-3.1-1v1V137z M178.5,136c0,0.9-0.5,1.4-1.4,1.6l1.6,2.4h-0.9l-1.5-2.3h-1.7
	v1.2v1.2h-0.7v-2.8v-2.8C175.9,134.4,178.5,133.9,178.5,136z"/>
<path d="M182.5,137.4c0.1-1.3-1.7-1.7-2.2-0.6c-0.1,0.2-0.1,0.4-0.1,0.6H182.5z M181.3,135.6c1.4,0,1.9,0.9,1.9,2.4h-3
	c0,0.9,0.3,1.5,1.2,1.5c0.6,0,1-0.3,1.1-0.7l0.6,0.2c-0.2,0.6-0.8,1-1.7,1c-1.3,0-2-0.8-2-2.3C179.4,136.4,180,135.6,181.3,135.6z"
	/>
<path d="M186.6,136.7c-0.1-0.8-1.9-0.9-2,0c0.3,1.2,2.6,0.3,2.7,2c0.1,1.8-3.4,1.7-3.5,0.2l0.6-0.1c0.1,0.8,2.2,1,2.2,0
	c-0.2-1.3-2.5-0.3-2.7-2c-0.1-1.3,1.8-1.4,2.7-0.9c0.3,0.2,0.5,0.4,0.5,0.8L186.6,136.7z"/>
<path d="M190,139.5c0.9,0,1-0.8,1-1.7s-0.1-1.6-1-1.7c-0.9,0-1.1,0.7-1.1,1.7C188.9,138.8,189.1,139.5,190,139.5z M190.2,135.6
	c1.2,0,1.6,0.9,1.6,2.2s-0.4,2.2-1.6,2.3c-0.7,0-1.1-0.3-1.4-0.8l0,2.4h-0.7l0-6h0.7l0,0.7C189.1,135.9,189.5,135.6,190.2,135.6z"/>
<path d="M194.4,139.5c1,0,1.2-0.7,1.2-1.7c0-1-0.2-1.7-1.1-1.7s-1.2,0.7-1.2,1.7S193.4,139.5,194.4,139.5z M194.4,135.6
	c1.4,0,1.9,0.8,1.9,2.2c0,1.4-0.6,2.2-1.9,2.2s-1.9-0.9-1.9-2.2C192.5,136.3,193.1,135.6,194.4,135.6z"/>
<path d="M199.3,135.6c2-0.1,1.2,2.6,1.4,4.4h-0.7v-1.4v-1.4c0-0.7-0.2-1.1-0.9-1.1c-1.6,0-1,2.3-1.1,3.8h-0.7l0-4.3h0.7
	c0,0.2,0,0.5,0,0.7C198.1,135.9,198.5,135.6,199.3,135.6z"/>
<path d="M204.2,136.7c-0.1-0.8-1.9-0.9-2,0c0.3,1.2,2.6,0.3,2.7,2c0.1,1.8-3.4,1.7-3.5,0.2l0.6-0.1c0.1,0.8,2.2,1,2.2,0
	c-0.2-1.3-2.5-0.3-2.7-2c-0.1-1.3,1.8-1.4,2.7-0.9c0.3,0.2,0.5,0.4,0.5,0.8L204.2,136.7z"/>
<path d="M208.6,137.4c0.1-1.3-1.7-1.7-2.2-0.6c-0.1,0.2-0.1,0.4-0.1,0.6H208.6z M207.4,135.6c1.4,0,1.9,0.9,1.9,2.4h-3
	c0,0.9,0.3,1.5,1.2,1.5c0.6,0,1-0.3,1.1-0.7l0.6,0.2c-0.2,0.6-0.8,1-1.7,1c-1.3,0-2-0.8-2-2.3C205.5,136.4,206.1,135.6,207.4,135.6z
	"/>
</svg>
